<?xml version="1.0" encoding="UTF-8" standalone="no"?>
<svg
   xmlns:dc="http://purl.org/dc/elements/1.1/"
   xmlns:cc="http://creativecommons.org/ns#"
   xmlns:rdf="http://www.w3.org/1999/02/22-rdf-syntax-ns#"
   xmlns:svg="http://www.w3.org/2000/svg"
   xmlns="http://www.w3.org/2000/svg"
   xmlns:sodipodi="http://sodipodi.sourceforge.net/DTD/sodipodi-0.dtd"
   xmlns:inkscape="http://www.inkscape.org/namespaces/inkscape"
   width="328.85001mm"
   height="119.3mm"
   viewBox="0 0 328.85001 119.30001"
   version="1.1"
   id="svg24"
   sodipodi:docname="65_bottom.svg"
   inkscape:version="1.0.1 (3bc2e813f5, 2020-09-07)">
  <metadata
     id="metadata30">
    <rdf:RDF>
      <cc:Work
         rdf:about="">
        <dc:format>image/svg+xml</dc:format>
        <dc:type
           rdf:resource="http://purl.org/dc/dcmitype/StillImage" />
        <dc:title />
      </cc:Work>
    </rdf:RDF>
  </metadata>
  <defs
     id="defs28" />
  <sodipodi:namedview
     pagecolor="#ffffff"
     bordercolor="#666666"
     borderopacity="1"
     objecttolerance="10"
     gridtolerance="10"
     guidetolerance="10"
     inkscape:pageopacity="0"
     inkscape:pageshadow="2"
     inkscape:window-width="1920"
     inkscape:window-height="1017"
     id="namedview26"
     showgrid="false"
     inkscape:document-units="mm"
     inkscape:zoom="1.3565075"
     inkscape:cx="621.44883"
     inkscape:cy="225.44882"
     inkscape:window-x="-8"
     inkscape:window-y="32"
     inkscape:window-maximized="1"
     inkscape:current-layer="g997"
     inkscape:snap-nodes="false"
     inkscape:snap-object-midpoints="true"
     showguides="false"
     inkscape:guide-bbox="true"
     inkscape:snap-grids="true"
     inkscape:snap-to-guides="true"
     inkscape:snap-intersection-paths="true"
     inkscape:snap-smooth-nodes="false"
     inkscape:snap-bbox="true"
     inkscape:object-nodes="true"
     inkscape:snap-others="true"
     inkscape:snap-center="false"
     inkscape:snap-text-baseline="false"
     inkscape:snap-midpoints="false"
     inkscape:object-paths="true"
     inkscape:document-rotation="0">
    <sodipodi:guide
       position="164.525,59.550006"
       orientation="1,0"
       id="guide910" />
    <sodipodi:guide
       position="164.525,59.550006"
       orientation="0,-1"
       id="guide912" />
    <sodipodi:guide
       position="6.0999998,59.550007"
       orientation="1,0"
       id="guide923" />
    <sodipodi:guide
       position="6.0999998,113.20001"
       orientation="0,-1"
       id="guide927" />
    <sodipodi:guide
       position="322.95,59.550007"
       orientation="1,0"
       id="guide935" />
    <sodipodi:guide
       position="322.95,5.9000019"
       orientation="0,-1"
       id="guide939" />
    <sodipodi:guide
       position="238.34099,21.447006"
       orientation="1,0"
       id="guide96" />
    <sodipodi:guide
       position="238.34098,21.447007"
       orientation="0,-1"
       id="guide98" />
    <sodipodi:guide
       position="31.17244,102.12169"
       orientation="1,0"
       id="guide139" />
    <sodipodi:guide
       position="24.172439,107.20001"
       orientation="1,0"
       id="guide143" />
    <sodipodi:guide
       position="38.172439,107.20001"
       orientation="1,0"
       id="guide145" />
    <sodipodi:guide
       position="38.172439,117.20001"
       orientation="1,0"
       id="guide147" />
    <sodipodi:guide
       position="24.172439,117.20001"
       orientation="1,0"
       id="guide149" />
    <sodipodi:guide
       position="204.85994,33.496682"
       orientation="1,0"
       id="guide170" />
    <sodipodi:guide
       position="209.90994,33.496682"
       orientation="1,0"
       id="guide172" />
    <sodipodi:guide
       position="245.34119,14.446681"
       orientation="1,0"
       id="guide176" />
    <sodipodi:guide
       position="262.29699,14.447004"
       orientation="1,0"
       id="guide178" />
    <sodipodi:guide
       position="253.81898,13.616798"
       orientation="1,0"
       id="guide180" />
  </sodipodi:namedview>
  <g
     inkscape:groupmode="layer"
     id="g997"
     inkscape:label="case_holes_1.9-10"
     style="display:inline">
    <path
       id="circle981"
       style="fill:none;stroke:#000000;stroke-width:0.2;stroke-miterlimit:4;stroke-dasharray:none"
       d="m 8.1000004,59.75 a 1,1 0 0 1 -1,1 1,1 0 0 1 -1,-1 1,1 0 0 1 1,-1 1,1 0 0 1 1,1 z" />
    <path
       id="circle983"
       style="fill:none;stroke:#000000;stroke-width:0.2;stroke-miterlimit:4;stroke-dasharray:none"
       d="m 8.1000004,7.0999999 a 1,1 0 0 1 -1,1 1,1 0 0 1 -1,-1 1,1 0 0 1 1,-1 1,1 0 0 1 1,1 z" />
    <path
       id="circle985"
       style="fill:none;stroke:#000000;stroke-width:0.2;stroke-miterlimit:4;stroke-dasharray:none"
       d="m 165.52499,7.0999999 a 1,1 0 0 1 -1,1 1,1 0 0 1 -1,-1 1,1 0 0 1 1,-1 1,1 0 0 1 1,1 z" />
    <path
       id="circle987"
       style="fill:none;stroke:#000000;stroke-width:0.2;stroke-miterlimit:4;stroke-dasharray:none"
       d="m 322.95001,7.0999999 a 1,1 0 0 1 -1,1 1,1 0 0 1 -1,-1 1,1 0 0 1 1,-1 1,1 0 0 1 1,1 z" />
    <path
       id="circle989"
       style="fill:none;stroke:#000000;stroke-width:0.2;stroke-miterlimit:4;stroke-dasharray:none"
       d="m 322.95001,59.75 a 1,1 0 0 1 -1,1 1,1 0 0 1 -1,-1 1,1 0 0 1 1,-1 1,1 0 0 1 1,1 z" />
    <path
       id="circle991"
       style="fill:none;stroke:#000000;stroke-width:0.2;stroke-miterlimit:4;stroke-dasharray:none"
       d="m 322.95001,112.4 a 1,1 0 0 1 -1,1 1,1 0 0 1 -1,-1 1,1 0 0 1 1,-1 1,1 0 0 1 1,1 z" />
    <path
       id="circle993"
       style="fill:none;stroke:#000000;stroke-width:0.2;stroke-miterlimit:4;stroke-dasharray:none"
       d="m 165.52499,112.4 a 1,1 0 0 1 -1,1 1,1 0 0 1 -1,-1 1,1 0 0 1 1,-1 1,1 0 0 1 1,1 z" />
    <path
       id="circle995"
       style="fill:none;stroke:#000000;stroke-width:0.2;stroke-miterlimit:4;stroke-dasharray:none"
       d="m 8.0999999,112.4 a 1,1 0 0 1 -1,1 1,1 0 0 1 -1,-1 1,1 0 0 1 1,-1 1,1 0 0 1 1,1 z" />
  </g>
  <path
     id="rect908"
     style="display:inline;fill:none;stroke:#000000;stroke-width:0.2;stroke-miterlimit:4;stroke-dasharray:none"
     inkscape:label="outer"
     d="M 4.5999999,2.0999999 H 324.45001 c 1.385,0 2.5,1.115 2.5,2.5 V 114.9 c 0,1.385 -1.115,2.5 -2.5,2.5 H 4.5999999 c -1.385,0 -2.5,-1.115 -2.5,-2.5 V 4.5999999 c 0,-1.385 1.115,-2.5 2.5,-2.5 z" />
  <g
     inkscape:groupmode="layer"
     id="layer3"
     inkscape:label="pcb_holders"
     style="display:inline">
    <path
       id="path1036"
       style="fill:none;stroke:#000000;stroke-width:0.2;stroke-miterlimit:4;stroke-dasharray:none"
       d="m 172.80065,98.301392 a 0.94999999,0.94999999 0 0 1 -0.95,0.95 0.94999999,0.94999999 0 0 1 -0.95,-0.95 0.94999999,0.94999999 0 0 1 0.95,-0.95 0.94999999,0.94999999 0 0 1 0.95,0.95 z" />
    <path
       id="circle1038"
       style="fill:none;stroke:#000000;stroke-width:0.2;stroke-miterlimit:4;stroke-dasharray:none"
       d="m 255.07209,97.358452 a 0.94999999,0.94999999 0 0 1 -0.95,0.95 0.94999999,0.94999999 0 0 1 -0.95,-0.95 0.94999999,0.94999999 0 0 1 0.95,-0.95 0.94999999,0.94999999 0 0 1 0.95,0.95 z" />
    <path
       id="circle1040"
       style="fill:none;stroke:#000000;stroke-width:0.2;stroke-miterlimit:4;stroke-dasharray:none"
       d="m 275.81676,78.735405 a 0.94999999,0.94999999 0 0 1 -0.95,0.95 0.94999999,0.94999999 0 0 1 -0.95,-0.95 0.94999999,0.94999999 0 0 1 0.95,-0.95 0.94999999,0.94999999 0 0 1 0.95,0.95 z" />
    <path
       id="circle1042"
       style="fill:none;stroke:#000000;stroke-width:0.2;stroke-miterlimit:4;stroke-dasharray:none"
       d="m 54.46181,78.735405 a 0.94999999,0.94999999 0 0 1 -0.95,0.95 0.94999999,0.94999999 0 0 1 -0.95,-0.95 0.94999999,0.94999999 0 0 1 0.95,-0.95 0.94999999,0.94999999 0 0 1 0.95,0.95 z" />
    <path
       id="circle1044"
       style="fill:none;stroke:#000000;stroke-width:0.2;stroke-miterlimit:4;stroke-dasharray:none"
       d="m 262.14415,21.451855 a 0.94999999,0.94999999 0 0 1 -0.95,0.95 0.94999999,0.94999999 0 0 1 -0.95,-0.95 0.94999999,0.94999999 0 0 1 0.95,-0.95 0.94999999,0.94999999 0 0 1 0.95,0.95 z" />
    <path
       id="circle1046"
       style="fill:none;stroke:#000000;stroke-width:0.2;stroke-miterlimit:4;stroke-dasharray:none"
       d="m 257.42946,59.75 a 0.94999999,0.94999999 0 0 1 -0.95,0.95 0.94999999,0.94999999 0 0 1 -0.95,-0.95 0.94999999,0.94999999 0 0 1 0.95,-0.95 0.94999999,0.94999999 0 0 1 0.95,0.95 z" />
    <path
       id="circle1048"
       style="fill:none;stroke:#000000;stroke-width:0.2;stroke-miterlimit:4;stroke-dasharray:none"
       d="m 179.87273,51.499283 a 0.94999999,0.94999999 0 0 1 -0.95,0.95 0.94999999,0.94999999 0 0 1 -0.95,-0.95 0.94999999,0.94999999 0 0 1 0.95,-0.95 0.94999999,0.94999999 0 0 1 0.95,0.95 z" />
    <path
       id="circle1050"
       style="fill:none;stroke:#000000;stroke-width:0.2;stroke-miterlimit:4;stroke-dasharray:none"
       d="m 70.020312,29.231102 a 0.94999999,0.94999999 0 0 1 -0.95,0.95 0.94999999,0.94999999 0 0 1 -0.949999,-0.95 0.94999999,0.94999999 0 0 1 0.949999,-0.95 0.94999999,0.94999999 0 0 1 0.95,0.95 z" />
  </g>
</svg>
