<?xml version="1.0" encoding="UTF-8" standalone="no"?>
<svg
   xmlns:dc="http://purl.org/dc/elements/1.1/"
   xmlns:cc="http://creativecommons.org/ns#"
   xmlns:rdf="http://www.w3.org/1999/02/22-rdf-syntax-ns#"
   xmlns:svg="http://www.w3.org/2000/svg"
   xmlns="http://www.w3.org/2000/svg"
   xmlns:sodipodi="http://sodipodi.sourceforge.net/DTD/sodipodi-0.dtd"
   xmlns:inkscape="http://www.inkscape.org/namespaces/inkscape"
   width="328.85001mm"
   height="119.3mm"
   viewBox="0 0 328.85001 119.30001"
   version="1.1"
   id="svg24"
   sodipodi:docname="65_switches.svg"
   inkscape:version="1.0.1 (3bc2e813f5, 2020-09-07)">
  <metadata
     id="metadata30">
    <rdf:RDF>
      <cc:Work
         rdf:about="">
        <dc:format>image/svg+xml</dc:format>
        <dc:type
           rdf:resource="http://purl.org/dc/dcmitype/StillImage" />
        <dc:title />
      </cc:Work>
    </rdf:RDF>
  </metadata>
  <defs
     id="defs28" />
  <sodipodi:namedview
     pagecolor="#ffffff"
     bordercolor="#666666"
     borderopacity="1"
     objecttolerance="10"
     gridtolerance="10"
     guidetolerance="10"
     inkscape:pageopacity="0"
     inkscape:pageshadow="2"
     inkscape:window-width="1920"
     inkscape:window-height="1017"
     id="namedview26"
     showgrid="false"
     inkscape:document-units="mm"
     inkscape:zoom="1.3565075"
     inkscape:cx="621.44883"
     inkscape:cy="225.44882"
     inkscape:window-x="-8"
     inkscape:window-y="32"
     inkscape:window-maximized="1"
     inkscape:current-layer="svg24"
     inkscape:snap-nodes="true"
     inkscape:snap-object-midpoints="true"
     showguides="false"
     inkscape:guide-bbox="true"
     inkscape:snap-grids="true"
     inkscape:snap-to-guides="true"
     inkscape:snap-intersection-paths="true"
     inkscape:snap-smooth-nodes="true"
     inkscape:snap-bbox="true"
     inkscape:object-nodes="true"
     inkscape:snap-others="true"
     inkscape:snap-center="false"
     inkscape:snap-text-baseline="false"
     inkscape:snap-midpoints="false"
     inkscape:object-paths="false"
     inkscape:document-rotation="0">
    <sodipodi:guide
       position="164.525,59.550006"
       orientation="1,0"
       id="guide910" />
    <sodipodi:guide
       position="164.525,59.550006"
       orientation="0,-1"
       id="guide912" />
    <sodipodi:guide
       position="6.0999998,59.550007"
       orientation="1,0"
       id="guide923" />
    <sodipodi:guide
       position="6.0999998,113.20001"
       orientation="0,-1"
       id="guide927" />
    <sodipodi:guide
       position="322.95,59.550007"
       orientation="1,0"
       id="guide935" />
    <sodipodi:guide
       position="322.95,5.9000019"
       orientation="0,-1"
       id="guide939" />
    <sodipodi:guide
       position="238.34099,21.447006"
       orientation="1,0"
       id="guide96" />
    <sodipodi:guide
       position="238.34098,21.447007"
       orientation="0,-1"
       id="guide98" />
    <sodipodi:guide
       position="31.17244,102.12169"
       orientation="1,0"
       id="guide139" />
    <sodipodi:guide
       position="24.172439,107.20001"
       orientation="1,0"
       id="guide143" />
    <sodipodi:guide
       position="38.172439,107.20001"
       orientation="1,0"
       id="guide145" />
    <sodipodi:guide
       position="38.172439,117.20001"
       orientation="1,0"
       id="guide147" />
    <sodipodi:guide
       position="24.172439,117.20001"
       orientation="1,0"
       id="guide149" />
    <sodipodi:guide
       position="204.85994,33.496682"
       orientation="1,0"
       id="guide170" />
    <sodipodi:guide
       position="209.90994,33.496682"
       orientation="1,0"
       id="guide172" />
    <sodipodi:guide
       position="245.34119,14.446681"
       orientation="1,0"
       id="guide176" />
    <sodipodi:guide
       position="262.29699,14.447004"
       orientation="1,0"
       id="guide178" />
    <sodipodi:guide
       position="253.81898,13.616798"
       orientation="1,0"
       id="guide180" />
  </sodipodi:namedview>
  <g
     id="svgGroup"
     stroke-linecap="round"
     fill-rule="evenodd"
     font-size="12px"
     stroke="#000"
     stroke-width="0.25mm"
     fill="none"
     style="display:inline;fill:none;stroke:#000000;stroke-width:0.2;stroke-miterlimit:4;stroke-dasharray:none"
     transform="translate(14.525441,11.901323)">
    <path
       d="m 121.56575,92.952 h 14 v -13.8 h 39.5 v 15.749677 c 0,0.276142 0.22386,0.5 0.5,0.5 h 6 c 0.27614,0 0.5,-0.223858 0.5,-0.5 V 76.052 c 0,-0.276142 -0.22386,-0.5 -0.5,-0.5 h -3.5 -2.5 -94 -2.5 -3.5 c -0.276142,0 -0.5,0.223858 -0.5,0.5 v 18.849677 c 0,0.276142 0.223858,0.5 0.5,0.5 h 6 c 0.276142,0 0.5,-0.223858 0.5,-0.5 V 79.152 h 39.5 z M 271.297,2.752 h -14 v 13.8 h -1.438 V 0.80067702 c 0,-0.27614241 -0.22386,-0.50000004 -0.5,-0.50000004 h -6 c -0.27614,0 -0.5,0.22385763 -0.5,0.50000004 V 19.652 c 0,0.276142 0.22386,0.5 0.5,0.5 h 3.5 2.5 17.876 2.5 3.5 c 0.27614,0 0.5,-0.223858 0.5,-0.5 V 0.80067702 c 0,-0.27614241 -0.22386,-0.50000004 -0.5,-0.50000004 h -6 c -0.27614,0 -0.5,0.22385763 -0.5,0.50000004 V 16.552 h -1.438 z m -2.38125,38.1 h -14 v 13.8 h -1.438 v -16.05 c 0,-0.276142 -0.22386,-0.5 -0.5,-0.5 h -6 c -0.27614,0 -0.5,0.223858 -0.5,0.5 v 19.15 c 0,0.276142 0.22386,0.5 0.5,0.5 h 3.5 2.5 17.876 2.5 3.5 c 0.27614,0 0.5,-0.223858 0.5,-0.5 v -19.15 c 0,-0.276142 -0.22386,-0.5 -0.5,-0.5 h -6 c -0.27614,0 -0.5,0.223858 -0.5,0.5 v 16.05 h -1.438 z m -242.8875,19.05 h -14 v 13.8 h -1.438 v -16.05 c 0,-0.276142 -0.223858,-0.5 -0.5,-0.5 h -6 c -0.2761424,0 -0.5,0.223858 -0.5,0.5 v 19.15 c 0,0.276142 0.2238576,0.5 0.5,0.5 h 3.5 2.5 17.876 2.5 3.5 c 0.276142,0 0.5,-0.223858 0.5,-0.5 v -19.15 c 0,-0.276142 -0.223858,-0.5 -0.5,-0.5 h -6 c -0.276142,0 -0.5,0.223858 -0.5,0.5 v 16.05 h -1.438 z M 0.12199996,16.752 H 14.122 v -14 H 0.12199996 Z m 19.05000004,0 h 14 v -14 h -14 z m 19.05,0 h 14 v -14 h -14 z m 19.05,0 h 14 v -14 h -14 z m 19.05,0 h 14 v -14 h -14 z m 19.05,0 h 14 v -14 h -14 z m 19.05,0 h 14 v -14 h -14 z m 19.05,0 h 14 v -14 h -14 z m 19.05,0 h 14 v -14 h -14 z m 19.05,0 h 14 v -14 h -14 z m 19.05,0 h 14 v -14 h -14 z m 19.05,0 h 14 v -14 h -14 z m 19.05,0 h 14 v -14 h -14 z m 57.15,0 h 14 v -14 h -14 z M 4.8845,35.802 h 14 v -14 h -14 z m 23.8125,0 h 14 v -14 h -14 z m 19.05,0 h 14 v -14 h -14 z m 19.05,0 h 14 v -14 h -14 z m 19.05,0 h 14 v -14 h -14 z m 19.05,0 h 14 v -14 h -14 z m 19.05,0 h 14 v -14 h -14 z m 19.05,0 h 14 v -14 h -14 z m 19.05,0 h 14 v -14 h -14 z m 19.05,0 h 14 v -14 h -14 z m 19.05,0 h 14 v -14 h -14 z m 19.05,0 h 14 v -14 h -14 z m 19.05,0 h 14 v -14 h -14 z m 23.8125,0 h 14 v -14 h -14 z m 23.8125,0 h 14 v -14 h -14 z M 7.26575,54.852 h 14 v -14 h -14 z m 26.19375,0 h 14 v -14 h -14 z m 19.05,0 h 14 v -14 h -14 z m 19.05,0 h 14 v -14 h -14 z m 19.05,0 h 14 v -14 h -14 z m 19.05,0 h 14 v -14 h -14 z m 19.05,0 h 14 v -14 h -14 z m 19.05,0 h 14 v -14 h -14 z m 19.05,0 h 14 v -14 h -14 z m 19.05,0 h 14 v -14 h -14 z m 19.05,0 h 14 v -14 h -14 z m 19.05,0 h 14 v -14 h -14 z m 61.9125,0 h 14 v -14 h -14 z M 42.9845,73.902 h 14 v -14 h -14 z m 19.05,0 h 14 v -14 h -14 z m 19.05,0 h 14 v -14 h -14 z m 19.05,0 h 14 v -14 h -14 z m 19.05,0 h 14 v -14 h -14 z m 19.05,0 h 14 v -14 h -14 z m 19.05,0 h 14 v -14 h -14 z m 19.05,0 h 14 v -14 h -14 z m 19.05,0 h 14 v -14 h -14 z m 19.05,0 h 14 v -14 h -14 z m 26.19375,0 h 14 v -14 h -14 z m 26.19375,0 h 14 v -14 h -14 z m 19.05,0 h 14 v -14 h -14 z M 2.50325,92.952 h 14 v -14 h -14 z m 23.8125,0 h 14 v -14 h -14 z m 23.8125,0 h 14 v -14 h -14 z m 142.875,0 h 14 v -14 h -14 z m 23.8125,0 h 14 v -14 h -14 z m 30.95581,-3.23e-4 h 14 v -14 h -14 z M 266.822,92.952 h 14 v -14 h -14 z m 19.05,0 h 14 v -14 h -14 z"
       vector-effect="non-scaling-stroke"
       id="path21"
       sodipodi:nodetypes="ccccssssssccccsssssscccccccssssssccccsssssscccccccssssssccccsssssscccccccssssssccccsssssscccccccccccccccccccccccccccccccccccccccccccccccccccccccccccccccccccccccccccccccccccccccccccccccccccccccccccccccccccccccccccccccccccccccccccccccccccccccccccccccccccccccccccccccccccccccccccccccccccccccccccccccccccccccccccccccccccccccccccccccccccccccccccccccccccccccccccccccccccccccccccccccccccccccccccccccccccccccccccccc"
       style="display:inline;stroke-width:0.2;stroke-miterlimit:4;stroke-dasharray:none" />
  </g>
  <g
     inkscape:groupmode="layer"
     id="g1015"
     inkscape:label="case_holes_3-10"
     style="display:inline">
    <path
       id="circle999"
       style="fill:none;stroke:#000000;stroke-width:0.2;stroke-miterlimit:4;stroke-dasharray:none"
       d="m 8.7500004,59.75 a 1.65,1.65 0 0 1 -1.65,1.65 1.65,1.65 0 0 1 -1.65,-1.65 1.65,1.65 0 0 1 1.65,-1.65 1.65,1.65 0 0 1 1.65,1.65 z" />
    <path
       id="circle1001"
       style="fill:none;stroke:#000000;stroke-width:0.2;stroke-miterlimit:4;stroke-dasharray:none"
       d="m 8.7500004,7.0999999 a 1.65,1.65 0 0 1 -1.65,1.65 1.65,1.65 0 0 1 -1.65,-1.65 1.65,1.65 0 0 1 1.65,-1.65 1.65,1.65 0 0 1 1.65,1.65 z" />
    <path
       id="circle1003"
       style="fill:none;stroke:#000000;stroke-width:0.2;stroke-miterlimit:4;stroke-dasharray:none"
       d="m 166.17499,7.0999999 a 1.65,1.65 0 0 1 -1.65,1.65 1.65,1.65 0 0 1 -1.65,-1.65 1.65,1.65 0 0 1 1.65,-1.65 1.65,1.65 0 0 1 1.65,1.65 z" />
    <path
       id="circle1005"
       style="fill:none;stroke:#000000;stroke-width:0.2;stroke-miterlimit:4;stroke-dasharray:none"
       d="m 323.60001,7.0999999 a 1.65,1.65 0 0 1 -1.65,1.65 1.65,1.65 0 0 1 -1.65,-1.65 1.65,1.65 0 0 1 1.65,-1.65 1.65,1.65 0 0 1 1.65,1.65 z" />
    <path
       id="circle1007"
       style="fill:none;stroke:#000000;stroke-width:0.2;stroke-miterlimit:4;stroke-dasharray:none"
       d="m 323.60001,59.75 a 1.65,1.65 0 0 1 -1.65,1.65 1.65,1.65 0 0 1 -1.65,-1.65 1.65,1.65 0 0 1 1.65,-1.65 1.65,1.65 0 0 1 1.65,1.65 z" />
    <path
       id="circle1009"
       style="fill:none;stroke:#000000;stroke-width:0.2;stroke-miterlimit:4;stroke-dasharray:none"
       d="m 323.60001,112.4 a 1.65,1.65 0 0 1 -1.65,1.65 1.65,1.65 0 0 1 -1.65,-1.65 1.65,1.65 0 0 1 1.65,-1.65 1.65,1.65 0 0 1 1.65,1.65 z" />
    <path
       id="circle1011"
       style="fill:none;stroke:#000000;stroke-width:0.2;stroke-miterlimit:4;stroke-dasharray:none"
       d="m 166.17499,112.4 a 1.65,1.65 0 0 1 -1.65,1.65 1.65,1.65 0 0 1 -1.65,-1.65 1.65,1.65 0 0 1 1.65,-1.65 1.65,1.65 0 0 1 1.65,1.65 z" />
    <path
       id="circle1013"
       style="fill:none;stroke:#000000;stroke-width:0.2;stroke-miterlimit:4;stroke-dasharray:none"
       d="m 8.7499999,112.4 a 1.65,1.65 0 0 1 -1.65,1.65 1.65,1.65 0 0 1 -1.65,-1.65 1.65,1.65 0 0 1 1.65,-1.65 1.65,1.65 0 0 1 1.65,1.65 z" />
  </g>
  <path
     id="rect908"
     style="display:inline;fill:none;stroke:#000000;stroke-width:0.2;stroke-miterlimit:4;stroke-dasharray:none"
     inkscape:label="outer"
     d="M 4.5999999,2.0999999 H 324.45001 c 1.385,0 2.5,1.115 2.5,2.5 V 114.9 c 0,1.385 -1.115,2.5 -2.5,2.5 H 4.5999999 c -1.385,0 -2.5,-1.115 -2.5,-2.5 V 4.5999999 c 0,-1.385 1.115,-2.5 2.5,-2.5 z" />
</svg>
