<?xml version="1.0" encoding="UTF-8" standalone="no"?>
<svg
   xmlns:dc="http://purl.org/dc/elements/1.1/"
   xmlns:cc="http://creativecommons.org/ns#"
   xmlns:rdf="http://www.w3.org/1999/02/22-rdf-syntax-ns#"
   xmlns:svg="http://www.w3.org/2000/svg"
   xmlns="http://www.w3.org/2000/svg"
   xmlns:sodipodi="http://sodipodi.sourceforge.net/DTD/sodipodi-0.dtd"
   xmlns:inkscape="http://www.inkscape.org/namespaces/inkscape"
   width="328.85001mm"
   height="119.3mm"
   viewBox="0 0 328.85001 119.30001"
   version="1.1"
   id="svg24"
   sodipodi:docname="all_layers.svg"
   inkscape:version="1.0.1 (3bc2e813f5, 2020-09-07)">
  <metadata
     id="metadata30">
    <rdf:RDF>
      <cc:Work
         rdf:about="">
        <dc:format>image/svg+xml</dc:format>
        <dc:type
           rdf:resource="http://purl.org/dc/dcmitype/StillImage" />
        <dc:title />
      </cc:Work>
    </rdf:RDF>
  </metadata>
  <defs
     id="defs28" />
  <sodipodi:namedview
     pagecolor="#ffffff"
     bordercolor="#666666"
     borderopacity="1"
     objecttolerance="10"
     gridtolerance="10"
     guidetolerance="10"
     inkscape:pageopacity="0"
     inkscape:pageshadow="2"
     inkscape:window-width="1920"
     inkscape:window-height="1017"
     id="namedview26"
     showgrid="false"
     inkscape:document-units="mm"
     inkscape:zoom="1.1465143"
     inkscape:cx="621.44883"
     inkscape:cy="225.44882"
     inkscape:window-x="-8"
     inkscape:window-y="32"
     inkscape:window-maximized="1"
     inkscape:current-layer="layer3"
     inkscape:snap-nodes="true"
     inkscape:snap-object-midpoints="true"
     showguides="false"
     inkscape:guide-bbox="true"
     inkscape:snap-grids="true"
     inkscape:snap-to-guides="true"
     inkscape:snap-intersection-paths="true"
     inkscape:snap-smooth-nodes="true"
     inkscape:snap-bbox="true"
     inkscape:object-nodes="false"
     inkscape:snap-others="true"
     inkscape:snap-center="false"
     inkscape:snap-text-baseline="false"
     inkscape:snap-midpoints="false"
     inkscape:object-paths="false"
     inkscape:document-rotation="0">
    <sodipodi:guide
       position="31.17244,102.12169"
       orientation="1,0"
       id="guide139" />
    <sodipodi:guide
       position="24.172439,107.20001"
       orientation="1,0"
       id="guide143" />
    <sodipodi:guide
       position="38.172439,107.20001"
       orientation="1,0"
       id="guide145" />
    <sodipodi:guide
       position="38.172439,117.20001"
       orientation="1,0"
       id="guide147" />
    <sodipodi:guide
       position="24.172439,117.20001"
       orientation="1,0"
       id="guide149" />
    <sodipodi:guide
       position="164.725,59.350009"
       orientation="1,0"
       id="guide135" />
    <sodipodi:guide
       position="164.725,59.350009"
       orientation="0,-1"
       id="guide137" />
    <sodipodi:guide
       position="164.725,6.900002"
       orientation="0,-1"
       id="guide140" />
    <sodipodi:guide
       position="164.725,112.20001"
       orientation="0,-1"
       id="guide142" />
    <sodipodi:guide
       position="7.1000002,59.350006"
       orientation="1,0"
       id="guide144" />
    <sodipodi:guide
       position="322.35,59.350006"
       orientation="1,0"
       id="guide146" />
  </sodipodi:namedview>
  <g
     id="svgGroup"
     stroke-linecap="round"
     fill-rule="evenodd"
     font-size="12px"
     stroke="#000"
     stroke-width="0.25mm"
     fill="none"
     style="display:inline;fill:none;stroke:#000000;stroke-width:0.2;stroke-miterlimit:4;stroke-dasharray:none"
     transform="translate(14.728441,12.099323)">
    <path
       d="m 121.56575,92.950029 h 14 V 79.150173 h 39.5 v 16.04951 c 0,0.276139 0.22386,0.499994 0.5,0.499994 h 6 c 0.27614,0 0.5,-0.223855 0.5,-0.499994 V 76.050206 c 0,-0.27614 -0.22386,-0.499995 -0.5,-0.499995 h -3.5 -2.5 -94 -2.5 -3.5 c -0.276142,0 -0.5,0.223855 -0.5,0.499995 v 19.149477 c 0,0.276139 0.223858,0.499994 0.5,0.499994 h 6 c 0.276142,0 0.5,-0.223855 0.5,-0.499994 v -16.04951 h 39.5 z M 271.297,2.7509708 h -14 V 16.550827 h -1.438 V 0.49967132 c 0,-0.27613953 -0.22386,-0.4999948177 -0.5,-0.4999948177 h -6 c -0.27614,0 -0.5,0.2238552877 -0.5,0.4999948177 V 19.650794 c 0,0.276139 0.22386,0.499995 0.5,0.499995 h 3.5 2.5 17.876 2.5 3.5 c 0.27614,0 0.5,-0.223856 0.5,-0.499995 V 0.49967132 c 0,-0.27613953 -0.22386,-0.4999948177 -0.5,-0.4999948177 h -6 c -0.27614,0 -0.5,0.2238552877 -0.5,0.4999948177 V 16.550827 h -1.438 z m -2.38125,38.0996022 h -14 v 13.799856 h -1.438 V 38.600597 c 0,-0.27614 -0.22386,-0.499995 -0.5,-0.499995 h -6 c -0.27614,0 -0.5,0.223855 -0.5,0.499995 v 19.1498 c 0,0.276139 0.22386,0.499994 0.5,0.499994 h 3.5 2.5 17.876 2.5 3.5 c 0.27614,0 0.5,-0.223855 0.5,-0.499994 v -19.1498 c 0,-0.27614 -0.22386,-0.499995 -0.5,-0.499995 h -6 c -0.27614,0 -0.5,0.223855 -0.5,0.499995 v 16.049832 h -1.438 z M 26.02825,59.900374 h -14 V 73.70023 h -1.438 V 57.650398 c 0,-0.276139 -0.223858,-0.499995 -0.5,-0.499995 H 4.0902495 c -0.2761424,0 -0.5,0.223856 -0.5,0.499995 v 19.1498 c 0,0.276139 0.2238576,0.499995 0.5,0.499995 h 3.5 2.5000005 17.876 2.5 3.5 c 0.276142,0 0.5,-0.223856 0.5,-0.499995 v -19.1498 c 0,-0.276139 -0.223858,-0.499995 -0.5,-0.499995 h -6 c -0.276142,0 -0.5,0.223856 -0.5,0.499995 V 73.70023 h -1.438 z M 0.12199944,16.750825 H 14.122 V 2.7509708 H 0.12199944 Z m 19.05000056,0 h 14 V 2.7509708 h -14 z m 19.05,0 h 14 V 2.7509708 h -14 z m 19.05,0 h 14 V 2.7509708 h -14 z m 19.05,0 h 14 V 2.7509708 h -14 z m 19.05,0 h 14 V 2.7509708 h -14 z m 19.05,0 h 14 V 2.7509708 h -14 z m 19.05,0 h 14 V 2.7509708 h -14 z m 19.05,0 h 14 V 2.7509708 h -14 z m 19.05,0 h 14 V 2.7509708 h -14 z m 19.05,0 h 14 V 2.7509708 h -14 z m 19.05,0 h 14 V 2.7509708 h -14 z m 19.05,0 h 14 V 2.7509708 h -14 z m 57.15,0 h 14 V 2.7509708 h -14 z M 4.8844995,35.800626 H 18.8845 V 21.800772 H 4.8844995 Z m 23.8125005,0 h 14 V 21.800772 h -14 z m 19.05,0 h 14 V 21.800772 h -14 z m 19.05,0 h 14 V 21.800772 h -14 z m 19.05,0 h 14 V 21.800772 h -14 z m 19.05,0 h 14 V 21.800772 h -14 z m 19.05,0 h 14 V 21.800772 h -14 z m 19.05,0 h 14 V 21.800772 h -14 z m 19.05,0 h 14 V 21.800772 h -14 z m 19.05,0 h 14 V 21.800772 h -14 z m 19.05,0 h 14 V 21.800772 h -14 z m 19.05,0 h 14 V 21.800772 h -14 z m 19.05,0 h 14 V 21.800772 h -14 z m 23.8125,0 h 14 V 21.800772 h -14 z m 23.8125,0 h 14 V 21.800772 h -14 z M 7.2657495,54.850427 H 21.26575 V 40.850573 H 7.2657495 Z m 26.1937505,0 h 14 V 40.850573 h -14 z m 19.05,0 h 14 V 40.850573 h -14 z m 19.05,0 h 14 V 40.850573 h -14 z m 19.05,0 h 14 V 40.850573 h -14 z m 19.05,0 h 14 V 40.850573 h -14 z m 19.05,0 h 14 V 40.850573 h -14 z m 19.05,0 h 14 V 40.850573 h -14 z m 19.05,0 h 14 V 40.850573 h -14 z m 19.05,0 h 14 V 40.850573 h -14 z m 19.05,0 h 14 V 40.850573 h -14 z m 19.05,0 h 14 V 40.850573 h -14 z m 61.9125,0 h 14 V 40.850573 h -14 z M 42.9845,73.900228 h 14 V 59.900374 h -14 z m 19.05,0 h 14 V 59.900374 h -14 z m 19.05,0 h 14 V 59.900374 h -14 z m 19.05,0 h 14 V 59.900374 h -14 z m 19.05,0 h 14 V 59.900374 h -14 z m 19.05,0 h 14 V 59.900374 h -14 z m 19.05,0 h 14 V 59.900374 h -14 z m 19.05,0 h 14 V 59.900374 h -14 z m 19.05,0 h 14 V 59.900374 h -14 z m 19.05,0 h 14 V 59.900374 h -14 z m 26.19375,0 h 14 V 59.900374 l -14,-3.23e-4 z m 26.19375,0 h 14 V 59.900374 h -14 z m 19.05,0 h 14 V 59.900374 h -14 z M 2.5032495,92.950029 H 16.50325 V 78.950175 L 2.503559,78.949677 Z m 23.8125005,0 h 14 V 78.950175 h -14 z m 23.8125,0 h 14 V 78.950175 h -14 z m 142.875,0 h 14 V 78.950175 h -14 z m 23.8125,0 h 14 V 78.950175 h -14 z m 30.95581,-3.23e-4 h 14 V 78.949852 h -14 z m 19.05044,3.23e-4 h 14 V 78.950175 h -14 z m 19.05,0 h 14 V 78.950175 h -14 z"
       vector-effect="non-scaling-stroke"
       id="path21"
       sodipodi:nodetypes="ccccssssssccccsssssscccccccssssssccccsssssscccccccssssssccccsssssscccccccssssssccccsssssscccccccccccccccccccccccccccccccccccccccccccccccccccccccccccccccccccccccccccccccccccccccccccccccccccccccccccccccccccccccccccccccccccccccccccccccccccccccccccccccccccccccccccccccccccccccccccccccccccccccccccccccccccccccccccccccccccccccccccccccccccccccccccccccccccccccccccccccccccccccccccccccccccccccccccccccccccccccccccccc"
       style="display:inline;stroke-width:0.199999;stroke-miterlimit:4;stroke-dasharray:none" />
    <g
       id="g129"
       inkscape:label="keycap_references"
       style="display:none"
       transform="translate(0,-9.9970697e-4)">
      <rect
         style="display:inline;fill:none;stroke:#000000;stroke-width:0.2;stroke-miterlimit:4;stroke-dasharray:none"
         id="rect88"
         width="14"
         height="14"
         x="247.77156"
         y="78.951675"
         inkscape:label="left_switch" />
      <rect
         style="display:inline;fill:none;stroke:#000000;stroke-width:0.2;stroke-miterlimit:4;stroke-dasharray:none"
         id="rect90"
         width="19.5"
         height="19.5"
         x="245.02155"
         y="76.201675"
         inkscape:label="left_space" />
      <path
         id="rect118"
         style="display:inline;fill:none;stroke:#000000;stroke-width:0.2;stroke-miterlimit:4;stroke-dasharray:none"
         inkscape:label="left_space_object"
         d="m 245.02156,76.201677 19.49999,-2e-6 v 19.5 h -19.5 z"
         sodipodi:nodetypes="ccccc" />
      <rect
         style="display:inline;fill:none;stroke:#000000;stroke-width:0.2;stroke-miterlimit:4;stroke-dasharray:none"
         id="rect92"
         width="14"
         height="14"
         x="216.81555"
         y="78.951675"
         inkscape:label="fn_switch" />
      <rect
         style="display:inline;fill:none;stroke:#000000;stroke-width:0.2;stroke-miterlimit:4;stroke-dasharray:none"
         id="rect94"
         width="24.254999"
         height="19.5"
         x="211.68805"
         y="76.201675"
         inkscape:label="fn_space" />
      <path
         id="rect115"
         style="display:inline;fill:none;stroke:#000000;stroke-width:0.2;stroke-miterlimit:4;stroke-dasharray:none"
         inkscape:label="fn_space_object"
         d="m 211.68805,76.201675 h 24.25451 l 4.9e-4,19.5 h -24.255 z"
         sodipodi:nodetypes="ccccc" />
      <rect
         style="display:inline;fill:none;stroke:#000000;stroke-width:0.2;stroke-miterlimit:4;stroke-dasharray:none"
         id="rect96"
         width="14"
         height="14"
         x="228.72156"
         y="2.751677"
         inkscape:label="=_switch" />
      <rect
         style="display:inline;fill:none;stroke:#000000;stroke-width:0.2;stroke-miterlimit:4;stroke-dasharray:none"
         id="rect98"
         width="19.5"
         height="19.5"
         x="225.97156"
         y="0.0016769171"
         inkscape:label="=_space" />
      <rect
         style="display:inline;fill:none;stroke:#000000;stroke-width:0.2;stroke-miterlimit:4;stroke-dasharray:none"
         id="rect100"
         width="14"
         height="14"
         x="285.87155"
         y="2.751677"
         inkscape:label="home_switch" />
      <rect
         style="display:inline;fill:none;stroke:#000000;stroke-width:0.2;stroke-miterlimit:4;stroke-dasharray:none"
         id="rect102"
         width="19.5"
         height="19.5"
         x="283.12155"
         y="0.0016770065"
         inkscape:label="home_space" />
      <path
         id="rect132"
         style="display:inline;fill:none;stroke:#000000;stroke-width:0.2;stroke-miterlimit:4;stroke-dasharray:none"
         inkscape:label="home_space_object"
         d="m 283.12155,0.00167701 h 19.5 V 19.501677 h -19.5 z" />
      <rect
         style="display:inline;fill:none;stroke:#000000;stroke-width:0.2;stroke-miterlimit:4;stroke-dasharray:none"
         id="rect158"
         width="14"
         height="14"
         x="266.82156"
         y="78.951675"
         inkscape:label="down_switch" />
      <rect
         style="display:inline;fill:none;stroke:#000000;stroke-width:0.2;stroke-miterlimit:4;stroke-dasharray:none"
         id="rect160"
         width="19.5"
         height="19.5"
         x="264.07156"
         y="76.201675"
         inkscape:label="down_space" />
      <rect
         style="display:inline;fill:none;stroke:#000000;stroke-width:0.2;stroke-miterlimit:4;stroke-dasharray:none"
         id="rect107"
         width="14"
         height="14"
         x="0.121559"
         y="2.751677"
         inkscape:label="`_switch" />
      <rect
         style="display:inline;fill:none;stroke:#000000;stroke-width:0.2;stroke-miterlimit:4;stroke-dasharray:none"
         id="rect109"
         width="19.5"
         height="19.5"
         x="-2.6284406"
         y="0.0016767085"
         inkscape:label="`_space" />
      <rect
         style="display:inline;fill:none;stroke:#000000;stroke-width:0.2;stroke-miterlimit:4;stroke-dasharray:none"
         id="rect111"
         width="14"
         height="14"
         x="2.5035591"
         y="78.950676"
         inkscape:label="cmd_switch" />
      <path
         id="rect83"
         style="display:inline;fill:none;stroke:#000000;stroke-width:0.2;stroke-miterlimit:4;stroke-dasharray:none"
         inkscape:label="cmd_switch_path"
         d="M 2.5035591,78.951675 H 16.503559 v 14 H 2.5035591 Z" />
      <rect
         style="display:inline;fill:none;stroke:#000000;stroke-width:0.2;stroke-miterlimit:4;stroke-dasharray:none"
         id="rect113"
         width="24.254999"
         height="19.5"
         x="-2.6239405"
         y="76.201675"
         inkscape:label="cmd_space" />
      <path
         id="rect80"
         style="display:inline;fill:none;stroke:#000000;stroke-width:0.2;stroke-miterlimit:4;stroke-dasharray:none"
         inkscape:label="cmd_space_path"
         d="M -2.6239405,76.201675 H 21.631059 v 19.5 H -2.6239405 Z" />
      <rect
         style="display:inline;fill:none;stroke:#000000;stroke-width:0.2;stroke-miterlimit:4;stroke-dasharray:none"
         id="rect121"
         width="14"
         height="14"
         x="240.62856"
         y="59.901676"
         inkscape:label="rshift_switch" />
      <rect
         style="display:inline;fill:none;stroke:#000000;stroke-width:0.2;stroke-miterlimit:4;stroke-dasharray:none"
         id="rect123"
         width="19.5"
         height="19.5"
         x="237.87854"
         y="57.151672"
         inkscape:label="rshift_space" />
      <path
         id="path125"
         style="display:inline;fill:none;stroke:#000000;stroke-width:0.2;stroke-miterlimit:4;stroke-dasharray:none"
         inkscape:label="rshift_space_object"
         d="m 237.87857,57.151676 19.49999,-2e-6 v 19.5 h -19.5 z"
         sodipodi:nodetypes="ccccc" />
    </g>
  </g>
  <g
     inkscape:groupmode="layer"
     id="g997"
     inkscape:label="case_holes_1.9-10"
     style="display:inline">
    <circle
       style="fill:none;stroke:#000000;stroke-width:0.2;stroke-miterlimit:4;stroke-dasharray:none"
       id="circle981"
       cx="7.1000004"
       cy="59.950001"
       r="1" />
    <circle
       style="fill:none;stroke:#000000;stroke-width:0.2;stroke-miterlimit:4;stroke-dasharray:none"
       id="circle983"
       cx="7.1000004"
       cy="7.0999999"
       r="1" />
    <circle
       style="fill:none;stroke:#000000;stroke-width:0.2;stroke-miterlimit:4;stroke-dasharray:none"
       id="circle985"
       cx="164.72501"
       cy="7.0999999"
       r="1" />
    <circle
       style="fill:none;stroke:#000000;stroke-width:0.2;stroke-miterlimit:4;stroke-dasharray:none"
       id="circle987"
       cx="322.35001"
       cy="7.0999999"
       r="1" />
    <circle
       style="fill:none;stroke:#000000;stroke-width:0.2;stroke-miterlimit:4;stroke-dasharray:none"
       id="circle989"
       cx="322.35001"
       cy="59.950001"
       r="1" />
    <circle
       style="fill:none;stroke:#000000;stroke-width:0.2;stroke-miterlimit:4;stroke-dasharray:none"
       id="circle991"
       cx="322.35001"
       cy="112.8"
       r="1" />
    <circle
       style="fill:none;stroke:#000000;stroke-width:0.2;stroke-miterlimit:4;stroke-dasharray:none"
       id="circle993"
       cx="164.72501"
       cy="112.8"
       r="1" />
    <circle
       style="fill:none;stroke:#000000;stroke-width:0.2;stroke-miterlimit:4;stroke-dasharray:none"
       id="circle995"
       cx="7.0999999"
       cy="112.8"
       r="1" />
  </g>
  <g
     inkscape:groupmode="layer"
     id="g1015"
     inkscape:label="case_holes_3-10"
     style="display:inline">
    <circle
       style="fill:none;stroke:#000000;stroke-width:0.2;stroke-miterlimit:4;stroke-dasharray:none"
       id="circle999"
       cx="7.1000004"
       cy="59.950001"
       r="1.65" />
    <circle
       style="fill:none;stroke:#000000;stroke-width:0.2;stroke-miterlimit:4;stroke-dasharray:none"
       id="circle1001"
       cx="7.1000004"
       cy="7.0999999"
       r="1.65" />
    <circle
       style="fill:none;stroke:#000000;stroke-width:0.2;stroke-miterlimit:4;stroke-dasharray:none"
       id="circle1003"
       cx="164.72501"
       cy="7.0999999"
       r="1.65" />
    <circle
       style="fill:none;stroke:#000000;stroke-width:0.2;stroke-miterlimit:4;stroke-dasharray:none"
       id="circle1005"
       cx="322.35001"
       cy="7.0999999"
       r="1.65" />
    <circle
       style="fill:none;stroke:#000000;stroke-width:0.2;stroke-miterlimit:4;stroke-dasharray:none"
       id="circle1007"
       cx="322.35001"
       cy="59.950001"
       r="1.65" />
    <circle
       style="fill:none;stroke:#000000;stroke-width:0.2;stroke-miterlimit:4;stroke-dasharray:none"
       id="circle1009"
       cx="322.35001"
       cy="112.8"
       r="1.65" />
    <circle
       style="fill:none;stroke:#000000;stroke-width:0.2;stroke-miterlimit:4;stroke-dasharray:none"
       id="circle1011"
       cx="164.72501"
       cy="112.8"
       r="1.65" />
    <circle
       style="fill:none;stroke:#000000;stroke-width:0.2;stroke-miterlimit:4;stroke-dasharray:none"
       id="circle1013"
       cx="7.0999999"
       cy="112.8"
       r="1.65" />
  </g>
  <g
     inkscape:groupmode="layer"
     id="g1033"
     inkscape:label="case_holes_4.4-10"
     style="display:none">
    <circle
       style="fill:none;stroke:#000000;stroke-width:0.2;stroke-miterlimit:4;stroke-dasharray:none"
       id="circle1017"
       cx="7.1000004"
       cy="59.950001"
       r="2.2" />
    <circle
       style="fill:none;stroke:#000000;stroke-width:0.2;stroke-miterlimit:4;stroke-dasharray:none"
       id="circle1019"
       cx="7.1000004"
       cy="7.0999999"
       r="2.2" />
    <circle
       style="fill:none;stroke:#000000;stroke-width:0.2;stroke-miterlimit:4;stroke-dasharray:none"
       id="circle1021"
       cx="164.72501"
       cy="7.0999999"
       r="2.2" />
    <circle
       style="fill:none;stroke:#000000;stroke-width:0.2;stroke-miterlimit:4;stroke-dasharray:none"
       id="circle1023"
       cx="322.35001"
       cy="7.0999999"
       r="2.2" />
    <circle
       style="fill:none;stroke:#000000;stroke-width:0.2;stroke-miterlimit:4;stroke-dasharray:none"
       id="circle1025"
       cx="322.35001"
       cy="59.950001"
       r="2.2" />
    <circle
       style="fill:none;stroke:#000000;stroke-width:0.2;stroke-miterlimit:4;stroke-dasharray:none"
       id="circle1027"
       cx="322.35001"
       cy="112.8"
       r="2.2" />
    <circle
       style="fill:none;stroke:#000000;stroke-width:0.2;stroke-miterlimit:4;stroke-dasharray:none"
       id="circle1029"
       cx="164.72501"
       cy="112.8"
       r="2.2" />
    <circle
       style="fill:none;stroke:#000000;stroke-width:0.2;stroke-miterlimit:4;stroke-dasharray:none"
       id="circle1031"
       cx="7.0999999"
       cy="112.8"
       r="2.2" />
  </g>
  <g
     inkscape:groupmode="layer"
     id="layer3"
     inkscape:label="pcb_holders"
     style="display:inline">
    <circle
       style="fill:none;stroke:#000000;stroke-width:0.2;stroke-miterlimit:4;stroke-dasharray:none"
       id="path1036"
       cx="172.05084"
       cy="98.501534"
       r="0.94999999" />
    <circle
       style="fill:none;stroke:#000000;stroke-width:0.2;stroke-miterlimit:4;stroke-dasharray:none"
       id="circle1038"
       cx="254.32228"
       cy="97.558594"
       r="0.94999999" />
    <circle
       style="fill:none;stroke:#000000;stroke-width:0.2;stroke-miterlimit:4;stroke-dasharray:none"
       id="circle1040"
       cx="275.06696"
       cy="78.935547"
       r="0.94999999" />
    <circle
       style="fill:none;stroke:#000000;stroke-width:0.2;stroke-miterlimit:4;stroke-dasharray:none"
       id="circle1042"
       cx="52.212002"
       cy="78.935547"
       r="0.94999999" />
    <circle
       style="fill:none;stroke:#000000;stroke-width:0.2;stroke-miterlimit:4;stroke-dasharray:none"
       id="circle1044"
       cx="262.89401"
       cy="21.652"
       r="0.94999999" />
    <circle
       style="fill:none;stroke:#000000;stroke-width:0.2;stroke-miterlimit:4;stroke-dasharray:none"
       id="circle1046"
       cx="258.17999"
       cy="59.450001"
       r="0.94999999" />
    <circle
       style="fill:none;stroke:#000000;stroke-width:0.2;stroke-miterlimit:4;stroke-dasharray:none"
       id="circle1048"
       cx="179.12292"
       cy="51.699429"
       r="0.94999999" />
    <circle
       style="fill:none;stroke:#000000;stroke-width:0.2;stroke-miterlimit:4;stroke-dasharray:none"
       id="circle1050"
       cx="69.2705"
       cy="29.431248"
       r="0.94999999" />
  </g>
  <path
     id="rect184"
     style="display:inline;fill:none;stroke:#000000;stroke-width:0.2;stroke-miterlimit:4;stroke-dasharray:none"
     inkscape:label="inner_top_layer"
     d="m 259.75,107.8 h 57.6 V 12.1 H 12.099995 v 95.7 H 250.67099 l 1e-5,-19.272001 9.079,3e-6 z"
     sodipodi:nodetypes="ccccccccc" />
  <rect
     style="display:inline;fill:none;stroke:#000000;stroke-width:0.2;stroke-miterlimit:4;stroke-dasharray:none"
     id="rect77"
     width="305.25"
     height="95.699997"
     x="12.1"
     y="12.1"
     inkscape:label="inner_closed_layer" />
  <path
     id="rect131"
     style="display:inline;fill:none;stroke:#000000;stroke-width:0.2;stroke-miterlimit:4;stroke-dasharray:none"
     inkscape:label="open_layer"
     d="M 38.372,12.1 H 317.35 v 95.7 H 12.1 V 12.1 H 24.372 V 2.0999999 H 4.5999999 c -1.385,0 -2.5,1.115 -2.5,2.5 V 115.3 c 0,1.385 1.115,2.5 2.5,2.5 H 324.85 c 1.385,0 2.5,-1.115 2.5,-2.5 V 4.5999999 c 0,-1.385 -1.115,-2.5 -2.5,-2.5 H 38.372 Z"
     sodipodi:nodetypes="cccccccsssssssscc" />
  <rect
     style="display:inline;fill:none;stroke:#000000;stroke-width:0.2;stroke-miterlimit:4;stroke-dasharray:none"
     id="rect908"
     width="325.25"
     height="115.7"
     x="2.0999999"
     y="2.0999999"
     rx="2.5"
     ry="2.5"
     inkscape:label="outer" />
</svg>
