<?xml version="1.0" encoding="UTF-8" standalone="no"?>
<svg
   xmlns:dc="http://purl.org/dc/elements/1.1/"
   xmlns:cc="http://creativecommons.org/ns#"
   xmlns:rdf="http://www.w3.org/1999/02/22-rdf-syntax-ns#"
   xmlns:svg="http://www.w3.org/2000/svg"
   xmlns="http://www.w3.org/2000/svg"
   xmlns:sodipodi="http://sodipodi.sourceforge.net/DTD/sodipodi-0.dtd"
   xmlns:inkscape="http://www.inkscape.org/namespaces/inkscape"
   width="328.85001mm"
   height="119.3mm"
   viewBox="0 0 328.85001 119.30001"
   version="1.1"
   id="svg24"
   sodipodi:docname="kbplate.svg"
   inkscape:version="1.0.1 (3bc2e813f5, 2020-09-07)">
  <metadata
     id="metadata30">
    <rdf:RDF>
      <cc:Work
         rdf:about="">
        <dc:format>image/svg+xml</dc:format>
        <dc:type
           rdf:resource="http://purl.org/dc/dcmitype/StillImage" />
        <dc:title />
      </cc:Work>
    </rdf:RDF>
  </metadata>
  <defs
     id="defs28" />
  <sodipodi:namedview
     pagecolor="#ffffff"
     bordercolor="#666666"
     borderopacity="1"
     objecttolerance="10"
     gridtolerance="10"
     guidetolerance="10"
     inkscape:pageopacity="0"
     inkscape:pageshadow="2"
     inkscape:window-width="1920"
     inkscape:window-height="1017"
     id="namedview26"
     showgrid="false"
     inkscape:document-units="mm"
     inkscape:zoom="1.1762835"
     inkscape:cx="621.44883"
     inkscape:cy="225.44882"
     inkscape:window-x="-8"
     inkscape:window-y="32"
     inkscape:window-maximized="1"
     inkscape:current-layer="g997"
     inkscape:snap-nodes="false"
     inkscape:snap-object-midpoints="true"
     showguides="false"
     inkscape:guide-bbox="true"
     inkscape:snap-grids="true"
     inkscape:snap-to-guides="true"
     inkscape:snap-intersection-paths="true"
     inkscape:snap-smooth-nodes="false"
     inkscape:snap-bbox="true"
     inkscape:object-nodes="true"
     inkscape:snap-others="true"
     inkscape:snap-center="false"
     inkscape:snap-text-baseline="false"
     inkscape:snap-midpoints="false"
     inkscape:object-paths="true"
     inkscape:document-rotation="0">
    <sodipodi:guide
       position="164.525,59.550006"
       orientation="1,0"
       id="guide910" />
    <sodipodi:guide
       position="164.525,59.550006"
       orientation="0,-1"
       id="guide912" />
    <sodipodi:guide
       position="6.0999998,59.550007"
       orientation="1,0"
       id="guide923" />
    <sodipodi:guide
       position="6.0999998,113.20001"
       orientation="0,-1"
       id="guide927" />
    <sodipodi:guide
       position="322.95,59.550007"
       orientation="1,0"
       id="guide935" />
    <sodipodi:guide
       position="322.95,5.9000019"
       orientation="0,-1"
       id="guide939" />
    <sodipodi:guide
       position="238.34099,21.447006"
       orientation="1,0"
       id="guide96" />
    <sodipodi:guide
       position="238.34098,21.447007"
       orientation="0,-1"
       id="guide98" />
    <sodipodi:guide
       position="31.17244,102.12169"
       orientation="1,0"
       id="guide139" />
    <sodipodi:guide
       position="24.172439,107.20001"
       orientation="1,0"
       id="guide143" />
    <sodipodi:guide
       position="38.172439,107.20001"
       orientation="1,0"
       id="guide145" />
    <sodipodi:guide
       position="38.172439,117.20001"
       orientation="1,0"
       id="guide147" />
    <sodipodi:guide
       position="24.172439,117.20001"
       orientation="1,0"
       id="guide149" />
    <sodipodi:guide
       position="204.85994,33.496682"
       orientation="1,0"
       id="guide170" />
    <sodipodi:guide
       position="209.90994,33.496682"
       orientation="1,0"
       id="guide172" />
    <sodipodi:guide
       position="245.34119,14.446681"
       orientation="1,0"
       id="guide176" />
    <sodipodi:guide
       position="262.29699,14.447004"
       orientation="1,0"
       id="guide178" />
    <sodipodi:guide
       position="253.81898,13.616798"
       orientation="1,0"
       id="guide180" />
  </sodipodi:namedview>
  <g
     id="svgGroup"
     stroke-linecap="round"
     fill-rule="evenodd"
     font-size="12px"
     stroke="#000"
     stroke-width="0.25mm"
     fill="none"
     style="display:none;fill:none;stroke:#000000;stroke-width:0.2;stroke-miterlimit:4;stroke-dasharray:none"
     transform="translate(14.525441,11.901323)">
    <path
       d="m 121.56575,92.952 h 14 v -13.8 h 39.5 v 15.749677 c 0,0.276142 0.22386,0.5 0.5,0.5 h 6 c 0.27614,0 0.5,-0.223858 0.5,-0.5 V 76.052 c 0,-0.276142 -0.22386,-0.5 -0.5,-0.5 h -3.5 -2.5 -94 -2.5 -3.5 c -0.276142,0 -0.5,0.223858 -0.5,0.5 v 18.849677 c 0,0.276142 0.223858,0.5 0.5,0.5 h 6 c 0.276142,0 0.5,-0.223858 0.5,-0.5 V 79.152 h 39.5 z M 271.297,2.752 h -14 v 13.8 h -1.438 V 0.80067702 c 0,-0.27614241 -0.22386,-0.50000004 -0.5,-0.50000004 h -6 c -0.27614,0 -0.5,0.22385763 -0.5,0.50000004 V 19.652 c 0,0.276142 0.22386,0.5 0.5,0.5 h 3.5 2.5 17.876 2.5 3.5 c 0.27614,0 0.5,-0.223858 0.5,-0.5 V 0.80067702 c 0,-0.27614241 -0.22386,-0.50000004 -0.5,-0.50000004 h -6 c -0.27614,0 -0.5,0.22385763 -0.5,0.50000004 V 16.552 h -1.438 z m -2.38125,38.1 h -14 v 13.8 h -1.438 v -16.05 c 0,-0.276142 -0.22386,-0.5 -0.5,-0.5 h -6 c -0.27614,0 -0.5,0.223858 -0.5,0.5 v 19.15 c 0,0.276142 0.22386,0.5 0.5,0.5 h 3.5 2.5 17.876 2.5 3.5 c 0.27614,0 0.5,-0.223858 0.5,-0.5 v -19.15 c 0,-0.276142 -0.22386,-0.5 -0.5,-0.5 h -6 c -0.27614,0 -0.5,0.223858 -0.5,0.5 v 16.05 h -1.438 z m -242.8875,19.05 h -14 v 13.8 h -1.438 v -16.05 c 0,-0.276142 -0.223858,-0.5 -0.5,-0.5 h -6 c -0.2761424,0 -0.5,0.223858 -0.5,0.5 v 19.15 c 0,0.276142 0.2238576,0.5 0.5,0.5 h 3.5 2.5 17.876 2.5 3.5 c 0.276142,0 0.5,-0.223858 0.5,-0.5 v -19.15 c 0,-0.276142 -0.223858,-0.5 -0.5,-0.5 h -6 c -0.276142,0 -0.5,0.223858 -0.5,0.5 v 16.05 h -1.438 z M 0.12199996,16.752 H 14.122 v -14 H 0.12199996 Z m 19.05000004,0 h 14 v -14 h -14 z m 19.05,0 h 14 v -14 h -14 z m 19.05,0 h 14 v -14 h -14 z m 19.05,0 h 14 v -14 h -14 z m 19.05,0 h 14 v -14 h -14 z m 19.05,0 h 14 v -14 h -14 z m 19.05,0 h 14 v -14 h -14 z m 19.05,0 h 14 v -14 h -14 z m 19.05,0 h 14 v -14 h -14 z m 19.05,0 h 14 v -14 h -14 z m 19.05,0 h 14 v -14 h -14 z m 19.05,0 h 14 v -14 h -14 z m 57.15,0 h 14 v -14 h -14 z M 4.8845,35.802 h 14 v -14 h -14 z m 23.8125,0 h 14 v -14 h -14 z m 19.05,0 h 14 v -14 h -14 z m 19.05,0 h 14 v -14 h -14 z m 19.05,0 h 14 v -14 h -14 z m 19.05,0 h 14 v -14 h -14 z m 19.05,0 h 14 v -14 h -14 z m 19.05,0 h 14 v -14 h -14 z m 19.05,0 h 14 v -14 h -14 z m 19.05,0 h 14 v -14 h -14 z m 19.05,0 h 14 v -14 h -14 z m 19.05,0 h 14 v -14 h -14 z m 19.05,0 h 14 v -14 h -14 z m 23.8125,0 h 14 v -14 h -14 z m 23.8125,0 h 14 v -14 h -14 z M 7.26575,54.852 h 14 v -14 h -14 z m 26.19375,0 h 14 v -14 h -14 z m 19.05,0 h 14 v -14 h -14 z m 19.05,0 h 14 v -14 h -14 z m 19.05,0 h 14 v -14 h -14 z m 19.05,0 h 14 v -14 h -14 z m 19.05,0 h 14 v -14 h -14 z m 19.05,0 h 14 v -14 h -14 z m 19.05,0 h 14 v -14 h -14 z m 19.05,0 h 14 v -14 h -14 z m 19.05,0 h 14 v -14 h -14 z m 19.05,0 h 14 v -14 h -14 z m 61.9125,0 h 14 v -14 h -14 z M 42.9845,73.902 h 14 v -14 h -14 z m 19.05,0 h 14 v -14 h -14 z m 19.05,0 h 14 v -14 h -14 z m 19.05,0 h 14 v -14 h -14 z m 19.05,0 h 14 v -14 h -14 z m 19.05,0 h 14 v -14 h -14 z m 19.05,0 h 14 v -14 h -14 z m 19.05,0 h 14 v -14 h -14 z m 19.05,0 h 14 v -14 h -14 z m 19.05,0 h 14 v -14 h -14 z m 26.19375,0 h 14 v -14 h -14 z m 26.19375,0 h 14 v -14 h -14 z m 19.05,0 h 14 v -14 h -14 z M 2.50325,92.952 h 14 v -14 h -14 z m 23.8125,0 h 14 v -14 h -14 z m 23.8125,0 h 14 v -14 h -14 z m 142.875,0 h 14 v -14 h -14 z m 23.8125,0 h 14 v -14 h -14 z m 30.95581,-3.23e-4 h 14 v -14 h -14 z M 266.822,92.952 h 14 v -14 h -14 z m 19.05,0 h 14 v -14 h -14 z"
       vector-effect="non-scaling-stroke"
       id="path21"
       sodipodi:nodetypes="ccccssssssccccsssssscccccccssssssccccsssssscccccccssssssccccsssssscccccccssssssccccsssssscccccccccccccccccccccccccccccccccccccccccccccccccccccccccccccccccccccccccccccccccccccccccccccccccccccccccccccccccccccccccccccccccccccccccccccccccccccccccccccccccccccccccccccccccccccccccccccccccccccccccccccccccccccccccccccccccccccccccccccccccccccccccccccccccccccccccccccccccccccccccccccccccccccccccccccccccccccccccccccc"
       style="display:inline;stroke-width:0.2;stroke-miterlimit:4;stroke-dasharray:none" />
    <g
       id="g129"
       inkscape:label="keycap_references"
       style="display:none">
      <rect
         style="display:inline;fill:none;stroke:#000000;stroke-width:0.2;stroke-miterlimit:4;stroke-dasharray:none"
         id="rect88"
         width="14"
         height="14"
         x="247.77156"
         y="78.951675" />
      <rect
         style="display:inline;fill:none;stroke:#000000;stroke-width:0.2;stroke-miterlimit:4;stroke-dasharray:none"
         id="rect90"
         width="19.049999"
         height="19.049999"
         x="245.24657"
         y="76.426682" />
      <rect
         style="display:inline;fill:none;stroke:#000000;stroke-width:0.2;stroke-miterlimit:4;stroke-dasharray:none"
         id="rect92"
         width="14"
         height="14"
         x="216.81555"
         y="78.951675" />
      <rect
         style="display:inline;fill:none;stroke:#000000;stroke-width:0.2;stroke-miterlimit:4;stroke-dasharray:none"
         id="rect94"
         width="19.049999"
         height="19.049999"
         x="214.29054"
         y="76.426674" />
      <rect
         style="display:inline;fill:none;stroke:#000000;stroke-width:0.2;stroke-miterlimit:4;stroke-dasharray:none"
         id="rect96"
         width="14"
         height="14"
         x="228.72156"
         y="2.751677" />
      <rect
         style="display:inline;fill:none;stroke:#000000;stroke-width:0.2;stroke-miterlimit:4;stroke-dasharray:none"
         id="rect98"
         width="19.049999"
         height="19.049999"
         x="226.19656"
         y="0.22667718" />
      <rect
         style="display:inline;fill:none;stroke:#000000;stroke-width:0.2;stroke-miterlimit:4;stroke-dasharray:none"
         id="rect100"
         width="14"
         height="14"
         x="285.87155"
         y="2.751677" />
      <rect
         style="display:inline;fill:none;stroke:#000000;stroke-width:0.2;stroke-miterlimit:4;stroke-dasharray:none"
         id="rect102"
         width="19.049999"
         height="19.049999"
         x="283.34656"
         y="0.2266773" />
      <rect
         style="display:inline;fill:none;stroke:#000000;stroke-width:0.2;stroke-miterlimit:4;stroke-dasharray:none"
         id="rect158"
         width="14"
         height="14"
         x="266.82156"
         y="78.951675" />
      <rect
         style="display:inline;fill:none;stroke:#000000;stroke-width:0.2;stroke-miterlimit:4;stroke-dasharray:none"
         id="rect160"
         width="19.049999"
         height="19.049999"
         x="264.29657"
         y="76.426682" />
    </g>
  </g>
  <rect
     style="display:none;fill:none;stroke:#000000;stroke-width:0.2;stroke-miterlimit:4;stroke-dasharray:none"
     id="rect77"
     width="304.85001"
     height="95.300003"
     x="12.1"
     y="12.1"
     inkscape:label="inner_closed_layer" />
  <path
     id="rect184"
     style="display:inline;fill:none;stroke:#000000;stroke-width:0.2;stroke-miterlimit:4;stroke-dasharray:none"
     inkscape:label="inner_top_layer"
     d="m 259.719,107.4 h 57.23101 V 12.1 H 12.1 v 95.3 h 235.819 l 10e-6,-19.071997 h 11.8 z"
     sodipodi:nodetypes="ccccccccc" />
  <rect
     style="display:none;fill:none;stroke:#000000;stroke-width:0.2;stroke-miterlimit:4;stroke-dasharray:none"
     id="rect902"
     width="308.85001"
     height="99.300003"
     x="10.1"
     y="10.1"
     rx="2.0000012"
     ry="2.0000012"
     inkscape:label="extra_space-8" />
  <g
     inkscape:groupmode="layer"
     id="layer2"
     inkscape:label="case_holes_1.9-8"
     style="display:none">
    <circle
       style="fill:none;stroke:#000000;stroke-width:0.2;stroke-miterlimit:4;stroke-dasharray:none"
       id="path915"
       cx="6.0999999"
       cy="59.75"
       r="1" />
    <circle
       style="fill:none;stroke:#000000;stroke-width:0.2;stroke-miterlimit:4;stroke-dasharray:none"
       id="circle925"
       cx="6.0999999"
       cy="6.0999999"
       r="1" />
    <circle
       style="fill:none;stroke:#000000;stroke-width:0.2;stroke-miterlimit:4;stroke-dasharray:none"
       id="circle929"
       cx="164.52499"
       cy="6.0999999"
       r="1" />
    <circle
       style="fill:none;stroke:#000000;stroke-width:0.2;stroke-miterlimit:4;stroke-dasharray:none"
       id="circle931"
       cx="322.95001"
       cy="6.0999999"
       r="1" />
    <circle
       style="fill:none;stroke:#000000;stroke-width:0.2;stroke-miterlimit:4;stroke-dasharray:none"
       id="circle933"
       cx="322.95001"
       cy="59.75"
       r="1" />
    <circle
       style="fill:none;stroke:#000000;stroke-width:0.2;stroke-miterlimit:4;stroke-dasharray:none"
       id="circle937"
       cx="322.95001"
       cy="113.4"
       r="1" />
    <circle
       style="fill:none;stroke:#000000;stroke-width:0.2;stroke-miterlimit:4;stroke-dasharray:none"
       id="circle941"
       cx="164.52499"
       cy="113.4"
       r="1" />
    <circle
       style="fill:none;stroke:#000000;stroke-width:0.2;stroke-miterlimit:4;stroke-dasharray:none"
       id="circle943"
       cx="6.0999994"
       cy="113.4"
       r="1" />
  </g>
  <g
     inkscape:groupmode="layer"
     id="g961"
     inkscape:label="case_holes_3-8"
     style="display:none">
    <circle
       style="fill:none;stroke:#000000;stroke-width:0.2;stroke-miterlimit:4;stroke-dasharray:none"
       id="circle945"
       cx="6.0999999"
       cy="59.75"
       r="1.5" />
    <circle
       style="fill:none;stroke:#000000;stroke-width:0.2;stroke-miterlimit:4;stroke-dasharray:none"
       id="circle947"
       cx="6.0999999"
       cy="6.0999999"
       r="1.5" />
    <circle
       style="fill:none;stroke:#000000;stroke-width:0.2;stroke-miterlimit:4;stroke-dasharray:none"
       id="circle949"
       cx="164.52499"
       cy="6.0999999"
       r="1.5" />
    <circle
       style="fill:none;stroke:#000000;stroke-width:0.2;stroke-miterlimit:4;stroke-dasharray:none"
       id="circle951"
       cx="322.95001"
       cy="6.0999999"
       r="1.5" />
    <circle
       style="fill:none;stroke:#000000;stroke-width:0.2;stroke-miterlimit:4;stroke-dasharray:none"
       id="circle953"
       cx="322.95001"
       cy="59.75"
       r="1.5" />
    <circle
       style="fill:none;stroke:#000000;stroke-width:0.2;stroke-miterlimit:4;stroke-dasharray:none"
       id="circle955"
       cx="322.95001"
       cy="113.4"
       r="1.5" />
    <circle
       style="fill:none;stroke:#000000;stroke-width:0.2;stroke-miterlimit:4;stroke-dasharray:none"
       id="circle957"
       cx="164.52499"
       cy="113.4"
       r="1.5" />
    <circle
       style="fill:none;stroke:#000000;stroke-width:0.2;stroke-miterlimit:4;stroke-dasharray:none"
       id="circle959"
       cx="6.0999994"
       cy="113.4"
       r="1.5" />
  </g>
  <g
     inkscape:groupmode="layer"
     id="g979"
     inkscape:label="case_holes_4.4-8"
     style="display:none">
    <circle
       style="fill:none;stroke:#000000;stroke-width:0.2;stroke-miterlimit:4;stroke-dasharray:none"
       id="circle963"
       cx="6.0999999"
       cy="59.75"
       r="2.2" />
    <circle
       style="fill:none;stroke:#000000;stroke-width:0.2;stroke-miterlimit:4;stroke-dasharray:none"
       id="circle965"
       cx="6.0999999"
       cy="6.0999999"
       r="2.2" />
    <circle
       style="fill:none;stroke:#000000;stroke-width:0.2;stroke-miterlimit:4;stroke-dasharray:none"
       id="circle967"
       cx="164.52499"
       cy="6.0999999"
       r="2.2" />
    <circle
       style="fill:none;stroke:#000000;stroke-width:0.2;stroke-miterlimit:4;stroke-dasharray:none"
       id="circle969"
       cx="322.95001"
       cy="6.0999999"
       r="2.2" />
    <circle
       style="fill:none;stroke:#000000;stroke-width:0.2;stroke-miterlimit:4;stroke-dasharray:none"
       id="circle971"
       cx="322.95001"
       cy="59.75"
       r="2.2" />
    <circle
       style="fill:none;stroke:#000000;stroke-width:0.2;stroke-miterlimit:4;stroke-dasharray:none"
       id="circle973"
       cx="322.95001"
       cy="113.4"
       r="2.2" />
    <circle
       style="fill:none;stroke:#000000;stroke-width:0.2;stroke-miterlimit:4;stroke-dasharray:none"
       id="circle975"
       cx="164.52499"
       cy="113.4"
       r="2.2" />
    <circle
       style="fill:none;stroke:#000000;stroke-width:0.2;stroke-miterlimit:4;stroke-dasharray:none"
       id="circle977"
       cx="6.0999994"
       cy="113.4"
       r="2.2" />
  </g>
  <g
     inkscape:groupmode="layer"
     id="g997"
     inkscape:label="case_holes_1.9-10"
     style="display:inline">
    <circle
       style="fill:none;stroke:#000000;stroke-width:0.2;stroke-miterlimit:4;stroke-dasharray:none"
       id="circle981"
       cx="7.1000004"
       cy="59.75"
       r="1" />
    <circle
       style="fill:none;stroke:#000000;stroke-width:0.2;stroke-miterlimit:4;stroke-dasharray:none"
       id="circle983"
       cx="7.1000004"
       cy="7.0999999"
       r="1" />
    <circle
       style="fill:none;stroke:#000000;stroke-width:0.2;stroke-miterlimit:4;stroke-dasharray:none"
       id="circle985"
       cx="164.52499"
       cy="7.0999999"
       r="1" />
    <circle
       style="fill:none;stroke:#000000;stroke-width:0.2;stroke-miterlimit:4;stroke-dasharray:none"
       id="circle987"
       cx="321.95001"
       cy="7.0999999"
       r="1" />
    <circle
       style="fill:none;stroke:#000000;stroke-width:0.2;stroke-miterlimit:4;stroke-dasharray:none"
       id="circle989"
       cx="321.95001"
       cy="59.75"
       r="1" />
    <circle
       style="fill:none;stroke:#000000;stroke-width:0.2;stroke-miterlimit:4;stroke-dasharray:none"
       id="circle991"
       cx="321.95001"
       cy="112.4"
       r="1" />
    <circle
       style="fill:none;stroke:#000000;stroke-width:0.2;stroke-miterlimit:4;stroke-dasharray:none"
       id="circle993"
       cx="164.52499"
       cy="112.4"
       r="1" />
    <circle
       style="fill:none;stroke:#000000;stroke-width:0.2;stroke-miterlimit:4;stroke-dasharray:none"
       id="circle995"
       cx="7.0999999"
       cy="112.4"
       r="1" />
  </g>
  <g
     inkscape:groupmode="layer"
     id="g1015"
     inkscape:label="case_holes_3-10"
     style="display:inline">
    <circle
       style="fill:none;stroke:#000000;stroke-width:0.2;stroke-miterlimit:4;stroke-dasharray:none"
       id="circle999"
       cx="7.1000004"
       cy="59.75"
       r="1.65" />
    <circle
       style="fill:none;stroke:#000000;stroke-width:0.2;stroke-miterlimit:4;stroke-dasharray:none"
       id="circle1001"
       cx="7.1000004"
       cy="7.0999999"
       r="1.65" />
    <circle
       style="fill:none;stroke:#000000;stroke-width:0.2;stroke-miterlimit:4;stroke-dasharray:none"
       id="circle1003"
       cx="164.52499"
       cy="7.0999999"
       r="1.65" />
    <circle
       style="fill:none;stroke:#000000;stroke-width:0.2;stroke-miterlimit:4;stroke-dasharray:none"
       id="circle1005"
       cx="321.95001"
       cy="7.0999999"
       r="1.65" />
    <circle
       style="fill:none;stroke:#000000;stroke-width:0.2;stroke-miterlimit:4;stroke-dasharray:none"
       id="circle1007"
       cx="321.95001"
       cy="59.75"
       r="1.65" />
    <circle
       style="fill:none;stroke:#000000;stroke-width:0.2;stroke-miterlimit:4;stroke-dasharray:none"
       id="circle1009"
       cx="321.95001"
       cy="112.4"
       r="1.65" />
    <circle
       style="fill:none;stroke:#000000;stroke-width:0.2;stroke-miterlimit:4;stroke-dasharray:none"
       id="circle1011"
       cx="164.52499"
       cy="112.4"
       r="1.65" />
    <circle
       style="fill:none;stroke:#000000;stroke-width:0.2;stroke-miterlimit:4;stroke-dasharray:none"
       id="circle1013"
       cx="7.0999999"
       cy="112.4"
       r="1.65" />
  </g>
  <g
     inkscape:groupmode="layer"
     id="g1033"
     inkscape:label="case_holes_4.4-10"
     style="display:none">
    <circle
       style="fill:none;stroke:#000000;stroke-width:0.2;stroke-miterlimit:4;stroke-dasharray:none"
       id="circle1017"
       cx="7.1000004"
       cy="59.75"
       r="2.2" />
    <circle
       style="fill:none;stroke:#000000;stroke-width:0.2;stroke-miterlimit:4;stroke-dasharray:none"
       id="circle1019"
       cx="7.1000004"
       cy="7.0999999"
       r="2.2" />
    <circle
       style="fill:none;stroke:#000000;stroke-width:0.2;stroke-miterlimit:4;stroke-dasharray:none"
       id="circle1021"
       cx="164.52499"
       cy="7.0999999"
       r="2.2" />
    <circle
       style="fill:none;stroke:#000000;stroke-width:0.2;stroke-miterlimit:4;stroke-dasharray:none"
       id="circle1023"
       cx="321.95001"
       cy="7.0999999"
       r="2.2" />
    <circle
       style="fill:none;stroke:#000000;stroke-width:0.2;stroke-miterlimit:4;stroke-dasharray:none"
       id="circle1025"
       cx="321.95001"
       cy="59.75"
       r="2.2" />
    <circle
       style="fill:none;stroke:#000000;stroke-width:0.2;stroke-miterlimit:4;stroke-dasharray:none"
       id="circle1027"
       cx="321.95001"
       cy="112.4"
       r="2.2" />
    <circle
       style="fill:none;stroke:#000000;stroke-width:0.2;stroke-miterlimit:4;stroke-dasharray:none"
       id="circle1029"
       cx="164.52499"
       cy="112.4"
       r="2.2" />
    <circle
       style="fill:none;stroke:#000000;stroke-width:0.2;stroke-miterlimit:4;stroke-dasharray:none"
       id="circle1031"
       cx="7.0999999"
       cy="112.4"
       r="2.2" />
  </g>
  <path
     id="rect131"
     style="display:none;fill:none;stroke:#000000;stroke-width:0.2;stroke-miterlimit:4;stroke-dasharray:none"
     inkscape:label="open_layer"
     d="m 38.172,12.1 h 278.77801 v 95.3 H 12.1 V 12.1 H 24.172 V 2.0999999 H 4.5999999 c -1.385,0 -2.5,1.115 -2.5,2.5 V 114.9 c 0,1.385 1.115,2.5 2.5,2.5 H 324.45001 c 1.385,0 2.5,-1.115 2.5,-2.5 V 4.5999999 c 0,-1.385 -1.115,-2.5 -2.5,-2.5 H 38.172 Z"
     sodipodi:nodetypes="cccccccsssssssscc" />
  <rect
     style="display:inline;fill:none;stroke:#000000;stroke-width:0.2;stroke-miterlimit:4;stroke-dasharray:none"
     id="rect908"
     width="324.85001"
     height="115.3"
     x="2.0999999"
     y="2.0999999"
     rx="2.5"
     ry="2.5"
     inkscape:label="outer" />
  <g
     inkscape:groupmode="layer"
     id="layer3"
     inkscape:label="pcb_holders"
     style="display:none">
    <circle
       style="fill:none;stroke:#000000;stroke-width:0.2;stroke-miterlimit:4;stroke-dasharray:none"
       id="path1036"
       cx="171.85065"
       cy="98.301392"
       r="0.94999999" />
    <circle
       style="fill:none;stroke:#000000;stroke-width:0.2;stroke-miterlimit:4;stroke-dasharray:none"
       id="circle1038"
       cx="254.12209"
       cy="97.358452"
       r="0.94999999" />
    <circle
       style="fill:none;stroke:#000000;stroke-width:0.2;stroke-miterlimit:4;stroke-dasharray:none"
       id="circle1040"
       cx="274.86676"
       cy="78.735405"
       r="0.94999999" />
    <circle
       style="fill:none;stroke:#000000;stroke-width:0.2;stroke-miterlimit:4;stroke-dasharray:none"
       id="circle1042"
       cx="53.51181"
       cy="78.735405"
       r="0.94999999" />
    <circle
       style="fill:none;stroke:#000000;stroke-width:0.2;stroke-miterlimit:4;stroke-dasharray:none"
       id="circle1044"
       cx="261.19415"
       cy="21.451855"
       r="0.94999999" />
    <circle
       style="fill:none;stroke:#000000;stroke-width:0.2;stroke-miterlimit:4;stroke-dasharray:none"
       id="circle1046"
       cx="256.47946"
       cy="59.75"
       r="0.94999999" />
    <circle
       style="fill:none;stroke:#000000;stroke-width:0.2;stroke-miterlimit:4;stroke-dasharray:none"
       id="circle1048"
       cx="178.92273"
       cy="51.499283"
       r="0.94999999" />
    <circle
       style="fill:none;stroke:#000000;stroke-width:0.2;stroke-miterlimit:4;stroke-dasharray:none"
       id="circle1050"
       cx="69.070312"
       cy="29.231102"
       r="0.94999999" />
  </g>
</svg>
