<?xml version="1.0" encoding="UTF-8" standalone="no"?>
<svg
   width="105mm"
   height="250mm"
   viewBox="0 0 105 250"
   version="1.1"
   id="svg5"
   sodipodi:docname="iVi_split_middle_order_v2.svg"
   inkscape:version="1.2 (56b05e47e7, 2022-06-09, custom)"
   xml:space="preserve"
   xmlns:inkscape="http://www.inkscape.org/namespaces/inkscape"
   xmlns:sodipodi="http://sodipodi.sourceforge.net/DTD/sodipodi-0.dtd"
   xmlns="http://www.w3.org/2000/svg"
   xmlns:svg="http://www.w3.org/2000/svg"><defs
     id="defs9"><inkscape:path-effect
       effect="fillet_chamfer"
       id="path-effect374"
       is_visible="true"
       lpeversion="1"
       nodesatellites_param="F,0,0,1,0,1.7638889,0,1 @ F,0,0,1,0,1.7638889,0,1 @ F,0,0,1,0,1.7638889,0,1 @ F,0,0,1,0,1.7638889,0,1 @ F,0,0,1,0,1.7638889,0,1 @ F,0,0,1,0,1.7638889,0,1 @ F,0,0,1,0,1.7638889,0,1 @ F,0,0,1,0,1.7638889,0,1 @ F,0,0,1,0,1.7638889,0,1 @ F,0,0,1,0,1.7638889,0,1 @ F,0,0,1,0,1.7638889,0,1 @ F,0,0,1,0,1.7638889,0,1 @ F,0,0,1,0,1.7638889,0,1 @ F,0,0,1,0,1.7638889,0,1 @ F,0,0,1,0,1.7638889,0,1 @ F,0,0,1,0,1.7638889,0,1 @ F,0,0,1,0,1.7638889,0,1 @ F,0,0,1,0,1.7638889,0,1 @ F,0,0,1,0,1.7638889,0,1"
       unit="pt"
       method="auto"
       mode="F"
       radius="5"
       chamfer_steps="1"
       flexible="false"
       use_knot_distance="true"
       apply_no_radius="true"
       apply_with_radius="true"
       only_selected="false"
       hide_knots="false" /><inkscape:path-effect
       effect="fillet_chamfer"
       id="path-effect637"
       is_visible="true"
       lpeversion="1"
       nodesatellites_param="F,0,0,1,0,1.7638889,0,1 @ F,0,0,1,0,1.7638889,0,1 @ F,0,0,1,0,1.7638889,0,1 @ F,0,0,1,0,1.7638889,0,1 @ F,0,0,1,0,1.7638889,0,1 @ F,0,0,1,0,1.7638889,0,1 @ F,0,0,1,0,1.7638889,0,1 @ F,0,0,1,0,1.7638889,0,1 @ F,0,0,1,0,1.7638889,0,1 @ F,0,0,1,0,1.7638889,0,1 @ F,0,0,1,0,1.7638889,0,1 @ F,0,0,1,0,1.7638889,0,1 @ F,0,0,1,0,1.7638889,0,1 @ F,0,0,1,0,1.7638889,0,1 @ F,0,0,1,0,1.7638889,0,1 @ F,0,0,1,0,1.7638889,0,1 @ F,0,0,1,0,1.7638889,0,1 @ F,0,0,1,0,1.7638889,0,1 @ F,0,0,1,0,1.7638889,0,1"
       unit="pt"
       method="auto"
       mode="F"
       radius="5"
       chamfer_steps="1"
       flexible="false"
       use_knot_distance="true"
       apply_no_radius="true"
       apply_with_radius="true"
       only_selected="false"
       hide_knots="false" /></defs><sodipodi:namedview
     id="namedview7"
     pagecolor="#ffffff"
     bordercolor="#666666"
     borderopacity="1.0"
     inkscape:pageshadow="2"
     inkscape:pageopacity="0.0"
     inkscape:pagecheckerboard="0"
     inkscape:document-units="mm"
     showgrid="false"
     width="202.45mm"
     inkscape:zoom="0.95798398"
     inkscape:cx="174.32442"
     inkscape:cy="441.03034"
     inkscape:window-width="1920"
     inkscape:window-height="1012"
     inkscape:window-x="0"
     inkscape:window-y="40"
     inkscape:window-maximized="1"
     inkscape:current-layer="g370"
     inkscape:snap-bbox="true"
     inkscape:object-paths="true"
     inkscape:snap-intersection-paths="true"
     inkscape:snap-smooth-nodes="true"
     inkscape:snap-object-midpoints="true"
     inkscape:object-nodes="true"
     inkscape:snap-nodes="true"
     inkscape:showpageshadow="0"
     inkscape:deskcolor="#d1d1d1" /><g
     inkscape:groupmode="layer"
     id="layer1"
     inkscape:label="middle_block"
     style="display:inline"><g
       id="g324"
       style="display:inline"><path
         id="path11"
         style="display:inline;fill:none;stroke:#ff0000;stroke-width:0.2;stroke-miterlimit:4;stroke-dasharray:none;stroke-opacity:1"
         d="M 17.665081,114.99323 23.093182,89.456023 A 1.7638889,1.7638889 57.000001 0 0 21.734571,87.363946 L 6.4974149,84.125188 A 1.7638889,1.7638889 57 0 1 5.1388043,82.033111 L 8.3775621,66.795954 a 1.7638887,1.7638887 147 0 1 2.0920769,-1.358611 l 5.893234,1.252647 a 1.7638887,1.7638887 147 0 0 2.092077,-1.358611 l 3.238758,-15.237158 a 1.7638886,1.7638886 147 0 1 2.092077,-1.358611 l 1.221274,0.259591 a 1.7638886,1.7638886 147 0 0 2.092077,-1.358611 l 3.238758,-15.237157 a 1.7638891,1.7638891 147 0 1 2.092077,-1.358611 l 5.893234,1.252645 a 1.7638891,1.7638891 147 0 0 2.092077,-1.358611 L 45.843527,5.3969744 a 0.37492605,0.37492605 4.0711643e-6 0 1 0.733466,0 l 5.428168,25.5375396 a 1.7638888,1.7638888 33.000005 0 0 2.092077,1.358611 l 5.893124,-1.252622 a 1.763889,1.763889 33.000001 0 1 2.092077,1.358611 l 3.238711,15.236935 a 1.7638889,1.7638889 33 0 0 2.092077,1.358611 l 1.221217,-0.259578 a 1.7638889,1.7638889 33.000001 0 1 2.092077,1.358611 l 3.238711,15.236936 a 1.763889,1.763889 33.000002 0 0 2.092077,1.358611 l 5.893124,-1.252622 a 1.763889,1.763889 33.000002 0 1 2.092077,1.358611 l 3.238711,15.236936 a 1.7638889,1.7638889 123 0 1 -1.358611,2.092077 l -15.236935,3.238711 a 1.7638888,1.7638888 123 0 0 -1.358611,2.092077 l 5.428028,25.53686 a 1.4284028,1.4284028 128.99933 0 1 -1.397156,1.72538 l -54.295699,0.001 a 1.4283352,1.4283352 50.999337 0 1 -1.397156,-1.7253 z"
         sodipodi:nodetypes="cccccccccccccccccccc" /><path
         id="path660"
         style="fill:none;fill-rule:evenodd;stroke:#ff0000;stroke-width:0.2;stroke-opacity:1"
         d="m 47.212916,17.549841 a 1.0029051,1.0029051 0 0 1 -1.002905,1.002905 1.0029051,1.0029051 0 0 1 -1.002906,-1.002905 1.0029051,1.0029051 0 0 1 1.002906,-1.002905 1.0029051,1.0029051 0 0 1 1.002905,1.002905 z" /><path
         id="circle1254"
         style="fill:none;fill-rule:evenodd;stroke:#ff0000;stroke-width:0.2;stroke-opacity:1"
         d="m 24.306206,112.00597 a 1.0029051,1.0029051 0 0 1 -1.002905,1.0029 1.0029051,1.0029051 0 0 1 -1.002905,-1.0029 1.0029051,1.0029051 0 0 1 1.002905,-1.00291 1.0029051,1.0029051 0 0 1 1.002905,1.00291 z" /><path
         id="circle1258"
         style="fill:none;fill-rule:evenodd;stroke:#ff0000;stroke-width:0.2;stroke-opacity:1"
         d="m 70.120207,112.00597 a 1.0029051,1.0029051 0 0 1 -1.002905,1.0029 1.0029051,1.0029051 0 0 1 -1.002905,-1.0029 1.0029051,1.0029051 0 0 1 1.002905,-1.00291 1.0029051,1.0029051 0 0 1 1.002905,1.00291 z" /></g></g><g
     inkscape:groupmode="layer"
     id="g370"
     inkscape:label="middle_block copy"
     style="display:inline"><g
       id="g368"
       transform="matrix(1,0,0,-1,0,233.4358)"><path
         id="path360"
         style="display:inline;fill:none;stroke:#ff0000;stroke-width:0.2;stroke-miterlimit:4;stroke-dasharray:none;stroke-opacity:1"
         d="m 19.062237,116.71853 c -0.908388,2e-5 -1.58602,-0.83677 -1.397156,-1.7253 l 5.428101,-25.537207 c 0.202541,-0.952881 -0.40573,-1.889536 -1.358611,-2.092077 L 6.4974149,84.125188 C 5.5445339,83.922647 4.9362632,82.985992 5.1388043,82.033111 L 8.3775621,66.795954 c 0.2025411,-0.952881 1.1391958,-1.561152 2.0920769,-1.358611 l 5.893234,1.252647 c 0.952881,0.202541 1.889536,-0.40573 2.092077,-1.358611 l 3.238758,-15.237158 c 0.202541,-0.952881 1.139196,-1.561152 2.092077,-1.358611 l 1.221274,0.259591 c 0.952881,0.202541 1.889536,-0.40573 2.092077,-1.358611 l 3.238758,-15.237157 c 0.202541,-0.952881 1.139196,-1.561152 2.092077,-1.358611 l 5.893234,1.252645 c 0.952881,0.202541 1.889536,-0.40573 2.092077,-1.358611 L 45.843527,5.3969744 c 0.08416,-0.3959661 0.649301,-0.395966 0.733466,0 l 5.428168,25.5375396 c 0.202541,0.952881 1.139196,1.561152 2.092077,1.358611 l 5.893124,-1.252622 c 0.952881,-0.202541 1.889536,0.40573 2.092077,1.358611 l 3.238711,15.236935 c 0.202541,0.952881 1.139196,1.561152 2.092077,1.358611 l 1.221217,-0.259578 c 0.952881,-0.202541 1.889536,0.40573 2.092077,1.358611 l 3.238711,15.236936 c 0.202541,0.952881 1.139196,1.561152 2.092077,1.358611 l 5.893124,-1.252622 c 0.952881,-0.202541 1.889536,0.40573 2.092077,1.358611 l 3.238711,15.236936 c 0.202541,0.952881 -0.40573,1.889536 -1.358611,2.092077 l -15.236935,3.238711 c -0.952881,0.202541 -1.561152,1.139196 -1.358611,2.092077 l 5.428028,25.53686 c 0.188868,0.88855 -0.488752,1.72536 -1.397156,1.72538"
         sodipodi:nodetypes="cccccccccccccccccccccssssssssssssssssc" /><path
         id="circle362"
         style="fill:none;fill-rule:evenodd;stroke:#ff0000;stroke-width:0.2;stroke-opacity:1"
         d="m 47.212916,17.549841 a 1.0029051,1.0029051 0 0 1 -1.002905,1.002905 1.0029051,1.0029051 0 0 1 -1.002906,-1.002905 1.0029051,1.0029051 0 0 1 1.002906,-1.002905 1.0029051,1.0029051 0 0 1 1.002905,1.002905 z" /><path
         id="circle364"
         style="fill:none;fill-rule:evenodd;stroke:#ff0000;stroke-width:0.2;stroke-opacity:1"
         d="m 24.306206,112.00597 a 1.0029051,1.0029051 0 0 1 -1.002905,1.0029 1.0029051,1.0029051 0 0 1 -1.002905,-1.0029 1.0029051,1.0029051 0 0 1 1.002905,-1.00291 1.0029051,1.0029051 0 0 1 1.002905,1.00291 z" /><path
         id="circle366"
         style="fill:none;fill-rule:evenodd;stroke:#ff0000;stroke-width:0.2;stroke-opacity:1"
         d="m 70.120207,112.00597 a 1.0029051,1.0029051 0 0 1 -1.002905,1.0029 1.0029051,1.0029051 0 0 1 -1.002905,-1.0029 1.0029051,1.0029051 0 0 1 1.002905,-1.00291 1.0029051,1.0029051 0 0 1 1.002905,1.00291 z" /></g></g></svg>
