<svg width="362.673201mm" height="128.073805mm" viewBox="0 0 362.673201 128.073805" xmlns="http://www.w3.org/2000/svg"><g id="svgGroup" stroke-linecap="round" fill-rule="evenodd" font-size="9pt" stroke="#000" stroke-width="0.25mm" fill="none" style="stroke:#000;stroke-width:0.25mm;fill:none"><path d="M 135.924537 118.824033 A 0.5 0.5 0 0 0 135.959978 119.138269 L 134.455587 118.8185 L 137.79257 103.119231 A 0.5 0.5 0 0 0 137.407452 102.526202 L 131.538566 101.278732 A 0.5 0.5 0 0 0 130.945537 101.66385 L 126.964028 120.395376 A 0.5 0.5 0 0 0 127.349146 120.988406 L 130.772663 121.716097 L 133.218032 122.235876 L 150.703398 125.952505 L 153.148767 126.472285 L 156.572284 127.199975 A 0.5 0.5 0 0 0 157.165313 126.814857 L 161.146822 108.083331 A 0.5 0.5 0 0 0 160.761704 107.490301 L 154.892819 106.242831 A 0.5 0.5 0 0 0 154.299789 106.627949 L 150.962806 122.327218 L 149.458415 122.00745 A 0.5 0.5 0 0 0 149.618604 121.734797 L 152.321456 109.018878 A 0.5 0.5 0 0 0 151.936338 108.425848 L 139.220419 105.722996 A 0.5 0.5 0 0 0 138.627389 106.108114 L 135.924537 118.824033 Z M 330.796123 20.466991 A 0.5 0.5 0 0 0 330.956312 20.739645 L 329.451921 21.059413 L 326.114938 5.360144 A 0.5 0.5 0 0 0 325.521908 4.975026 L 319.653023 6.222496 A 0.5 0.5 0 0 0 319.267905 6.815525 L 323.249414 25.547052 A 0.5 0.5 0 0 0 323.842443 25.93217 L 327.26596 25.204479 L 329.711329 24.6847 L 347.196695 20.968071 L 349.642064 20.448291 L 353.065581 19.7206 A 0.5 0.5 0 0 0 353.450699 19.127571 L 349.46919 0.396044 A 0.5 0.5 0 0 0 348.876161 0.010926 L 343.007275 1.258396 A 0.5 0.5 0 0 0 342.622157 1.851426 L 345.95914 17.550695 L 344.454749 17.870463 A 0.5 0.5 0 0 0 344.49019 17.556228 L 341.787338 4.840309 A 0.5 0.5 0 0 0 341.194308 4.455191 L 328.478389 7.158043 A 0.5 0.5 0 0 0 328.093271 7.751072 L 330.796123 20.466991 Z M 336.388344 58.229505 A 0.5 0.5 0 0 0 336.548533 58.502159 L 335.044141 58.821927 L 331.707159 43.122658 A 0.5 0.5 0 0 0 331.114129 42.73754 L 325.245244 43.98501 A 0.5 0.5 0 0 0 324.860126 44.578039 L 328.841635 63.309566 A 0.5 0.5 0 0 0 329.434664 63.694684 L 332.858181 62.966993 L 335.30355 62.447214 L 352.788916 58.730585 L 355.234285 58.210805 L 358.657802 57.483114 A 0.5 0.5 0 0 0 359.04292 56.890085 L 355.061411 38.158558 A 0.5 0.5 0 0 0 354.468381 37.77344 L 348.599496 39.02091 A 0.5 0.5 0 0 0 348.214378 39.61394 L 351.55136 55.313209 L 350.046969 55.632977 A 0.5 0.5 0 0 0 350.082411 55.318742 L 347.379559 42.602823 A 0.5 0.5 0 0 0 346.786529 42.217705 L 334.07061 44.920557 A 0.5 0.5 0 0 0 333.685492 45.513587 L 336.388344 58.229505 Z M 220.861439 121.736683 A 0.5 0.5 0 0 0 221.021627 122.009336 L 219.517236 122.329104 L 216.180253 106.629835 A 0.5 0.5 0 0 0 215.587224 106.244717 L 209.718338 107.492187 A 0.5 0.5 0 0 0 209.33322 108.085217 L 213.314729 126.816743 A 0.5 0.5 0 0 0 213.907758 127.201861 L 217.331275 126.474171 L 219.776644 125.954391 L 237.262011 122.237762 L 239.70738 121.717983 L 243.130896 120.990292 A 0.5 0.5 0 0 0 243.516014 120.397262 L 239.534505 101.665736 A 0.5 0.5 0 0 0 238.941476 101.280618 L 233.07259 102.528088 A 0.5 0.5 0 0 0 232.687472 103.121117 L 236.024455 118.820386 L 234.520064 119.140155 A 0.5 0.5 0 0 0 234.555505 118.825919 L 231.852653 106.11 A 0.5 0.5 0 0 0 231.259623 105.724882 L 218.543705 108.427734 A 0.5 0.5 0 0 0 218.158587 109.020764 L 220.861439 121.736683 Z M 16.672996 15.573982 A 0.5 0.5 0 0 0 17.058114 16.167011 L 29.774033 18.869863 A 0.5 0.5 0 0 0 30.367063 18.484745 L 33.069915 5.768827 A 0.5 0.5 0 0 0 32.684797 5.175797 L 19.968878 2.472945 A 0.5 0.5 0 0 0 19.375848 2.858063 L 16.672996 15.573982 Z M 35.306708 19.5347 A 0.5 0.5 0 0 0 35.691826 20.127729 L 48.407745 22.830581 A 0.5 0.5 0 0 0 49.000775 22.445463 L 51.703627 9.729545 A 0.5 0.5 0 0 0 51.318509 9.136515 L 38.60259 6.433663 A 0.5 0.5 0 0 0 38.00956 6.818781 L 35.306708 19.5347 Z M 53.94042 23.495418 A 0.5 0.5 0 0 0 54.325538 24.088447 L 67.041457 26.791299 A 0.5 0.5 0 0 0 67.634486 26.406181 L 70.337338 13.690262 A 0.5 0.5 0 0 0 69.95222 13.097233 L 57.236302 10.394381 A 0.5 0.5 0 0 0 56.643272 10.779499 L 53.94042 23.495418 Z M 72.574132 27.456136 A 0.5 0.5 0 0 0 72.95925 28.049165 L 85.675169 30.752017 A 0.5 0.5 0 0 0 86.268198 30.366899 L 88.97105 17.65098 A 0.5 0.5 0 0 0 88.585932 17.057951 L 75.870013 14.355099 A 0.5 0.5 0 0 0 75.276984 14.740217 L 72.574132 27.456136 Z M 91.207844 31.416853 A 0.5 0.5 0 0 0 91.592962 32.009883 L 104.30888 34.712735 A 0.5 0.5 0 0 0 104.90191 34.327617 L 107.604762 21.611698 A 0.5 0.5 0 0 0 107.219644 21.018669 L 94.503725 18.315817 A 0.5 0.5 0 0 0 93.910696 18.700935 L 91.207844 31.416853 Z M 109.841555 35.377571 A 0.5 0.5 0 0 0 110.226673 35.970601 L 122.942592 38.673453 A 0.5 0.5 0 0 0 123.535622 38.288335 L 126.238474 25.572416 A 0.5 0.5 0 0 0 125.853356 24.979386 L 113.137437 22.276534 A 0.5 0.5 0 0 0 112.544407 22.661652 L 109.841555 35.377571 Z M 128.475267 39.338289 A 0.5 0.5 0 0 0 128.860385 39.931319 L 141.576304 42.634171 A 0.5 0.5 0 0 0 142.169333 42.249053 L 144.872185 29.533134 A 0.5 0.5 0 0 0 144.487067 28.940104 L 131.771149 26.237252 A 0.5 0.5 0 0 0 131.178119 26.62237 L 128.475267 39.338289 Z M 147.108979 43.299007 A 0.5 0.5 0 0 0 147.494097 43.892037 L 160.210016 46.594889 A 0.5 0.5 0 0 0 160.803045 46.209771 L 163.505897 33.493852 A 0.5 0.5 0 0 0 163.120779 32.900822 L 150.40486 30.19797 A 0.5 0.5 0 0 0 149.811831 30.583088 L 147.108979 43.299007 Z M 165.742691 47.259725 A 0.5 0.5 0 0 0 166.127809 47.852755 L 178.843727 50.555607 A 0.5 0.5 0 0 0 179.436757 50.170489 L 182.139609 37.45457 A 0.5 0.5 0 0 0 181.754491 36.86154 L 169.038572 34.158688 A 0.5 0.5 0 0 0 168.445543 34.543806 L 165.742691 47.259725 Z M 12.712279 34.207694 A 0.5 0.5 0 0 0 13.097397 34.800723 L 25.813315 37.503575 A 0.5 0.5 0 0 0 26.406345 37.118457 L 29.109197 24.402538 A 0.5 0.5 0 0 0 28.724079 23.809509 L 16.00816 21.106657 A 0.5 0.5 0 0 0 15.415131 21.491775 L 12.712279 34.207694 Z M 31.34599 38.168412 A 0.5 0.5 0 0 0 31.731108 38.761441 L 44.447027 41.464293 A 0.5 0.5 0 0 0 45.040057 41.079175 L 47.742909 28.363256 A 0.5 0.5 0 0 0 47.357791 27.770227 L 34.641872 25.067375 A 0.5 0.5 0 0 0 34.048842 25.452493 L 31.34599 38.168412 Z M 54.63813 43.119308 A 0.5 0.5 0 0 0 55.023248 43.712338 L 67.739167 46.41519 A 0.5 0.5 0 0 0 68.332196 46.030072 L 71.035048 33.314153 A 0.5 0.5 0 0 0 70.64993 32.721124 L 57.934012 30.018272 A 0.5 0.5 0 0 0 57.340982 30.40339 L 54.63813 43.119308 Z M 77.93027 48.070207 A 0.5 0.5 0 0 0 78.315388 48.663237 L 91.031307 51.366089 A 0.5 0.5 0 0 0 91.624336 50.980971 L 94.327188 38.265052 A 0.5 0.5 0 0 0 93.94207 37.672022 L 81.226151 34.96917 A 0.5 0.5 0 0 0 80.633122 35.354288 L 77.93027 48.070207 Z M 96.563982 52.030925 A 0.5 0.5 0 0 0 96.9491 52.623955 L 109.665018 55.326807 A 0.5 0.5 0 0 0 110.258048 54.941689 L 112.9609 42.22577 A 0.5 0.5 0 0 0 112.575782 41.63274 L 99.859863 38.929888 A 0.5 0.5 0 0 0 99.266834 39.315006 L 96.563982 52.030925 Z M 115.197693 55.991641 A 0.5 0.5 0 0 0 115.582811 56.584671 L 128.29873 59.287523 A 0.5 0.5 0 0 0 128.89176 58.902405 L 131.594612 46.186486 A 0.5 0.5 0 0 0 131.209494 45.593456 L 118.493575 42.890604 A 0.5 0.5 0 0 0 117.900545 43.275722 L 115.197693 55.991641 Z M 133.831405 59.952359 A 0.5 0.5 0 0 0 134.216523 60.545389 L 146.932442 63.248241 A 0.5 0.5 0 0 0 147.525471 62.863123 L 150.228323 50.147204 A 0.5 0.5 0 0 0 149.843205 49.554174 L 137.127287 46.851322 A 0.5 0.5 0 0 0 136.534257 47.23644 L 133.831405 59.952359 Z M 152.465117 63.913077 A 0.5 0.5 0 0 0 152.850235 64.506106 L 165.566154 67.208958 A 0.5 0.5 0 0 0 166.159183 66.82384 L 168.862035 54.107922 A 0.5 0.5 0 0 0 168.476917 53.514892 L 155.760998 50.81204 A 0.5 0.5 0 0 0 155.167969 51.197158 L 152.465117 63.913077 Z M 13.409989 53.831586 A 0.5 0.5 0 0 0 13.795107 54.424616 L 26.511025 57.127468 A 0.5 0.5 0 0 0 27.104055 56.74235 L 29.806907 44.026431 A 0.5 0.5 0 0 0 29.421789 43.433402 L 16.70587 40.73055 A 0.5 0.5 0 0 0 16.112841 41.115668 L 13.409989 53.831586 Z M 43.689771 60.267753 A 0.5 0.5 0 0 0 44.074889 60.860782 L 56.790808 63.563634 A 0.5 0.5 0 0 0 57.383838 63.178516 L 60.08669 50.462597 A 0.5 0.5 0 0 0 59.701572 49.869568 L 46.985653 47.166716 A 0.5 0.5 0 0 0 46.392623 47.551834 L 43.689771 60.267753 Z M 69.311124 65.713738 A 0.5 0.5 0 0 0 69.696242 66.306768 L 82.412161 69.00962 A 0.5 0.5 0 0 0 83.00519 68.624502 L 85.708042 55.908583 A 0.5 0.5 0 0 0 85.322924 55.315553 L 72.607006 52.612701 A 0.5 0.5 0 0 0 72.013976 52.997819 L 69.311124 65.713738 Z M 87.944836 69.674456 A 0.5 0.5 0 0 0 88.329954 70.267486 L 101.045872 72.970338 A 0.5 0.5 0 0 0 101.638902 72.58522 L 104.341754 59.869301 A 0.5 0.5 0 0 0 103.956636 59.276271 L 91.240717 56.573419 A 0.5 0.5 0 0 0 90.647688 56.958537 L 87.944836 69.674456 Z M 106.578547 73.635174 A 0.5 0.5 0 0 0 106.963665 74.228203 L 119.679584 76.931055 A 0.5 0.5 0 0 0 120.272614 76.545937 L 122.975466 63.830019 A 0.5 0.5 0 0 0 122.590348 63.236989 L 109.874429 60.534137 A 0.5 0.5 0 0 0 109.281399 60.919255 L 106.578547 73.635174 Z M 125.212259 77.595892 A 0.5 0.5 0 0 0 125.597377 78.188921 L 138.313296 80.891773 A 0.5 0.5 0 0 0 138.906326 80.506655 L 141.609178 67.790737 A 0.5 0.5 0 0 0 141.22406 67.197707 L 128.508141 64.494855 A 0.5 0.5 0 0 0 127.915111 64.879973 L 125.212259 77.595892 Z M 143.845971 81.55661 A 0.5 0.5 0 0 0 144.231089 82.149639 L 156.947008 84.852491 A 0.5 0.5 0 0 0 157.540037 84.467373 L 160.242889 71.751454 A 0.5 0.5 0 0 0 159.857771 71.158425 L 147.141853 68.455573 A 0.5 0.5 0 0 0 146.548823 68.840691 L 143.845971 81.55661 Z M 4.790843 71.475117 A 0.5 0.5 0 0 0 5.175961 72.068147 L 17.89188 74.770999 A 0.5 0.5 0 0 0 18.484909 74.385881 L 21.187761 61.669962 A 0.5 0.5 0 0 0 20.802643 61.076932 L 8.086724 58.37408 A 0.5 0.5 0 0 0 7.493695 58.759198 L 4.790843 71.475117 Z M 30.412197 76.921105 A 0.5 0.5 0 0 0 30.797315 77.514134 L 43.513234 80.216986 A 0.5 0.5 0 0 0 44.106264 79.831868 L 46.809116 67.115949 A 0.5 0.5 0 0 0 46.423998 66.52292 L 33.708079 63.820068 A 0.5 0.5 0 0 0 33.115049 64.205186 L 30.412197 76.921105 Z M 56.03355 82.367092 A 0.5 0.5 0 0 0 56.418668 82.960121 L 69.134587 85.662973 A 0.5 0.5 0 0 0 69.727617 85.277855 L 72.430469 72.561937 A 0.5 0.5 0 0 0 72.045351 71.968907 L 59.329432 69.266055 A 0.5 0.5 0 0 0 58.736402 69.651173 L 56.03355 82.367092 Z M 74.667262 86.32781 A 0.5 0.5 0 0 0 75.05238 86.920839 L 87.768299 89.623691 A 0.5 0.5 0 0 0 88.361328 89.238573 L 91.06418 76.522655 A 0.5 0.5 0 0 0 90.679062 75.929625 L 77.963144 73.226773 A 0.5 0.5 0 0 0 77.370114 73.611891 L 74.667262 86.32781 Z M 93.300974 90.288528 A 0.5 0.5 0 0 0 93.686092 90.881557 L 106.40201 93.584409 A 0.5 0.5 0 0 0 106.99504 93.199291 L 109.697892 80.483372 A 0.5 0.5 0 0 0 109.312774 79.890343 L 96.596855 77.187491 A 0.5 0.5 0 0 0 96.003826 77.572609 L 93.300974 90.288528 Z M 111.934685 94.249246 A 0.5 0.5 0 0 0 112.319803 94.842275 L 125.035722 97.545127 A 0.5 0.5 0 0 0 125.628752 97.160009 L 128.331604 84.44409 A 0.5 0.5 0 0 0 127.946486 83.851061 L 115.230567 81.148209 A 0.5 0.5 0 0 0 114.637537 81.533327 L 111.934685 94.249246 Z M 130.568397 98.209963 A 0.5 0.5 0 0 0 130.953515 98.802993 L 143.669434 101.505845 A 0.5 0.5 0 0 0 144.262464 101.120727 L 146.965316 88.404808 A 0.5 0.5 0 0 0 146.580198 87.811779 L 133.864279 85.108927 A 0.5 0.5 0 0 0 133.271249 85.494045 L 130.568397 98.209963 Z M 5.488553 91.09901 A 0.5 0.5 0 0 0 5.873671 91.692039 L 18.58959 94.394891 A 0.5 0.5 0 0 0 19.182619 94.009773 L 21.885471 81.293855 A 0.5 0.5 0 0 0 21.500353 80.700825 L 8.784434 77.997973 A 0.5 0.5 0 0 0 8.191405 78.383091 L 5.488553 91.09901 Z M 33.43912 97.040086 A 0.5 0.5 0 0 0 33.824238 97.633115 L 46.540157 100.335967 A 0.5 0.5 0 0 0 47.133187 99.950849 L 49.836039 87.234931 A 0.5 0.5 0 0 0 49.450921 86.641901 L 36.735002 83.939049 A 0.5 0.5 0 0 0 36.141972 84.324167 L 33.43912 97.040086 Z M 61.389688 102.981162 A 0.5 0.5 0 0 0 61.774806 103.574191 L 74.490725 106.277043 A 0.5 0.5 0 0 0 75.083755 105.891925 L 77.786607 93.176006 A 0.5 0.5 0 0 0 77.401489 92.582977 L 64.68557 89.880125 A 0.5 0.5 0 0 0 64.09254 90.265243 L 61.389688 102.981162 Z M 87.011043 108.427149 A 0.5 0.5 0 0 0 87.396161 109.020179 L 100.11208 111.723031 A 0.5 0.5 0 0 0 100.705109 111.337913 L 103.407961 98.621994 A 0.5 0.5 0 0 0 103.022843 98.028964 L 90.306924 95.326112 A 0.5 0.5 0 0 0 89.713895 95.71123 L 87.011043 108.427149 Z M 107.973968 112.882957 A 0.5 0.5 0 0 0 108.359086 113.475987 L 121.075004 116.178839 A 0.5 0.5 0 0 0 121.668034 115.793721 L 124.370886 103.077802 A 0.5 0.5 0 0 0 123.985768 102.484772 L 111.269849 99.78192 A 0.5 0.5 0 0 0 110.67682 100.167038 L 107.973968 112.882957 Z M 163.875105 124.765109 A 0.5 0.5 0 0 0 164.260223 125.358139 L 176.976142 128.060991 A 0.5 0.5 0 0 0 177.569171 127.675873 L 180.272023 114.959954 A 0.5 0.5 0 0 0 179.886905 114.366924 L 167.170986 111.664072 A 0.5 0.5 0 0 0 166.577957 112.04919 L 163.875105 124.765109 Z M 191.043283 50.172374 A 0.5 0.5 0 0 0 191.636313 50.557492 L 204.352232 47.85464 A 0.5 0.5 0 0 0 204.73735 47.261611 L 202.034498 34.545692 A 0.5 0.5 0 0 0 201.441468 34.160574 L 188.725549 36.863426 A 0.5 0.5 0 0 0 188.340431 37.456456 L 191.043283 50.172374 Z M 209.676995 46.211657 A 0.5 0.5 0 0 0 210.270025 46.596775 L 222.985943 43.893923 A 0.5 0.5 0 0 0 223.371061 43.300893 L 220.668209 30.584974 A 0.5 0.5 0 0 0 220.07518 30.199856 L 207.359261 32.902708 A 0.5 0.5 0 0 0 206.974143 33.495738 L 209.676995 46.211657 Z M 228.310707 42.250939 A 0.5 0.5 0 0 0 228.903736 42.636057 L 241.619655 39.933205 A 0.5 0.5 0 0 0 242.004773 39.340175 L 239.301921 26.624256 A 0.5 0.5 0 0 0 238.708892 26.239138 L 225.992973 28.94199 A 0.5 0.5 0 0 0 225.607855 29.53502 L 228.310707 42.250939 Z M 246.944419 38.290221 A 0.5 0.5 0 0 0 247.537448 38.675339 L 260.253367 35.972487 A 0.5 0.5 0 0 0 260.638485 35.379457 L 257.935633 22.663538 A 0.5 0.5 0 0 0 257.342603 22.27842 L 244.626685 24.981272 A 0.5 0.5 0 0 0 244.241567 25.574302 L 246.944419 38.290221 Z M 265.57813 34.329503 A 0.5 0.5 0 0 0 266.17116 34.714621 L 278.887079 32.011769 A 0.5 0.5 0 0 0 279.272197 31.418739 L 276.569345 18.702821 A 0.5 0.5 0 0 0 275.976315 18.317703 L 263.260396 21.020555 A 0.5 0.5 0 0 0 262.875278 21.613584 L 265.57813 34.329503 Z M 284.211842 30.368785 A 0.5 0.5 0 0 0 284.804872 30.753903 L 297.52079 28.051051 A 0.5 0.5 0 0 0 297.905908 27.458021 L 295.203056 14.742103 A 0.5 0.5 0 0 0 294.610027 14.356985 L 281.894108 17.059837 A 0.5 0.5 0 0 0 281.50899 17.652866 L 284.211842 30.368785 Z M 302.845556 26.408067 A 0.5 0.5 0 0 0 303.438585 26.793185 L 316.154504 24.090333 A 0.5 0.5 0 0 0 316.539622 23.497304 L 313.83677 10.781385 A 0.5 0.5 0 0 0 313.243741 10.396267 L 300.527822 13.099119 A 0.5 0.5 0 0 0 300.142704 13.692148 L 302.845556 26.408067 Z M 204.320857 66.825726 A 0.5 0.5 0 0 0 204.913887 67.210844 L 217.629805 64.507992 A 0.5 0.5 0 0 0 218.014923 63.914963 L 215.312071 51.199044 A 0.5 0.5 0 0 0 214.719042 50.813926 L 202.003123 53.516778 A 0.5 0.5 0 0 0 201.618005 54.109808 L 204.320857 66.825726 Z M 222.954569 62.86501 A 0.5 0.5 0 0 0 223.547598 63.250128 L 236.263517 60.547276 A 0.5 0.5 0 0 0 236.648635 59.954247 L 233.945783 47.238328 A 0.5 0.5 0 0 0 233.352754 46.85321 L 220.636835 49.556062 A 0.5 0.5 0 0 0 220.251717 50.149092 L 222.954569 62.86501 Z M 241.588281 58.904293 A 0.5 0.5 0 0 0 242.18131 59.289411 L 254.897229 56.586559 A 0.5 0.5 0 0 0 255.282347 55.993529 L 252.579495 43.27761 A 0.5 0.5 0 0 0 251.986465 42.892492 L 239.270547 45.595344 A 0.5 0.5 0 0 0 238.885429 46.188374 L 241.588281 58.904293 Z M 260.221992 54.943575 A 0.5 0.5 0 0 0 260.815022 55.328693 L 273.530941 52.625841 A 0.5 0.5 0 0 0 273.916059 52.032811 L 271.213207 39.316892 A 0.5 0.5 0 0 0 270.620177 38.931774 L 257.904258 41.634626 A 0.5 0.5 0 0 0 257.51914 42.227656 L 260.221992 54.943575 Z M 278.855704 50.982857 A 0.5 0.5 0 0 0 279.448734 51.367975 L 292.164652 48.665123 A 0.5 0.5 0 0 0 292.54977 48.072093 L 289.846918 35.356174 A 0.5 0.5 0 0 0 289.253889 34.971056 L 276.53797 37.673908 A 0.5 0.5 0 0 0 276.152852 38.266938 L 278.855704 50.982857 Z M 297.489416 47.022139 A 0.5 0.5 0 0 0 298.082445 47.407257 L 310.798364 44.704405 A 0.5 0.5 0 0 0 311.183482 44.111375 L 308.48063 31.395456 A 0.5 0.5 0 0 0 307.887601 31.010338 L 295.171682 33.71319 A 0.5 0.5 0 0 0 294.786564 34.30622 L 297.489416 47.022139 Z M 316.123128 43.061421 A 0.5 0.5 0 0 0 316.716157 43.446539 L 329.432076 40.743687 A 0.5 0.5 0 0 0 329.817194 40.150657 L 327.114342 27.434739 A 0.5 0.5 0 0 0 326.521312 27.049621 L 313.805394 29.752473 A 0.5 0.5 0 0 0 313.420276 30.345502 L 316.123128 43.061421 Z M 339.415267 38.110524 A 0.5 0.5 0 0 0 340.008297 38.495642 L 352.724216 35.79279 A 0.5 0.5 0 0 0 353.109334 35.19976 L 350.406482 22.483842 A 0.5 0.5 0 0 0 349.813452 22.098724 L 337.097533 24.801576 A 0.5 0.5 0 0 0 336.712415 25.394605 L 339.415267 38.110524 Z M 212.940003 84.469259 A 0.5 0.5 0 0 0 213.533032 84.854377 L 226.248951 82.151525 A 0.5 0.5 0 0 0 226.634069 81.558496 L 223.931217 68.842577 A 0.5 0.5 0 0 0 223.338188 68.457459 L 210.622269 71.160311 A 0.5 0.5 0 0 0 210.237151 71.75334 L 212.940003 84.469259 Z M 231.573715 80.508541 A 0.5 0.5 0 0 0 232.166744 80.893659 L 244.882663 78.190807 A 0.5 0.5 0 0 0 245.267781 77.597778 L 242.564929 64.881859 A 0.5 0.5 0 0 0 241.971899 64.496741 L 229.255981 67.199593 A 0.5 0.5 0 0 0 228.870863 67.792622 L 231.573715 80.508541 Z M 250.207426 76.547823 A 0.5 0.5 0 0 0 250.800456 76.932941 L 263.516375 74.230089 A 0.5 0.5 0 0 0 263.901493 73.63706 L 261.198641 60.921141 A 0.5 0.5 0 0 0 260.605611 60.536023 L 247.889692 63.238875 A 0.5 0.5 0 0 0 247.504574 63.831905 L 250.207426 76.547823 Z M 268.841138 72.587106 A 0.5 0.5 0 0 0 269.434168 72.972224 L 282.150087 70.269372 A 0.5 0.5 0 0 0 282.535205 69.676342 L 279.832353 56.960423 A 0.5 0.5 0 0 0 279.239323 56.575305 L 266.523404 59.278157 A 0.5 0.5 0 0 0 266.138286 59.871187 L 268.841138 72.587106 Z M 287.47485 68.62639 A 0.5 0.5 0 0 0 288.06788 69.011508 L 300.783798 66.308656 A 0.5 0.5 0 0 0 301.168916 65.715626 L 298.466064 52.999707 A 0.5 0.5 0 0 0 297.873035 52.614589 L 285.157116 55.317441 A 0.5 0.5 0 0 0 284.771998 55.910471 L 287.47485 68.62639 Z M 306.108562 64.665672 A 0.5 0.5 0 0 0 306.701591 65.05079 L 319.41751 62.347938 A 0.5 0.5 0 0 0 319.802628 61.754908 L 317.099776 49.038989 A 0.5 0.5 0 0 0 316.506746 48.653871 L 303.790828 51.356723 A 0.5 0.5 0 0 0 303.40571 51.949753 L 306.108562 64.665672 Z M 226.217577 101.122613 A 0.5 0.5 0 0 0 226.810606 101.507731 L 239.526525 98.804879 A 0.5 0.5 0 0 0 239.911643 98.211849 L 237.208791 85.495931 A 0.5 0.5 0 0 0 236.615761 85.110813 L 223.899843 87.813665 A 0.5 0.5 0 0 0 223.514725 88.406694 L 226.217577 101.122613 Z M 244.851288 97.161895 A 0.5 0.5 0 0 0 245.444318 97.547013 L 258.160237 94.844161 A 0.5 0.5 0 0 0 258.545355 94.251131 L 255.842503 81.535213 A 0.5 0.5 0 0 0 255.249473 81.150095 L 242.533554 83.852947 A 0.5 0.5 0 0 0 242.148436 84.445976 L 244.851288 97.161895 Z M 263.485 93.201177 A 0.5 0.5 0 0 0 264.07803 93.586295 L 276.793949 90.883443 A 0.5 0.5 0 0 0 277.179067 90.290414 L 274.476215 77.574495 A 0.5 0.5 0 0 0 273.883185 77.189377 L 261.167266 79.892229 A 0.5 0.5 0 0 0 260.782148 80.485258 L 263.485 93.201177 Z M 282.118712 89.240459 A 0.5 0.5 0 0 0 282.711742 89.625577 L 295.42766 86.922725 A 0.5 0.5 0 0 0 295.812778 86.329696 L 293.109926 73.613777 A 0.5 0.5 0 0 0 292.516897 73.228659 L 279.800978 75.931511 A 0.5 0.5 0 0 0 279.41586 76.52454 L 282.118712 89.240459 Z M 300.752424 85.279741 A 0.5 0.5 0 0 0 301.345453 85.664859 L 314.061372 82.962007 A 0.5 0.5 0 0 0 314.44649 82.368978 L 311.743638 69.653059 A 0.5 0.5 0 0 0 311.150608 69.267941 L 298.43469 71.970793 A 0.5 0.5 0 0 0 298.049572 72.563823 L 300.752424 85.279741 Z M 319.386135 81.319024 A 0.5 0.5 0 0 0 319.979165 81.704142 L 332.695084 79.00129 A 0.5 0.5 0 0 0 333.080202 78.40826 L 330.37735 65.692341 A 0.5 0.5 0 0 0 329.78432 65.307223 L 317.068401 68.010075 A 0.5 0.5 0 0 0 316.683283 68.603105 L 319.386135 81.319024 Z M 345.00749 75.873036 A 0.5 0.5 0 0 0 345.60052 76.258154 L 358.316439 73.555302 A 0.5 0.5 0 0 0 358.701557 72.962273 L 355.998705 60.246354 A 0.5 0.5 0 0 0 355.405675 59.861236 L 342.689756 62.564088 A 0.5 0.5 0 0 0 342.304638 63.157117 L 345.00749 75.873036 Z M 192.910871 127.67776 A 0.5 0.5 0 0 0 193.5039 128.062878 L 206.219819 125.360026 A 0.5 0.5 0 0 0 206.604937 124.766997 L 203.902085 112.051078 A 0.5 0.5 0 0 0 203.309056 111.66596 L 190.593137 114.368812 A 0.5 0.5 0 0 0 190.208019 114.961842 L 192.910871 127.67776 Z M 248.812006 115.795607 A 0.5 0.5 0 0 0 249.405036 116.180725 L 262.120955 113.477873 A 0.5 0.5 0 0 0 262.506073 112.884843 L 259.803221 100.168924 A 0.5 0.5 0 0 0 259.210191 99.783806 L 246.494272 102.486658 A 0.5 0.5 0 0 0 246.109154 103.079688 L 248.812006 115.795607 Z M 267.445718 111.834889 A 0.5 0.5 0 0 0 268.038748 112.220007 L 280.754666 109.517155 A 0.5 0.5 0 0 0 281.139784 108.924125 L 278.436932 96.208207 A 0.5 0.5 0 0 0 277.843903 95.823089 L 265.127984 98.525941 A 0.5 0.5 0 0 0 264.742866 99.11897 L 267.445718 111.834889 Z M 286.07943 107.874171 A 0.5 0.5 0 0 0 286.672459 108.259289 L 299.388378 105.556437 A 0.5 0.5 0 0 0 299.773496 104.963407 L 297.070644 92.247489 A 0.5 0.5 0 0 0 296.477615 91.862371 L 283.761696 94.565223 A 0.5 0.5 0 0 0 283.376578 95.158252 L 286.07943 107.874171 Z M 304.713142 103.913453 A 0.5 0.5 0 0 0 305.306171 104.298571 L 318.02209 101.595719 A 0.5 0.5 0 0 0 318.407208 101.00269 L 315.704356 88.286771 A 0.5 0.5 0 0 0 315.111326 87.901653 L 302.395408 90.604505 A 0.5 0.5 0 0 0 302.01029 91.197534 L 304.713142 103.913453 Z M 323.346853 99.952735 A 0.5 0.5 0 0 0 323.939883 100.337853 L 336.655802 97.635001 A 0.5 0.5 0 0 0 337.04092 97.041972 L 334.338068 84.326053 A 0.5 0.5 0 0 0 333.745038 83.940935 L 321.029119 86.643787 A 0.5 0.5 0 0 0 320.644001 87.236817 L 323.346853 99.952735 Z M 348.968208 94.506748 A 0.5 0.5 0 0 0 349.561238 94.891866 L 362.277156 92.189014 A 0.5 0.5 0 0 0 362.662274 91.595984 L 359.959422 78.880066 A 0.5 0.5 0 0 0 359.366393 78.494948 L 346.650474 81.1978 A 0.5 0.5 0 0 0 346.265356 81.790829 L 348.968208 94.506748 Z M 123.942229 116.277115 A 0.5 0.5 0 0 0 124.327347 116.870145 L 125.305495 117.078056 A 0.5 0.5 0 0 0 125.898524 116.692938 L 128.601376 103.977019 A 0.5 0.5 0 0 0 128.216258 103.38399 L 127.238111 103.176078 A 0.5 0.5 0 0 0 126.645081 103.561196 L 123.942229 116.277115 Z M 159.644616 123.865892 A 0.5 0.5 0 0 0 160.029734 124.458921 L 161.007882 124.666833 A 0.5 0.5 0 0 0 161.600912 124.281715 L 164.303764 111.565796 A 0.5 0.5 0 0 0 163.918646 110.972767 L 162.940498 110.764855 A 0.5 0.5 0 0 0 162.347468 111.149973 L 159.644616 123.865892 Z M 318.813815 23.01391 A 0.5 0.5 0 0 0 319.406845 23.399028 L 320.384993 23.191116 A 0.5 0.5 0 0 0 320.770111 22.598086 L 318.067259 9.882167 A 0.5 0.5 0 0 0 317.474229 9.497049 L 316.496081 9.704961 A 0.5 0.5 0 0 0 316.110963 10.297991 L 318.813815 23.01391 Z M 354.516203 15.425133 A 0.5 0.5 0 0 0 355.109232 15.810251 L 356.08738 15.602339 A 0.5 0.5 0 0 0 356.472498 15.00931 L 353.769646 2.293391 A 0.5 0.5 0 0 0 353.176616 1.908273 L 352.198469 2.116184 A 0.5 0.5 0 0 0 351.813351 2.709214 L 354.516203 15.425133 Z M 208.87913 124.283601 A 0.5 0.5 0 0 0 209.47216 124.668719 L 210.450308 124.460807 A 0.5 0.5 0 0 0 210.835426 123.867778 L 208.132574 111.151859 A 0.5 0.5 0 0 0 207.539544 110.766741 L 206.561396 110.974653 A 0.5 0.5 0 0 0 206.176278 111.567682 L 208.87913 124.283601 Z M 244.581518 116.694824 A 0.5 0.5 0 0 0 245.174547 117.079942 L 246.152695 116.872031 A 0.5 0.5 0 0 0 246.537813 116.279001 L 243.834961 103.563082 A 0.5 0.5 0 0 0 243.241931 103.177964 L 242.263784 103.385876 A 0.5 0.5 0 0 0 241.878666 103.978905 L 244.581518 116.694824 Z M 49.160503 41.955003 A 0.5 0.5 0 0 0 49.545621 42.548033 L 50.523769 42.755944 A 0.5 0.5 0 0 0 51.116799 42.370826 L 53.819651 29.654908 A 0.5 0.5 0 0 0 53.434533 29.061878 L 52.456385 28.853966 A 0.5 0.5 0 0 0 51.863355 29.239084 L 49.160503 41.955003 Z M 71.853528 46.778554 A 0.5 0.5 0 0 0 72.238646 47.371584 L 73.216793 47.579496 A 0.5 0.5 0 0 0 73.809823 47.194378 L 76.512675 34.478459 A 0.5 0.5 0 0 0 76.127557 33.885429 L 75.149409 33.677517 A 0.5 0.5 0 0 0 74.55638 34.062635 L 71.853528 46.778554 Z M 7.932362 52.667281 A 0.5 0.5 0 0 0 8.31748 53.26031 L 9.295628 53.468222 A 0.5 0.5 0 0 0 9.888657 53.083104 L 12.591509 40.367185 A 0.5 0.5 0 0 0 12.206391 39.774156 L 11.228244 39.566244 A 0.5 0.5 0 0 0 10.635214 39.951362 L 7.932362 52.667281 Z M 30.625386 57.490832 A 0.5 0.5 0 0 0 31.010504 58.083862 L 31.988652 58.291773 A 0.5 0.5 0 0 0 32.581682 57.906655 L 35.284534 45.190737 A 0.5 0.5 0 0 0 34.899416 44.597707 L 33.921268 44.389795 A 0.5 0.5 0 0 0 33.328238 44.774913 L 30.625386 57.490832 Z M 0.010926 89.934704 A 0.5 0.5 0 0 0 0.396044 90.527734 L 1.374192 90.735646 A 0.5 0.5 0 0 0 1.967221 90.350528 L 4.670073 77.634609 A 0.5 0.5 0 0 0 4.284955 77.041579 L 3.306808 76.833668 A 0.5 0.5 0 0 0 2.713778 77.218786 L 0.010926 89.934704 Z M 22.703951 94.758256 A 0.5 0.5 0 0 0 23.089069 95.351285 L 24.067216 95.559197 A 0.5 0.5 0 0 0 24.660246 95.174079 L 27.363098 82.45816 A 0.5 0.5 0 0 0 26.97798 81.865131 L 25.999832 81.657219 A 0.5 0.5 0 0 0 25.406803 82.042337 L 22.703951 94.758256 Z M 27.961494 95.87578 A 0.5 0.5 0 0 0 28.346612 96.46881 L 29.324759 96.676722 A 0.5 0.5 0 0 0 29.917789 96.291604 L 32.620641 83.575685 A 0.5 0.5 0 0 0 32.235523 82.982655 L 31.257376 82.774743 A 0.5 0.5 0 0 0 30.664346 83.159861 L 27.961494 95.87578 Z M 50.654518 100.699332 A 0.5 0.5 0 0 0 51.039636 101.292361 L 52.017784 101.500273 A 0.5 0.5 0 0 0 52.610813 101.115155 L 55.313665 88.399236 A 0.5 0.5 0 0 0 54.928547 87.806206 L 53.9504 87.598295 A 0.5 0.5 0 0 0 53.35737 87.983413 L 50.654518 100.699331 Z M 55.912062 101.816856 A 0.5 0.5 0 0 0 56.29718 102.409886 L 57.275327 102.617797 A 0.5 0.5 0 0 0 57.868357 102.232679 L 60.571209 89.516761 A 0.5 0.5 0 0 0 60.186091 88.923731 L 59.207943 88.715819 A 0.5 0.5 0 0 0 58.614914 89.100937 L 55.912062 101.816856 Z M 78.605086 106.640407 A 0.5 0.5 0 0 0 78.990204 107.233437 L 79.968351 107.441349 A 0.5 0.5 0 0 0 80.561381 107.056231 L 83.264233 94.340312 A 0.5 0.5 0 0 0 82.879115 93.747282 L 81.900968 93.539371 A 0.5 0.5 0 0 0 81.307938 93.924489 L 78.605086 106.640407 Z M 333.937641 39.27483 A 0.5 0.5 0 0 0 334.53067 39.659948 L 335.508818 39.452036 A 0.5 0.5 0 0 0 335.893936 38.859006 L 333.191084 26.143087 A 0.5 0.5 0 0 0 332.598054 25.757969 L 331.619907 25.965881 A 0.5 0.5 0 0 0 331.234789 26.558911 L 333.937641 39.27483 Z M 356.630665 34.451278 A 0.5 0.5 0 0 0 357.223695 34.836396 L 358.201842 34.628485 A 0.5 0.5 0 0 0 358.58696 34.035455 L 355.884108 21.319536 A 0.5 0.5 0 0 0 355.291079 20.934418 L 354.312931 21.14233 A 0.5 0.5 0 0 0 353.927813 21.735359 L 356.630665 34.451278 Z" vector-effect="non-scaling-stroke"/></g></svg>