<svg width="362.673201mm" height="128.807415mm" viewBox="0 0 362.673201 128.807415" xmlns="http://www.w3.org/2000/svg"><g id="svgGroup" stroke-linecap="round" fill-rule="evenodd" font-size="9pt" stroke="#000" stroke-width="0.25mm" fill="none" style="stroke:#000;stroke-width:0.25mm;fill:none"><path d="M 16.672996 16.307593 A 0.5 0.5 0 0 0 17.058114 16.900622 L 29.774033 19.603474 A 0.5 0.5 0 0 0 30.367063 19.218356 L 33.069915 6.502437 A 0.5 0.5 0 0 0 32.684797 5.909408 L 19.968878 3.206556 A 0.5 0.5 0 0 0 19.375848 3.591674 L 16.672996 16.307593 Z M 35.306708 20.26831 A 0.5 0.5 0 0 0 35.691826 20.86134 L 48.407745 23.564192 A 0.5 0.5 0 0 0 49.000775 23.179074 L 51.703627 10.463155 A 0.5 0.5 0 0 0 51.318509 9.870126 L 38.60259 7.167274 A 0.5 0.5 0 0 0 38.00956 7.552392 L 35.306708 20.26831 Z M 53.94042 24.229028 A 0.5 0.5 0 0 0 54.325538 24.822058 L 67.041457 27.52491 A 0.5 0.5 0 0 0 67.634486 27.139792 L 70.337338 14.423873 A 0.5 0.5 0 0 0 69.95222 13.830844 L 57.236302 11.127992 A 0.5 0.5 0 0 0 56.643272 11.51311 L 53.94042 24.229028 Z M 72.574132 28.189746 A 0.5 0.5 0 0 0 72.95925 28.782776 L 85.675169 31.485628 A 0.5 0.5 0 0 0 86.268198 31.10051 L 88.97105 18.384591 A 0.5 0.5 0 0 0 88.585932 17.791561 L 75.870013 15.088709 A 0.5 0.5 0 0 0 75.276984 15.473827 L 72.574132 28.189746 Z M 91.207844 32.150464 A 0.5 0.5 0 0 0 91.592962 32.743494 L 104.30888 35.446346 A 0.5 0.5 0 0 0 104.90191 35.061228 L 107.604762 22.345309 A 0.5 0.5 0 0 0 107.219644 21.752279 L 94.503725 19.049427 A 0.5 0.5 0 0 0 93.910696 19.434545 L 91.207844 32.150464 Z M 109.841555 36.111182 A 0.5 0.5 0 0 0 110.226673 36.704212 L 122.942592 39.407064 A 0.5 0.5 0 0 0 123.535622 39.021946 L 126.238474 26.306027 A 0.5 0.5 0 0 0 125.853356 25.712997 L 113.137437 23.010145 A 0.5 0.5 0 0 0 112.544407 23.395263 L 109.841555 36.111182 Z M 128.475267 40.0719 A 0.5 0.5 0 0 0 128.860385 40.664929 L 141.576304 43.367781 A 0.5 0.5 0 0 0 142.169333 42.982663 L 144.872185 30.266745 A 0.5 0.5 0 0 0 144.487067 29.673715 L 131.771149 26.970863 A 0.5 0.5 0 0 0 131.178119 27.355981 L 128.475267 40.0719 Z M 147.108979 44.032618 A 0.5 0.5 0 0 0 147.494097 44.625647 L 160.210016 47.328499 A 0.5 0.5 0 0 0 160.803045 46.943381 L 163.505897 34.227463 A 0.5 0.5 0 0 0 163.120779 33.634433 L 150.40486 30.931581 A 0.5 0.5 0 0 0 149.811831 31.316699 L 147.108979 44.032618 Z M 165.742691 47.993336 A 0.5 0.5 0 0 0 166.127809 48.586365 L 178.843727 51.289217 A 0.5 0.5 0 0 0 179.436757 50.904099 L 182.139609 38.18818 A 0.5 0.5 0 0 0 181.754491 37.595151 L 169.038572 34.892299 A 0.5 0.5 0 0 0 168.445543 35.277417 L 165.742691 47.993336 Z M 12.712279 34.941304 A 0.5 0.5 0 0 0 13.097397 35.534334 L 25.813315 38.237186 A 0.5 0.5 0 0 0 26.406345 37.852068 L 29.109197 25.136149 A 0.5 0.5 0 0 0 28.724079 24.54312 L 16.00816 21.840268 A 0.5 0.5 0 0 0 15.415131 22.225386 L 12.712279 34.941304 Z M 31.34599 38.902022 A 0.5 0.5 0 0 0 31.731108 39.495052 L 44.447027 42.197904 A 0.5 0.5 0 0 0 45.040057 41.812786 L 47.742909 29.096867 A 0.5 0.5 0 0 0 47.357791 28.503837 L 34.641872 25.800985 A 0.5 0.5 0 0 0 34.048842 26.186103 L 31.34599 38.902022 Z M 54.63813 43.852919 A 0.5 0.5 0 0 0 55.023248 44.445949 L 67.739167 47.148801 A 0.5 0.5 0 0 0 68.332196 46.763683 L 71.035048 34.047764 A 0.5 0.5 0 0 0 70.64993 33.454734 L 57.934012 30.751882 A 0.5 0.5 0 0 0 57.340982 31.137 L 54.63813 43.852919 Z M 77.93027 48.803818 A 0.5 0.5 0 0 0 78.315388 49.396847 L 91.031307 52.099699 A 0.5 0.5 0 0 0 91.624336 51.714581 L 94.327188 38.998663 A 0.5 0.5 0 0 0 93.94207 38.405633 L 81.226151 35.702781 A 0.5 0.5 0 0 0 80.633122 36.087899 L 77.93027 48.803818 Z M 96.563982 52.764536 A 0.5 0.5 0 0 0 96.9491 53.357565 L 109.665018 56.060417 A 0.5 0.5 0 0 0 110.258048 55.675299 L 112.9609 42.959381 A 0.5 0.5 0 0 0 112.575782 42.366351 L 99.859863 39.663499 A 0.5 0.5 0 0 0 99.266834 40.048617 L 96.563982 52.764536 Z M 115.197693 56.725252 A 0.5 0.5 0 0 0 115.582811 57.318281 L 128.29873 60.021133 A 0.5 0.5 0 0 0 128.89176 59.636015 L 131.594612 46.920097 A 0.5 0.5 0 0 0 131.209494 46.327067 L 118.493575 43.624215 A 0.5 0.5 0 0 0 117.900545 44.009333 L 115.197693 56.725252 Z M 133.831405 60.68597 A 0.5 0.5 0 0 0 134.216523 61.278999 L 146.932442 63.981851 A 0.5 0.5 0 0 0 147.525471 63.596733 L 150.228323 50.880814 A 0.5 0.5 0 0 0 149.843205 50.287785 L 137.127287 47.584933 A 0.5 0.5 0 0 0 136.534257 47.970051 L 133.831405 60.68597 Z M 152.465117 64.646688 A 0.5 0.5 0 0 0 152.850235 65.239717 L 165.566154 67.942569 A 0.5 0.5 0 0 0 166.159183 67.557451 L 168.862035 54.841532 A 0.5 0.5 0 0 0 168.476917 54.248503 L 155.760998 51.545651 A 0.5 0.5 0 0 0 155.167969 51.930769 L 152.465117 64.646688 Z M 13.409989 54.565197 A 0.5 0.5 0 0 0 13.795107 55.158227 L 26.511025 57.861079 A 0.5 0.5 0 0 0 27.104055 57.475961 L 29.806907 44.760042 A 0.5 0.5 0 0 0 29.421789 44.167012 L 16.70587 41.46416 A 0.5 0.5 0 0 0 16.112841 41.849278 L 13.409989 54.565197 Z M 43.689771 61.001363 A 0.5 0.5 0 0 0 44.074889 61.594393 L 56.790808 64.297245 A 0.5 0.5 0 0 0 57.383838 63.912127 L 60.08669 51.196208 A 0.5 0.5 0 0 0 59.701572 50.603179 L 46.985653 47.900327 A 0.5 0.5 0 0 0 46.392623 48.285445 L 43.689771 61.001363 Z M 69.311124 66.447349 A 0.5 0.5 0 0 0 69.696242 67.040378 L 82.412161 69.74323 A 0.5 0.5 0 0 0 83.00519 69.358112 L 85.708042 56.642194 A 0.5 0.5 0 0 0 85.322924 56.049164 L 72.607006 53.346312 A 0.5 0.5 0 0 0 72.013976 53.73143 L 69.311124 66.447349 Z M 87.944836 70.408067 A 0.5 0.5 0 0 0 88.329954 71.001096 L 101.045872 73.703948 A 0.5 0.5 0 0 0 101.638902 73.31883 L 104.341754 60.602911 A 0.5 0.5 0 0 0 103.956636 60.009882 L 91.240717 57.30703 A 0.5 0.5 0 0 0 90.647688 57.692148 L 87.944836 70.408067 Z M 106.578547 74.368785 A 0.5 0.5 0 0 0 106.963665 74.961814 L 119.679584 77.664666 A 0.5 0.5 0 0 0 120.272614 77.279548 L 122.975466 64.563629 A 0.5 0.5 0 0 0 122.590348 63.9706 L 109.874429 61.267748 A 0.5 0.5 0 0 0 109.281399 61.652866 L 106.578547 74.368785 Z M 125.212259 78.329502 A 0.5 0.5 0 0 0 125.597377 78.922532 L 138.313296 81.625384 A 0.5 0.5 0 0 0 138.906326 81.240266 L 141.609178 68.524347 A 0.5 0.5 0 0 0 141.22406 67.931318 L 128.508141 65.228466 A 0.5 0.5 0 0 0 127.915111 65.613584 L 125.212259 78.329502 Z M 143.845971 82.29022 A 0.5 0.5 0 0 0 144.231089 82.88325 L 156.947008 85.586102 A 0.5 0.5 0 0 0 157.540037 85.200984 L 160.242889 72.485065 A 0.5 0.5 0 0 0 159.857771 71.892036 L 147.141853 69.189184 A 0.5 0.5 0 0 0 146.548823 69.574302 L 143.845971 82.29022 Z M 4.790843 72.208728 A 0.5 0.5 0 0 0 5.175961 72.801757 L 17.89188 75.504609 A 0.5 0.5 0 0 0 18.484909 75.119491 L 21.187761 62.403573 A 0.5 0.5 0 0 0 20.802643 61.810543 L 8.086724 59.107691 A 0.5 0.5 0 0 0 7.493695 59.492809 L 4.790843 72.208728 Z M 30.412197 77.654715 A 0.5 0.5 0 0 0 30.797315 78.247745 L 43.513234 80.950597 A 0.5 0.5 0 0 0 44.106264 80.565479 L 46.809116 67.84956 A 0.5 0.5 0 0 0 46.423998 67.25653 L 33.708079 64.553678 A 0.5 0.5 0 0 0 33.115049 64.938796 L 30.412197 77.654715 Z M 56.03355 83.100703 A 0.5 0.5 0 0 0 56.418668 83.693732 L 69.134587 86.396584 A 0.5 0.5 0 0 0 69.727617 86.011466 L 72.430469 73.295547 A 0.5 0.5 0 0 0 72.045351 72.702518 L 59.329432 69.999666 A 0.5 0.5 0 0 0 58.736402 70.384784 L 56.03355 83.100703 Z M 74.667262 87.06142 A 0.5 0.5 0 0 0 75.05238 87.65445 L 87.768299 90.357302 A 0.5 0.5 0 0 0 88.361328 89.972184 L 91.06418 77.256265 A 0.5 0.5 0 0 0 90.679062 76.663236 L 77.963144 73.960384 A 0.5 0.5 0 0 0 77.370114 74.345502 L 74.667262 87.06142 Z M 93.300974 91.022138 A 0.5 0.5 0 0 0 93.686092 91.615168 L 106.40201 94.31802 A 0.5 0.5 0 0 0 106.99504 93.932902 L 109.697892 81.216983 A 0.5 0.5 0 0 0 109.312774 80.623954 L 96.596855 77.921102 A 0.5 0.5 0 0 0 96.003826 78.30622 L 93.300974 91.022138 Z M 111.934685 94.982856 A 0.5 0.5 0 0 0 112.319803 95.575886 L 125.035722 98.278738 A 0.5 0.5 0 0 0 125.628752 97.89362 L 128.331604 85.177701 A 0.5 0.5 0 0 0 127.946486 84.584671 L 115.230567 81.881819 A 0.5 0.5 0 0 0 114.637537 82.266937 L 111.934685 94.982856 Z M 130.568397 98.943574 A 0.5 0.5 0 0 0 130.953515 99.536604 L 143.669434 102.239456 A 0.5 0.5 0 0 0 144.262464 101.854338 L 146.965316 89.138419 A 0.5 0.5 0 0 0 146.580198 88.545389 L 133.864279 85.842537 A 0.5 0.5 0 0 0 133.271249 86.227655 L 130.568397 98.943574 Z M 5.488553 91.832621 A 0.5 0.5 0 0 0 5.873671 92.42565 L 18.58959 95.128502 A 0.5 0.5 0 0 0 19.182619 94.743384 L 21.885471 82.027465 A 0.5 0.5 0 0 0 21.500353 81.434436 L 8.784434 78.731584 A 0.5 0.5 0 0 0 8.191405 79.116702 L 5.488553 91.832621 Z M 33.43912 97.773696 A 0.5 0.5 0 0 0 33.824238 98.366726 L 46.540157 101.069578 A 0.5 0.5 0 0 0 47.133187 100.68446 L 49.836039 87.968541 A 0.5 0.5 0 0 0 49.450921 87.375512 L 36.735002 84.67266 A 0.5 0.5 0 0 0 36.141972 85.057778 L 33.43912 97.773696 Z M 61.389688 103.714772 A 0.5 0.5 0 0 0 61.774806 104.307802 L 74.490725 107.010654 A 0.5 0.5 0 0 0 75.083755 106.625536 L 77.786607 93.909617 A 0.5 0.5 0 0 0 77.401489 93.316588 L 64.68557 90.613736 A 0.5 0.5 0 0 0 64.09254 90.998854 L 61.389688 103.714772 Z M 87.011043 109.16076 A 0.5 0.5 0 0 0 87.396161 109.753789 L 100.11208 112.456641 A 0.5 0.5 0 0 0 100.705109 112.071523 L 103.407961 99.355604 A 0.5 0.5 0 0 0 103.022843 98.762575 L 90.306924 96.059723 A 0.5 0.5 0 0 0 89.713895 96.444841 L 87.011043 109.16076 Z M 107.973968 113.616568 A 0.5 0.5 0 0 0 108.359086 114.209598 L 121.075004 116.91245 A 0.5 0.5 0 0 0 121.668034 116.527332 L 124.370886 103.811413 A 0.5 0.5 0 0 0 123.985768 103.218383 L 111.269849 100.515531 A 0.5 0.5 0 0 0 110.67682 100.900649 L 107.973968 113.616568 Z M 135.924537 119.557644 A 0.5 0.5 0 0 0 136.309655 120.150673 L 149.025574 122.853525 A 0.5 0.5 0 0 0 149.618604 122.468407 L 152.321456 109.752489 A 0.5 0.5 0 0 0 151.936338 109.159459 L 139.220419 106.456607 A 0.5 0.5 0 0 0 138.627389 106.841725 L 135.924537 119.557644 Z M 163.875105 125.49872 A 0.5 0.5 0 0 0 164.260223 126.091749 L 176.976142 128.794601 A 0.5 0.5 0 0 0 177.569171 128.409483 L 180.272023 115.693565 A 0.5 0.5 0 0 0 179.886905 115.100535 L 167.170986 112.397683 A 0.5 0.5 0 0 0 166.577957 112.782801 L 163.875105 125.49872 Z M 191.043283 50.905985 A 0.5 0.5 0 0 0 191.636313 51.291103 L 204.352232 48.588251 A 0.5 0.5 0 0 0 204.73735 47.995222 L 202.034498 35.279303 A 0.5 0.5 0 0 0 201.441468 34.894185 L 188.725549 37.597037 A 0.5 0.5 0 0 0 188.340431 38.190066 L 191.043283 50.905985 Z M 209.676995 46.945267 A 0.5 0.5 0 0 0 210.270025 47.330385 L 222.985943 44.627533 A 0.5 0.5 0 0 0 223.371061 44.034504 L 220.668209 31.318585 A 0.5 0.5 0 0 0 220.07518 30.933467 L 207.359261 33.636319 A 0.5 0.5 0 0 0 206.974143 34.229349 L 209.676995 46.945267 Z M 228.310707 42.984549 A 0.5 0.5 0 0 0 228.903736 43.369667 L 241.619655 40.666815 A 0.5 0.5 0 0 0 242.004773 40.073786 L 239.301921 27.357867 A 0.5 0.5 0 0 0 238.708892 26.972749 L 225.992973 29.675601 A 0.5 0.5 0 0 0 225.607855 30.268631 L 228.310707 42.984549 Z M 246.944419 39.023832 A 0.5 0.5 0 0 0 247.537448 39.40895 L 260.253367 36.706098 A 0.5 0.5 0 0 0 260.638485 36.113068 L 257.935633 23.397149 A 0.5 0.5 0 0 0 257.342603 23.012031 L 244.626685 25.714883 A 0.5 0.5 0 0 0 244.241567 26.307913 L 246.944419 39.023832 Z M 265.57813 35.063114 A 0.5 0.5 0 0 0 266.17116 35.448232 L 278.887079 32.74538 A 0.5 0.5 0 0 0 279.272197 32.15235 L 276.569345 19.436431 A 0.5 0.5 0 0 0 275.976315 19.051313 L 263.260396 21.754165 A 0.5 0.5 0 0 0 262.875278 22.347195 L 265.57813 35.063114 Z M 284.211842 31.102396 A 0.5 0.5 0 0 0 284.804872 31.487514 L 297.52079 28.784662 A 0.5 0.5 0 0 0 297.905908 28.191632 L 295.203056 15.475713 A 0.5 0.5 0 0 0 294.610027 15.090595 L 281.894108 17.793447 A 0.5 0.5 0 0 0 281.50899 18.386477 L 284.211842 31.102396 Z M 302.845556 27.141678 A 0.5 0.5 0 0 0 303.438585 27.526796 L 316.154504 24.823944 A 0.5 0.5 0 0 0 316.539622 24.230914 L 313.83677 11.514995 A 0.5 0.5 0 0 0 313.243741 11.129877 L 300.527822 13.832729 A 0.5 0.5 0 0 0 300.142704 14.425759 L 302.845556 27.141678 Z M 330.796123 21.200602 A 0.5 0.5 0 0 0 331.389153 21.58572 L 344.105072 18.882868 A 0.5 0.5 0 0 0 344.49019 18.289838 L 341.787338 5.57392 A 0.5 0.5 0 0 0 341.194308 5.188802 L 328.478389 7.891654 A 0.5 0.5 0 0 0 328.093271 8.484683 L 330.796123 21.200602 Z M 204.320857 67.559337 A 0.5 0.5 0 0 0 204.913887 67.944455 L 217.629805 65.241603 A 0.5 0.5 0 0 0 218.014923 64.648573 L 215.312071 51.932655 A 0.5 0.5 0 0 0 214.719042 51.547537 L 202.003123 54.250389 A 0.5 0.5 0 0 0 201.618005 54.843418 L 204.320857 67.559337 Z M 222.954569 63.598621 A 0.5 0.5 0 0 0 223.547598 63.983739 L 236.263517 61.280887 A 0.5 0.5 0 0 0 236.648635 60.687857 L 233.945783 47.971939 A 0.5 0.5 0 0 0 233.352754 47.586821 L 220.636835 50.289673 A 0.5 0.5 0 0 0 220.251717 50.882702 L 222.954569 63.598621 Z M 241.588281 59.637903 A 0.5 0.5 0 0 0 242.18131 60.023021 L 254.897229 57.320169 A 0.5 0.5 0 0 0 255.282347 56.72714 L 252.579495 44.011221 A 0.5 0.5 0 0 0 251.986465 43.626103 L 239.270547 46.328955 A 0.5 0.5 0 0 0 238.885429 46.921984 L 241.588281 59.637903 Z M 260.221992 55.677185 A 0.5 0.5 0 0 0 260.815022 56.062303 L 273.530941 53.359451 A 0.5 0.5 0 0 0 273.916059 52.766422 L 271.213207 40.050503 A 0.5 0.5 0 0 0 270.620177 39.665385 L 257.904258 42.368237 A 0.5 0.5 0 0 0 257.51914 42.961267 L 260.221992 55.677185 Z M 278.855704 51.716467 A 0.5 0.5 0 0 0 279.448734 52.101585 L 292.164652 49.398733 A 0.5 0.5 0 0 0 292.54977 48.805704 L 289.846918 36.089785 A 0.5 0.5 0 0 0 289.253889 35.704667 L 276.53797 38.407519 A 0.5 0.5 0 0 0 276.152852 39.000549 L 278.855704 51.716467 Z M 297.489416 47.75575 A 0.5 0.5 0 0 0 298.082445 48.140868 L 310.798364 45.438016 A 0.5 0.5 0 0 0 311.183482 44.844986 L 308.48063 32.129067 A 0.5 0.5 0 0 0 307.887601 31.743949 L 295.171682 34.446801 A 0.5 0.5 0 0 0 294.786564 35.039831 L 297.489416 47.75575 Z M 316.123128 43.795032 A 0.5 0.5 0 0 0 316.716157 44.18015 L 329.432076 41.477298 A 0.5 0.5 0 0 0 329.817194 40.884268 L 327.114342 28.168349 A 0.5 0.5 0 0 0 326.521312 27.783231 L 313.805394 30.486083 A 0.5 0.5 0 0 0 313.420276 31.079113 L 316.123128 43.795032 Z M 339.415267 38.844135 A 0.5 0.5 0 0 0 340.008297 39.229253 L 352.724216 36.526401 A 0.5 0.5 0 0 0 353.109334 35.933371 L 350.406482 23.217452 A 0.5 0.5 0 0 0 349.813452 22.832334 L 337.097533 25.535186 A 0.5 0.5 0 0 0 336.712415 26.128216 L 339.415267 38.844135 Z M 212.940003 85.20287 A 0.5 0.5 0 0 0 213.533032 85.587988 L 226.248951 82.885136 A 0.5 0.5 0 0 0 226.634069 82.292106 L 223.931217 69.576187 A 0.5 0.5 0 0 0 223.338188 69.191069 L 210.622269 71.893921 A 0.5 0.5 0 0 0 210.237151 72.486951 L 212.940003 85.20287 Z M 231.573715 81.242152 A 0.5 0.5 0 0 0 232.166744 81.62727 L 244.882663 78.924418 A 0.5 0.5 0 0 0 245.267781 78.331388 L 242.564929 65.61547 A 0.5 0.5 0 0 0 241.971899 65.230352 L 229.255981 67.933204 A 0.5 0.5 0 0 0 228.870863 68.526233 L 231.573715 81.242152 Z M 250.207426 77.281434 A 0.5 0.5 0 0 0 250.800456 77.666552 L 263.516375 74.9637 A 0.5 0.5 0 0 0 263.901493 74.37067 L 261.198641 61.654752 A 0.5 0.5 0 0 0 260.605611 61.269634 L 247.889692 63.972486 A 0.5 0.5 0 0 0 247.504574 64.565515 L 250.207426 77.281434 Z M 268.841138 73.320716 A 0.5 0.5 0 0 0 269.434168 73.705834 L 282.150087 71.002982 A 0.5 0.5 0 0 0 282.535205 70.409953 L 279.832353 57.694034 A 0.5 0.5 0 0 0 279.239323 57.308916 L 266.523404 60.011768 A 0.5 0.5 0 0 0 266.138286 60.604797 L 268.841138 73.320716 Z M 287.47485 69.36 A 0.5 0.5 0 0 0 288.06788 69.745118 L 300.783798 67.042266 A 0.5 0.5 0 0 0 301.168916 66.449237 L 298.466064 53.733318 A 0.5 0.5 0 0 0 297.873035 53.3482 L 285.157116 56.051052 A 0.5 0.5 0 0 0 284.771998 56.644081 L 287.47485 69.36 Z M 306.108562 65.399282 A 0.5 0.5 0 0 0 306.701591 65.7844 L 319.41751 63.081548 A 0.5 0.5 0 0 0 319.802628 62.488519 L 317.099776 49.7726 A 0.5 0.5 0 0 0 316.506746 49.387482 L 303.790828 52.090334 A 0.5 0.5 0 0 0 303.40571 52.683364 L 306.108562 65.399282 Z M 336.388344 58.963116 A 0.5 0.5 0 0 0 336.981374 59.348234 L 349.697293 56.645382 A 0.5 0.5 0 0 0 350.082411 56.052352 L 347.379559 43.336434 A 0.5 0.5 0 0 0 346.786529 42.951316 L 334.07061 45.654168 A 0.5 0.5 0 0 0 333.685492 46.247197 L 336.388344 58.963116 Z M 226.217577 101.856224 A 0.5 0.5 0 0 0 226.810606 102.241342 L 239.526525 99.53849 A 0.5 0.5 0 0 0 239.911643 98.94546 L 237.208791 86.229541 A 0.5 0.5 0 0 0 236.615761 85.844423 L 223.899843 88.547275 A 0.5 0.5 0 0 0 223.514725 89.140305 L 226.217577 101.856224 Z M 244.851288 97.895506 A 0.5 0.5 0 0 0 245.444318 98.280624 L 258.160237 95.577772 A 0.5 0.5 0 0 0 258.545355 94.984742 L 255.842503 82.268823 A 0.5 0.5 0 0 0 255.249473 81.883705 L 242.533554 84.586557 A 0.5 0.5 0 0 0 242.148436 85.179587 L 244.851288 97.895506 Z M 263.485 93.934788 A 0.5 0.5 0 0 0 264.07803 94.319906 L 276.793949 91.617054 A 0.5 0.5 0 0 0 277.179067 91.024024 L 274.476215 78.308105 A 0.5 0.5 0 0 0 273.883185 77.922987 L 261.167266 80.625839 A 0.5 0.5 0 0 0 260.782148 81.218869 L 263.485 93.934788 Z M 282.118712 89.97407 A 0.5 0.5 0 0 0 282.711742 90.359188 L 295.42766 87.656336 A 0.5 0.5 0 0 0 295.812778 87.063306 L 293.109926 74.347388 A 0.5 0.5 0 0 0 292.516897 73.96227 L 279.800978 76.665122 A 0.5 0.5 0 0 0 279.41586 77.258151 L 282.118712 89.97407 Z M 300.752424 86.013352 A 0.5 0.5 0 0 0 301.345453 86.39847 L 314.061372 83.695618 A 0.5 0.5 0 0 0 314.44649 83.102589 L 311.743638 70.38667 A 0.5 0.5 0 0 0 311.150608 70.001552 L 298.43469 72.704404 A 0.5 0.5 0 0 0 298.049572 73.297433 L 300.752424 86.013352 Z M 319.386135 82.052634 A 0.5 0.5 0 0 0 319.979165 82.437752 L 332.695084 79.7349 A 0.5 0.5 0 0 0 333.080202 79.141871 L 330.37735 66.425952 A 0.5 0.5 0 0 0 329.78432 66.040834 L 317.068401 68.743686 A 0.5 0.5 0 0 0 316.683283 69.336715 L 319.386135 82.052634 Z M 345.00749 76.606647 A 0.5 0.5 0 0 0 345.60052 76.991765 L 358.316439 74.288913 A 0.5 0.5 0 0 0 358.701557 73.695883 L 355.998705 60.979964 A 0.5 0.5 0 0 0 355.405675 60.594846 L 342.689756 63.297698 A 0.5 0.5 0 0 0 342.304638 63.890728 L 345.00749 76.606647 Z M 192.910871 128.411371 A 0.5 0.5 0 0 0 193.5039 128.796489 L 206.219819 126.093637 A 0.5 0.5 0 0 0 206.604937 125.500608 L 203.902085 112.784689 A 0.5 0.5 0 0 0 203.309056 112.399571 L 190.593137 115.102423 A 0.5 0.5 0 0 0 190.208019 115.695452 L 192.910871 128.411371 Z M 220.861439 122.470293 A 0.5 0.5 0 0 0 221.454468 122.855411 L 234.170387 120.152559 A 0.5 0.5 0 0 0 234.555505 119.55953 L 231.852653 106.843611 A 0.5 0.5 0 0 0 231.259623 106.458493 L 218.543705 109.161345 A 0.5 0.5 0 0 0 218.158587 109.754375 L 220.861439 122.470293 Z M 248.812006 116.529218 A 0.5 0.5 0 0 0 249.405036 116.914336 L 262.120955 114.211484 A 0.5 0.5 0 0 0 262.506073 113.618454 L 259.803221 100.902535 A 0.5 0.5 0 0 0 259.210191 100.517417 L 246.494272 103.220269 A 0.5 0.5 0 0 0 246.109154 103.813299 L 248.812006 116.529218 Z M 267.445718 112.5685 A 0.5 0.5 0 0 0 268.038748 112.953618 L 280.754666 110.250766 A 0.5 0.5 0 0 0 281.139784 109.657736 L 278.436932 96.941817 A 0.5 0.5 0 0 0 277.843903 96.556699 L 265.127984 99.259551 A 0.5 0.5 0 0 0 264.742866 99.852581 L 267.445718 112.5685 Z M 286.07943 108.607782 A 0.5 0.5 0 0 0 286.672459 108.9929 L 299.388378 106.290048 A 0.5 0.5 0 0 0 299.773496 105.697018 L 297.070644 92.981099 A 0.5 0.5 0 0 0 296.477615 92.595981 L 283.761696 95.298833 A 0.5 0.5 0 0 0 283.376578 95.891863 L 286.07943 108.607782 Z M 304.713142 104.647064 A 0.5 0.5 0 0 0 305.306171 105.032182 L 318.02209 102.32933 A 0.5 0.5 0 0 0 318.407208 101.7363 L 315.704356 89.020381 A 0.5 0.5 0 0 0 315.111326 88.635263 L 302.395408 91.338115 A 0.5 0.5 0 0 0 302.01029 91.931145 L 304.713142 104.647064 Z M 323.346853 100.686346 A 0.5 0.5 0 0 0 323.939883 101.071464 L 336.655802 98.368612 A 0.5 0.5 0 0 0 337.04092 97.775582 L 334.338068 85.059664 A 0.5 0.5 0 0 0 333.745038 84.674546 L 321.029119 87.377398 A 0.5 0.5 0 0 0 320.644001 87.970427 L 323.346853 100.686346 Z M 348.968208 95.240359 A 0.5 0.5 0 0 0 349.561238 95.625477 L 362.277156 92.922625 A 0.5 0.5 0 0 0 362.662274 92.329595 L 359.959422 79.613676 A 0.5 0.5 0 0 0 359.366393 79.228558 L 346.650474 81.93141 A 0.5 0.5 0 0 0 346.265356 82.52444 L 348.968208 95.240359 Z M 150.609356 124.72368 A 0.5 0.5 0 0 0 150.994474 125.316709 L 156.86336 126.564179 A 0.5 0.5 0 0 0 157.45639 126.179061 L 161.302756 108.083331 A 0.5 0.5 0 0 0 160.917638 107.490301 L 155.048752 106.242831 A 0.5 0.5 0 0 0 154.455723 106.627949 L 150.609356 124.72368 Z M 322.958337 24.911256 A 0.5 0.5 0 0 0 323.551367 25.296374 L 329.420253 24.048904 A 0.5 0.5 0 0 0 329.805371 23.455874 L 325.959004 5.360144 A 0.5 0.5 0 0 0 325.365975 4.975026 L 319.497089 6.222496 A 0.5 0.5 0 0 0 319.111971 6.815525 L 322.958337 24.911256 Z M 328.550558 62.67377 A 0.5 0.5 0 0 0 329.143588 63.058888 L 335.012473 61.811418 A 0.5 0.5 0 0 0 335.397591 61.218388 L 331.551225 43.122658 A 0.5 0.5 0 0 0 330.958195 42.73754 L 325.08931 43.98501 A 0.5 0.5 0 0 0 324.704192 44.578039 L 328.550558 62.67377 Z M 213.023652 126.180947 A 0.5 0.5 0 0 0 213.616682 126.566065 L 219.485568 125.318595 A 0.5 0.5 0 0 0 219.870686 124.725566 L 216.024319 106.629835 A 0.5 0.5 0 0 0 215.43129 106.244717 L 209.562404 107.492187 A 0.5 0.5 0 0 0 209.177286 108.085217 L 213.023652 126.180948 Z M 127.255104 119.75958 A 0.5 0.5 0 0 0 127.640222 120.35261 L 133.509108 121.60008 A 0.5 0.5 0 0 0 134.102138 121.214962 L 137.948504 103.119231 A 0.5 0.5 0 0 0 137.563386 102.526202 L 131.6945 101.278732 A 0.5 0.5 0 0 0 131.101471 101.66385 L 127.255104 119.75958 Z M 346.312589 19.947157 A 0.5 0.5 0 0 0 346.905619 20.332275 L 352.774505 19.084804 A 0.5 0.5 0 0 0 353.159623 18.491775 L 349.313256 0.396044 A 0.5 0.5 0 0 0 348.720227 0.010926 L 342.851341 1.258396 A 0.5 0.5 0 0 0 342.466223 1.851426 L 346.312589 19.947157 Z M 351.90481 57.709671 A 0.5 0.5 0 0 0 352.49784 58.094789 L 358.366726 56.847318 A 0.5 0.5 0 0 0 358.751843 56.254289 L 354.905477 38.158558 A 0.5 0.5 0 0 0 354.312448 37.77344 L 348.443562 39.02091 A 0.5 0.5 0 0 0 348.058444 39.61394 L 351.90481 57.709671 Z M 236.377905 121.216848 A 0.5 0.5 0 0 0 236.970934 121.601966 L 242.83982 120.354496 A 0.5 0.5 0 0 0 243.224938 119.761466 L 239.378572 101.665736 A 0.5 0.5 0 0 0 238.785542 101.280618 L 232.916656 102.528088 A 0.5 0.5 0 0 0 232.531538 103.121117 L 236.377905 121.216848 Z M 123.942229 117.010726 A 0.5 0.5 0 0 0 124.327347 117.603755 L 125.305495 117.811667 A 0.5 0.5 0 0 0 125.898524 117.426549 L 128.601376 104.71063 A 0.5 0.5 0 0 0 128.216258 104.117601 L 127.238111 103.909689 A 0.5 0.5 0 0 0 126.645081 104.294807 L 123.942229 117.010726 Z M 159.644616 124.599502 A 0.5 0.5 0 0 0 160.029734 125.192532 L 161.007882 125.400444 A 0.5 0.5 0 0 0 161.600912 125.015326 L 164.303764 112.299407 A 0.5 0.5 0 0 0 163.918646 111.706377 L 162.940498 111.498466 A 0.5 0.5 0 0 0 162.347468 111.883584 L 159.644616 124.599502 Z M 318.813815 23.74752 A 0.5 0.5 0 0 0 319.406845 24.132638 L 320.384993 23.924727 A 0.5 0.5 0 0 0 320.770111 23.331697 L 318.067259 10.615778 A 0.5 0.5 0 0 0 317.474229 10.23066 L 316.496081 10.438572 A 0.5 0.5 0 0 0 316.110963 11.031601 L 318.813815 23.74752 Z M 354.516203 16.158744 A 0.5 0.5 0 0 0 355.109232 16.543862 L 356.08738 16.33595 A 0.5 0.5 0 0 0 356.472498 15.74292 L 353.769646 3.027001 A 0.5 0.5 0 0 0 353.176616 2.641883 L 352.198469 2.849795 A 0.5 0.5 0 0 0 351.813351 3.442825 L 354.516203 16.158744 Z M 208.87913 125.017212 A 0.5 0.5 0 0 0 209.47216 125.40233 L 210.450308 125.194418 A 0.5 0.5 0 0 0 210.835426 124.601388 L 208.132574 111.88547 A 0.5 0.5 0 0 0 207.539544 111.500352 L 206.561396 111.708263 A 0.5 0.5 0 0 0 206.176278 112.301293 L 208.87913 125.017212 Z M 244.581518 117.428435 A 0.5 0.5 0 0 0 245.174547 117.813553 L 246.152695 117.605641 A 0.5 0.5 0 0 0 246.537813 117.012612 L 243.834961 104.296693 A 0.5 0.5 0 0 0 243.241931 103.911575 L 242.263784 104.119487 A 0.5 0.5 0 0 0 241.878666 104.712516 L 244.581518 117.428435 Z M 49.160503 42.688614 A 0.5 0.5 0 0 0 49.545621 43.281643 L 50.523769 43.489555 A 0.5 0.5 0 0 0 51.116799 43.104437 L 53.819651 30.388518 A 0.5 0.5 0 0 0 53.434533 29.795489 L 52.456385 29.587577 A 0.5 0.5 0 0 0 51.863355 29.972695 L 49.160503 42.688614 Z M 71.853528 47.512165 A 0.5 0.5 0 0 0 72.238646 48.105195 L 73.216793 48.313106 A 0.5 0.5 0 0 0 73.809823 47.927988 L 76.512675 35.212069 A 0.5 0.5 0 0 0 76.127557 34.61904 L 75.149409 34.411128 A 0.5 0.5 0 0 0 74.55638 34.796246 L 71.853528 47.512165 Z M 7.932362 53.400892 A 0.5 0.5 0 0 0 8.31748 53.993921 L 9.295628 54.201833 A 0.5 0.5 0 0 0 9.888657 53.816715 L 12.591509 41.100796 A 0.5 0.5 0 0 0 12.206391 40.507766 L 11.228244 40.299855 A 0.5 0.5 0 0 0 10.635214 40.684973 L 7.932362 53.400892 Z M 30.625386 58.224443 A 0.5 0.5 0 0 0 31.010504 58.817472 L 31.988652 59.025384 A 0.5 0.5 0 0 0 32.581682 58.640266 L 35.284534 45.924347 A 0.5 0.5 0 0 0 34.899416 45.331318 L 33.921268 45.123406 A 0.5 0.5 0 0 0 33.328238 45.508524 L 30.625386 58.224443 Z M 0.010926 90.668315 A 0.5 0.5 0 0 0 0.396044 91.261345 L 1.374192 91.469256 A 0.5 0.5 0 0 0 1.967221 91.084138 L 4.670073 78.36822 A 0.5 0.5 0 0 0 4.284955 77.77519 L 3.306808 77.567278 A 0.5 0.5 0 0 0 2.713778 77.952396 L 0.010926 90.668315 Z M 22.703951 95.491866 A 0.5 0.5 0 0 0 23.089069 96.084896 L 24.067216 96.292808 A 0.5 0.5 0 0 0 24.660246 95.90769 L 27.363098 83.191771 A 0.5 0.5 0 0 0 26.97798 82.598741 L 25.999832 82.39083 A 0.5 0.5 0 0 0 25.406803 82.775948 L 22.703951 95.491866 Z M 27.961494 96.609391 A 0.5 0.5 0 0 0 28.346612 97.202421 L 29.324759 97.410332 A 0.5 0.5 0 0 0 29.917789 97.025214 L 32.620641 84.309296 A 0.5 0.5 0 0 0 32.235523 83.716266 L 31.257376 83.508354 A 0.5 0.5 0 0 0 30.664346 83.893472 L 27.961494 96.609391 Z M 50.654518 101.432942 A 0.5 0.5 0 0 0 51.039636 102.025972 L 52.017784 102.233884 A 0.5 0.5 0 0 0 52.610813 101.848766 L 55.313665 89.132847 A 0.5 0.5 0 0 0 54.928547 88.539817 L 53.9504 88.331905 A 0.5 0.5 0 0 0 53.35737 88.717023 L 50.654518 101.432942 Z M 55.912062 102.550467 A 0.5 0.5 0 0 0 56.29718 103.143496 L 57.275327 103.351408 A 0.5 0.5 0 0 0 57.868357 102.96629 L 60.571209 90.250371 A 0.5 0.5 0 0 0 60.186091 89.657342 L 59.207943 89.44943 A 0.5 0.5 0 0 0 58.614914 89.834548 L 55.912062 102.550467 Z M 78.605086 107.374018 A 0.5 0.5 0 0 0 78.990204 107.967048 L 79.968351 108.174959 A 0.5 0.5 0 0 0 80.561381 107.789841 L 83.264233 95.073923 A 0.5 0.5 0 0 0 82.879115 94.480893 L 81.900968 94.272981 A 0.5 0.5 0 0 0 81.307938 94.658099 L 78.605086 107.374018 Z M 333.937641 40.00844 A 0.5 0.5 0 0 0 334.53067 40.393558 L 335.508818 40.185647 A 0.5 0.5 0 0 0 335.893936 39.592617 L 333.191084 26.876698 A 0.5 0.5 0 0 0 332.598054 26.49158 L 331.619907 26.699492 A 0.5 0.5 0 0 0 331.234789 27.292521 L 333.937641 40.00844 Z M 356.630665 35.184889 A 0.5 0.5 0 0 0 357.223695 35.570007 L 358.201842 35.362095 A 0.5 0.5 0 0 0 358.58696 34.769066 L 355.884108 22.053147 A 0.5 0.5 0 0 0 355.291079 21.668029 L 354.312931 21.875941 A 0.5 0.5 0 0 0 353.927813 22.46897 L 356.630665 35.184889 Z" vector-effect="non-scaling-stroke"/></g></svg>