<?xml version="1.0" encoding="UTF-8" standalone="no"?>
<svg
   xmlns:dc="http://purl.org/dc/elements/1.1/"
   xmlns:cc="http://creativecommons.org/ns#"
   xmlns:rdf="http://www.w3.org/1999/02/22-rdf-syntax-ns#"
   xmlns:svg="http://www.w3.org/2000/svg"
   xmlns="http://www.w3.org/2000/svg"
   xmlns:sodipodi="http://sodipodi.sourceforge.net/DTD/sodipodi-0.dtd"
   xmlns:inkscape="http://www.inkscape.org/namespaces/inkscape"
   viewBox="0 0 75.590546 434.64569"
   width="20mm"
   height="115mm"
   version="1.1"
   id="svg461"
   sodipodi:docname="6.25u_stab.svg"
   inkscape:version="1.0 (4035a4fb49, 2020-05-01)">
  <metadata
     id="metadata465">
    <rdf:RDF>
      <cc:Work
         rdf:about="">
        <dc:format>image/svg+xml</dc:format>
        <dc:type
           rdf:resource="http://purl.org/dc/dcmitype/StillImage" />
        <dc:title></dc:title>
      </cc:Work>
    </rdf:RDF>
  </metadata>
  <sodipodi:namedview
     units="mm"
     pagecolor="#ffffff"
     bordercolor="#666666"
     borderopacity="1"
     objecttolerance="10"
     gridtolerance="10"
     guidetolerance="10"
     inkscape:pageopacity="0"
     inkscape:pageshadow="2"
     inkscape:window-width="1920"
     inkscape:window-height="1017"
     id="namedview463"
     showgrid="false"
     inkscape:snap-bbox="true"
     inkscape:bbox-nodes="true"
     inkscape:snap-smooth-nodes="true"
     inkscape:zoom="0.73673543"
     inkscape:cx="466.07471"
     inkscape:cy="561.25983"
     inkscape:window-x="-8"
     inkscape:window-y="885"
     inkscape:window-maximized="1"
     inkscape:current-layer="g632"
     inkscape:document-rotation="0"
     inkscape:document-units="mm" />
  <defs
     id="defs125">
    <marker
       id="DistanceX"
       orient="auto"
       refX="0"
       refY="0"
       style="overflow:visible">
      <path
         d="M 3,-3 -3,3 M 0,-5 V 5"
         style="stroke:#000000;stroke-width:0.5"
         id="path113" />
    </marker>
    <pattern
       id="Hatch"
       patternUnits="userSpaceOnUse"
       width="8"
       height="8"
       x="0"
       y="0">
      <path
         d="M8 4 l-4,4"
         stroke="#000000"
         stroke-width="0.25"
         linecap="square"
         id="path116" />
      <path
         d="M6 2 l-4,4"
         stroke="#000000"
         stroke-width="0.25"
         linecap="square"
         id="path118" />
      <path
         d="M4 0 l-4,4"
         stroke="#000000"
         stroke-width="0.25"
         linecap="square"
         id="path120" />
    </pattern>
    <symbol
       id="*MODEL_SPACE" />
    <symbol
       id="*PAPER_SPACE" />
  </defs>
  <g
     inkscape:groupmode="layer"
     inkscape:label="0"
     id="g457">
    <g
       id="g632"
       transform="rotate(90,1138.7973,871.58451)">
      <path
         d="m 274.60256,2001.1023 a 1.889764,1.889764 0 0 1 -1.88977,-1.8898 v -49.1339 a 1.889764,1.889764 0 0 1 1.88977,-1.8897 h 21.73228 a 1.889764,1.889764 0 0 1 1.88976,1.8897 v 49.1339 a 1.889764,1.889764 0 0 1 -1.88976,1.8898 z"
         style="fill:none;stroke:#000000"
         id="path135" />
      <path
         d="m 674.2876,1948.1889 a 1.889764,1.889764 0 0 1 1.88976,1.8897 v 49.1339 a 1.889764,1.889764 0 0 1 -1.88976,1.8898 h -21.73229 a 1.889764,1.889764 0 0 1 -1.88976,-1.8898 v -49.1339 a 1.889764,1.889764 0 0 1 1.88976,-1.8897 z"
         style="fill:none;stroke:#000000"
         id="path165" />
      <path
         d="m 499.012,1951.9684 h -49.13385 a 1.889764,1.889764 0 0 0 -1.88977,1.8898 v 49.1338 a 1.889764,1.889764 0 0 0 1.88977,1.8898 H 499.012 a 1.889764,1.889764 0 0 0 1.88977,-1.8898 v -49.1338 a 1.889764,1.889764 0 0 0 -1.88977,-1.8898 z"
         style="fill:none;stroke:#000000"
         id="path167" />
    </g>
  </g>
  <desc
     id="desc459">brutal_ansi.dxf - scale = 1.000000, origin = (0.000000, 0.000000), method = manual</desc>
</svg>
