<?xml version="1.0" encoding="UTF-8" standalone="no"?>
<svg
   xmlns:dc="http://purl.org/dc/elements/1.1/"
   xmlns:cc="http://creativecommons.org/ns#"
   xmlns:rdf="http://www.w3.org/1999/02/22-rdf-syntax-ns#"
   xmlns:svg="http://www.w3.org/2000/svg"
   xmlns="http://www.w3.org/2000/svg"
   xmlns:sodipodi="http://sodipodi.sourceforge.net/DTD/sodipodi-0.dtd"
   xmlns:inkscape="http://www.inkscape.org/namespaces/inkscape"
   width="160mm"
   height="130mm"
   viewBox="0 0 160 130.00001"
   version="1.1"
   id="svg5"
   sodipodi:docname="mid_piece.svg"
   inkscape:version="1.0.1 (3bc2e813f5, 2020-09-07)">
  <metadata
     id="metadata11">
    <rdf:RDF>
      <cc:Work
         rdf:about="">
        <dc:format>image/svg+xml</dc:format>
        <dc:type
           rdf:resource="http://purl.org/dc/dcmitype/StillImage" />
        <dc:title></dc:title>
      </cc:Work>
    </rdf:RDF>
  </metadata>
  <defs
     id="defs9">
    <inkscape:path-effect
       effect="fillet_chamfer"
       id="path-effect170"
       is_visible="true"
       lpeversion="1"
       satellites_param="F,0,0,1,0,1.5,0,1 @ F,0,0,1,0,1.5,0,1 @ F,0,0,1,0,1.5,0,1 @ F,0,0,1,0,1.5,0,1 @ F,0,0,1,0,1.5,0,1 @ F,0,0,1,0,1.5,0,1 @ F,0,0,1,0,1.5,0,1 @ F,0,0,1,0,1.5,0,1 @ F,0,0,1,0,1.5,0,1 @ F,0,0,1,0,1.5,0,1 @ F,0,0,1,0,1.5,0,1 @ F,0,0,1,0,1.5,0,1 @ F,0,0,1,0,1.5,0,1 @ F,0,0,1,0,1.5,0,1 @ F,0,0,1,0,1.5,0,1 @ F,0,0,1,0,1.5,0,1"
       unit="mm"
       method="auto"
       mode="F"
       radius="1.5"
       chamfer_steps="1"
       flexible="false"
       use_knot_distance="true"
       apply_no_radius="true"
       apply_with_radius="true"
       only_selected="false"
       hide_knots="false" />
    <inkscape:path-effect
       effect="fillet_chamfer"
       id="path-effect166"
       is_visible="true"
       lpeversion="1"
       satellites_param="F,0,0,1,0,1.5,0,1 @ F,0,0,1,0,1.5,0,1 @ F,0,0,1,0,1.5,0,1 @ F,0,0,1,0,1.5,0,1 @ F,0,0,1,0,1.5,0,1 @ F,0,0,1,0,1.5,0,1 @ F,0,0,1,0,1.5,0,1 @ F,0,0,1,0,1.5,0,1 @ F,0,0,1,0,1.5,0,1 @ F,0,0,1,0,1.5,0,1 @ F,0,0,1,0,1.5,0,1 @ F,0,0,1,0,1.5,0,1 @ F,0,0,1,0,1.5,0,1 @ F,0,0,1,0,1.5,0,1 @ F,0,0,1,0,1.5,0,1 @ F,0,0,1,0,1.5,0,1"
       unit="mm"
       method="auto"
       mode="F"
       radius="1.5"
       chamfer_steps="1"
       flexible="false"
       use_knot_distance="true"
       apply_no_radius="true"
       apply_with_radius="true"
       only_selected="false"
       hide_knots="false" />
    <inkscape:path-effect
       effect="fillet_chamfer"
       id="path-effect162"
       is_visible="true"
       lpeversion="1"
       satellites_param="F,0,0,1,0,1.5,0,1 @ F,0,0,1,0,1.5,0,1 @ F,0,0,1,0,1.5,0,1 @ F,0,0,1,0,1.5,0,1 @ F,0,0,1,0,1.5,0,1 @ F,0,0,1,0,1.5,0,1 @ F,0,0,1,0,1.5,0,1 @ F,0,0,1,0,1.5,0,1 @ F,0,0,1,0,1.5,0,1 @ F,0,0,1,0,1.5,0,1 @ F,0,0,1,0,1.5,0,1 @ F,0,0,1,0,1.5,0,1 @ F,0,0,1,0,1.5,0,1 @ F,0,0,1,0,1.5,0,1 @ F,0,0,1,0,1.5,0,1 @ F,0,0,1,0,1.5,0,1"
       unit="mm"
       method="auto"
       mode="F"
       radius="1.5"
       chamfer_steps="1"
       flexible="false"
       use_knot_distance="true"
       apply_no_radius="true"
       apply_with_radius="true"
       only_selected="false"
       hide_knots="false" />
    <inkscape:path-effect
       effect="copy_rotate"
       starting_point="123,0"
       origin="23,0"
       id="path-effect156"
       is_visible="true"
       lpeversion="1"
       method="normal"
       num_copies="4"
       starting_angle="0"
       rotation_angle="90"
       gap="0.1"
       copies_to_360="true"
       mirror_copies="false"
       split_items="false" />
    <inkscape:path-effect
       effect="fillet_chamfer"
       id="path-effect154"
       is_visible="true"
       lpeversion="1"
       satellites_param="F,0,0,1,0,1.5,0,1 @ F,0,0,1,0,1.5,0,1 @ F,0,0,1,0,1.5,0,1 @ F,0,0,1,0,1.5,0,1 @ F,0,0,1,0,1.5,0,1 @ F,0,0,1,0,1.5,0,1 @ F,0,0,1,0,1.5,0,1 @ F,0,0,1,0,1.5,0,1 @ F,0,0,1,0,1.5,0,1 @ F,0,0,1,0,1.5,0,1 @ F,0,0,1,0,1.5,0,1 @ F,0,0,1,0,1.5,0,1 @ F,0,0,1,0,1.5,0,1 @ F,0,0,1,0,1.5,0,1 @ F,0,0,1,0,1.5,0,1 @ F,0,0,1,0,1.5,0,1"
       unit="mm"
       method="auto"
       mode="F"
       radius="1.5"
       chamfer_steps="1"
       flexible="false"
       use_knot_distance="true"
       apply_no_radius="true"
       apply_with_radius="true"
       only_selected="false"
       hide_knots="false" />
    <inkscape:path-effect
       effect="copy_rotate"
       starting_point="48.703592,0.2"
       origin="23,0.2"
       id="path-effect149"
       is_visible="true"
       lpeversion="1"
       method="normal"
       num_copies="4"
       starting_angle="0"
       rotation_angle="90"
       gap="20"
       copies_to_360="true"
       mirror_copies="false"
       split_items="false" />
    <inkscape:path-effect
       effect="fillet_chamfer"
       id="path-effect1446"
       is_visible="true"
       lpeversion="1"
       satellites_param="F,0,0,1,0,1.5,0,1 @ F,0,0,1,0,1.5,0,1 @ F,0,0,1,0,1.5,0,1 @ F,0,0,1,0,1.5,0,1 @ F,0,0,1,0,1.5,0,1 @ F,0,0,1,0,1.5,0,1 @ F,0,0,1,0,1.5,0,1 @ F,0,0,1,0,1.5,0,1 @ F,0,0,1,0,1.5,0,1 @ F,0,0,1,0,1.5,0,1 @ F,0,0,1,0,1.5,0,1 @ F,0,0,1,0,1.5,0,1 @ F,0,0,1,0,1.5,0,1 @ F,0,0,1,0,1.5,0,1 @ F,0,0,1,0,1.5,0,1 @ F,0,0,1,0,1.5,0,1"
       unit="mm"
       method="auto"
       mode="F"
       radius="1.5"
       chamfer_steps="1"
       flexible="false"
       use_knot_distance="true"
       apply_no_radius="true"
       apply_with_radius="true"
       only_selected="false"
       hide_knots="false" />
    <inkscape:path-effect
       effect="fillet_chamfer"
       id="path-effect1440"
       is_visible="true"
       lpeversion="1"
       satellites_param="F,0,0,1,0,0,0,1 @ F,0,0,1,0,0,0,1 @ F,0,0,1,0,0,0,1 @ F,0,0,1,0,0,0,1 @ F,0,0,1,0,0,0,1 @ F,0,0,1,0,0,0,1 @ F,0,0,1,0,0,0,1 @ F,0,0,1,0,0,0,1 @ F,0,0,1,0,0,0,1 @ F,0,0,1,0,0,0,1 @ F,0,0,1,0,0,0,1 @ F,0,0,1,0,0,0,1 @ F,0,0,1,0,0,0,1 @ F,0,0,1,0,0,0,1 @ F,0,0,1,0,0,0,1 @ F,0,0,1,0,0,0,1"
       unit="mm"
       method="auto"
       mode="F"
       radius="2"
       chamfer_steps="1"
       flexible="false"
       use_knot_distance="true"
       apply_no_radius="true"
       apply_with_radius="true"
       only_selected="false"
       hide_knots="false" />
    <inkscape:path-effect
       effect="fillet_chamfer"
       id="path-effect1426"
       is_visible="true"
       lpeversion="1"
       satellites_param="F,0,0,1,0,1.3229167,0,1 @ F,0,0,1,0,1.3229167,0,1 @ F,0,0,1,0,1.3229167,0,1 @ F,0,0,1,0,1.3229167,0,1 @ F,0,0,1,0,1.3229167,0,1 @ F,0,0,1,0,1.3229167,0,1 @ F,0,0,1,0,1.3229167,0,1 @ F,0,0,1,0,1.3229167,0,1 @ F,0,0,1,0,1.3229167,0,1 @ F,0,0,1,0,1.3229167,0,1"
       unit="px"
       method="auto"
       mode="F"
       radius="5"
       chamfer_steps="1"
       flexible="false"
       use_knot_distance="true"
       apply_no_radius="true"
       apply_with_radius="true"
       only_selected="false"
       hide_knots="false" />
    <inkscape:path-effect
       effect="fillet_chamfer"
       id="path-effect1420"
       is_visible="true"
       lpeversion="1"
       satellites_param="F,0,0,1,0,1.3229167,0,1 @ F,0,0,1,0,1.3229167,0,1 @ F,0,0,1,0,1.3229167,0,1 @ F,0,0,1,0,1.3229167,0,1 @ F,0,0,1,0,1.3229167,0,1 @ F,0,0,1,0,1.3229167,0,1 @ F,0,0,1,0,1.3229167,0,1 @ F,0,0,1,0,1.3229167,0,1 @ F,0,0,1,0,1.3229167,0,1 @ F,0,0,1,0,1.3229167,0,1"
       unit="px"
       method="auto"
       mode="F"
       radius="5"
       chamfer_steps="1"
       flexible="false"
       use_knot_distance="true"
       apply_no_radius="true"
       apply_with_radius="true"
       only_selected="false"
       hide_knots="false" />
    <inkscape:path-effect
       effect="fillet_chamfer"
       id="path-effect1414"
       is_visible="true"
       lpeversion="1"
       satellites_param="F,0,0,1,0,2,0,2 @ F,0,0,1,0,2,0,2 @ F,0,0,1,0,2,0,2 @ F,0,0,1,0,2,0,2 @ F,0,0,1,0,2,0,2 @ F,0,0,1,0,2,0,2 @ F,0,0,1,0,2,0,2 @ F,0,0,1,0,2,0,2 @ F,0,0,1,0,2,0,2 @ F,0,0,1,0,2,0,2 @ F,0,0,1,0,2,0,2 @ F,0,0,1,0,2,0,2 @ F,0,0,1,0,2,0,2 @ F,0,0,1,0,2,0,2 @ F,0,0,1,0,2,0,2 @ F,0,0,1,0,2,0,2"
       unit="mm"
       method="auto"
       mode="F"
       radius="2"
       chamfer_steps="1"
       flexible="false"
       use_knot_distance="true"
       apply_no_radius="true"
       apply_with_radius="true"
       only_selected="false"
       hide_knots="false" />
    <inkscape:path-effect
       effect="fillet_chamfer"
       id="path-effect1407"
       is_visible="true"
       lpeversion="1"
       satellites_param="F,0,0,1,0,2,0,2 @ F,0,0,1,0,2,0,2 @ F,0,0,1,0,2,0,2 @ F,0,0,1,0,2,0,2 @ F,0,0,1,0,2,0,2 @ F,0,0,1,0,2,0,2 @ F,0,0,1,0,2,0,2 @ F,0,0,1,0,2,0,2 @ F,0,0,1,0,2,0,2 @ F,0,0,1,0,2,0,2 @ F,0,0,1,0,2,0,2 @ F,0,0,1,0,2,0,2 @ F,0,0,1,0,2,0,2 @ F,0,0,1,0,2,0,2 @ F,0,0,1,0,2,0,2 @ F,0,0,1,0,2,0,2"
       unit="mm"
       method="auto"
       mode="F"
       radius="2"
       chamfer_steps="1"
       flexible="false"
       use_knot_distance="true"
       apply_no_radius="true"
       apply_with_radius="true"
       only_selected="false"
       hide_knots="false" />
    <inkscape:path-effect
       effect="fillet_chamfer"
       id="path-effect1405"
       is_visible="true"
       lpeversion="1"
       satellites_param="F,0,0,1,0,0,0,1 @ F,0,0,1,0,0,0,1 @ F,0,0,1,0,0,0,1 @ F,0,0,1,0,0,0,1 @ F,0,0,1,0,0,0,1 @ F,0,0,1,0,0,0,1 @ F,0,0,1,0,0,0,1 @ F,0,0,1,0,0,0,1 @ F,0,0,1,0,0,0,1 @ F,0,0,1,0,0,0,1 @ F,0,0,1,0,0,0,1 @ F,0,0,1,0,0,0,1 @ F,0,0,1,0,0,0,1 @ F,0,0,1,0,0,0,1 @ F,0,0,1,0,0,0,1 @ F,0,0,1,0,0,0,1"
       unit="mm"
       method="auto"
       mode="F"
       radius="5"
       chamfer_steps="1"
       flexible="false"
       use_knot_distance="true"
       apply_no_radius="true"
       apply_with_radius="true"
       only_selected="false"
       hide_knots="false" />
    <inkscape:path-effect
       effect="fillet_chamfer"
       id="path-effect1401"
       is_visible="true"
       lpeversion="1"
       satellites_param="F,0,0,1,0,1.3229167,0,1 @ F,0,0,1,0,1.3229167,0,1 @ F,0,0,1,0,1.3229167,0,1 @ F,0,0,1,0,1.3229167,0,1 @ F,0,0,1,0,1.3229167,0,1 @ F,0,0,1,0,1.3229167,0,1 @ F,0,0,1,0,1.3229167,0,1 @ F,0,0,1,0,1.3229167,0,1 @ F,0,0,1,0,1.3229167,0,1 @ F,0,0,1,0,1.3229167,0,1"
       unit="px"
       method="auto"
       mode="F"
       radius="5"
       chamfer_steps="1"
       flexible="false"
       use_knot_distance="true"
       apply_no_radius="true"
       apply_with_radius="true"
       only_selected="false"
       hide_knots="false" />
    <inkscape:path-effect
       effect="fillet_chamfer"
       id="path-effect1395"
       is_visible="true"
       lpeversion="1"
       satellites_param="F,0,0,1,0,1.3229167,0,1 @ F,0,0,1,0,1.3229167,0,1 @ F,0,0,1,0,1.3229167,0,1 @ F,0,0,1,0,1.3229167,0,1 @ F,0,0,1,0,1.3229167,0,1 @ F,0,0,1,0,1.3229167,0,1 @ F,0,0,1,0,1.3229167,0,1 @ F,0,0,1,0,1.3229167,0,1 @ F,0,0,1,0,1.3229167,0,1 @ F,0,0,1,0,1.3229167,0,1"
       unit="px"
       method="auto"
       mode="F"
       radius="5"
       chamfer_steps="1"
       flexible="false"
       use_knot_distance="true"
       apply_no_radius="true"
       apply_with_radius="true"
       only_selected="false"
       hide_knots="false" />
    <inkscape:path-effect
       effect="fillet_chamfer"
       id="path-effect1388"
       is_visible="true"
       lpeversion="1"
       satellites_param="F,0,0,1,0,1.3229167,0,1 @ F,0,0,1,0,1.3229167,0,1 @ F,0,0,1,0,1.3229167,0,1 @ F,0,0,1,0,1.3229167,0,1 @ F,0,0,1,0,1.3229167,0,1 @ F,0,0,1,0,1.3229167,0,1 @ F,0,0,1,0,1.3229167,0,1 @ F,0,0,1,0,1.3229167,0,1 @ F,0,0,1,0,1.3229167,0,1 @ F,0,0,1,0,1.3229167,0,1"
       unit="px"
       method="auto"
       mode="F"
       radius="5"
       chamfer_steps="1"
       flexible="false"
       use_knot_distance="true"
       apply_no_radius="true"
       apply_with_radius="true"
       only_selected="false"
       hide_knots="false" />
    <inkscape:path-effect
       effect="fillet_chamfer"
       id="path-effect1330"
       is_visible="true"
       lpeversion="1"
       satellites_param="F,0,0,1,0,1.3229167,0,1 @ F,0,0,1,0,1.3229167,0,1 @ F,0,0,1,0,1.3229167,0,1 @ F,0,0,1,0,1.3229167,0,1 @ F,0,0,1,0,1.3229167,0,1 @ F,0,0,1,0,1.3229167,0,1 @ F,0,0,1,0,1.3229167,0,1 @ F,0,0,1,0,1.3229167,0,1 @ F,0,0,1,0,1.3229167,0,1 @ F,0,0,1,0,1.3229167,0,1"
       unit="px"
       method="auto"
       mode="F"
       radius="5"
       chamfer_steps="1"
       flexible="false"
       use_knot_distance="true"
       apply_no_radius="true"
       apply_with_radius="true"
       only_selected="false"
       hide_knots="false" />
    <inkscape:path-effect
       effect="fillet_chamfer"
       id="path-effect20"
       is_visible="true"
       lpeversion="1"
       satellites_param="F,0,0,1,0,5,0,1 @ F,0,0,1,0,5,0,1 @ F,0,0,1,0,5,0,1 @ F,0,0,1,0,5,0,1 @ F,0,0,1,0,5,0,1 @ F,0,0,1,0,5,0,1 @ F,0,0,1,0,5,0,1 @ F,0,0,1,0,5,0,1 @ F,0,0,1,0,5,0,1 @ F,0,0,1,0,5,0,1"
       unit="mm"
       method="auto"
       mode="F"
       radius="5"
       chamfer_steps="1"
       flexible="false"
       use_knot_distance="true"
       apply_no_radius="true"
       apply_with_radius="true"
       only_selected="false"
       hide_knots="false" />
    <inkscape:path-effect
       effect="fillet_chamfer"
       id="path-effect165"
       is_visible="true"
       lpeversion="1"
       satellites_param="F,0,0,1,0,5,0,1 @ F,0,0,1,0,5,0,1 @ F,0,0,1,0,5,0,1 @ F,0,0,1,0,5,0,1 @ F,0,0,1,0,5,0,1 @ F,0,0,1,0,5,0,1 @ F,0,0,1,0,5,0,1 @ F,0,0,1,0,5,0,1 @ F,0,0,1,0,5,0,1 @ F,0,0,1,0,5,0,1"
       unit="mm"
       method="auto"
       mode="F"
       radius="5"
       chamfer_steps="1"
       flexible="false"
       use_knot_distance="true"
       apply_no_radius="true"
       apply_with_radius="true"
       only_selected="false"
       hide_knots="false" />
    <inkscape:path-effect
       effect="fillet_chamfer"
       id="path-effect163"
       is_visible="true"
       lpeversion="1"
       satellites_param="F,0,0,1,0,5,0,1 @ F,0,0,1,0,5,0,1 @ F,0,0,1,0,5,0,1 @ F,0,0,1,0,5,0,1 @ F,0,0,1,0,5,0,1 @ F,0,0,1,0,5,0,1 @ F,0,0,1,0,5,0,1 @ F,0,0,1,0,5,0,1 @ F,0,0,1,0,5,0,1 @ F,0,0,1,0,5,0,1"
       unit="mm"
       method="auto"
       mode="F"
       radius="5"
       chamfer_steps="1"
       flexible="false"
       use_knot_distance="true"
       apply_no_radius="true"
       apply_with_radius="true"
       only_selected="false"
       hide_knots="false" />
    <inkscape:path-effect
       effect="fillet_chamfer"
       id="path-effect161"
       is_visible="true"
       lpeversion="1"
       satellites_param="F,0,0,1,0,5,0,1 @ F,0,0,1,0,5,0,1 @ F,0,0,1,0,5,0,1 @ F,0,0,1,0,5,0,1 @ F,0,0,1,0,5,0,1 @ F,0,0,1,0,5,0,1 @ F,0,0,1,0,5,0,1 @ F,0,0,1,0,5,0,1 @ F,0,0,1,0,5,0,1 @ F,0,0,1,0,5,0,1 @ F,0,0,1,0,5,0,1 @ F,0,0,1,0,5,0,1 @ F,0,0,1,0,5,0,1 @ F,0,0,1,0,5,0,1"
       unit="mm"
       method="auto"
       mode="F"
       radius="5"
       chamfer_steps="1"
       flexible="false"
       use_knot_distance="true"
       apply_no_radius="true"
       apply_with_radius="true"
       only_selected="false"
       hide_knots="false" />
  </defs>
  <sodipodi:namedview
     pagecolor="#ffffff"
     bordercolor="#666666"
     borderopacity="1"
     objecttolerance="10"
     gridtolerance="10"
     guidetolerance="10"
     inkscape:pageopacity="0"
     inkscape:pageshadow="2"
     inkscape:window-width="2560"
     inkscape:window-height="1361"
     id="namedview7"
     showgrid="false"
     inkscape:document-units="mm"
     inkscape:snap-object-midpoints="true"
     inkscape:zoom="0.89436597"
     inkscape:cx="193.06798"
     inkscape:cy="371.40435"
     inkscape:window-x="-9"
     inkscape:window-y="41"
     inkscape:window-maximized="1"
     inkscape:current-layer="svg5"
     inkscape:object-paths="true"
     inkscape:snap-intersection-paths="true"
     inkscape:snap-smooth-nodes="true"
     inkscape:snap-midpoints="true"
     inkscape:snap-nodes="false"
     inkscape:document-rotation="0" />
  <path
     id="path152"
     style="font-size:12px;display:inline;fill:none;fill-rule:evenodd;stroke:#000000;stroke-width:0.2;stroke-linecap:round;stroke-miterlimit:4;stroke-dasharray:none;stroke-opacity:1"
     d="M 4.5655447,125.00934 14.337301,79.036711 a 1.5000011,1.5000011 56.999988 0 0 -1.155354,-1.77909 L 6.7995494,75.901 A 1.5000009,1.5000009 56.999992 0 1 5.6441949,74.12191 L 8.981171,58.422638 A 1.5000021,1.5000021 57.000014 0 0 7.8258168,56.643547 L 6.1023391,56.277209 A 1.5000179,1.5000179 56.999712 0 1 4.9469694,54.498115 L 7.8679765,40.755114 a 1.499983,1.499983 146.99969 0 1 1.7790727,-1.155357 l 6.3827578,1.356699 a 1.500008,1.500008 147.00017 0 0 1.779097,-1.155352 l 5.728178,-26.948209 a 1.8523328,1.8523328 141.00052 0 1 1.811876,-1.467201 l 0.12682,10e-7 a 1.8537917,1.8537917 38.97885 0 1 1.812969,1.467006 l 5.766532,27.029603 a 1.4988742,1.4988742 122.97849 0 1 -1.154252,1.778854 l -6.382408,1.356623 a 1.4999999,1.4999999 123 0 0 -1.155353,1.779088 l 3.544894,16.67742 a 1.4999993,1.4999993 32.999987 0 0 1.779089,1.155353 l 1.723978,-0.366444 a 1.5000003,1.5000003 32.999968 0 1 1.779089,1.155353 l 3.336994,15.699268 a 1.5000005,1.5000005 32.999971 0 0 1.779089,1.155353 l 6.382408,-1.356625 a 1.4999992,1.4999992 32.999994 0 1 1.779088,1.155353 l 9.459876,44.50525 a 1.2250349,1.2250349 128.76184 0 1 -1.188081,1.47969 l -48.9860638,0.40725 a 1.2043876,1.2043876 50.761822 0 1 -1.1880815,-1.45475 z"
     sodipodi:nodetypes="ccccccccccccccccc"
     inkscape:label="mid_only"
     inkscape:path-effect="#path-effect154"
     inkscape:original-d="M 4.253678,126.47656 14.649168,77.569489 5.332328,75.589132 9.2930379,56.955416 4.635118,55.96534 8.1798279,39.287889 l 9.3172001,1.980435 6.35193,-29.882649 3.12682,3.9e-5 6.39247,29.963577 -9.31685,1.980357 4.16863,19.611862 4.65842,-0.99018 3.96073,18.63371 9.31685,-1.980361 10.08361,47.439691 z" />
  <path
     id="path159"
     style="font-size:12px;display:inline;fill:none;fill-rule:evenodd;stroke:#000000;stroke-width:0.2;stroke-linecap:round;stroke-miterlimit:4;stroke-dasharray:none;stroke-opacity:1"
     d="M 57.638805,124.04779 47.714618,78.107835 a 1.500001,1.500001 32.810007 0 0 -1.782911,-1.149448 l -6.377864,1.377774 a 1.5000008,1.5000008 32.81001 0 1 -1.78291,-1.149448 L 34.381905,61.498594 a 1.5000019,1.5000019 32.81003 0 0 -1.782911,-1.149449 l -1.722253,0.372047 A 1.5000176,1.5000176 32.809729 0 1 29.093814,59.571746 L 26.126953,45.838571 a 1.4999831,1.4999831 122.80971 0 1 1.149432,-1.782906 l 6.378225,-1.377852 a 1.500008,1.500008 122.81019 0 0 1.149457,-1.782911 L 28.98687,13.965768 a 1.8523326,1.8523326 116.81054 0 1 1.051573,-2.080809 l 0.115686,-0.05197 a 1.8537919,1.8537919 14.788874 0 1 2.2549,0.595302 l 16.335928,22.293267 a 1.4988743,1.4988743 98.788514 0 1 -0.32399,2.095627 l -5.266086,3.852777 a 1.4999999,1.4999999 98.81002 0 0 -0.324898,2.096292 l 10.067422,13.760437 a 1.4999993,1.4999993 8.8100048 0 0 2.096292,0.324898 l 1.422443,-1.040691 a 1.5000001,1.5000001 8.8099881 0 1 2.096293,0.324898 l 9.476963,12.953365 a 1.5000009,1.5000009 8.810002 0 0 2.096293,0.324898 l 5.266092,-3.852782 a 1.4999992,1.4999992 8.8100342 0 1 2.096291,0.324899 l 26.865818,36.720999 a 1.2250355,1.2250355 104.57187 0 1 -0.47743,1.8366 l -44.517792,20.44419 a 1.2043875,1.2043875 26.571838 0 1 -1.679863,-0.84018 z"
     sodipodi:nodetypes="ccccccccccccccccc"
     inkscape:label="mid_only"
     inkscape:path-effect="#path-effect162"
     inkscape:original-d="m 57.955537,125.51397 -10.557651,-48.872314 -9.310222,2.011236 -4.02249,-18.620477 -4.654613,1.005507 -3.600355,-16.665527 9.310583,-2.011312 -6.450641,-29.861496 2.852276,-1.281221 18.109138,24.713127 -7.687276,5.624171 11.838816,16.181627 3.843633,-2.812085 11.248359,15.374555 7.687282,-5.624176 28.637214,39.142195 z" />
  <path
     id="path164"
     style="font-size:12px;display:inline;fill:none;fill-rule:evenodd;stroke:#000000;stroke-width:0.2;stroke-linecap:round;stroke-miterlimit:4;stroke-dasharray:none;stroke-opacity:1"
     d="M 107.37832,99.382536 78.677685,62.163678 a 1.5000011,1.5000011 7.3630743 0 0 -2.103829,-0.271861 l -5.167113,3.984518 A 1.5000014,1.5000014 7.3630678 0 1 69.302914,65.604474 L 59.50188,52.894541 a 1.5000026,1.5000026 7.3630905 0 0 -2.103829,-0.271862 l -1.395304,1.075959 a 1.5000182,1.5000182 7.3627927 0 1 -2.103842,-0.271852 l -8.57983,-11.126045 a 1.4999826,1.4999826 97.362778 0 1 0.271848,-2.103817 l 5.167405,-3.98474 a 1.500008,1.500008 97.363262 0 0 0.271869,-2.103833 L 34.206591,12.291288 a 1.8523324,1.8523324 91.363616 0 1 0.05548,-2.3307712 l 0.08214,-0.096635 A 1.8537923,1.8537923 169.34195 0 1 36.636136,9.432556 L 60.96607,22.543873 a 1.4988733,1.4988733 73.341599 0 1 0.60788,2.031527 l -3.099754,5.741704 a 1.4999984,1.4999984 73.363095 0 0 0.607346,2.032518 L 74.08478,40.449347 A 1.5,1.5 163.36306 0 0 76.117299,39.842 l 0.837283,-1.550912 a 1.5000007,1.5000007 163.36305 0 1 2.032519,-0.607348 l 14.123285,7.624661 a 1.5000001,1.5000001 163.36304 0 0 2.032518,-0.607348 l 3.099744,-5.741705 a 1.4999984,1.4999984 163.36307 0 1 2.032522,-0.607347 l 40.03751,21.614895 a 1.2250351,1.2250351 79.124933 0 1 0.35802,1.863556 L 109.25621,99.41941 a 1.2043876,1.2043876 1.1249077 0 1 -1.87789,-0.03687 z"
     sodipodi:nodetypes="ccccccccccccccccc"
     inkscape:label="mid_only"
     inkscape:path-effect="#path-effect166"
     inkscape:original-d="M 108.2943,100.57038 77.761701,60.975834 70.218898,66.792318 58.585896,51.706697 54.814902,54.61462 44.403078,41.112907 51.946173,35.296201 33.290615,11.103438 l 2.025054,-2.382477 26.970868,14.534507 -4.524928,8.381568 17.643104,9.524897 2.262455,-4.190778 16.763151,9.049831 4.524914,-8.381571 42.677377,23.040067 z" />
  <path
     id="path168"
     style="font-size:12px;display:inline;fill:none;fill-rule:evenodd;stroke:#000000;stroke-width:0.2;stroke-linecap:round;stroke-miterlimit:4;stroke-dasharray:none;stroke-opacity:1"
     d="M 141.26748,57.809943 99.706223,35.863828 a 1.5000019,1.5000019 162.836 0 0 -2.026846,0.626018 L 94.63258,42.25981 a 1.5000023,1.5000023 162.83599 0 1 -2.026846,0.626019 L 78.412911,35.391417 a 1.5000032,1.5000032 162.83601 0 0 -2.026847,0.626019 l -0.822744,1.558093 a 1.5000195,1.5000195 162.8357 0 1 -2.026855,0.626033 L 61.112146,31.641168 a 1.4999808,1.4999808 72.835696 0 1 -0.626025,-2.026829 l 3.046974,-5.770294 A 1.5000065,1.5000065 72.836187 0 0 62.907082,21.817193 L 38.544774,8.9526667 A 1.8523312,1.8523312 66.836532 0 1 37.627692,6.8091813 l 0.03461,-0.1220133 a 1.8537932,1.8537932 144.81487 0 1 1.90606,-1.3438372 l 27.577338,1.8282908 a 1.4988739,1.4988739 48.814495 0 1 1.396363,1.5958669 l -0.43653,6.5103835 a 1.4999988,1.4999988 48.835986 0 0 1.396289,1.596989 l 17.011809,1.140649 a 1.5000004,1.5000004 138.83597 0 0 1.596991,-1.396289 l 0.117911,-1.758546 a 1.5000007,1.5000007 138.83597 0 1 1.596991,-1.396289 l 16.014045,1.073745 a 1.4999996,1.4999996 138.83595 0 0 1.59699,-1.39629 l 0.43652,-6.5103789 a 1.4999982,1.4999982 138.83597 0 1 1.59699,-1.3962882 l 45.39758,3.0439604 a 1.2250351,1.2250351 54.597835 0 1 1.09932,1.5467746 L 142.99123,57.063933 a 1.2043874,1.2043874 156.59781 0 1 -1.72375,0.74601 z"
     sodipodi:nodetypes="ccccccccccccccccc"
     inkscape:label="mid_only"
     inkscape:path-effect="#path-effect170"
     inkscape:original-d="M 142.59391,58.510356 98.379791,35.163415 93.932166,43.586241 77.086479,34.691005 74.862905,38.90196 59.785706,30.94077 64.23351,22.517614 37.218346,8.252246 l 0.853303,-3.0081427 30.570766,2.0267458 -0.637232,9.5036619 20.005089,1.341349 0.318613,-4.751824 19.007325,1.274445 0.63722,-9.5036585 48.39086,3.2446632 z" />
</svg>
