<?xml version="1.0" encoding="UTF-8" standalone="no"?>
<svg
   xmlns:dc="http://purl.org/dc/elements/1.1/"
   xmlns:cc="http://creativecommons.org/ns#"
   xmlns:rdf="http://www.w3.org/1999/02/22-rdf-syntax-ns#"
   xmlns:svg="http://www.w3.org/2000/svg"
   xmlns="http://www.w3.org/2000/svg"
   xmlns:sodipodi="http://sodipodi.sourceforge.net/DTD/sodipodi-0.dtd"
   xmlns:inkscape="http://www.inkscape.org/namespaces/inkscape"
   width="170mm"
   height="130mm"
   viewBox="0 0 170.00001 130"
   version="1.1"
   id="svg5"
   sodipodi:docname="vInspiration-left-all.svg"
   inkscape:version="1.0.2 (1.0.2+r75+1)">
  <metadata
     id="metadata11">
    <rdf:RDF>
      <cc:Work
         rdf:about="">
        <dc:format>image/svg+xml</dc:format>
        <dc:type
           rdf:resource="http://purl.org/dc/dcmitype/StillImage" />
        <dc:title />
      </cc:Work>
    </rdf:RDF>
  </metadata>
  <defs
     id="defs9" />
  <sodipodi:namedview
     pagecolor="#ffffff"
     bordercolor="#666666"
     borderopacity="1"
     objecttolerance="10"
     gridtolerance="10"
     guidetolerance="10"
     inkscape:pageopacity="0"
     inkscape:pageshadow="2"
     inkscape:window-width="2560"
     inkscape:window-height="1375"
     id="namedview7"
     showgrid="false"
     inkscape:document-units="mm"
     inkscape:zoom="2.6696085"
     inkscape:cx="292.41827"
     inkscape:cy="227.90551"
     inkscape:window-x="0"
     inkscape:window-y="53"
     inkscape:window-maximized="1"
     inkscape:current-layer="g947"
     inkscape:object-paths="true"
     inkscape:snap-intersection-paths="true"
     inkscape:snap-smooth-nodes="true"
     inkscape:snap-midpoints="true"
     inkscape:snap-bbox="false"
     inkscape:bbox-nodes="false"
     inkscape:bbox-paths="false"
     inkscape:snap-bbox-edge-midpoints="false"
     inkscape:snap-bbox-midpoints="false"
     inkscape:snap-nodes="false"
     inkscape:snap-object-midpoints="true"
     inkscape:document-rotation="0" />
  <g
     id="svgGroup"
     stroke-linecap="round"
     fill-rule="evenodd"
     font-size="12px"
     stroke="#000"
     stroke-width="0.25mm"
     fill="none"
     style="display:none;fill:none;stroke:#000000;stroke-width:0.2;stroke-miterlimit:4;stroke-dasharray:none;stroke-opacity:1"
     transform="translate(16.50984,15.258575)"
     inkscape:label="switches_5mm">
    <path
       d="m 114.0656,89.441866 a 0.5,0.5 0 0 0 0.5,0.5 h 1 a 0.5,0.5 0 0 0 0.5,-0.5 v -13 a 0.5,0.5 0 0 0 -0.5,-0.5 h -1 a 0.5,0.5 0 0 0 -0.5,0.5 z"
       id="path103"
       style="stroke:#000000;stroke-width:0.2;stroke-miterlimit:4;stroke-dasharray:none;stroke-opacity:1" />
    <path
       d="m 77.5656,89.441866 a 0.5,0.5 0 0 0 0.5,0.5 h 1 a 0.5,0.5 0 0 0 0.5,-0.5 v -13 a 0.5,0.5 0 0 0 -0.5,-0.5 h -1 a 0.5,0.5 0 0 0 -0.5,0.5 z"
       id="path101"
       style="stroke:#000000;stroke-width:0.2;stroke-miterlimit:4;stroke-dasharray:none;stroke-opacity:1" />
    <path
       d="m 21.6906,32.291866 a 0.5,0.5 0 0 0 0.5,0.5 h 1 a 0.5,0.5 0 0 0 0.5,-0.5 v -13 a 0.5,0.5 0 0 0 -0.5,-0.5 h -1 a 0.5,0.5 0 0 0 -0.5,0.5 z"
       id="path99"
       style="stroke:#000000;stroke-width:0.2;stroke-miterlimit:4;stroke-dasharray:none;stroke-opacity:1" />
    <path
       d="m -1.5093992,32.291866 a 0.5,0.5 0 0 0 0.5,0.5 h 0.99999997 a 0.5,0.5 0 0 0 0.5,-0.5 v -13 a 0.5,0.5 0 0 0 -0.5,-0.5 H -1.0093992 a 0.5,0.5 0 0 0 -0.5,0.5 z"
       id="path97"
       style="stroke:#000000;stroke-width:0.2;stroke-miterlimit:4;stroke-dasharray:none;stroke-opacity:1" />
    <path
       d="m 118.3906,89.441866 a 0.5,0.5 0 0 0 0.5,0.5 h 13 a 0.5,0.5 0 0 0 0.5,-0.5 v -13 a 0.5,0.5 0 0 0 -0.5,-0.5 h -13 a 0.5,0.5 0 0 0 -0.5,0.5 z"
       id="path95"
       style="stroke:#000000;stroke-width:0.2;stroke-miterlimit:4;stroke-dasharray:none;stroke-opacity:1" />
    <path
       d="m 49.33435,89.441866 a 0.5,0.5 0 0 0 0.5,0.5 h 13 a 0.5,0.5 0 0 0 0.5,-0.5 v -13 a 0.5,0.5 0 0 0 -0.5,-0.5 h -13 a 0.5,0.5 0 0 0 -0.5,0.5 z"
       id="path93"
       style="stroke:#000000;stroke-width:0.2;stroke-miterlimit:4;stroke-dasharray:none;stroke-opacity:1" />
    <path
       d="m 25.52185,89.441866 a 0.5,0.5 0 0 0 0.5,0.5 h 13 a 0.5,0.5 0 0 0 0.5,-0.5 v -13 a 0.5,0.5 0 0 0 -0.5,-0.5 h -13 a 0.5,0.5 0 0 0 -0.5,0.5 z"
       id="path91"
       style="stroke:#000000;stroke-width:0.2;stroke-miterlimit:4;stroke-dasharray:none;stroke-opacity:1" />
    <path
       d="m 1.7093508,89.441866 a 0.5,0.5 0 0 0 0.5,0.5 H 15.20935 a 0.5,0.5 0 0 0 0.5,-0.5 v -13 a 0.5,0.5 0 0 0 -0.5,-0.5 H 2.2093508 a 0.5,0.5 0 0 0 -0.5,0.5 z"
       id="path89"
       style="stroke:#000000;stroke-width:0.2;stroke-miterlimit:4;stroke-dasharray:none;stroke-opacity:1" />
    <path
       d="m 118.3906,70.391866 a 0.5,0.5 0 0 0 0.5,0.5 h 13 a 0.5,0.5 0 0 0 0.5,-0.5 v -13 a 0.5,0.5 0 0 0 -0.5,-0.5 h -13 a 0.5,0.5 0 0 0 -0.5,0.5 z"
       id="path87"
       style="stroke:#000000;stroke-width:0.2;stroke-miterlimit:4;stroke-dasharray:none;stroke-opacity:1" />
    <path
       d="m 99.340602,70.391866 a 0.5,0.5 0 0 0 0.5,0.5 H 112.8406 a 0.5,0.5 0 0 0 0.5,-0.5 v -13 a 0.5,0.5 0 0 0 -0.5,-0.5 H 99.840602 a 0.5,0.5 0 0 0 -0.5,0.5 z"
       id="path85"
       style="stroke:#000000;stroke-width:0.2;stroke-miterlimit:4;stroke-dasharray:none;stroke-opacity:1" />
    <path
       d="m 80.2906,70.391866 a 0.5,0.5 0 0 0 0.5,0.5 h 13.000005 a 0.5,0.5 0 0 0 0.5,-0.5 v -13 a 0.5,0.5 0 0 0 -0.5,-0.5 H 80.7906 a 0.5,0.5 0 0 0 -0.5,0.5 z"
       id="path83"
       style="stroke:#000000;stroke-width:0.2;stroke-miterlimit:4;stroke-dasharray:none;stroke-opacity:1" />
    <path
       d="m 61.2406,70.391866 a 0.5,0.5 0 0 0 0.5,0.5 h 13 a 0.5,0.5 0 0 0 0.5,-0.5 v -13 a 0.5,0.5 0 0 0 -0.5,-0.5 h -13 a 0.5,0.5 0 0 0 -0.5,0.5 z"
       id="path81"
       style="stroke:#000000;stroke-width:0.2;stroke-miterlimit:4;stroke-dasharray:none;stroke-opacity:1" />
    <path
       d="m 42.1906,70.391866 a 0.5,0.5 0 0 0 0.5,0.5 h 13 a 0.5,0.5 0 0 0 0.5,-0.5 v -13 a 0.5,0.5 0 0 0 -0.5,-0.5 h -13 a 0.5,0.5 0 0 0 -0.5,0.5 z"
       id="path79"
       style="stroke:#000000;stroke-width:0.2;stroke-miterlimit:4;stroke-dasharray:none;stroke-opacity:1" />
    <path
       d="m 108.8656,51.341866 a 0.5,0.5 0 0 0 0.5,0.5 h 13 a 0.5,0.5 0 0 0 0.5,-0.5 v -13 a 0.5,0.5 0 0 0 -0.5,-0.5 h -13 a 0.5,0.5 0 0 0 -0.5,0.5 z"
       id="path77"
       style="stroke:#000000;stroke-width:0.2;stroke-miterlimit:4;stroke-dasharray:none;stroke-opacity:1" />
    <path
       d="m 89.8156,51.341866 a 0.5,0.5 0 0 0 0.5,0.5 h 13 a 0.5,0.5 0 0 0 0.5,-0.5 v -13 a 0.5,0.5 0 0 0 -0.5,-0.5 h -13 a 0.5,0.5 0 0 0 -0.5,0.5 z"
       id="path75"
       style="stroke:#000000;stroke-width:0.2;stroke-miterlimit:4;stroke-dasharray:none;stroke-opacity:1" />
    <path
       d="m 70.7656,51.341866 a 0.5,0.5 0 0 0 0.5,0.5 h 13 a 0.5,0.5 0 0 0 0.5,-0.5 v -13 a 0.5,0.5 0 0 0 -0.5,-0.5 h -13 a 0.5,0.5 0 0 0 -0.5,0.5 z"
       id="path73"
       style="stroke:#000000;stroke-width:0.2;stroke-miterlimit:4;stroke-dasharray:none;stroke-opacity:1" />
    <path
       d="m 51.7156,51.341866 a 0.5,0.5 0 0 0 0.5,0.5 h 13 a 0.5,0.5 0 0 0 0.5,-0.5 v -13 a 0.5,0.5 0 0 0 -0.5,-0.5 h -13 a 0.5,0.5 0 0 0 -0.5,0.5 z"
       id="path71"
       style="stroke:#000000;stroke-width:0.2;stroke-miterlimit:4;stroke-dasharray:none;stroke-opacity:1" />
    <path
       d="m 32.6656,51.341866 a 0.5,0.5 0 0 0 0.5,0.5 h 13 a 0.5,0.5 0 0 0 0.5,-0.5 v -13 a 0.5,0.5 0 0 0 -0.5,-0.5 h -13 a 0.5,0.5 0 0 0 -0.5,0.5 z"
       id="path69"
       style="stroke:#000000;stroke-width:0.2;stroke-miterlimit:4;stroke-dasharray:none;stroke-opacity:1" />
    <path
       d="m 6.4718508,51.341866 a 0.5,0.5 0 0 0 0.5,0.5 H 19.97185 a 0.5,0.5 0 0 0 0.5,-0.5 v -13 a 0.5,0.5 0 0 0 -0.5,-0.5 H 6.9718508 a 0.5,0.5 0 0 0 -0.5,0.5 z"
       id="path67"
       style="stroke:#000000;stroke-width:0.2;stroke-miterlimit:4;stroke-dasharray:none;stroke-opacity:1" />
    <path
       d="m 104.1031,32.291866 a 0.5,0.5 0 0 0 0.5,0.5 h 13 a 0.5,0.5 0 0 0 0.5,-0.5 v -13 a 0.5,0.5 0 0 0 -0.5,-0.5 h -13 a 0.5,0.5 0 0 0 -0.5,0.5 z"
       id="path65"
       style="stroke:#000000;stroke-width:0.2;stroke-miterlimit:4;stroke-dasharray:none;stroke-opacity:1" />
    <path
       d="m 85.0531,32.291866 a 0.5,0.5 0 0 0 0.5,0.5 h 13.000005 a 0.5,0.5 0 0 0 0.499997,-0.5 v -13 a 0.5,0.5 0 0 0 -0.499997,-0.5 H 85.5531 a 0.5,0.5 0 0 0 -0.5,0.5 z"
       id="path63"
       style="stroke:#000000;stroke-width:0.2;stroke-miterlimit:4;stroke-dasharray:none;stroke-opacity:1" />
    <path
       d="m 66.0031,32.291866 a 0.5,0.5 0 0 0 0.5,0.5 h 13 a 0.5,0.5 0 0 0 0.5,-0.5 v -13 a 0.5,0.5 0 0 0 -0.5,-0.5 h -13 a 0.5,0.5 0 0 0 -0.5,0.5 z"
       id="path61"
       style="stroke:#000000;stroke-width:0.2;stroke-miterlimit:4;stroke-dasharray:none;stroke-opacity:1" />
    <path
       d="m 46.9531,32.291866 a 0.5,0.5 0 0 0 0.5,0.5 h 13 a 0.5,0.5 0 0 0 0.5,-0.5 v -13 a 0.5,0.5 0 0 0 -0.5,-0.5 h -13 a 0.5,0.5 0 0 0 -0.5,0.5 z"
       id="path59"
       style="stroke:#000000;stroke-width:0.2;stroke-miterlimit:4;stroke-dasharray:none;stroke-opacity:1" />
    <path
       d="m 27.9031,32.291866 a 0.5,0.5 0 0 0 0.5,0.5 h 13 a 0.5,0.5 0 0 0 0.5,-0.5 v -13 a 0.5,0.5 0 0 0 -0.5,-0.5 h -13 a 0.5,0.5 0 0 0 -0.5,0.5 z"
       id="path57"
       style="stroke:#000000;stroke-width:0.2;stroke-miterlimit:4;stroke-dasharray:none;stroke-opacity:1" />
    <path
       d="m 4.0906008,32.291866 a 0.5,0.5 0 0 0 0.5,0.5 H 17.5906 a 0.5,0.5 0 0 0 0.5,-0.5 v -13 a 0.5,0.5 0 0 0 -0.5,-0.5 H 4.5906008 a 0.5,0.5 0 0 0 -0.5,0.5 z"
       id="path55"
       style="stroke:#000000;stroke-width:0.2;stroke-miterlimit:4;stroke-dasharray:none;stroke-opacity:1" />
    <path
       d="m 113.6281,13.241866 a 0.5,0.5 0 0 0 0.5,0.5 h 13 a 0.5,0.5 0 0 0 0.5,-0.5 V 0.24186602 a 0.5,0.5 0 0 0 -0.5,-0.5 h -13 a 0.5,0.5 0 0 0 -0.5,0.5 z"
       id="path53"
       style="stroke:#000000;stroke-width:0.2;stroke-miterlimit:4;stroke-dasharray:none;stroke-opacity:1" />
    <path
       d="m 94.578105,13.241866 a 0.5,0.5 0 0 0 0.5,0.5 H 108.0781 a 0.5,0.5 0 0 0 0.5,-0.5 V 0.24186602 a 0.5,0.5 0 0 0 -0.5,-0.5 H 95.078105 a 0.5,0.5 0 0 0 -0.5,0.5 z"
       id="path51"
       style="stroke:#000000;stroke-width:0.2;stroke-miterlimit:4;stroke-dasharray:none;stroke-opacity:1" />
    <path
       d="m 75.5281,13.241866 a 0.5,0.5 0 0 0 0.5,0.5 h 13 a 0.5,0.5 0 0 0 0.5,-0.5 V 0.24186602 a 0.5,0.5 0 0 0 -0.5,-0.5 h -13 a 0.5,0.5 0 0 0 -0.5,0.5 z"
       id="path49"
       style="stroke:#000000;stroke-width:0.2;stroke-miterlimit:4;stroke-dasharray:none;stroke-opacity:1" />
    <path
       d="m 56.4781,13.241866 a 0.5,0.5 0 0 0 0.5,0.5 h 13 a 0.5,0.5 0 0 0 0.5,-0.5 V 0.24186602 a 0.5,0.5 0 0 0 -0.5,-0.5 h -13 a 0.5,0.5 0 0 0 -0.5,0.5 z"
       id="path47"
       style="stroke:#000000;stroke-width:0.2;stroke-miterlimit:4;stroke-dasharray:none;stroke-opacity:1" />
    <path
       d="m 37.4281,13.241866 a 0.5,0.5 0 0 0 0.5,0.5 h 13 a 0.5,0.5 0 0 0 0.5,-0.5 V 0.24186602 a 0.5,0.5 0 0 0 -0.5,-0.5 h -13 a 0.5,0.5 0 0 0 -0.5,0.5 z"
       id="path45"
       style="stroke:#000000;stroke-width:0.2;stroke-miterlimit:4;stroke-dasharray:none;stroke-opacity:1" />
    <path
       d="m 18.3781,13.241866 a 0.5,0.5 0 0 0 0.5,0.5 h 13 a 0.5,0.5 0 0 0 0.5,-0.5 V 0.24186602 a 0.5,0.5 0 0 0 -0.5,-0.5 h -13 a 0.5,0.5 0 0 0 -0.5,0.5 z"
       id="path43"
       style="stroke:#000000;stroke-width:0.2;stroke-miterlimit:4;stroke-dasharray:none;stroke-opacity:1" />
    <path
       d="m -0.67189924,13.241866 a 0.5,0.5 0 0 0 0.5,0.5 H 12.8281 a 0.5,0.5 0 0 0 0.5,-0.5 V 0.24186602 a 0.5,0.5 0 0 0 -0.5,-0.5 H -0.17189924 a 0.5,0.5 0 0 0 -0.5,0.5 z"
       id="path41"
       style="stroke:#000000;stroke-width:0.2;stroke-miterlimit:4;stroke-dasharray:none;stroke-opacity:1" />
    <path
       d="m 89.8156,89.441866 a 0.5,0.5 0 0 0 0.1,0.3 h -1.538 v -16.05 a 0.5,0.5 0 0 0 -0.5,-0.5 h -6 a 0.5,0.5 0 0 0 -0.5,0.5 v 19.15 a 0.5,0.5 0 0 0 0.5,0.500002 h 3.5 2.5 17.876 2.5 3.5 a 0.5,0.5 0 0 0 0.5,-0.500002 v -19.15 a 0.5,0.5 0 0 0 -0.5,-0.5 h -6 a 0.5,0.5 0 0 0 -0.5,0.5 v 16.05 h -1.538 a 0.5,0.5 0 0 0 0.1,-0.3 v -13 a 0.5,0.5 0 0 0 -0.5,-0.5 h -13 a 0.5,0.5 0 0 0 -0.5,0.5 z"
       id="path39"
       style="stroke:#000000;stroke-width:0.2;stroke-miterlimit:4;stroke-dasharray:none;stroke-opacity:1" />
    <path
       d="m 11.23435,70.391866 a 0.5,0.5 0 0 0 0.1,0.3 H 9.7963503 v -16.05 a 0.5,0.5 0 0 0 -0.5,-0.5 H 3.2963508 a 0.5,0.5 0 0 0 -0.5,0.5 v 19.15 a 0.5,0.5 0 0 0 0.5,0.5 h 3.5 2.4999995 17.8759997 2.5 3.5 a 0.5,0.5 0 0 0 0.5,-0.5 v -19.15 a 0.5,0.5 0 0 0 -0.5,-0.5 h -6 a 0.5,0.5 0 0 0 -0.5,0.5 v 16.05 h -1.538 a 0.5,0.5 0 0 0 0.1,-0.3 v -13 a 0.5,0.5 0 0 0 -0.5,-0.5 h -13 a 0.5,0.5 0 0 0 -0.5,0.5 z"
       id="path2"
       style="stroke:#000000;stroke-width:0.2;stroke-miterlimit:4;stroke-dasharray:none;stroke-opacity:1" />
  </g>
  <g
     id="g1021"
     stroke-linecap="round"
     fill-rule="evenodd"
     font-size="12px"
     stroke="#000"
     stroke-width="0.25mm"
     fill="none"
     style="display:none;fill:none;stroke:#000000;stroke-width:0.2;stroke-miterlimit:4;stroke-dasharray:none;stroke-opacity:1"
     transform="translate(16.50984,15.258575)"
     inkscape:label="switches_5mm_grouped">
    <path
       id="path1019"
       style="stroke:#000000;stroke-width:0.2;stroke-miterlimit:4;stroke-dasharray:none;stroke-opacity:1"
       d="m 11.23435,70.391866 a 0.5,0.5 0 0 0 0.1,0.3 H 9.7963503 v -16.05 a 0.5,0.5 0 0 0 -0.5,-0.5 H 3.2963508 a 0.5,0.5 0 0 0 -0.5,0.5 v 19.15 a 0.5,0.5 0 0 0 0.5,0.5 h 3.5 2.4999995 17.8759997 2.5 3.5 a 0.5,0.5 0 0 0 0.5,-0.5 v -19.15 a 0.5,0.5 0 0 0 -0.5,-0.5 h -6 a 0.5,0.5 0 0 0 -0.5,0.5 v 16.05 h -1.538 a 0.5,0.5 0 0 0 0.1,-0.3 v -13 a 0.5,0.5 0 0 0 -0.5,-0.5 h -13 a 0.5,0.5 0 0 0 -0.5,0.5 z m 78.58125,19.05 a 0.5,0.5 0 0 0 0.1,0.3 h -1.538 v -16.05 a 0.5,0.5 0 0 0 -0.5,-0.5 h -6 a 0.5,0.5 0 0 0 -0.5,0.5 v 19.15 a 0.5,0.5 0 0 0 0.5,0.500002 h 3.5 2.5 17.876 2.5 3.5 a 0.5,0.5 0 0 0 0.5,-0.500002 v -19.15 a 0.5,0.5 0 0 0 -0.5,-0.5 h -6 a 0.5,0.5 0 0 0 -0.5,0.5 v 16.05 h -1.538 a 0.5,0.5 0 0 0 0.1,-0.3 v -13 a 0.5,0.5 0 0 0 -0.5,-0.5 h -13 a 0.5,0.5 0 0 0 -0.5,0.5 z m -90.48749924,-76.2 a 0.5,0.5 0 0 0 0.5,0.5 H 12.8281 a 0.5,0.5 0 0 0 0.5,-0.5 V 0.24186602 a 0.5,0.5 0 0 0 -0.5,-0.5 H -0.17189924 a 0.5,0.5 0 0 0 -0.5,0.5 z m 19.04999924,0 a 0.5,0.5 0 0 0 0.5,0.5 h 13 a 0.5,0.5 0 0 0 0.5,-0.5 V 0.24186602 a 0.5,0.5 0 0 0 -0.5,-0.5 h -13 a 0.5,0.5 0 0 0 -0.5,0.5 z m 19.05,0 a 0.5,0.5 0 0 0 0.5,0.5 h 13 a 0.5,0.5 0 0 0 0.5,-0.5 V 0.24186602 a 0.5,0.5 0 0 0 -0.5,-0.5 h -13 a 0.5,0.5 0 0 0 -0.5,0.5 z m 19.05,0 a 0.5,0.5 0 0 0 0.5,0.5 h 13 a 0.5,0.5 0 0 0 0.5,-0.5 V 0.24186602 a 0.5,0.5 0 0 0 -0.5,-0.5 h -13 a 0.5,0.5 0 0 0 -0.5,0.5 z m 19.05,0 a 0.5,0.5 0 0 0 0.5,0.5 h 13 a 0.5,0.5 0 0 0 0.5,-0.5 V 0.24186602 a 0.5,0.5 0 0 0 -0.5,-0.5 h -13 a 0.5,0.5 0 0 0 -0.5,0.5 z m 19.050005,0 a 0.5,0.5 0 0 0 0.5,0.5 H 108.0781 a 0.5,0.5 0 0 0 0.5,-0.5 V 0.24186602 a 0.5,0.5 0 0 0 -0.5,-0.5 H 95.078105 a 0.5,0.5 0 0 0 -0.5,0.5 z m 19.049995,0 a 0.5,0.5 0 0 0 0.5,0.5 h 13 a 0.5,0.5 0 0 0 0.5,-0.5 V 0.24186602 a 0.5,0.5 0 0 0 -0.5,-0.5 h -13 a 0.5,0.5 0 0 0 -0.5,0.5 z m -109.5374992,19.05 a 0.5,0.5 0 0 0 0.5,0.5 H 17.5906 a 0.5,0.5 0 0 0 0.5,-0.5 v -13 a 0.5,0.5 0 0 0 -0.5,-0.5 H 4.5906008 a 0.5,0.5 0 0 0 -0.5,0.5 z m 23.8124992,0 a 0.5,0.5 0 0 0 0.5,0.5 h 13 a 0.5,0.5 0 0 0 0.5,-0.5 v -13 a 0.5,0.5 0 0 0 -0.5,-0.5 h -13 a 0.5,0.5 0 0 0 -0.5,0.5 z m 19.05,0 a 0.5,0.5 0 0 0 0.5,0.5 h 13 a 0.5,0.5 0 0 0 0.5,-0.5 v -13 a 0.5,0.5 0 0 0 -0.5,-0.5 h -13 a 0.5,0.5 0 0 0 -0.5,0.5 z m 19.05,0 a 0.5,0.5 0 0 0 0.5,0.5 h 13 a 0.5,0.5 0 0 0 0.5,-0.5 v -13 a 0.5,0.5 0 0 0 -0.5,-0.5 h -13 a 0.5,0.5 0 0 0 -0.5,0.5 z m 19.05,0 a 0.5,0.5 0 0 0 0.5,0.5 h 13.000005 a 0.5,0.5 0 0 0 0.499997,-0.5 v -13 a 0.5,0.5 0 0 0 -0.499997,-0.5 H 85.5531 a 0.5,0.5 0 0 0 -0.5,0.5 z m 19.05,0 a 0.5,0.5 0 0 0 0.5,0.5 h 13 a 0.5,0.5 0 0 0 0.5,-0.5 v -13 a 0.5,0.5 0 0 0 -0.5,-0.5 h -13 a 0.5,0.5 0 0 0 -0.5,0.5 z m -97.6312492,19.05 a 0.5,0.5 0 0 0 0.5,0.5 H 19.97185 a 0.5,0.5 0 0 0 0.5,-0.5 v -13 a 0.5,0.5 0 0 0 -0.5,-0.5 H 6.9718508 a 0.5,0.5 0 0 0 -0.5,0.5 z m 26.1937492,0 a 0.5,0.5 0 0 0 0.5,0.5 h 13 a 0.5,0.5 0 0 0 0.5,-0.5 v -13 a 0.5,0.5 0 0 0 -0.5,-0.5 h -13 a 0.5,0.5 0 0 0 -0.5,0.5 z m 19.05,0 a 0.5,0.5 0 0 0 0.5,0.5 h 13 a 0.5,0.5 0 0 0 0.5,-0.5 v -13 a 0.5,0.5 0 0 0 -0.5,-0.5 h -13 a 0.5,0.5 0 0 0 -0.5,0.5 z m 19.05,0 a 0.5,0.5 0 0 0 0.5,0.5 h 13 a 0.5,0.5 0 0 0 0.5,-0.5 v -13 a 0.5,0.5 0 0 0 -0.5,-0.5 h -13 a 0.5,0.5 0 0 0 -0.5,0.5 z m 19.05,0 a 0.5,0.5 0 0 0 0.5,0.5 h 13 a 0.5,0.5 0 0 0 0.5,-0.5 v -13 a 0.5,0.5 0 0 0 -0.5,-0.5 h -13 a 0.5,0.5 0 0 0 -0.5,0.5 z m 19.05,0 a 0.5,0.5 0 0 0 0.5,0.5 h 13 a 0.5,0.5 0 0 0 0.5,-0.5 v -13 a 0.5,0.5 0 0 0 -0.5,-0.5 h -13 a 0.5,0.5 0 0 0 -0.5,0.5 z m -66.675,19.05 a 0.5,0.5 0 0 0 0.5,0.5 h 13 a 0.5,0.5 0 0 0 0.5,-0.5 v -13 a 0.5,0.5 0 0 0 -0.5,-0.5 h -13 a 0.5,0.5 0 0 0 -0.5,0.5 z m 19.05,0 a 0.5,0.5 0 0 0 0.5,0.5 h 13 a 0.5,0.5 0 0 0 0.5,-0.5 v -13 a 0.5,0.5 0 0 0 -0.5,-0.5 h -13 a 0.5,0.5 0 0 0 -0.5,0.5 z m 19.05,0 a 0.5,0.5 0 0 0 0.5,0.5 h 13.000005 a 0.5,0.5 0 0 0 0.5,-0.5 v -13 a 0.5,0.5 0 0 0 -0.5,-0.5 H 80.7906 a 0.5,0.5 0 0 0 -0.5,0.5 z m 19.050002,0 a 0.5,0.5 0 0 0 0.5,0.5 H 112.8406 a 0.5,0.5 0 0 0 0.5,-0.5 v -13 a 0.5,0.5 0 0 0 -0.5,-0.5 H 99.840602 a 0.5,0.5 0 0 0 -0.5,0.5 z m 19.049998,0 a 0.5,0.5 0 0 0 0.5,0.5 h 13 a 0.5,0.5 0 0 0 0.5,-0.5 v -13 a 0.5,0.5 0 0 0 -0.5,-0.5 h -13 a 0.5,0.5 0 0 0 -0.5,0.5 z m -116.6812492,19.05 a 0.5,0.5 0 0 0 0.5,0.5 H 15.20935 a 0.5,0.5 0 0 0 0.5,-0.5 v -13 a 0.5,0.5 0 0 0 -0.5,-0.5 H 2.2093508 a 0.5,0.5 0 0 0 -0.5,0.5 z m 23.8124992,0 a 0.5,0.5 0 0 0 0.5,0.5 h 13 a 0.5,0.5 0 0 0 0.5,-0.5 v -13 a 0.5,0.5 0 0 0 -0.5,-0.5 h -13 a 0.5,0.5 0 0 0 -0.5,0.5 z m 23.8125,0 a 0.5,0.5 0 0 0 0.5,0.5 h 13 a 0.5,0.5 0 0 0 0.5,-0.5 v -13 a 0.5,0.5 0 0 0 -0.5,-0.5 h -13 a 0.5,0.5 0 0 0 -0.5,0.5 z m 69.05625,0 a 0.5,0.5 0 0 0 0.5,0.5 h 13 a 0.5,0.5 0 0 0 0.5,-0.5 v -13 a 0.5,0.5 0 0 0 -0.5,-0.5 h -13 a 0.5,0.5 0 0 0 -0.5,0.5 z m -119.8999992,-57.15 a 0.5,0.5 0 0 0 0.5,0.5 h 0.99999997 a 0.5,0.5 0 0 0 0.5,-0.5 v -13 a 0.5,0.5 0 0 0 -0.5,-0.5 H -1.0093992 a 0.5,0.5 0 0 0 -0.5,0.5 z m 23.1999992,0 a 0.5,0.5 0 0 0 0.5,0.5 h 1 a 0.5,0.5 0 0 0 0.5,-0.5 v -13 a 0.5,0.5 0 0 0 -0.5,-0.5 h -1 a 0.5,0.5 0 0 0 -0.5,0.5 z m 55.875,57.15 a 0.5,0.5 0 0 0 0.5,0.5 h 1 a 0.5,0.5 0 0 0 0.5,-0.5 v -13 a 0.5,0.5 0 0 0 -0.5,-0.5 h -1 a 0.5,0.5 0 0 0 -0.5,0.5 z m 36.5,0 a 0.5,0.5 0 0 0 0.5,0.5 h 1 a 0.5,0.5 0 0 0 0.5,-0.5 v -13 a 0.5,0.5 0 0 0 -0.5,-0.5 h -1 a 0.5,0.5 0 0 0 -0.5,0.5 z" />
  </g>
  <g
     inkscape:groupmode="layer"
     id="layer4"
     inkscape:label="switches_3mm_grouped"
     style="display:none">
    <path
       id="path1219"
       style="font-size:12px;display:inline;fill:none;fill-rule:evenodd;stroke:#000000;stroke-width:0.2;stroke-linecap:round;stroke-opacity:1;stroke-miterlimit:4;stroke-dasharray:none"
       d="m 15.837941,28.500441 a 0.49999998,0.49999998 0 0 0 0.5,0.5 H 29.33794 a 0.49999998,0.49999998 0 0 0 0.5,-0.5 v -13 a 0.49999998,0.49999998 0 0 0 -0.5,-0.5 H 16.337941 a 0.49999998,0.49999998 0 0 0 -0.5,0.5 z m 19.049998,0 a 0.49999998,0.49999998 0 0 0 0.5,0.5 h 13 a 0.49999998,0.49999998 0 0 0 0.5,-0.5 v -13 a 0.49999998,0.49999998 0 0 0 -0.5,-0.5 h -13 a 0.49999998,0.49999998 0 0 0 -0.5,0.5 z m 19.05,0 a 0.49999998,0.49999998 0 0 0 0.5,0.5 h 12.999999 a 0.49999998,0.49999998 0 0 0 0.5,-0.5 v -13 a 0.49999998,0.49999998 0 0 0 -0.5,-0.5 H 54.437939 a 0.49999998,0.49999998 0 0 0 -0.5,0.5 z m 19.049999,0 a 0.49999998,0.49999998 0 0 0 0.5,0.5 h 13 a 0.49999998,0.49999998 0 0 0 0.5,-0.5 v -13 a 0.49999998,0.49999998 0 0 0 -0.5,-0.5 h -13 a 0.49999998,0.49999998 0 0 0 -0.5,0.5 z m 19.05,0 a 0.49999998,0.49999998 0 0 0 0.5,0.5 h 13.000002 a 0.49999998,0.49999998 0 0 0 0.5,-0.5 v -13 a 0.49999998,0.49999998 0 0 0 -0.5,-0.5 H 92.537938 a 0.49999998,0.49999998 0 0 0 -0.5,0.5 z m 19.050002,0 a 0.49999998,0.49999998 0 0 0 0.5,0.5 h 13 a 0.49999998,0.49999998 0 0 0 0.5,-0.5 v -13 a 0.49999998,0.49999998 0 0 0 -0.5,-0.5 h -13 a 0.49999998,0.49999998 0 0 0 -0.5,0.5 z m 19.05,0 a 0.49999998,0.49999998 0 0 0 0.5,0.5 h 13 a 0.49999998,0.49999998 0 0 0 0.5,-0.5 v -13 a 0.49999998,0.49999998 0 0 0 -0.5,-0.5 h -13 a 0.49999998,0.49999998 0 0 0 -0.5,0.5 z m -109.537498,19.05 a 0.49999998,0.49999998 0 0 0 0.5,0.5 h 12.999997 a 0.49999998,0.49999998 0 0 0 0.5,-0.5 v -13 a 0.49999998,0.49999998 0 0 0 -0.5,-0.5 H 21.100442 a 0.49999998,0.49999998 0 0 0 -0.5,0.5 z m 23.812497,0 a 0.49999998,0.49999998 0 0 0 0.5,0.5 h 13 a 0.49999998,0.49999998 0 0 0 0.5,-0.5 v -13 a 0.49999998,0.49999998 0 0 0 -0.5,-0.5 h -13 a 0.49999998,0.49999998 0 0 0 -0.5,0.5 z m 19.049999,0 a 0.49999998,0.49999998 0 0 0 0.5,0.5 h 13 a 0.49999998,0.49999998 0 0 0 0.5,-0.5 v -13 a 0.49999998,0.49999998 0 0 0 -0.5,-0.5 h -13 a 0.49999998,0.49999998 0 0 0 -0.5,0.5 z m 19.05,0 a 0.49999998,0.49999998 0 0 0 0.5,0.5 h 13 a 0.49999998,0.49999998 0 0 0 0.5,-0.5 v -13 a 0.49999998,0.49999998 0 0 0 -0.5,-0.5 h -13 a 0.49999998,0.49999998 0 0 0 -0.5,0.5 z m 19.050002,0 a 0.49999998,0.49999998 0 0 0 0.5,0.5 h 13 a 0.49999998,0.49999998 0 0 0 0.5,-0.5 v -13 a 0.49999998,0.49999998 0 0 0 -0.5,-0.5 h -13 a 0.49999998,0.49999998 0 0 0 -0.5,0.5 z m 19.05,0 a 0.49999998,0.49999998 0 0 0 0.5,0.5 h 13 a 0.49999998,0.49999998 0 0 0 0.5,-0.5 v -13 a 0.49999998,0.49999998 0 0 0 -0.5,-0.5 h -13 a 0.49999998,0.49999998 0 0 0 -0.5,0.5 z m -97.631248,19.04999 a 0.49999998,0.49999998 0 0 0 0.5,0.5 h 12.999997 a 0.49999998,0.49999998 0 0 0 0.5,-0.5 v -12.99999 a 0.49999998,0.49999998 0 0 0 -0.5,-0.5 H 23.481692 a 0.49999998,0.49999998 0 0 0 -0.5,0.5 z m 26.193747,0 a 0.49999998,0.49999998 0 0 0 0.5,0.5 h 12.999999 a 0.49999998,0.49999998 0 0 0 0.5,-0.5 v -12.99999 a 0.49999998,0.49999998 0 0 0 -0.5,-0.5 H 49.675439 a 0.49999998,0.49999998 0 0 0 -0.5,0.5 z m 19.049999,0 a 0.49999998,0.49999998 0 0 0 0.5,0.5 h 13 a 0.49999998,0.49999998 0 0 0 0.5,-0.5 v -12.99999 a 0.49999998,0.49999998 0 0 0 -0.5,-0.5 h -13 a 0.49999998,0.49999998 0 0 0 -0.5,0.5 z m 19.05,0 a 0.49999998,0.49999998 0 0 0 0.5,0.5 h 13.000002 a 0.49999998,0.49999998 0 0 0 0.5,-0.5 v -12.99999 a 0.49999998,0.49999998 0 0 0 -0.5,-0.5 H 87.775438 a 0.49999998,0.49999998 0 0 0 -0.5,0.5 z m 19.050002,0 a 0.49999998,0.49999998 0 0 0 0.5,0.5 h 13 a 0.49999998,0.49999998 0 0 0 0.5,-0.5 v -12.99999 a 0.49999998,0.49999998 0 0 0 -0.5,-0.5 h -13 a 0.49999998,0.49999998 0 0 0 -0.5,0.5 z m 19.05,0 a 0.49999998,0.49999998 0 0 0 0.5,0.5 h 13 a 0.49999998,0.49999998 0 0 0 0.5,-0.5 v -12.99999 a 0.49999998,0.49999998 0 0 0 -0.5,-0.5 h -13 a 0.49999998,0.49999998 0 0 0 -0.5,0.5 z m -97.63125,19.05 a 0.49999998,0.49999998 0 0 0 0.5,0.5 h 12.999999 a 0.49999998,0.49999998 0 0 0 0.5,-0.5 v -13 a 0.49999998,0.49999998 0 0 0 -0.5,-0.5 H 28.24419 a 0.49999998,0.49999998 0 0 0 -0.5,0.5 z m 30.956249,0 a 0.49999998,0.49999998 0 0 0 0.5,0.5 h 12.999999 a 0.49999998,0.49999998 0 0 0 0.5,-0.5 v -13 a 0.49999998,0.49999998 0 0 0 -0.5,-0.5 H 59.200439 a 0.49999998,0.49999998 0 0 0 -0.5,0.5 z m 19.049999,0 a 0.49999998,0.49999998 0 0 0 0.5,0.5 h 13 a 0.49999998,0.49999998 0 0 0 0.5,-0.5 v -13 a 0.49999998,0.49999998 0 0 0 -0.5,-0.5 h -13 a 0.49999998,0.49999998 0 0 0 -0.5,0.5 z m 19.05,0 a 0.49999998,0.49999998 0 0 0 0.5,0.5 h 13.000002 a 0.49999998,0.49999998 0 0 0 0.5,-0.5 v -13 a 0.49999998,0.49999998 0 0 0 -0.5,-0.5 H 97.300438 a 0.49999998,0.49999998 0 0 0 -0.5,0.5 z m 19.050002,0 a 0.49999998,0.49999998 0 0 0 0.5,0.5 h 13 a 0.49999998,0.49999998 0 0 0 0.5,-0.5 v -13 a 0.49999998,0.49999998 0 0 0 -0.5,-0.5 h -13 a 0.49999998,0.49999998 0 0 0 -0.5,0.5 z m 19.05,0 a 0.49999998,0.49999998 0 0 0 0.5,0.5 h 13 a 0.49999998,0.49999998 0 0 0 0.5,-0.5 v -13 a 0.49999998,0.49999998 0 0 0 -0.5,-0.5 h -13 a 0.49999998,0.49999998 0 0 0 -0.5,0.5 z M 18.219192,104.70043 a 0.49999998,0.49999998 0 0 0 0.5,0.5 h 12.999997 a 0.49999998,0.49999998 0 0 0 0.5,-0.5 V 91.700431 a 0.49999998,0.49999998 0 0 0 -0.5,-0.5 H 18.719192 a 0.49999998,0.49999998 0 0 0 -0.5,0.5 z m 23.812497,0 a 0.49999998,0.49999998 0 0 0 0.5,0.5 h 13 a 0.49999998,0.49999998 0 0 0 0.5,-0.5 V 91.700431 a 0.49999998,0.49999998 0 0 0 -0.5,-0.5 h -13 a 0.49999998,0.49999998 0 0 0 -0.5,0.5 z m 23.812499,0 a 0.49999998,0.49999998 0 0 0 0.5,0.5 h 13 a 0.49999998,0.49999998 0 0 0 0.5,-0.5 V 91.700431 a 0.49999998,0.49999998 0 0 0 -0.5,-0.5 h -13 a 0.49999998,0.49999998 0 0 0 -0.5,0.5 z m 40.481252,0 a 0.49999998,0.49999998 0 0 0 0.5,0.5 h 13 a 0.49999998,0.49999998 0 0 0 0.5,-0.5 V 91.700431 a 0.49999998,0.49999998 0 0 0 -0.5,-0.5 h -13 a 0.49999998,0.49999998 0 0 0 -0.5,0.5 z m 28.575,0 a 0.49999998,0.49999998 0 0 0 0.5,0.5 h 13 a 0.49999998,0.49999998 0 0 0 0.5,-0.5 V 91.700431 a 0.49999998,0.49999998 0 0 0 -0.5,-0.5 h -13 a 0.49999998,0.49999998 0 0 0 -0.5,0.5 z M 19.306192,87.650431 a 0.49999998,0.49999998 0 0 0 0.5,0.5 h 5.999998 a 0.49999998,0.49999998 0 0 0 0.5,-0.5 v -15 a 0.49999998,0.49999998 0 0 0 -0.5,-0.5 h -5.999998 a 0.49999998,0.49999998 0 0 0 -0.5,0.5 z m 23.875997,0 a 0.49999998,0.49999998 0 0 0 0.5,0.5 h 6 a 0.49999998,0.49999998 0 0 0 0.5,-0.5 v -15 a 0.49999998,0.49999998 0 0 0 -0.5,-0.5 h -6 a 0.49999998,0.49999998 0 0 0 -0.5,0.5 z m 54.705249,19.049999 a 0.49999998,0.49999998 0 0 0 0.5,0.5 h 6.000002 a 0.49999998,0.49999998 0 0 0 0.5,-0.5 V 91.700431 a 0.49999998,0.49999998 0 0 0 -0.5,-0.5 h -6.000002 a 0.49999998,0.49999998 0 0 0 -0.5,0.5 z m 23.876002,0 a 0.49999998,0.49999998 0 0 0 0.5,0.5 h 6 a 0.49999998,0.49999998 0 0 0 0.5,-0.5 V 91.700431 a 0.49999998,0.49999998 0 0 0 -0.5,-0.5 h -6 a 0.49999998,0.49999998 0 0 0 -0.5,0.5 z M 15.000441,47.550441 a 0.49999998,0.49999998 0 0 0 0.5,0.5 h 1 a 0.49999998,0.49999998 0 0 0 0.5,-0.5 v -13 a 0.49999998,0.49999998 0 0 0 -0.5,-0.5 h -1 a 0.49999998,0.49999998 0 0 0 -0.5,0.5 z m 23.199998,0 a 0.49999998,0.49999998 0 0 0 0.5,0.5 h 1 a 0.49999998,0.49999998 0 0 0 0.5,-0.5 v -13 a 0.49999998,0.49999998 0 0 0 -0.5,-0.5 h -1 a 0.49999998,0.49999998 0 0 0 -0.5,0.5 z m 55.874999,57.149989 a 0.49999998,0.49999998 0 0 0 0.5,0.5 h 1 a 0.49999998,0.49999998 0 0 0 0.5,-0.5 V 91.700431 a 0.49999998,0.49999998 0 0 0 -0.5,-0.5 h -1 a 0.49999998,0.49999998 0 0 0 -0.5,0.5 z m 36.500002,0 a 0.49999998,0.49999998 0 0 0 0.5,0.5 h 1 a 0.49999998,0.49999998 0 0 0 0.5,-0.5 V 91.700431 a 0.49999998,0.49999998 0 0 0 -0.5,-0.5 h -1 a 0.49999998,0.49999998 0 0 0 -0.5,0.5 z" />
  </g>
  <g
     inkscape:groupmode="layer"
     id="g104"
     inkscape:label="switches_3mm copy"
     style="display:inline">
    <path
       style="font-size:12px;display:inline;fill:none;fill-rule:evenodd;stroke:#000000;stroke-width:0.2;stroke-linecap:round;stroke-miterlimit:4;stroke-dasharray:none;stroke-opacity:1"
       d="m 130.57544,104.70043 a 0.49999998,0.49999998 0 0 0 0.5,0.5 h 1 a 0.49999998,0.49999998 0 0 0 0.5,-0.5 V 91.700431 a 0.49999998,0.49999998 0 0 0 -0.5,-0.5 h -1 a 0.49999998,0.49999998 0 0 0 -0.5,0.5 z"
       id="path180" />
    <path
       style="font-size:12px;display:inline;fill:none;fill-rule:evenodd;stroke:#000000;stroke-width:0.2;stroke-linecap:round;stroke-miterlimit:4;stroke-dasharray:none;stroke-opacity:1"
       d="m 94.075438,104.70043 a 0.49999998,0.49999998 0 0 0 0.5,0.5 h 1 a 0.49999998,0.49999998 0 0 0 0.5,-0.5 V 91.700431 a 0.49999998,0.49999998 0 0 0 -0.5,-0.5 h -1 a 0.49999998,0.49999998 0 0 0 -0.5,0.5 z"
       id="path178" />
    <path
       style="font-size:12px;display:inline;fill:none;fill-rule:evenodd;stroke:#000000;stroke-width:0.2;stroke-linecap:round;stroke-miterlimit:4;stroke-dasharray:none;stroke-opacity:1"
       d="m 38.200439,47.550441 a 0.49999998,0.49999998 0 0 0 0.5,0.5 h 1 a 0.49999998,0.49999998 0 0 0 0.5,-0.5 v -13 a 0.49999998,0.49999998 0 0 0 -0.5,-0.5 h -1 a 0.49999998,0.49999998 0 0 0 -0.5,0.5 z"
       id="path176" />
    <path
       style="font-size:12px;display:inline;fill:none;fill-rule:evenodd;stroke:#000000;stroke-width:0.2;stroke-linecap:round;stroke-miterlimit:4;stroke-dasharray:none;stroke-opacity:1"
       d="m 15.000441,47.550441 a 0.49999998,0.49999998 0 0 0 0.5,0.5 h 1 a 0.49999998,0.49999998 0 0 0 0.5,-0.5 v -13 a 0.49999998,0.49999998 0 0 0 -0.5,-0.5 h -1 a 0.49999998,0.49999998 0 0 0 -0.5,0.5 z"
       id="path174" />
    <path
       style="font-size:12px;display:inline;fill:none;fill-rule:evenodd;stroke:#000000;stroke-width:0.2;stroke-linecap:round;stroke-miterlimit:4;stroke-dasharray:none;stroke-opacity:1"
       d="m 121.76344,106.70043 a 0.49999998,0.49999998 0 0 0 0.5,0.5 h 6 a 0.49999998,0.49999998 0 0 0 0.5,-0.5 V 91.700431 a 0.49999998,0.49999998 0 0 0 -0.5,-0.5 h -6 a 0.49999998,0.49999998 0 0 0 -0.5,0.5 z"
       id="path172" />
    <path
       style="font-size:12px;display:inline;fill:none;fill-rule:evenodd;stroke:#000000;stroke-width:0.2;stroke-linecap:round;stroke-miterlimit:4;stroke-dasharray:none;stroke-opacity:1"
       d="m 97.887438,106.70043 a 0.49999998,0.49999998 0 0 0 0.5,0.5 h 6.000002 a 0.49999998,0.49999998 0 0 0 0.5,-0.5 V 91.700431 a 0.49999998,0.49999998 0 0 0 -0.5,-0.5 h -6.000002 a 0.49999998,0.49999998 0 0 0 -0.5,0.5 z"
       id="path170" />
    <path
       style="font-size:12px;display:inline;fill:none;fill-rule:evenodd;stroke:#000000;stroke-width:0.2;stroke-linecap:round;stroke-miterlimit:4;stroke-dasharray:none;stroke-opacity:1"
       d="m 43.182189,87.650431 a 0.49999998,0.49999998 0 0 0 0.5,0.5 h 6 a 0.49999998,0.49999998 0 0 0 0.5,-0.5 v -15 a 0.49999998,0.49999998 0 0 0 -0.5,-0.5 h -6 a 0.49999998,0.49999998 0 0 0 -0.5,0.5 z"
       id="path168" />
    <path
       style="font-size:12px;display:inline;fill:none;fill-rule:evenodd;stroke:#000000;stroke-width:0.2;stroke-linecap:round;stroke-miterlimit:4;stroke-dasharray:none;stroke-opacity:1"
       d="m 19.306192,87.650431 a 0.49999998,0.49999998 0 0 0 0.5,0.5 h 5.999998 a 0.49999998,0.49999998 0 0 0 0.5,-0.5 v -15 a 0.49999998,0.49999998 0 0 0 -0.5,-0.5 h -5.999998 a 0.49999998,0.49999998 0 0 0 -0.5,0.5 z"
       id="path166" />
    <path
       style="font-size:12px;display:inline;fill:none;fill-rule:evenodd;stroke:#000000;stroke-width:0.2;stroke-linecap:round;stroke-miterlimit:4;stroke-dasharray:none;stroke-opacity:1"
       d="m 134.90044,104.70043 a 0.49999998,0.49999998 0 0 0 0.5,0.5 h 13 a 0.49999998,0.49999998 0 0 0 0.5,-0.5 V 91.700431 a 0.49999998,0.49999998 0 0 0 -0.5,-0.5 h -13 a 0.49999998,0.49999998 0 0 0 -0.5,0.5 z"
       id="path164" />
    <path
       style="font-size:12px;display:inline;fill:none;fill-rule:evenodd;stroke:#000000;stroke-width:0.2;stroke-linecap:round;stroke-miterlimit:4;stroke-dasharray:none;stroke-opacity:1"
       d="m 106.32544,104.70043 a 0.49999998,0.49999998 0 0 0 0.5,0.5 h 13 a 0.49999998,0.49999998 0 0 0 0.5,-0.5 V 91.700431 a 0.49999998,0.49999998 0 0 0 -0.5,-0.5 h -13 a 0.49999998,0.49999998 0 0 0 -0.5,0.5 z"
       id="path162" />
    <path
       style="font-size:12px;display:inline;fill:none;fill-rule:evenodd;stroke:#000000;stroke-width:0.2;stroke-linecap:round;stroke-miterlimit:4;stroke-dasharray:none;stroke-opacity:1"
       d="m 65.844188,104.70043 a 0.49999998,0.49999998 0 0 0 0.5,0.5 h 13 a 0.49999998,0.49999998 0 0 0 0.5,-0.5 V 91.700431 a 0.49999998,0.49999998 0 0 0 -0.5,-0.5 h -13 a 0.49999998,0.49999998 0 0 0 -0.5,0.5 z"
       id="path160" />
    <path
       style="font-size:12px;display:inline;fill:none;fill-rule:evenodd;stroke:#000000;stroke-width:0.2;stroke-linecap:round;stroke-miterlimit:4;stroke-dasharray:none;stroke-opacity:1"
       d="m 42.031689,104.70043 a 0.49999998,0.49999998 0 0 0 0.5,0.5 h 13 a 0.49999998,0.49999998 0 0 0 0.5,-0.5 V 91.700431 a 0.49999998,0.49999998 0 0 0 -0.5,-0.5 h -13 a 0.49999998,0.49999998 0 0 0 -0.5,0.5 z"
       id="path158" />
    <path
       style="font-size:12px;display:inline;fill:none;fill-rule:evenodd;stroke:#000000;stroke-width:0.2;stroke-linecap:round;stroke-miterlimit:4;stroke-dasharray:none;stroke-opacity:1"
       d="m 18.219192,104.70043 a 0.49999998,0.49999998 0 0 0 0.5,0.5 h 12.999997 a 0.49999998,0.49999998 0 0 0 0.5,-0.5 V 91.700431 a 0.49999998,0.49999998 0 0 0 -0.5,-0.5 H 18.719192 a 0.49999998,0.49999998 0 0 0 -0.5,0.5 z"
       id="path156" />
    <path
       style="font-size:12px;display:inline;fill:none;fill-rule:evenodd;stroke:#000000;stroke-width:0.2;stroke-linecap:round;stroke-miterlimit:4;stroke-dasharray:none;stroke-opacity:1"
       d="m 134.90044,85.650431 a 0.49999998,0.49999998 0 0 0 0.5,0.5 h 13 a 0.49999998,0.49999998 0 0 0 0.5,-0.5 v -13 a 0.49999998,0.49999998 0 0 0 -0.5,-0.5 h -13 a 0.49999998,0.49999998 0 0 0 -0.5,0.5 z"
       id="path154" />
    <path
       style="font-size:12px;display:inline;fill:none;fill-rule:evenodd;stroke:#000000;stroke-width:0.2;stroke-linecap:round;stroke-miterlimit:4;stroke-dasharray:none;stroke-opacity:1"
       d="m 115.85044,85.650431 a 0.49999998,0.49999998 0 0 0 0.5,0.5 h 13 a 0.49999998,0.49999998 0 0 0 0.5,-0.5 v -13 a 0.49999998,0.49999998 0 0 0 -0.5,-0.5 h -13 a 0.49999998,0.49999998 0 0 0 -0.5,0.5 z"
       id="path152" />
    <path
       style="font-size:12px;display:inline;fill:none;fill-rule:evenodd;stroke:#000000;stroke-width:0.2;stroke-linecap:round;stroke-miterlimit:4;stroke-dasharray:none;stroke-opacity:1"
       d="m 96.800438,85.650431 a 0.49999998,0.49999998 0 0 0 0.5,0.5 h 13.000002 a 0.49999998,0.49999998 0 0 0 0.5,-0.5 v -13 a 0.49999998,0.49999998 0 0 0 -0.5,-0.5 H 97.300438 a 0.49999998,0.49999998 0 0 0 -0.5,0.5 z"
       id="path150" />
    <path
       style="font-size:12px;display:inline;fill:none;fill-rule:evenodd;stroke:#000000;stroke-width:0.2;stroke-linecap:round;stroke-miterlimit:4;stroke-dasharray:none;stroke-opacity:1"
       d="m 77.750438,85.650431 a 0.49999998,0.49999998 0 0 0 0.5,0.5 h 13 a 0.49999998,0.49999998 0 0 0 0.5,-0.5 v -13 a 0.49999998,0.49999998 0 0 0 -0.5,-0.5 h -13 a 0.49999998,0.49999998 0 0 0 -0.5,0.5 z"
       id="path148" />
    <path
       style="font-size:12px;display:inline;fill:none;fill-rule:evenodd;stroke:#000000;stroke-width:0.2;stroke-linecap:round;stroke-miterlimit:4;stroke-dasharray:none;stroke-opacity:1"
       d="m 58.700439,85.650431 a 0.49999998,0.49999998 0 0 0 0.5,0.5 h 12.999999 a 0.49999998,0.49999998 0 0 0 0.5,-0.5 v -13 a 0.49999998,0.49999998 0 0 0 -0.5,-0.5 H 59.200439 a 0.49999998,0.49999998 0 0 0 -0.5,0.5 z"
       id="path146" />
    <path
       style="font-size:12px;display:inline;fill:none;fill-rule:evenodd;stroke:#000000;stroke-width:0.2;stroke-linecap:round;stroke-miterlimit:4;stroke-dasharray:none;stroke-opacity:1"
       d="m 27.74419,85.650431 a 0.49999998,0.49999998 0 0 0 0.5,0.5 h 12.999999 a 0.49999998,0.49999998 0 0 0 0.5,-0.5 v -13 a 0.49999998,0.49999998 0 0 0 -0.5,-0.5 H 28.24419 a 0.49999998,0.49999998 0 0 0 -0.5,0.5 z"
       id="path144" />
    <path
       style="font-size:12px;display:inline;fill:none;fill-rule:evenodd;stroke:#000000;stroke-width:0.2;stroke-linecap:round;stroke-miterlimit:4;stroke-dasharray:none;stroke-opacity:1"
       d="m 125.37544,66.600431 a 0.49999998,0.49999998 0 0 0 0.5,0.5 h 13 a 0.49999998,0.49999998 0 0 0 0.5,-0.5 v -12.99999 a 0.49999998,0.49999998 0 0 0 -0.5,-0.5 h -13 a 0.49999998,0.49999998 0 0 0 -0.5,0.5 z"
       id="path142" />
    <path
       style="font-size:12px;display:inline;fill:none;fill-rule:evenodd;stroke:#000000;stroke-width:0.2;stroke-linecap:round;stroke-miterlimit:4;stroke-dasharray:none;stroke-opacity:1"
       d="m 106.32544,66.600431 a 0.49999998,0.49999998 0 0 0 0.5,0.5 h 13 a 0.49999998,0.49999998 0 0 0 0.5,-0.5 v -12.99999 a 0.49999998,0.49999998 0 0 0 -0.5,-0.5 h -13 a 0.49999998,0.49999998 0 0 0 -0.5,0.5 z"
       id="path140" />
    <path
       style="font-size:12px;display:inline;fill:none;fill-rule:evenodd;stroke:#000000;stroke-width:0.2;stroke-linecap:round;stroke-miterlimit:4;stroke-dasharray:none;stroke-opacity:1"
       d="m 87.275438,66.600431 a 0.49999998,0.49999998 0 0 0 0.5,0.5 h 13.000002 a 0.49999998,0.49999998 0 0 0 0.5,-0.5 v -12.99999 a 0.49999998,0.49999998 0 0 0 -0.5,-0.5 H 87.775438 a 0.49999998,0.49999998 0 0 0 -0.5,0.5 z"
       id="path138" />
    <path
       style="font-size:12px;display:inline;fill:none;fill-rule:evenodd;stroke:#000000;stroke-width:0.2;stroke-linecap:round;stroke-miterlimit:4;stroke-dasharray:none;stroke-opacity:1"
       d="m 68.225438,66.600431 a 0.49999998,0.49999998 0 0 0 0.5,0.5 h 13 a 0.49999998,0.49999998 0 0 0 0.5,-0.5 v -12.99999 a 0.49999998,0.49999998 0 0 0 -0.5,-0.5 h -13 a 0.49999998,0.49999998 0 0 0 -0.5,0.5 z"
       id="path136" />
    <path
       style="font-size:12px;display:inline;fill:none;fill-rule:evenodd;stroke:#000000;stroke-width:0.2;stroke-linecap:round;stroke-miterlimit:4;stroke-dasharray:none;stroke-opacity:1"
       d="m 49.175439,66.600431 a 0.49999998,0.49999998 0 0 0 0.5,0.5 h 12.999999 a 0.49999998,0.49999998 0 0 0 0.5,-0.5 v -12.99999 a 0.49999998,0.49999998 0 0 0 -0.5,-0.5 H 49.675439 a 0.49999998,0.49999998 0 0 0 -0.5,0.5 z"
       id="path134" />
    <path
       style="font-size:12px;display:inline;fill:none;fill-rule:evenodd;stroke:#000000;stroke-width:0.2;stroke-linecap:round;stroke-miterlimit:4;stroke-dasharray:none;stroke-opacity:1"
       d="m 22.981692,66.600431 a 0.49999998,0.49999998 0 0 0 0.5,0.5 h 12.999997 a 0.49999998,0.49999998 0 0 0 0.5,-0.5 v -12.99999 a 0.49999998,0.49999998 0 0 0 -0.5,-0.5 H 23.481692 a 0.49999998,0.49999998 0 0 0 -0.5,0.5 z"
       id="path132" />
    <path
       style="font-size:12px;display:inline;fill:none;fill-rule:evenodd;stroke:#000000;stroke-width:0.2;stroke-linecap:round;stroke-miterlimit:4;stroke-dasharray:none;stroke-opacity:1"
       d="m 120.61294,47.550441 a 0.49999998,0.49999998 0 0 0 0.5,0.5 h 13 a 0.49999998,0.49999998 0 0 0 0.5,-0.5 v -13 a 0.49999998,0.49999998 0 0 0 -0.5,-0.5 h -13 a 0.49999998,0.49999998 0 0 0 -0.5,0.5 z"
       id="path130" />
    <path
       style="font-size:12px;display:inline;fill:none;fill-rule:evenodd;stroke:#000000;stroke-width:0.2;stroke-linecap:round;stroke-miterlimit:4;stroke-dasharray:none;stroke-opacity:1"
       d="m 101.56294,47.550441 a 0.49999998,0.49999998 0 0 0 0.5,0.5 h 13 a 0.49999998,0.49999998 0 0 0 0.5,-0.5 v -13 a 0.49999998,0.49999998 0 0 0 -0.5,-0.5 h -13 a 0.49999998,0.49999998 0 0 0 -0.5,0.5 z"
       id="path128" />
    <path
       style="font-size:12px;display:inline;fill:none;fill-rule:evenodd;stroke:#000000;stroke-width:0.2;stroke-linecap:round;stroke-miterlimit:4;stroke-dasharray:none;stroke-opacity:1"
       d="m 82.512938,47.550441 a 0.49999998,0.49999998 0 0 0 0.5,0.5 h 13 a 0.49999998,0.49999998 0 0 0 0.5,-0.5 v -13 a 0.49999998,0.49999998 0 0 0 -0.5,-0.5 h -13 a 0.49999998,0.49999998 0 0 0 -0.5,0.5 z"
       id="path126" />
    <path
       style="font-size:12px;display:inline;fill:none;fill-rule:evenodd;stroke:#000000;stroke-width:0.2;stroke-linecap:round;stroke-miterlimit:4;stroke-dasharray:none;stroke-opacity:1"
       d="m 63.462938,47.550441 a 0.49999998,0.49999998 0 0 0 0.5,0.5 h 13 a 0.49999998,0.49999998 0 0 0 0.5,-0.5 v -13 a 0.49999998,0.49999998 0 0 0 -0.5,-0.5 h -13 a 0.49999998,0.49999998 0 0 0 -0.5,0.5 z"
       id="path124" />
    <path
       style="font-size:12px;display:inline;fill:none;fill-rule:evenodd;stroke:#000000;stroke-width:0.2;stroke-linecap:round;stroke-miterlimit:4;stroke-dasharray:none;stroke-opacity:1"
       d="m 44.412939,47.550441 a 0.49999998,0.49999998 0 0 0 0.5,0.5 h 13 a 0.49999998,0.49999998 0 0 0 0.5,-0.5 v -13 a 0.49999998,0.49999998 0 0 0 -0.5,-0.5 h -13 a 0.49999998,0.49999998 0 0 0 -0.5,0.5 z"
       id="path122" />
    <path
       style="font-size:12px;display:inline;fill:none;fill-rule:evenodd;stroke:#000000;stroke-width:0.2;stroke-linecap:round;stroke-miterlimit:4;stroke-dasharray:none;stroke-opacity:1"
       d="m 20.600442,47.550441 a 0.49999998,0.49999998 0 0 0 0.5,0.5 h 12.999997 a 0.49999998,0.49999998 0 0 0 0.5,-0.5 v -13 a 0.49999998,0.49999998 0 0 0 -0.5,-0.5 H 21.100442 a 0.49999998,0.49999998 0 0 0 -0.5,0.5 z"
       id="path120" />
    <path
       style="font-size:12px;display:inline;fill:none;fill-rule:evenodd;stroke:#000000;stroke-width:0.2;stroke-linecap:round;stroke-miterlimit:4;stroke-dasharray:none;stroke-opacity:1"
       d="m 130.13794,28.500441 a 0.49999998,0.49999998 0 0 0 0.5,0.5 h 13 a 0.49999998,0.49999998 0 0 0 0.5,-0.5 v -13 a 0.49999998,0.49999998 0 0 0 -0.5,-0.5 h -13 a 0.49999998,0.49999998 0 0 0 -0.5,0.5 z"
       id="path118" />
    <path
       style="font-size:12px;display:inline;fill:none;fill-rule:evenodd;stroke:#000000;stroke-width:0.2;stroke-linecap:round;stroke-miterlimit:4;stroke-dasharray:none;stroke-opacity:1"
       d="m 111.08794,28.500441 a 0.49999998,0.49999998 0 0 0 0.5,0.5 h 13 a 0.49999998,0.49999998 0 0 0 0.5,-0.5 v -13 a 0.49999998,0.49999998 0 0 0 -0.5,-0.5 h -13 a 0.49999998,0.49999998 0 0 0 -0.5,0.5 z"
       id="path116" />
    <path
       style="font-size:12px;display:inline;fill:none;fill-rule:evenodd;stroke:#000000;stroke-width:0.2;stroke-linecap:round;stroke-miterlimit:4;stroke-dasharray:none;stroke-opacity:1"
       d="m 92.037938,28.500441 a 0.49999998,0.49999998 0 0 0 0.5,0.5 h 13.000002 a 0.49999998,0.49999998 0 0 0 0.5,-0.5 v -13 a 0.49999998,0.49999998 0 0 0 -0.5,-0.5 H 92.537938 a 0.49999998,0.49999998 0 0 0 -0.5,0.5 z"
       id="path114" />
    <path
       style="font-size:12px;display:inline;fill:none;fill-rule:evenodd;stroke:#000000;stroke-width:0.2;stroke-linecap:round;stroke-miterlimit:4;stroke-dasharray:none;stroke-opacity:1"
       d="m 72.987938,28.500441 a 0.49999998,0.49999998 0 0 0 0.5,0.5 h 13 a 0.49999998,0.49999998 0 0 0 0.5,-0.5 v -13 a 0.49999998,0.49999998 0 0 0 -0.5,-0.5 h -13 a 0.49999998,0.49999998 0 0 0 -0.5,0.5 z"
       id="path112" />
    <path
       style="font-size:12px;display:inline;fill:none;fill-rule:evenodd;stroke:#000000;stroke-width:0.2;stroke-linecap:round;stroke-miterlimit:4;stroke-dasharray:none;stroke-opacity:1"
       d="m 53.937939,28.500441 a 0.49999998,0.49999998 0 0 0 0.5,0.5 h 12.999999 a 0.49999998,0.49999998 0 0 0 0.5,-0.5 v -13 a 0.49999998,0.49999998 0 0 0 -0.5,-0.5 H 54.437939 a 0.49999998,0.49999998 0 0 0 -0.5,0.5 z"
       id="path110" />
    <path
       style="font-size:12px;display:inline;fill:none;fill-rule:evenodd;stroke:#000000;stroke-width:0.2;stroke-linecap:round;stroke-miterlimit:4;stroke-dasharray:none;stroke-opacity:1"
       d="m 34.887939,28.500441 a 0.49999998,0.49999998 0 0 0 0.5,0.5 h 13 a 0.49999998,0.49999998 0 0 0 0.5,-0.5 v -13 a 0.49999998,0.49999998 0 0 0 -0.5,-0.5 h -13 a 0.49999998,0.49999998 0 0 0 -0.5,0.5 z"
       id="path108" />
    <path
       style="font-size:12px;display:inline;fill:none;fill-rule:evenodd;stroke:#000000;stroke-width:0.2;stroke-linecap:round;stroke-miterlimit:4;stroke-dasharray:none;stroke-opacity:1"
       d="m 15.837941,28.500441 a 0.49999998,0.49999998 0 0 0 0.5,0.5 H 29.33794 a 0.49999998,0.49999998 0 0 0 0.5,-0.5 v -13 a 0.49999998,0.49999998 0 0 0 -0.5,-0.5 H 16.337941 a 0.49999998,0.49999998 0 0 0 -0.5,0.5 z"
       id="path102" />
  </g>
  <g
     id="g225"
     inkscape:label="keycaps_space"
     style="display:none;stroke:#000000;stroke-width:0.2;stroke-miterlimit:4;stroke-dasharray:none;stroke-opacity:1">
    <path
       id="path165"
       style="font-size:12px;display:inline;fill:none;fill-rule:evenodd;stroke:#000000;stroke-width:0.75590552;stroke-linecap:round;stroke-miterlimit:4;stroke-dasharray:none;stroke-opacity:1"
       d="M 50.316851,407.15039 H 320.31496 v -72 h 36.00001 v 72 h 216 v -144 h -36 v -72 h -17.99811 v -72 h 36 V 47.150391 H 50.316851 Z"
       transform="scale(0.26458333)"
       sodipodi:nodetypes="ccccccccccccccc" />
  </g>
  <g
     inkscape:groupmode="layer"
     id="layer1"
     inkscape:label="keycaps_individual"
     style="display:none">
    <path
       style="font-size:12px;display:inline;fill:none;fill-rule:evenodd;stroke:#000000;stroke-width:0.2;stroke-linecap:round;stroke-miterlimit:4;stroke-dasharray:none;stroke-opacity:1"
       d="m 132.37544,107.22544 a 0.5,0.5 0 0 0 0.5,0.5 h 18.05 a 0.5,0.5 0 0 0 0.5,-0.5 V 89.175441 a 0.5,0.5 0 0 0 -0.5,-0.5 h -18.05 a 0.5,0.5 0 0 0 -0.5,0.5 z"
       id="path163" />
    <path
       style="font-size:12px;display:inline;fill:none;fill-rule:evenodd;stroke:#000000;stroke-width:0.2;stroke-linecap:round;stroke-miterlimit:4;stroke-dasharray:none;stroke-opacity:1"
       d="m 132.37544,88.175441 a 0.5,0.5 0 0 0 0.5,0.5 h 18.05 a 0.5,0.5 0 0 0 0.5,-0.5 v -18.05 a 0.5,0.5 0 0 0 -0.5,-0.5 h -18.05 a 0.5,0.5 0 0 0 -0.5,0.5 z"
       id="path161" />
    <path
       style="font-size:12px;display:inline;fill:none;fill-rule:evenodd;stroke:#000000;stroke-width:0.2;stroke-linecap:round;stroke-miterlimit:4;stroke-dasharray:none;stroke-opacity:1"
       d="m 113.32544,88.175441 a 0.5,0.5 0 0 0 0.5,0.5 h 18.05 a 0.5,0.5 0 0 0 0.5,-0.5 v -18.05 a 0.5,0.5 0 0 0 -0.5,-0.5 h -18.05 a 0.5,0.5 0 0 0 -0.5,0.5 z"
       id="path159" />
    <path
       style="font-size:12px;display:inline;fill:none;fill-rule:evenodd;stroke:#000000;stroke-width:0.2;stroke-linecap:round;stroke-miterlimit:4;stroke-dasharray:none;stroke-opacity:1"
       d="m 94.275445,88.175441 a 0.5,0.5 0 0 0 0.5,0.5 h 18.049995 a 0.5,0.5 0 0 0 0.5,-0.5 v -18.05 a 0.5,0.5 0 0 0 -0.5,-0.5 H 94.775445 a 0.5,0.5 0 0 0 -0.5,0.5 z"
       id="path157" />
    <path
       style="font-size:12px;display:inline;fill:none;fill-rule:evenodd;stroke:#000000;stroke-width:0.2;stroke-linecap:round;stroke-miterlimit:4;stroke-dasharray:none;stroke-opacity:1"
       d="m 75.225438,88.175441 a 0.5,0.5 0 0 0 0.5,0.5 h 18.050003 a 0.5,0.5 0 0 0 0.5,-0.5 v -18.05 a 0.5,0.5 0 0 0 -0.5,-0.5 H 75.725438 a 0.5,0.5 0 0 0 -0.5,0.5 z"
       id="path155" />
    <path
       style="font-size:12px;display:inline;fill:none;fill-rule:evenodd;stroke:#000000;stroke-width:0.2;stroke-linecap:round;stroke-miterlimit:4;stroke-dasharray:none;stroke-opacity:1"
       d="m 56.17544,88.175441 a 0.5,0.5 0 0 0 0.5,0.5 h 18.05 a 0.5,0.5 0 0 0 0.5,-0.5 v -18.05 a 0.5,0.5 0 0 0 -0.5,-0.5 h -18.05 a 0.5,0.5 0 0 0 -0.5,0.5 z"
       id="path153" />
    <path
       style="font-size:12px;display:inline;fill:none;fill-rule:evenodd;stroke:#000000;stroke-width:0.2;stroke-linecap:round;stroke-miterlimit:4;stroke-dasharray:none;stroke-opacity:1"
       d="m 122.85044,69.125441 a 0.5,0.5 0 0 0 0.5,0.5 h 18.05 a 0.5,0.5 0 0 0 0.5,-0.5 v -18.05 a 0.5,0.5 0 0 0 -0.5,-0.5 h -18.05 a 0.5,0.5 0 0 0 -0.5,0.5 z"
       id="path151" />
    <path
       style="font-size:12px;display:inline;fill:none;fill-rule:evenodd;stroke:#000000;stroke-width:0.2;stroke-linecap:round;stroke-miterlimit:4;stroke-dasharray:none;stroke-opacity:1"
       d="m 103.80044,69.125441 a 0.5,0.5 0 0 0 0.5,0.5 h 18.05 a 0.5,0.5 0 0 0 0.5,-0.5 v -18.05 a 0.5,0.5 0 0 0 -0.5,-0.5 h -18.05 a 0.5,0.5 0 0 0 -0.5,0.5 z"
       id="path149" />
    <path
       style="font-size:12px;display:inline;fill:none;fill-rule:evenodd;stroke:#000000;stroke-width:0.2;stroke-linecap:round;stroke-miterlimit:4;stroke-dasharray:none;stroke-opacity:1"
       d="m 84.750441,69.125441 a 0.5,0.5 0 0 0 0.5,0.5 h 18.049999 a 0.5,0.5 0 0 0 0.5,-0.5 v -18.05 a 0.5,0.5 0 0 0 -0.5,-0.5 H 85.250441 a 0.5,0.5 0 0 0 -0.5,0.5 z"
       id="path147" />
    <path
       style="font-size:12px;display:inline;fill:none;fill-rule:evenodd;stroke:#000000;stroke-width:0.2;stroke-linecap:round;stroke-miterlimit:4;stroke-dasharray:none;stroke-opacity:1"
       d="m 65.70044,69.125441 a 0.5,0.5 0 0 0 0.5,0.5 h 18.05 a 0.5,0.5 0 0 0 0.5,-0.5 v -18.05 a 0.5,0.5 0 0 0 -0.5,-0.5 h -18.05 a 0.5,0.5 0 0 0 -0.5,0.5 z"
       id="path145" />
    <path
       style="font-size:12px;display:inline;fill:none;fill-rule:evenodd;stroke:#000000;stroke-width:0.2;stroke-linecap:round;stroke-miterlimit:4;stroke-dasharray:none;stroke-opacity:1"
       d="m 46.65044,69.125441 a 0.5,0.5 0 0 0 0.5,0.5 h 18.05 a 0.5,0.5 0 0 0 0.5,-0.5 v -18.05 a 0.5,0.5 0 0 0 -0.5,-0.5 h -18.05 a 0.5,0.5 0 0 0 -0.5,0.5 z"
       id="path143" />
    <path
       style="font-size:12px;display:inline;fill:none;fill-rule:evenodd;stroke:#000000;stroke-width:0.2;stroke-linecap:round;stroke-miterlimit:4;stroke-dasharray:none;stroke-opacity:1"
       d="m 118.08794,50.075441 a 0.5,0.5 0 0 0 0.5,0.5 h 18.05 a 0.5,0.5 0 0 0 0.5,-0.5 v -18.05 a 0.5,0.5 0 0 0 -0.5,-0.5 h -18.05 a 0.5,0.5 0 0 0 -0.5,0.5 z"
       id="path141" />
    <path
       style="font-size:12px;display:inline;fill:none;fill-rule:evenodd;stroke:#000000;stroke-width:0.2;stroke-linecap:round;stroke-miterlimit:4;stroke-dasharray:none;stroke-opacity:1"
       d="m 99.037941,50.075441 a 0.5,0.5 0 0 0 0.5,0.5 h 18.049999 a 0.5,0.5 0 0 0 0.5,-0.5 v -18.05 a 0.5,0.5 0 0 0 -0.5,-0.5 H 99.537941 a 0.5,0.5 0 0 0 -0.5,0.5 z"
       id="path139" />
    <path
       style="font-size:12px;display:inline;fill:none;fill-rule:evenodd;stroke:#000000;stroke-width:0.2;stroke-linecap:round;stroke-miterlimit:4;stroke-dasharray:none;stroke-opacity:1"
       d="m 79.987941,50.075441 a 0.5,0.5 0 0 0 0.5,0.5 h 18.049998 a 0.5,0.5 0 0 0 0.5,-0.5 v -18.05 a 0.5,0.5 0 0 0 -0.5,-0.5 H 80.487941 a 0.5,0.5 0 0 0 -0.5,0.5 z"
       id="path137" />
    <path
       style="font-size:12px;display:inline;fill:none;fill-rule:evenodd;stroke:#000000;stroke-width:0.2;stroke-linecap:round;stroke-miterlimit:4;stroke-dasharray:none;stroke-opacity:1"
       d="m 60.93794,50.075441 a 0.5,0.5 0 0 0 0.5,0.5 h 18.05 a 0.5,0.5 0 0 0 0.5,-0.5 v -18.05 a 0.5,0.5 0 0 0 -0.5,-0.5 h -18.05 a 0.5,0.5 0 0 0 -0.5,0.5 z"
       id="path135" />
    <path
       style="font-size:12px;display:inline;fill:none;fill-rule:evenodd;stroke:#000000;stroke-width:0.2;stroke-linecap:round;stroke-miterlimit:4;stroke-dasharray:none;stroke-opacity:1"
       d="m 41.88794,50.075441 a 0.5,0.5 0 0 0 0.5,0.5 h 18.05 a 0.5,0.5 0 0 0 0.5,-0.5 v -18.05 a 0.5,0.5 0 0 0 -0.5,-0.5 h -18.05 a 0.5,0.5 0 0 0 -0.5,0.5 z"
       id="path133" />
    <path
       style="font-size:12px;display:inline;fill:none;fill-rule:evenodd;stroke:#000000;stroke-width:0.2;stroke-linecap:round;stroke-miterlimit:4;stroke-dasharray:none;stroke-opacity:1"
       d="m 127.61294,31.025441 a 0.5,0.5 0 0 0 0.5,0.5 h 18.05 a 0.5,0.5 0 0 0 0.5,-0.5 v -18.05 a 0.5,0.5 0 0 0 -0.5,-0.5 h -18.05 a 0.5,0.5 0 0 0 -0.5,0.5 z"
       id="path131" />
    <path
       style="font-size:12px;display:inline;fill:none;fill-rule:evenodd;stroke:#000000;stroke-width:0.2;stroke-linecap:round;stroke-miterlimit:4;stroke-dasharray:none;stroke-opacity:1"
       d="m 108.56294,31.025441 a 0.5,0.5 0 0 0 0.5,0.5 h 18.05 a 0.5,0.5 0 0 0 0.5,-0.5 v -18.05 a 0.5,0.5 0 0 0 -0.5,-0.5 h -18.05 a 0.5,0.5 0 0 0 -0.5,0.5 z"
       id="path129" />
    <path
       style="font-size:12px;display:inline;fill:none;fill-rule:evenodd;stroke:#000000;stroke-width:0.2;stroke-linecap:round;stroke-miterlimit:4;stroke-dasharray:none;stroke-opacity:1"
       d="m 89.512941,31.025441 a 0.5,0.5 0 0 0 0.5,0.5 h 18.049999 a 0.5,0.5 0 0 0 0.5,-0.5 v -18.05 a 0.5,0.5 0 0 0 -0.5,-0.5 H 90.012941 a 0.5,0.5 0 0 0 -0.5,0.5 z"
       id="path127" />
    <path
       style="font-size:12px;display:inline;fill:none;fill-rule:evenodd;stroke:#000000;stroke-width:0.2;stroke-linecap:round;stroke-miterlimit:4;stroke-dasharray:none;stroke-opacity:1"
       d="m 70.46294,31.025441 a 0.5,0.5 0 0 0 0.5,0.5 h 18.05 a 0.5,0.5 0 0 0 0.5,-0.5 v -18.05 a 0.5,0.5 0 0 0 -0.5,-0.5 h -18.05 a 0.5,0.5 0 0 0 -0.5,0.5 z"
       id="path125" />
    <path
       style="font-size:12px;display:inline;fill:none;fill-rule:evenodd;stroke:#000000;stroke-width:0.2;stroke-linecap:round;stroke-miterlimit:4;stroke-dasharray:none;stroke-opacity:1"
       d="m 51.41294,31.025441 a 0.5,0.5 0 0 0 0.5,0.5 h 18.05 a 0.5,0.5 0 0 0 0.5,-0.5 v -18.05 a 0.5,0.5 0 0 0 -0.5,-0.5 h -18.05 a 0.5,0.5 0 0 0 -0.5,0.5 z"
       id="path123" />
    <path
       style="font-size:12px;display:inline;fill:none;fill-rule:evenodd;stroke:#000000;stroke-width:0.2;stroke-linecap:round;stroke-miterlimit:4;stroke-dasharray:none;stroke-opacity:1"
       d="m 32.36294,31.025441 a 0.5,0.5 0 0 0 0.5,0.5 h 18.05 a 0.5,0.5 0 0 0 0.5,-0.5 v -18.05 a 0.5,0.5 0 0 0 -0.5,-0.5 h -18.05 a 0.5,0.5 0 0 0 -0.5,0.5 z"
       id="path121" />
    <path
       style="font-size:12px;display:inline;fill:none;fill-rule:evenodd;stroke:#000000;stroke-width:0.2;stroke-linecap:round;stroke-miterlimit:4;stroke-dasharray:none;stroke-opacity:1"
       d="m 13.31294,31.025441 a 0.5,0.5 0 0 0 0.5,0.5 h 18.05 a 0.5,0.5 0 0 0 0.5,-0.5 v -18.05 a 0.5,0.5 0 0 0 -0.5,-0.5 h -18.05 a 0.5,0.5 0 0 0 -0.5,0.5 z"
       id="path119" />
    <path
       style="font-size:12px;display:inline;fill:none;fill-rule:evenodd;stroke:#000000;stroke-width:0.2;stroke-linecap:round;stroke-miterlimit:4;stroke-dasharray:none;stroke-opacity:1"
       d="m 60.93794,107.22544 a 0.5,0.5 0 0 0 0.5,0.5 h 22.8125 a 0.5,0.5 0 0 0 0.5,-0.5 V 89.175441 a 0.5,0.5 0 0 0 -0.5,-0.5 h -22.8125 a 0.5,0.5 0 0 0 -0.5,0.5 z"
       id="path117" />
    <path
       style="font-size:12px;display:inline;fill:none;fill-rule:evenodd;stroke:#000000;stroke-width:0.2;stroke-linecap:round;stroke-miterlimit:4;stroke-dasharray:none;stroke-opacity:1"
       d="m 37.12544,107.22544 a 0.5,0.5 0 0 0 0.5,0.5 h 22.8125 a 0.5,0.5 0 0 0 0.5,-0.5 V 89.175441 a 0.5,0.5 0 0 0 -0.5,-0.5 h -22.8125 a 0.5,0.5 0 0 0 -0.5,0.5 z"
       id="path115" />
    <path
       style="font-size:12px;display:inline;fill:none;fill-rule:evenodd;stroke:#000000;stroke-width:0.2;stroke-linecap:round;stroke-miterlimit:4;stroke-dasharray:none;stroke-opacity:1"
       d="m 13.31294,107.22544 a 0.5,0.5 0 0 0 0.5,0.5 h 22.8125 a 0.5,0.5 0 0 0 0.5,-0.5 V 89.175441 a 0.5,0.5 0 0 0 -0.5,-0.5 h -22.8125 a 0.5,0.5 0 0 0 -0.5,0.5 z"
       id="path113" />
    <path
       style="font-size:12px;display:inline;fill:none;fill-rule:evenodd;stroke:#000000;stroke-width:0.2;stroke-linecap:round;stroke-miterlimit:4;stroke-dasharray:none;stroke-opacity:1"
       d="m 13.81294,31.525441 a 0.5,0.5 0 0 0 -0.5,0.5 v 18.05 a 0.5,0.5 0 0 0 0.5,0.5 h 27.575 a 0.5,0.5 0 0 0 0.5,-0.5 v -18.05 a 0.5,0.5 0 0 0 -0.5,-0.5 z"
       id="path111" />
    <path
       style="font-size:12px;display:inline;fill:none;fill-rule:evenodd;stroke:#000000;stroke-width:0.2;stroke-linecap:round;stroke-miterlimit:4;stroke-dasharray:none;stroke-opacity:1"
       d="m 13.31294,69.125441 a 0.5,0.5 0 0 0 0.5,0.5 h 32.3375 a 0.5,0.5 0 0 0 0.5,-0.5 v -18.05 a 0.5,0.5 0 0 0 -0.5,-0.5 h -32.3375 a 0.5,0.5 0 0 0 -0.5,0.5 z"
       id="path109" />
    <path
       style="font-size:12px;display:inline;fill:none;fill-rule:evenodd;stroke:#000000;stroke-width:0.2;stroke-linecap:round;stroke-miterlimit:4;stroke-dasharray:none;stroke-opacity:1"
       d="m 94.275441,107.22544 a 0.5,0.5 0 0 0 0.5,0.5 h 37.099999 a 0.5,0.5 0 0 0 0.5,-0.5 V 89.175441 a 0.5,0.5 0 0 0 -0.5,-0.5 H 94.775441 a 0.5,0.5 0 0 0 -0.5,0.5 z"
       id="path107" />
    <path
       style="font-size:12px;display:inline;fill:none;fill-rule:evenodd;stroke:#000000;stroke-width:0.2;stroke-linecap:round;stroke-miterlimit:4;stroke-dasharray:none;stroke-opacity:1"
       d="m 13.31294,88.175441 a 0.5,0.5 0 0 0 0.5,0.5 h 41.8625 a 0.5,0.5 0 0 0 0.5,-0.5 v -18.05 a 0.5,0.5 0 0 0 -0.5,-0.5 h -41.8625 a 0.5,0.5 0 0 0 -0.5,0.5 z"
       id="path24" />
  </g>
  <g
     id="g231"
     inkscape:label="keycaps_extra_space__top"
     style="display:none;stroke:#000000;stroke-width:0.2;stroke-miterlimit:4;stroke-dasharray:none;stroke-opacity:1">
    <path
       id="path229"
       style="font-size:12px;display:inline;fill:none;fill-rule:evenodd;stroke:#000000;stroke-width:0.75590552;stroke-linecap:round;stroke-miterlimit:4;stroke-dasharray:none;stroke-opacity:1"
       d="M 48.427087,410.55119 H 322.20473 v -73.51182 h 32.22047 v 73.51182 H 574.20473 V 261.25985 h -36 v -72.00001 h -17.99811 v -68.22047 h 36 V 45.259843 H 48.427087 Z"
       transform="scale(0.26458333)"
       sodipodi:nodetypes="ccccccccccccccc" />
  </g>
  <g
     id="g235"
     inkscape:label="keycaps_square_space"
     style="display:none;stroke:#000000;stroke-opacity:1;stroke-width:0.2;stroke-miterlimit:4;stroke-dasharray:none">
    <path
       id="path233"
       style="font-size:12px;display:inline;fill:none;fill-rule:evenodd;stroke:#000000;stroke-width:0.75590552;stroke-linecap:round;stroke-miterlimit:4;stroke-dasharray:none;stroke-opacity:1"
       d="M 574.20473,45.259843 H 48.427087 V 410.55119 H 574.20473 Z"
       transform="scale(0.26458333)"
       sodipodi:nodetypes="ccccc" />
  </g>
  <g
     id="g907"
     inkscape:label="keycaps_based_case"
     style="display:inline;stroke:#000000;stroke-width:0.2;stroke-miterlimit:4;stroke-dasharray:none;stroke-opacity:1">
    <path
       id="path905"
       style="font-size:12px;display:inline;fill:none;fill-rule:evenodd;stroke:#000000;stroke-width:0.755906;stroke-linecap:round;stroke-miterlimit:4;stroke-dasharray:none;stroke-opacity:1"
       d="M 574.20473,448.34646 V 261.25985 h -36 v -72.00001 h -17.99811 v -68.22047 h 36 V 7.464567 H 10.631812 l -10e-7,440.881893 z"
       transform="scale(0.26458333)"
       sodipodi:nodetypes="ccccccccccc" />
  </g>
  <g
     inkscape:groupmode="layer"
     id="layer2"
     inkscape:label="screw_holes_2mm"
     style="display:inline">
    <circle
       style="fill:none;stroke:#000000;stroke-width:0.2;stroke-miterlimit:4;stroke-dasharray:none;stroke-opacity:1"
       id="path911"
       cx="142.10001"
       cy="6.9749999"
       r="1" />
    <circle
       style="fill:none;stroke:#000000;stroke-width:0.2;stroke-miterlimit:4;stroke-dasharray:none;stroke-opacity:1"
       id="circle915"
       cx="54.362999"
       cy="6.9749999"
       r="1" />
    <circle
       style="fill:none;stroke:#000000;stroke-width:0.2;stroke-miterlimit:4;stroke-dasharray:none;stroke-opacity:1"
       id="circle917"
       cx="7.8130002"
       cy="6.9749999"
       r="1" />
    <circle
       style="fill:none;stroke:#000000;stroke-width:0.2;stroke-miterlimit:4;stroke-dasharray:none;stroke-opacity:1"
       id="circle919"
       cx="7.8130002"
       cy="60.299999"
       r="1" />
    <circle
       style="fill:none;stroke:#000000;stroke-width:0.2;stroke-miterlimit:4;stroke-dasharray:none;stroke-opacity:1"
       id="circle927"
       cx="7.8130002"
       cy="113.625"
       r="1" />
    <circle
       style="fill:none;stroke:#000000;stroke-width:0.2;stroke-miterlimit:4;stroke-dasharray:none;stroke-opacity:1"
       id="circle929"
       cx="77.367996"
       cy="113.625"
       r="1" />
    <circle
       style="fill:none;stroke:#000000;stroke-width:0.2;stroke-miterlimit:4;stroke-dasharray:none;stroke-opacity:1"
       id="circle931"
       cx="146.925"
       cy="113.625"
       r="1" />
    <circle
       style="fill:none;stroke:#000000;stroke-width:0.2;stroke-miterlimit:4;stroke-dasharray:none;stroke-opacity:1"
       id="circle998"
       cx="117.613"
       cy="6.9749999"
       r="1" />
  </g>
  <g
     inkscape:groupmode="layer"
     id="g947"
     inkscape:label="spacer_holes_3.5mm"
     style="display:inline">
    <circle
       style="fill:none;stroke:#000000;stroke-width:0.2;stroke-miterlimit:4;stroke-dasharray:none;stroke-opacity:1"
       id="circle933"
       cx="142.16299"
       cy="6.9749999"
       r="1.75" />
    <circle
       style="fill:none;stroke:#000000;stroke-width:0.2;stroke-miterlimit:4;stroke-dasharray:none;stroke-opacity:1"
       id="circle935"
       cx="54.362999"
       cy="6.9749999"
       r="1.75" />
    <circle
       style="fill:none;stroke:#000000;stroke-width:0.2;stroke-miterlimit:4;stroke-dasharray:none;stroke-opacity:1"
       id="circle937"
       cx="7.8130002"
       cy="6.9749999"
       r="1.75" />
    <circle
       style="fill:none;stroke:#000000;stroke-width:0.2;stroke-miterlimit:4;stroke-dasharray:none;stroke-opacity:1"
       id="circle939"
       cx="7.8130002"
       cy="60.299999"
       r="1.75" />
    <circle
       style="fill:none;stroke:#000000;stroke-width:0.2;stroke-miterlimit:4;stroke-dasharray:none;stroke-opacity:1"
       id="circle941"
       cx="7.8130002"
       cy="113.625"
       r="1.75" />
    <circle
       style="fill:none;stroke:#000000;stroke-width:0.2;stroke-miterlimit:4;stroke-dasharray:none;stroke-opacity:1"
       id="circle943"
       cx="77.367996"
       cy="113.625"
       r="1.75" />
    <circle
       style="fill:none;stroke:#000000;stroke-width:0.2;stroke-miterlimit:4;stroke-dasharray:none;stroke-opacity:1"
       id="circle945"
       cx="146.925"
       cy="113.625"
       r="1.75" />
    <circle
       style="fill:none;stroke:#000000;stroke-width:0.2;stroke-miterlimit:4;stroke-dasharray:none;stroke-opacity:1"
       id="circle144"
       cx="117.613"
       cy="6.9749999"
       r="1.75" />
  </g>
  <g
     id="g951"
     inkscape:label="inside"
     style="display:inline;stroke:#000000;stroke-width:0.2;stroke-miterlimit:4;stroke-dasharray:none;stroke-opacity:1"
     inkscape:groupmode="layer">
    <path
       id="path949"
       style="font-size:12px;display:inline;fill:none;fill-rule:evenodd;stroke:#000000;stroke-width:0.755906;stroke-linecap:round;stroke-miterlimit:4;stroke-dasharray:none;stroke-opacity:1"
       d="M 566.64379,410.55119 V 268.8189 h -36 v -72 h -17.99811 v -83.33858 h 36 V 45.259843 H 48.427087 V 410.55119 Z"
       transform="scale(0.26458333)"
       sodipodi:nodetypes="ccccccccccc" />
    <rect
       style="fill:none;stroke:#000000;stroke-width:0.2;stroke-miterlimit:4;stroke-dasharray:none;stroke-opacity:1"
       id="rect994"
       width="24"
       height="10"
       x="25.363001"
       y="1.975" />
    <rect
       style="fill:none;stroke:#000000;stroke-width:0.2;stroke-miterlimit:4;stroke-dasharray:none;stroke-opacity:1"
       id="rect996"
       width="10"
       height="10"
       x="122.613"
       y="1.975" />
  </g>
</svg>
