<?xml version="1.0"?>
<!-- Generated by SVGo -->
<svg width="338.802mm" height="129.252mm"
     viewBox="0.000 0.000 338.802 129.252"
     xmlns="http://www.w3.org/2000/svg" 
     xmlns:xlink="http://www.w3.org/1999/xlink">
<polygon points="329.194,5.016 329.584,5.062 329.969,5.139 330.347,5.245 330.715,5.381 331.071,5.545 331.414,5.737 331.740,5.955 332.049,6.198 332.337,6.465 332.604,6.753 332.847,7.062 333.065,7.388 333.257,7.731 333.421,8.087 333.557,8.455 333.663,8.833 333.740,9.218 333.786,9.608 333.801,10.001 333.802,119.251 333.786,119.644 333.740,120.034 333.663,120.419 333.557,120.797 333.421,121.165 333.257,121.521 333.065,121.864 332.847,122.190 332.604,122.499 332.337,122.787 332.049,123.054 331.740,123.297 331.414,123.515 331.071,123.707 330.715,123.871 330.347,124.007 329.969,124.113 329.584,124.190 329.194,124.236 328.802,124.252 10.001,124.251 9.608,124.236 9.218,124.190 8.833,124.113 8.455,124.007 8.087,123.871 7.731,123.707 7.388,123.515 7.062,123.297 6.753,123.054 6.465,122.787 6.198,122.499 5.955,122.190 5.737,121.864 5.545,121.521 5.381,121.165 5.245,120.797 5.139,120.419 5.062,120.034 5.016,119.644 5.000,119.251 5.001,10.000 5.016,9.608 5.062,9.218 5.139,8.833 5.245,8.455 5.381,8.087 5.545,7.731 5.737,7.388 5.955,7.062 6.198,6.753 6.465,6.465 6.753,6.198 7.062,5.955 7.388,5.737 7.731,5.545 8.087,5.381 8.455,5.245 8.833,5.139 9.218,5.062 9.608,5.016 10.001,5.000 328.802,5.000" style="fill:none;stroke-width:0.050000mm;stroke:black"/>
<polygon points="10.722,117.396 10.471,117.523 10.272,117.722 10.145,117.973 10.101,118.251 10.145,118.530 10.272,118.781 10.471,118.980 10.722,119.107 11.001,119.152 11.279,119.107 11.530,118.980 11.729,118.781 11.856,118.530 11.901,118.251 11.856,117.973 11.729,117.722 11.530,117.523 11.279,117.396 11.001,117.351" style="fill:none;stroke-width:0.050000mm;stroke:black"/>
<polygon points="116.323,117.396 116.072,117.523 115.873,117.722 115.745,117.973 115.701,118.251 115.745,118.530 115.873,118.781 116.072,118.980 116.323,119.107 116.601,119.152 116.879,119.107 117.130,118.980 117.329,118.781 117.457,118.530 117.501,118.251 117.457,117.973 117.329,117.722 117.130,117.523 116.879,117.396 116.601,117.351" style="fill:none;stroke-width:0.050000mm;stroke:black"/>
<polygon points="221.923,117.396 221.672,117.523 221.473,117.722 221.345,117.973 221.301,118.251 221.345,118.530 221.473,118.781 221.672,118.980 221.923,119.107 222.201,119.152 222.479,119.107 222.730,118.980 222.929,118.781 223.057,118.530 223.101,118.251 223.057,117.973 222.929,117.722 222.730,117.523 222.479,117.396 222.201,117.351" style="fill:none;stroke-width:0.050000mm;stroke:black"/>
<polygon points="327.523,117.396 327.272,117.523 327.073,117.722 326.946,117.973 326.902,118.251 326.946,118.530 327.073,118.781 327.272,118.980 327.523,119.107 327.802,119.152 328.080,119.107 328.331,118.980 328.530,118.781 328.657,118.530 328.702,118.251 328.657,117.973 328.530,117.722 328.331,117.523 328.080,117.396 327.802,117.351" style="fill:none;stroke-width:0.050000mm;stroke:black"/>
<polygon points="10.722,10.145 10.471,10.272 10.272,10.471 10.145,10.722 10.101,11.001 10.145,11.279 10.272,11.530 10.471,11.729 10.722,11.856 11.001,11.901 11.279,11.856 11.530,11.729 11.729,11.530 11.856,11.279 11.901,11.001 11.856,10.722 11.729,10.471 11.530,10.272 11.279,10.145 11.001,10.101" style="fill:none;stroke-width:0.050000mm;stroke:black"/>
<polygon points="327.523,10.145 327.272,10.272 327.073,10.471 326.946,10.722 326.902,11.001 326.946,11.279 327.073,11.530 327.272,11.729 327.523,11.856 327.802,11.901 328.080,11.856 328.331,11.729 328.530,11.530 328.657,11.279 328.702,11.001 328.657,10.722 328.530,10.471 328.331,10.272 328.080,10.145 327.802,10.101" style="fill:none;stroke-width:0.050000mm;stroke:black"/>
<polygon points="221.923,10.145 221.672,10.272 221.473,10.471 221.345,10.722 221.301,11.001 221.345,11.279 221.473,11.530 221.672,11.729 221.923,11.856 222.201,11.901 222.479,11.856 222.730,11.729 222.929,11.530 223.057,11.279 223.101,11.001 223.057,10.722 222.929,10.471 222.730,10.272 222.479,10.145 222.201,10.101" style="fill:none;stroke-width:0.050000mm;stroke:black"/>
<polygon points="116.323,10.145 116.072,10.272 115.873,10.471 115.745,10.722 115.701,11.001 115.745,11.279 115.873,11.530 116.072,11.729 116.323,11.856 116.601,11.901 116.879,11.856 117.130,11.729 117.329,11.530 117.457,11.279 117.501,11.001 117.457,10.722 117.329,10.471 117.130,10.272 116.879,10.145 116.601,10.101" style="fill:none;stroke-width:0.050000mm;stroke:black"/>
</svg>
