<?xml version="1.0"?>
<!-- Generated by SVGo -->
<svg width="338.802mm" height="129.252mm"
     viewBox="0.000 0.000 338.802 129.252"
     xmlns="http://www.w3.org/2000/svg" 
     xmlns:xlink="http://www.w3.org/1999/xlink">
<polygon points="329.194,5.016 329.584,5.062 329.969,5.139 330.347,5.245 330.715,5.381 331.071,5.545 331.414,5.737 331.740,5.955 332.049,6.198 332.337,6.465 332.604,6.753 332.847,7.062 333.065,7.388 333.257,7.731 333.421,8.087 333.557,8.455 333.663,8.833 333.740,9.218 333.786,9.608 333.801,10.001 333.802,119.251 333.786,119.644 333.740,120.034 333.663,120.419 333.557,120.797 333.421,121.165 333.257,121.521 333.065,121.864 332.847,122.190 332.604,122.499 332.337,122.787 332.049,123.054 331.740,123.297 331.414,123.515 331.071,123.707 330.715,123.871 330.347,124.007 329.969,124.113 329.584,124.190 329.194,124.236 328.802,124.252 10.001,124.251 9.608,124.236 9.218,124.190 8.833,124.113 8.455,124.007 8.087,123.871 7.731,123.707 7.388,123.515 7.062,123.297 6.753,123.054 6.465,122.787 6.198,122.499 5.955,122.190 5.737,121.864 5.545,121.521 5.381,121.165 5.245,120.797 5.139,120.419 5.062,120.034 5.016,119.644 5.000,119.251 5.001,10.000 5.016,9.608 5.062,9.218 5.139,8.833 5.245,8.455 5.381,8.087 5.545,7.731 5.737,7.388 5.955,7.062 6.198,6.753 6.465,6.465 6.753,6.198 7.062,5.955 7.388,5.737 7.731,5.545 8.087,5.381 8.455,5.245 8.833,5.139 9.218,5.062 9.608,5.016 10.001,5.000 328.802,5.000" style="fill:none;stroke-width:0.050000mm;stroke:black"/>
<polygon points="10.321,116.159 9.707,116.472 9.221,116.958 8.908,117.572 8.801,118.251 8.908,118.931 9.221,119.545 9.707,120.031 10.321,120.344 11.001,120.452 11.680,120.344 12.294,120.031 12.780,119.545 13.093,118.931 13.201,118.251 13.093,117.572 12.780,116.958 12.294,116.472 11.680,116.159 11.001,116.051" style="fill:none;stroke-width:0.050000mm;stroke:black"/>
<polygon points="115.921,116.159 115.308,116.472 114.821,116.958 114.509,117.572 114.401,118.251 114.509,118.931 114.821,119.545 115.308,120.031 115.921,120.344 116.601,120.452 117.281,120.344 117.894,120.031 118.381,119.545 118.693,118.931 118.801,118.251 118.693,117.572 118.381,116.958 117.894,116.472 117.281,116.159 116.601,116.051" style="fill:none;stroke-width:0.050000mm;stroke:black"/>
<polygon points="221.521,116.159 220.908,116.472 220.421,116.958 220.109,117.572 220.001,118.251 220.109,118.931 220.421,119.545 220.908,120.031 221.521,120.344 222.201,120.452 222.881,120.344 223.494,120.031 223.981,119.545 224.293,118.931 224.401,118.251 224.293,117.572 223.981,116.958 223.494,116.472 222.881,116.159 222.201,116.051" style="fill:none;stroke-width:0.050000mm;stroke:black"/>
<polygon points="327.122,116.159 326.508,116.472 326.022,116.958 325.709,117.572 325.602,118.251 325.709,118.931 326.022,119.545 326.508,120.031 327.122,120.344 327.802,120.452 328.481,120.344 329.095,120.031 329.581,119.545 329.894,118.931 330.002,118.251 329.894,117.572 329.581,116.958 329.095,116.472 328.481,116.159 327.802,116.051" style="fill:none;stroke-width:0.050000mm;stroke:black"/>
<polygon points="152.876,95.726 152.876,96.325 152.076,96.325 152.076,100.426 106.101,100.426 106.101,97.196 99.351,97.196 99.351,100.426 98.526,100.426 98.526,103.226 99.351,103.226 99.351,109.495 101.076,109.495 101.076,110.696 104.376,110.696 104.376,109.495 106.101,109.495 106.101,105.025 152.076,105.025 152.076,109.126 152.876,109.126 152.876,109.726 166.876,109.726 166.876,109.126 167.676,109.126 167.676,105.025 213.651,105.025 213.651,109.495 215.376,109.495 215.376,110.696 218.676,110.696 218.676,109.495 220.401,109.495 220.401,103.226 221.226,103.226 221.226,100.426 220.401,100.426 220.401,97.196 213.651,97.196 213.651,100.426 167.676,100.426 167.676,96.325 166.876,96.325 166.876,95.726" style="fill:none;stroke-width:0.050000mm;stroke:black"/>
<polygon points="305.276,95.726 305.276,96.325 304.476,96.325 304.476,109.126 305.276,109.126 305.276,109.726 319.276,109.726 319.276,109.126 320.076,109.126 320.076,96.325 319.276,96.325 319.276,95.726" style="fill:none;stroke-width:0.050000mm;stroke:black"/>
<polygon points="286.226,95.726 286.226,96.325 285.426,96.325 285.426,109.126 286.226,109.126 286.226,109.726 300.226,109.726 300.226,109.126 301.026,109.126 301.026,96.325 300.226,96.325 300.226,95.726" style="fill:none;stroke-width:0.050000mm;stroke:black"/>
<polygon points="267.176,95.726 267.176,96.325 266.376,96.325 266.376,109.126 267.176,109.126 267.176,109.726 281.176,109.726 281.176,109.126 281.976,109.126 281.976,96.325 281.176,96.325 281.176,95.726" style="fill:none;stroke-width:0.050000mm;stroke:black"/>
<polygon points="233.838,95.726 233.838,96.325 233.038,96.325 233.038,109.126 233.838,109.126 233.838,109.726 247.838,109.726 247.838,109.126 248.638,109.126 248.638,96.325 247.838,96.325 247.838,95.726" style="fill:none;stroke-width:0.050000mm;stroke:black"/>
<polygon points="71.913,95.726 71.913,96.325 71.113,96.325 71.113,109.126 71.913,109.126 71.913,109.726 85.913,109.726 85.913,109.126 86.713,109.126 86.713,96.325 85.913,96.325 85.913,95.726" style="fill:none;stroke-width:0.050000mm;stroke:black"/>
<polygon points="48.101,95.726 48.101,96.325 47.301,96.325 47.301,109.126 48.101,109.126 48.101,109.726 62.101,109.726 62.101,109.126 62.901,109.126 62.901,96.325 62.101,96.325 62.101,95.726" style="fill:none;stroke-width:0.050000mm;stroke:black"/>
<polygon points="24.288,95.726 24.288,96.325 23.488,96.325 23.488,109.126 24.288,109.126 24.288,109.726 38.288,109.726 38.288,109.126 39.088,109.126 39.088,96.325 38.288,96.325 38.288,95.726" style="fill:none;stroke-width:0.050000mm;stroke:black"/>
<polygon points="31.432,76.676 31.432,77.275 30.632,77.275 30.632,81.376 29.907,81.376 29.907,78.146 23.157,78.146 23.157,81.376 22.332,81.376 22.332,84.176 23.157,84.176 23.157,90.446 24.882,90.446 24.882,91.646 28.182,91.646 28.182,90.446 29.907,90.446 29.907,85.976 30.632,85.976 30.632,90.076 31.432,90.076 31.432,90.676 45.432,90.676 45.432,90.076 46.232,90.076 46.232,85.976 46.957,85.976 46.957,90.446 48.682,90.446 48.682,91.646 51.982,91.646 51.982,90.446 53.707,90.446 53.707,84.176 54.532,84.176 54.532,81.376 53.707,81.376 53.707,78.146 46.957,78.146 46.957,81.376 46.232,81.376 46.232,77.275 45.432,77.275 45.432,76.676" style="fill:none;stroke-width:0.050000mm;stroke:black"/>
<polygon points="305.276,76.676 305.276,77.275 304.476,77.275 304.476,90.076 305.276,90.076 305.276,90.676 319.276,90.676 319.276,90.076 320.076,90.076 320.076,77.275 319.276,77.275 319.276,76.676" style="fill:none;stroke-width:0.050000mm;stroke:black"/>
<polygon points="286.226,76.676 286.226,77.275 285.426,77.275 285.426,90.076 286.226,90.076 286.226,90.676 300.226,90.676 300.226,90.076 301.026,90.076 301.026,77.275 300.226,77.275 300.226,76.676" style="fill:none;stroke-width:0.050000mm;stroke:black"/>
<polygon points="260.032,76.676 260.032,77.275 259.232,77.275 259.232,90.076 260.032,90.076 260.032,90.676 274.032,90.676 274.032,90.076 274.832,90.076 274.832,77.275 274.032,77.275 274.032,76.676" style="fill:none;stroke-width:0.050000mm;stroke:black"/>
<polygon points="233.838,76.676 233.838,77.275 233.038,77.275 233.038,90.076 233.838,90.076 233.838,90.676 247.838,90.676 247.838,90.076 248.638,90.076 248.638,77.275 247.838,77.275 247.838,76.676" style="fill:none;stroke-width:0.050000mm;stroke:black"/>
<polygon points="214.788,76.676 214.788,77.275 213.988,77.275 213.988,90.076 214.788,90.076 214.788,90.676 228.788,90.676 228.788,90.076 229.588,90.076 229.588,77.275 228.788,77.275 228.788,76.676" style="fill:none;stroke-width:0.050000mm;stroke:black"/>
<polygon points="195.738,76.676 195.738,77.275 194.938,77.275 194.938,90.076 195.738,90.076 195.738,90.676 209.738,90.676 209.738,90.076 210.538,90.076 210.538,77.275 209.738,77.275 209.738,76.676" style="fill:none;stroke-width:0.050000mm;stroke:black"/>
<polygon points="176.688,76.676 176.688,77.275 175.888,77.275 175.888,90.076 176.688,90.076 176.688,90.676 190.688,90.676 190.688,90.076 191.488,90.076 191.488,77.275 190.688,77.275 190.688,76.676" style="fill:none;stroke-width:0.050000mm;stroke:black"/>
<polygon points="157.638,76.676 157.638,77.275 156.838,77.275 156.838,90.076 157.638,90.076 157.638,90.676 171.638,90.676 171.638,90.076 172.438,90.076 172.438,77.275 171.638,77.275 171.638,76.676" style="fill:none;stroke-width:0.050000mm;stroke:black"/>
<polygon points="138.588,76.676 138.588,77.275 137.788,77.275 137.788,90.076 138.588,90.076 138.588,90.676 152.588,90.676 152.588,90.076 153.388,90.076 153.388,77.275 152.588,77.275 152.588,76.676" style="fill:none;stroke-width:0.050000mm;stroke:black"/>
<polygon points="119.538,76.676 119.538,77.275 118.738,77.275 118.738,90.076 119.538,90.076 119.538,90.676 133.538,90.676 133.538,90.076 134.338,90.076 134.338,77.275 133.538,77.275 133.538,76.676" style="fill:none;stroke-width:0.050000mm;stroke:black"/>
<polygon points="100.488,76.676 100.488,77.275 99.688,77.275 99.688,90.076 100.488,90.076 100.488,90.676 114.488,90.676 114.488,90.076 115.288,90.076 115.288,77.275 114.488,77.275 114.488,76.676" style="fill:none;stroke-width:0.050000mm;stroke:black"/>
<polygon points="81.438,76.676 81.438,77.275 80.638,77.275 80.638,90.076 81.438,90.076 81.438,90.676 95.438,90.676 95.438,90.076 96.238,90.076 96.238,77.275 95.438,77.275 95.438,76.676" style="fill:none;stroke-width:0.050000mm;stroke:black"/>
<polygon points="62.388,76.676 62.388,77.275 61.588,77.275 61.588,90.076 62.388,90.076 62.388,90.676 76.388,90.676 76.388,90.076 77.188,90.076 77.188,77.275 76.388,77.275 76.388,76.676" style="fill:none;stroke-width:0.050000mm;stroke:black"/>
<polygon points="274.319,57.626 274.319,58.226 273.519,58.226 273.519,62.326 272.794,62.326 272.794,59.096 266.044,59.096 266.044,62.326 265.219,62.326 265.219,65.126 266.044,65.126 266.044,71.396 267.769,71.396 267.769,72.596 271.069,72.596 271.069,71.396 272.794,71.396 272.794,66.926 273.519,66.926 273.519,71.026 274.319,71.026 274.319,71.626 288.319,71.626 288.319,71.026 289.119,71.026 289.119,66.926 289.844,66.926 289.844,71.396 291.569,71.396 291.569,72.596 294.869,72.596 294.869,71.396 296.594,71.396 296.594,65.126 297.419,65.126 297.419,62.326 296.594,62.326 296.594,59.096 289.844,59.096 289.844,62.326 289.119,62.326 289.119,58.226 288.319,58.226 288.319,57.626" style="fill:none;stroke-width:0.050000mm;stroke:black"/>
<polygon points="305.276,57.626 305.276,58.226 304.476,58.226 304.476,71.026 305.276,71.026 305.276,71.626 319.276,71.626 319.276,71.026 320.076,71.026 320.076,58.226 319.276,58.226 319.276,57.626" style="fill:none;stroke-width:0.050000mm;stroke:black"/>
<polygon points="243.363,57.626 243.363,58.226 242.563,58.226 242.563,71.026 243.363,71.026 243.363,71.626 257.363,71.626 257.363,71.026 258.162,71.026 258.162,58.226 257.363,58.226 257.363,57.626" style="fill:none;stroke-width:0.050000mm;stroke:black"/>
<polygon points="224.313,57.626 224.313,58.226 223.513,58.226 223.513,71.026 224.313,71.026 224.313,71.626 238.313,71.626 238.313,71.026 239.113,71.026 239.113,58.226 238.313,58.226 238.313,57.626" style="fill:none;stroke-width:0.050000mm;stroke:black"/>
<polygon points="205.263,57.626 205.263,58.226 204.463,58.226 204.463,71.026 205.263,71.026 205.263,71.626 219.263,71.626 219.263,71.026 220.063,71.026 220.063,58.226 219.263,58.226 219.263,57.626" style="fill:none;stroke-width:0.050000mm;stroke:black"/>
<polygon points="186.213,57.626 186.213,58.226 185.413,58.226 185.413,71.026 186.213,71.026 186.213,71.626 200.213,71.626 200.213,71.026 201.013,71.026 201.013,58.226 200.213,58.226 200.213,57.626" style="fill:none;stroke-width:0.050000mm;stroke:black"/>
<polygon points="167.163,57.626 167.163,58.226 166.363,58.226 166.363,71.026 167.163,71.026 167.163,71.626 181.163,71.626 181.163,71.026 181.963,71.026 181.963,58.226 181.163,58.226 181.163,57.626" style="fill:none;stroke-width:0.050000mm;stroke:black"/>
<polygon points="148.113,57.626 148.113,58.226 147.313,58.226 147.313,71.026 148.113,71.026 148.113,71.626 162.113,71.626 162.113,71.026 162.913,71.026 162.913,58.226 162.113,58.226 162.113,57.626" style="fill:none;stroke-width:0.050000mm;stroke:black"/>
<polygon points="129.063,57.626 129.063,58.226 128.263,58.226 128.263,71.026 129.063,71.026 129.063,71.626 143.063,71.626 143.063,71.026 143.863,71.026 143.863,58.226 143.063,58.226 143.063,57.626" style="fill:none;stroke-width:0.050000mm;stroke:black"/>
<polygon points="110.013,57.626 110.013,58.226 109.213,58.226 109.213,71.026 110.013,71.026 110.013,71.626 124.013,71.626 124.013,71.026 124.813,71.026 124.813,58.226 124.013,58.226 124.013,57.626" style="fill:none;stroke-width:0.050000mm;stroke:black"/>
<polygon points="90.963,57.626 90.963,58.226 90.163,58.226 90.163,71.026 90.963,71.026 90.963,71.626 104.963,71.626 104.963,71.026 105.763,71.026 105.763,58.226 104.963,58.226 104.963,57.626" style="fill:none;stroke-width:0.050000mm;stroke:black"/>
<polygon points="71.913,57.626 71.913,58.226 71.113,58.226 71.113,71.026 71.913,71.026 71.913,71.626 85.913,71.626 85.913,71.026 86.713,71.026 86.713,58.226 85.913,58.226 85.913,57.626" style="fill:none;stroke-width:0.050000mm;stroke:black"/>
<polygon points="52.863,57.626 52.863,58.226 52.063,58.226 52.063,71.026 52.863,71.026 52.863,71.626 66.863,71.626 66.863,71.026 67.663,71.026 67.663,58.226 66.863,58.226 66.863,57.626" style="fill:none;stroke-width:0.050000mm;stroke:black"/>
<polygon points="26.669,57.626 26.669,58.226 25.869,58.226 25.869,71.026 26.669,71.026 26.669,71.626 40.669,71.626 40.669,71.026 41.469,71.026 41.469,58.226 40.669,58.226 40.669,57.626" style="fill:none;stroke-width:0.050000mm;stroke:black"/>
<polygon points="305.276,38.576 305.276,39.176 304.476,39.176 304.476,51.976 305.276,51.976 305.276,52.576 319.276,52.576 319.276,51.976 320.076,51.976 320.076,39.176 319.276,39.176 319.276,38.576" style="fill:none;stroke-width:0.050000mm;stroke:black"/>
<polygon points="281.463,38.576 281.463,39.176 280.663,39.176 280.663,51.976 281.463,51.976 281.463,52.576 295.463,52.576 295.463,51.976 296.263,51.976 296.263,39.176 295.463,39.176 295.463,38.576" style="fill:none;stroke-width:0.050000mm;stroke:black"/>
<polygon points="257.650,38.576 257.650,39.176 256.851,39.176 256.851,51.976 257.650,51.976 257.650,52.576 271.651,52.576 271.651,51.976 272.451,51.976 272.451,39.176 271.651,39.176 271.651,38.576" style="fill:none;stroke-width:0.050000mm;stroke:black"/>
<polygon points="238.601,38.576 238.601,39.176 237.801,39.176 237.801,51.976 238.601,51.976 238.601,52.576 252.601,52.576 252.601,51.976 253.401,51.976 253.401,39.176 252.601,39.176 252.601,38.576" style="fill:none;stroke-width:0.050000mm;stroke:black"/>
<polygon points="219.551,38.576 219.551,39.176 218.751,39.176 218.751,51.976 219.551,51.976 219.551,52.576 233.551,52.576 233.551,51.976 234.351,51.976 234.351,39.176 233.551,39.176 233.551,38.576" style="fill:none;stroke-width:0.050000mm;stroke:black"/>
<polygon points="200.501,38.576 200.501,39.176 199.701,39.176 199.701,51.976 200.501,51.976 200.501,52.576 214.501,52.576 214.501,51.976 215.301,51.976 215.301,39.176 214.501,39.176 214.501,38.576" style="fill:none;stroke-width:0.050000mm;stroke:black"/>
<polygon points="181.451,38.576 181.451,39.176 180.651,39.176 180.651,51.976 181.451,51.976 181.451,52.576 195.451,52.576 195.451,51.976 196.251,51.976 196.251,39.176 195.451,39.176 195.451,38.576" style="fill:none;stroke-width:0.050000mm;stroke:black"/>
<polygon points="162.401,38.576 162.401,39.176 161.601,39.176 161.601,51.976 162.401,51.976 162.401,52.576 176.401,52.576 176.401,51.976 177.201,51.976 177.201,39.176 176.401,39.176 176.401,38.576" style="fill:none;stroke-width:0.050000mm;stroke:black"/>
<polygon points="143.351,38.576 143.351,39.176 142.551,39.176 142.551,51.976 143.351,51.976 143.351,52.576 157.351,52.576 157.351,51.976 158.151,51.976 158.151,39.176 157.351,39.176 157.351,38.576" style="fill:none;stroke-width:0.050000mm;stroke:black"/>
<polygon points="124.301,38.576 124.301,39.176 123.501,39.176 123.501,51.976 124.301,51.976 124.301,52.576 138.301,52.576 138.301,51.976 139.101,51.976 139.101,39.176 138.301,39.176 138.301,38.576" style="fill:none;stroke-width:0.050000mm;stroke:black"/>
<polygon points="105.251,38.576 105.251,39.176 104.451,39.176 104.451,51.976 105.251,51.976 105.251,52.576 119.251,52.576 119.251,51.976 120.051,51.976 120.051,39.176 119.251,39.176 119.251,38.576" style="fill:none;stroke-width:0.050000mm;stroke:black"/>
<polygon points="86.201,38.576 86.201,39.176 85.401,39.176 85.401,51.976 86.201,51.976 86.201,52.576 100.201,52.576 100.201,51.976 101.001,51.976 101.001,39.176 100.201,39.176 100.201,38.576" style="fill:none;stroke-width:0.050000mm;stroke:black"/>
<polygon points="67.151,38.576 67.151,39.176 66.351,39.176 66.351,51.976 67.151,51.976 67.151,52.576 81.151,52.576 81.151,51.976 81.951,51.976 81.951,39.176 81.151,39.176 81.151,38.576" style="fill:none;stroke-width:0.050000mm;stroke:black"/>
<polygon points="48.101,38.576 48.101,39.176 47.301,39.176 47.301,51.976 48.101,51.976 48.101,52.576 62.101,52.576 62.101,51.976 62.901,51.976 62.901,39.176 62.101,39.176 62.101,38.576" style="fill:none;stroke-width:0.050000mm;stroke:black"/>
<polygon points="24.288,38.576 24.288,39.176 23.488,39.176 23.488,51.976 24.288,51.976 24.288,52.576 38.288,52.576 38.288,51.976 39.088,51.976 39.088,39.176 38.288,39.176 38.288,38.576" style="fill:none;stroke-width:0.050000mm;stroke:black"/>
<polygon points="276.701,19.526 276.701,20.126 275.901,20.126 275.901,24.225 275.176,24.225 275.176,20.995 268.426,20.995 268.426,24.225 267.601,24.225 267.601,27.026 268.426,27.026 268.426,33.296 270.151,33.296 270.151,34.496 273.451,34.496 273.451,33.296 275.176,33.296 275.176,28.826 275.901,28.826 275.901,32.926 276.701,32.926 276.701,33.526 290.701,33.526 290.701,32.926 291.501,32.926 291.501,28.826 292.226,28.826 292.226,33.296 293.951,33.296 293.951,34.496 297.251,34.496 297.251,33.296 298.976,33.296 298.976,27.026 299.801,27.026 299.801,24.225 298.976,24.225 298.976,20.995 292.226,20.995 292.226,24.225 291.501,24.225 291.501,20.126 290.701,20.126 290.701,19.526" style="fill:none;stroke-width:0.050000mm;stroke:black"/>
<polygon points="305.276,19.526 305.276,20.126 304.476,20.126 304.476,32.926 305.276,32.926 305.276,33.526 319.276,33.526 319.276,32.926 320.076,32.926 320.076,20.126 319.276,20.126 319.276,19.526" style="fill:none;stroke-width:0.050000mm;stroke:black"/>
<polygon points="248.126,19.526 248.126,20.126 247.326,20.126 247.326,32.926 248.126,32.926 248.126,33.526 262.126,33.526 262.126,32.926 262.926,32.926 262.926,20.126 262.126,20.126 262.126,19.526" style="fill:none;stroke-width:0.050000mm;stroke:black"/>
<polygon points="229.076,19.526 229.076,20.126 228.276,20.126 228.276,32.926 229.076,32.926 229.076,33.526 243.076,33.526 243.076,32.926 243.876,32.926 243.876,20.126 243.076,20.126 243.076,19.526" style="fill:none;stroke-width:0.050000mm;stroke:black"/>
<polygon points="210.026,19.526 210.026,20.126 209.226,20.126 209.226,32.926 210.026,32.926 210.026,33.526 224.026,33.526 224.026,32.926 224.826,32.926 224.826,20.126 224.026,20.126 224.026,19.526" style="fill:none;stroke-width:0.050000mm;stroke:black"/>
<polygon points="190.976,19.526 190.976,20.126 190.176,20.126 190.176,32.926 190.976,32.926 190.976,33.526 204.976,33.526 204.976,32.926 205.776,32.926 205.776,20.126 204.976,20.126 204.976,19.526" style="fill:none;stroke-width:0.050000mm;stroke:black"/>
<polygon points="171.926,19.526 171.926,20.126 171.126,20.126 171.126,32.926 171.926,32.926 171.926,33.526 185.926,33.526 185.926,32.926 186.726,32.926 186.726,20.126 185.926,20.126 185.926,19.526" style="fill:none;stroke-width:0.050000mm;stroke:black"/>
<polygon points="152.876,19.526 152.876,20.126 152.076,20.126 152.076,32.926 152.876,32.926 152.876,33.526 166.876,33.526 166.876,32.926 167.676,32.926 167.676,20.126 166.876,20.126 166.876,19.526" style="fill:none;stroke-width:0.050000mm;stroke:black"/>
<polygon points="133.826,19.526 133.826,20.126 133.025,20.126 133.025,32.926 133.826,32.926 133.826,33.526 147.826,33.526 147.826,32.926 148.626,32.926 148.626,20.126 147.826,20.126 147.826,19.526" style="fill:none;stroke-width:0.050000mm;stroke:black"/>
<polygon points="114.775,19.526 114.775,20.126 113.976,20.126 113.976,32.926 114.775,32.926 114.775,33.526 128.775,33.526 128.775,32.926 129.575,32.926 129.575,20.126 128.775,20.126 128.775,19.526" style="fill:none;stroke-width:0.050000mm;stroke:black"/>
<polygon points="95.726,19.526 95.726,20.126 94.926,20.126 94.926,32.926 95.726,32.926 95.726,33.526 109.726,33.526 109.726,32.926 110.525,32.926 110.525,20.126 109.726,20.126 109.726,19.526" style="fill:none;stroke-width:0.050000mm;stroke:black"/>
<polygon points="76.676,19.526 76.676,20.126 75.876,20.126 75.876,32.926 76.676,32.926 76.676,33.526 90.676,33.526 90.676,32.926 91.476,32.926 91.476,20.126 90.676,20.126 90.676,19.526" style="fill:none;stroke-width:0.050000mm;stroke:black"/>
<polygon points="57.626,19.526 57.626,20.126 56.826,20.126 56.826,32.926 57.626,32.926 57.626,33.526 71.626,33.526 71.626,32.926 72.426,32.926 72.426,20.126 71.626,20.126 71.626,19.526" style="fill:none;stroke-width:0.050000mm;stroke:black"/>
<polygon points="38.576,19.526 38.576,20.126 37.776,20.126 37.776,32.926 38.576,32.926 38.576,33.526 52.576,33.526 52.576,32.926 53.376,32.926 53.376,20.126 52.576,20.126 52.576,19.526" style="fill:none;stroke-width:0.050000mm;stroke:black"/>
<polygon points="19.526,19.526 19.526,20.126 18.725,20.126 18.725,32.926 19.526,32.926 19.526,33.526 33.526,33.526 33.526,32.926 34.325,32.926 34.325,20.126 33.526,20.126 33.526,19.526" style="fill:none;stroke-width:0.050000mm;stroke:black"/>
<polygon points="10.321,8.908 9.707,9.221 9.221,9.707 8.908,10.321 8.801,11.001 8.908,11.680 9.221,12.294 9.707,12.780 10.321,13.093 11.001,13.201 11.680,13.093 12.294,12.780 12.780,12.294 13.093,11.680 13.201,11.001 13.093,10.321 12.780,9.707 12.294,9.221 11.680,8.908 11.001,8.801" style="fill:none;stroke-width:0.050000mm;stroke:black"/>
<polygon points="327.122,8.908 326.508,9.221 326.022,9.707 325.709,10.321 325.602,11.001 325.709,11.680 326.022,12.294 326.508,12.780 327.122,13.093 327.802,13.201 328.481,13.093 329.095,12.780 329.581,12.294 329.894,11.680 330.002,11.001 329.894,10.321 329.581,9.707 329.095,9.221 328.481,8.908 327.802,8.801" style="fill:none;stroke-width:0.050000mm;stroke:black"/>
<polygon points="221.521,8.908 220.908,9.221 220.421,9.707 220.109,10.321 220.001,11.001 220.109,11.680 220.421,12.294 220.908,12.780 221.521,13.093 222.201,13.201 222.881,13.093 223.494,12.780 223.981,12.294 224.293,11.680 224.401,11.001 224.293,10.321 223.981,9.707 223.494,9.221 222.881,8.908 222.201,8.801" style="fill:none;stroke-width:0.050000mm;stroke:black"/>
<polygon points="115.921,8.908 115.308,9.221 114.821,9.707 114.509,10.321 114.401,11.001 114.509,11.680 114.821,12.294 115.308,12.780 115.921,13.093 116.601,13.201 117.281,13.093 117.894,12.780 118.381,12.294 118.693,11.680 118.801,11.001 118.693,10.321 118.381,9.707 117.894,9.221 117.281,8.908 116.601,8.801" style="fill:none;stroke-width:0.050000mm;stroke:black"/>
</svg>
