<?xml version="1.0"?>
<!-- Generated by SVGo -->
<svg width="338.802mm" height="129.252mm"
     viewBox="0.000 0.000 338.802 129.252"
     xmlns="http://www.w3.org/2000/svg" 
     xmlns:xlink="http://www.w3.org/1999/xlink">
<polygon points="28.401,17.000 17.001,17.000 17.001,112.251 321.802,112.251 321.802,17.000 42.401,17.000 42.401,5.000 328.802,5.000 329.194,5.016 329.584,5.062 329.969,5.139 330.347,5.245 330.715,5.381 331.071,5.545 331.414,5.737 331.740,5.955 332.049,6.198 332.337,6.465 332.604,6.753 332.847,7.062 333.065,7.388 333.257,7.731 333.421,8.087 333.557,8.455 333.663,8.833 333.740,9.218 333.786,9.608 333.801,10.001 333.802,119.251 333.786,119.644 333.740,120.034 333.663,120.419 333.557,120.797 333.421,121.165 333.257,121.521 333.065,121.864 332.847,122.190 332.604,122.499 332.337,122.787 332.049,123.054 331.740,123.297 331.414,123.515 331.071,123.707 330.715,123.871 330.347,124.007 329.969,124.113 329.584,124.190 329.194,124.236 328.802,124.252 10.001,124.251 9.608,124.236 9.218,124.190 8.833,124.113 8.455,124.007 8.087,123.871 7.731,123.707 7.388,123.515 7.062,123.297 6.753,123.054 6.465,122.787 6.198,122.499 5.955,122.190 5.737,121.864 5.545,121.521 5.381,121.165 5.245,120.797 5.139,120.419 5.062,120.034 5.016,119.644 5.000,119.251 5.001,10.000 5.016,9.608 5.062,9.218 5.139,8.833 5.245,8.455 5.381,8.087 5.545,7.731 5.737,7.388 5.955,7.062 6.198,6.753 6.465,6.465 6.753,6.198 7.062,5.955 7.388,5.737 7.731,5.545 8.087,5.381 8.455,5.245 8.833,5.139 9.218,5.062 9.608,5.016 10.001,5.000 28.401,5.000" style="fill:none;stroke-width:0.050000mm;stroke:black"/>
<polygon points="10.321,116.159 9.707,116.472 9.221,116.958 8.908,117.572 8.801,118.251 8.908,118.931 9.221,119.545 9.707,120.031 10.321,120.344 11.001,120.452 11.680,120.344 12.294,120.031 12.780,119.545 13.093,118.931 13.201,118.251 13.093,117.572 12.780,116.958 12.294,116.472 11.680,116.159 11.001,116.051" style="fill:none;stroke-width:0.050000mm;stroke:black"/>
<polygon points="115.921,116.159 115.308,116.472 114.821,116.958 114.509,117.572 114.401,118.251 114.509,118.931 114.821,119.545 115.308,120.031 115.921,120.344 116.601,120.452 117.281,120.344 117.894,120.031 118.381,119.545 118.693,118.931 118.801,118.251 118.693,117.572 118.381,116.958 117.894,116.472 117.281,116.159 116.601,116.051" style="fill:none;stroke-width:0.050000mm;stroke:black"/>
<polygon points="221.521,116.159 220.908,116.472 220.421,116.958 220.109,117.572 220.001,118.251 220.109,118.931 220.421,119.545 220.908,120.031 221.521,120.344 222.201,120.452 222.881,120.344 223.494,120.031 223.981,119.545 224.293,118.931 224.401,118.251 224.293,117.572 223.981,116.958 223.494,116.472 222.881,116.159 222.201,116.051" style="fill:none;stroke-width:0.050000mm;stroke:black"/>
<polygon points="327.122,116.159 326.508,116.472 326.022,116.958 325.709,117.572 325.602,118.251 325.709,118.931 326.022,119.545 326.508,120.031 327.122,120.344 327.802,120.452 328.481,120.344 329.095,120.031 329.581,119.545 329.894,118.931 330.002,118.251 329.894,117.572 329.581,116.958 329.095,116.472 328.481,116.159 327.802,116.051" style="fill:none;stroke-width:0.050000mm;stroke:black"/>
<polygon points="10.321,8.908 9.707,9.221 9.221,9.707 8.908,10.321 8.801,11.001 8.908,11.680 9.221,12.294 9.707,12.780 10.321,13.093 11.001,13.201 11.680,13.093 12.294,12.780 12.780,12.294 13.093,11.680 13.201,11.001 13.093,10.321 12.780,9.707 12.294,9.221 11.680,8.908 11.001,8.801" style="fill:none;stroke-width:0.050000mm;stroke:black"/>
<polygon points="327.122,8.908 326.508,9.221 326.022,9.707 325.709,10.321 325.602,11.001 325.709,11.680 326.022,12.294 326.508,12.780 327.122,13.093 327.802,13.201 328.481,13.093 329.095,12.780 329.581,12.294 329.894,11.680 330.002,11.001 329.894,10.321 329.581,9.707 329.095,9.221 328.481,8.908 327.802,8.801" style="fill:none;stroke-width:0.050000mm;stroke:black"/>
<polygon points="221.521,8.908 220.908,9.221 220.421,9.707 220.109,10.321 220.001,11.001 220.109,11.680 220.421,12.294 220.908,12.780 221.521,13.093 222.201,13.201 222.881,13.093 223.494,12.780 223.981,12.294 224.293,11.680 224.401,11.001 224.293,10.321 223.981,9.707 223.494,9.221 222.881,8.908 222.201,8.801" style="fill:none;stroke-width:0.050000mm;stroke:black"/>
<polygon points="115.921,8.908 115.308,9.221 114.821,9.707 114.509,10.321 114.401,11.001 114.509,11.680 114.821,12.294 115.308,12.780 115.921,13.093 116.601,13.201 117.281,13.093 117.894,12.780 118.381,12.294 118.693,11.680 118.801,11.001 118.693,10.321 118.381,9.707 117.894,9.221 117.281,8.908 116.601,8.801" style="fill:none;stroke-width:0.050000mm;stroke:black"/>
</svg>
