<?xml version="1.0" encoding="UTF-8" standalone="no"?>
<svg
   xmlns:dc="http://purl.org/dc/elements/1.1/"
   xmlns:cc="http://creativecommons.org/ns#"
   xmlns:rdf="http://www.w3.org/1999/02/22-rdf-syntax-ns#"
   xmlns:svg="http://www.w3.org/2000/svg"
   xmlns="http://www.w3.org/2000/svg"
   xmlns:sodipodi="http://sodipodi.sourceforge.net/DTD/sodipodi-0.dtd"
   xmlns:inkscape="http://www.inkscape.org/namespaces/inkscape"
   width="200mm"
   height="150mm"
   viewBox="0 0 199.99999 150"
   version="1.1"
   id="svg5"
   sodipodi:docname="vInspiration-right-switches_3mm.svg"
   inkscape:version="1.0.1 (3bc2e813f5, 2020-09-07)">
  <metadata
     id="metadata11">
    <rdf:RDF>
      <cc:Work
         rdf:about="">
        <dc:format>image/svg+xml</dc:format>
        <dc:type
           rdf:resource="http://purl.org/dc/dcmitype/StillImage" />
        <dc:title />
      </cc:Work>
    </rdf:RDF>
  </metadata>
  <defs
     id="defs9">
    <inkscape:path-effect
       effect="fillet_chamfer"
       id="path-effect165"
       is_visible="true"
       lpeversion="1"
       satellites_param="F,0,0,1,0,5,0,1 @ F,0,0,1,0,5,0,1 @ F,0,0,1,0,5,0,1 @ F,0,0,1,0,5,0,1 @ F,0,0,1,0,5,0,1 @ F,0,0,1,0,5,0,1 @ F,0,0,1,0,5,0,1 @ F,0,0,1,0,5,0,1 @ F,0,0,1,0,5,0,1 @ F,0,0,1,0,5,0,1"
       unit="mm"
       method="auto"
       mode="F"
       radius="5"
       chamfer_steps="1"
       flexible="false"
       use_knot_distance="true"
       apply_no_radius="true"
       apply_with_radius="true"
       only_selected="false"
       hide_knots="false" />
    <inkscape:path-effect
       effect="fillet_chamfer"
       id="path-effect163"
       is_visible="true"
       lpeversion="1"
       satellites_param="F,0,0,1,0,5,0,1 @ F,0,0,1,0,5,0,1 @ F,0,0,1,0,5,0,1 @ F,0,0,1,0,5,0,1 @ F,0,0,1,0,5,0,1 @ F,0,0,1,0,5,0,1 @ F,0,0,1,0,5,0,1 @ F,0,0,1,0,5,0,1 @ F,0,0,1,0,5,0,1 @ F,0,0,1,0,5,0,1"
       unit="mm"
       method="auto"
       mode="F"
       radius="5"
       chamfer_steps="1"
       flexible="false"
       use_knot_distance="true"
       apply_no_radius="true"
       apply_with_radius="true"
       only_selected="false"
       hide_knots="false" />
    <inkscape:path-effect
       effect="fillet_chamfer"
       id="path-effect161"
       is_visible="true"
       lpeversion="1"
       satellites_param="F,0,0,1,0,5,0,1 @ F,0,0,1,0,5,0,1 @ F,0,0,1,0,5,0,1 @ F,0,0,1,0,5,0,1 @ F,0,0,1,0,5,0,1 @ F,0,0,1,0,5,0,1 @ F,0,0,1,0,5,0,1 @ F,0,0,1,0,5,0,1 @ F,0,0,1,0,5,0,1 @ F,0,0,1,0,5,0,1 @ F,0,0,1,0,5,0,1 @ F,0,0,1,0,5,0,1 @ F,0,0,1,0,5,0,1 @ F,0,0,1,0,5,0,1"
       unit="mm"
       method="auto"
       mode="F"
       radius="5"
       chamfer_steps="1"
       flexible="false"
       use_knot_distance="true"
       apply_no_radius="true"
       apply_with_radius="true"
       only_selected="false"
       hide_knots="false" />
  </defs>
  <sodipodi:namedview
     pagecolor="#ffffff"
     bordercolor="#666666"
     borderopacity="1"
     objecttolerance="10"
     gridtolerance="10"
     guidetolerance="10"
     inkscape:pageopacity="0"
     inkscape:pageshadow="2"
     inkscape:window-width="2560"
     inkscape:window-height="1361"
     id="namedview7"
     showgrid="false"
     inkscape:document-units="mm"
     inkscape:zoom="2.047875"
     inkscape:cx="377.95276"
     inkscape:cy="283.46457"
     inkscape:window-x="-9"
     inkscape:window-y="41"
     inkscape:window-maximized="1"
     inkscape:current-layer="g1206"
     inkscape:snap-object-midpoints="true"
     inkscape:snap-nodes="true"
     inkscape:snap-intersection-paths="true"
     inkscape:object-paths="true"
     inkscape:snap-smooth-nodes="true"
     showguides="true"
     inkscape:guide-bbox="true"
     inkscape:document-rotation="0" />
  <g
     inkscape:groupmode="layer"
     id="layer3"
     inkscape:label="switches_3mm"
     style="display:inline">
    <path
       style="font-size:12px;display:inline;fill:none;fill-rule:evenodd;stroke:#000000;stroke-width:0.2;stroke-linecap:round;stroke-miterlimit:4;stroke-dasharray:none"
       d="m 63.062943,107.45044 a 0.50000002,0.50000002 0 0 0 0.5,0.5 h 1 a 0.50000002,0.50000002 0 0 0 0.5,-0.5 V 94.450444 a 0.50000002,0.50000002 0 0 0 -0.5,-0.5 h -1 a 0.50000002,0.50000002 0 0 0 -0.5,0.5 z"
       id="path218" />
    <path
       style="font-size:12px;display:inline;fill:none;fill-rule:evenodd;stroke:#000000;stroke-width:0.2;stroke-linecap:round;stroke-miterlimit:4;stroke-dasharray:none"
       d="m 170.71296,50.300442 a 0.50000002,0.50000002 0 0 0 0.5,0.5 h 1 a 0.50000002,0.50000002 0 0 0 0.5,-0.5 v -13 a 0.50000002,0.50000002 0 0 0 -0.5,-0.5 h -1 a 0.50000002,0.50000002 0 0 0 -0.5,0.5 z"
       id="path214" />
    <path
       style="font-size:12px;display:inline;fill:none;fill-rule:evenodd;stroke:#000000;stroke-width:0.2;stroke-linecap:round;stroke-miterlimit:4;stroke-dasharray:none"
       d="m 147.51296,50.300442 a 0.50000002,0.50000002 0 0 0 0.5,0.5 h 1 a 0.50000002,0.50000002 0 0 0 0.5,-0.5 v -13 a 0.50000002,0.50000002 0 0 0 -0.5,-0.5 h -1 a 0.50000002,0.50000002 0 0 0 -0.5,0.5 z"
       id="path212" />
    <path
       style="font-size:12px;display:inline;fill:none;fill-rule:evenodd;stroke:#000000;stroke-width:0.2;stroke-linecap:round;stroke-miterlimit:4;stroke-dasharray:none"
       d="m 172.60046,31.250442 a 0.50000002,0.50000002 0 0 0 0.5,0.5 h 1 a 0.50000002,0.50000002 0 0 0 0.5,-0.5 V 18.250441 a 0.50000002,0.50000002 0 0 0 -0.5,-0.5 h -1 a 0.50000002,0.50000002 0 0 0 -0.5,0.5 z"
       id="path210" />
    <path
       style="font-size:12px;display:inline;fill:none;fill-rule:evenodd;stroke:#000000;stroke-width:0.2;stroke-linecap:round;stroke-miterlimit:4;stroke-dasharray:none"
       d="m 136.10045,31.250442 a 0.50000002,0.50000002 0 0 0 0.5,0.5 h 1 a 0.50000002,0.50000002 0 0 0 0.5,-0.5 V 18.250441 a 0.50000002,0.50000002 0 0 0 -0.5,-0.5 h -1 a 0.50000002,0.50000002 0 0 0 -0.5,0.5 z"
       id="path208" />
    <path
       style="font-size:12px;display:inline;fill:none;fill-rule:evenodd;stroke:#000000;stroke-width:0.2;stroke-linecap:round;stroke-miterlimit:4;stroke-dasharray:none"
       d="m 54.250943,109.45044 a 0.50000002,0.50000002 0 0 0 0.5,0.5 h 6 a 0.50000002,0.50000002 0 0 0 0.5,-0.5 V 94.450444 a 0.50000002,0.50000002 0 0 0 -0.5,-0.5 h -6 a 0.50000002,0.50000002 0 0 0 -0.5,0.5 z"
       id="path206" />
    <path
       style="font-size:12px;display:inline;fill:none;fill-rule:evenodd;stroke:#000000;stroke-width:0.2;stroke-linecap:round;stroke-miterlimit:4;stroke-dasharray:none"
       d="m 30.374942,109.45044 a 0.50000002,0.50000002 0 0 0 0.5,0.5 h 6 a 0.50000002,0.50000002 0 0 0 0.5,-0.5 V 94.450444 a 0.50000002,0.50000002 0 0 0 -0.5,-0.5 h -6 a 0.50000002,0.50000002 0 0 0 -0.5,0.5 z"
       id="path204" />
    <path
       style="font-size:12px;display:inline;fill:none;fill-rule:evenodd;stroke:#000000;stroke-width:0.2;stroke-linecap:round;stroke-miterlimit:4;stroke-dasharray:none"
       d="m 156.64471,90.400444 a 0.50000002,0.50000002 0 0 0 0.5,0.5 h 6 a 0.50000002,0.50000002 0 0 0 0.5,-0.5 V 75.400443 a 0.50000002,0.50000002 0 0 0 -0.5,-0.5 h -6 a 0.50000002,0.50000002 0 0 0 -0.5,0.5 z"
       id="path202" />
    <path
       style="font-size:12px;display:inline;fill:none;fill-rule:evenodd;stroke:#000000;stroke-width:0.2;stroke-linecap:round;stroke-miterlimit:4;stroke-dasharray:none"
       d="m 132.76869,90.400444 a 0.50000002,0.50000002 0 0 0 0.5,0.5 h 6.00002 a 0.50000002,0.50000002 0 0 0 0.5,-0.5 V 75.400443 a 0.50000002,0.50000002 0 0 0 -0.5,-0.5 h -6.00002 a 0.50000002,0.50000002 0 0 0 -0.5,0.5 z"
       id="path200" />
    <path
       style="font-size:12px;display:inline;fill:none;fill-rule:evenodd;stroke:#000000;stroke-width:0.2;stroke-linecap:round;stroke-miterlimit:4;stroke-dasharray:none"
       d="m 161.40721,71.350443 a 0.50000002,0.50000002 0 0 0 0.5,0.5 h 6 a 0.50000002,0.50000002 0 0 0 0.5,-0.5 v -15 a 0.50000002,0.50000002 0 0 0 -0.5,-0.5 h -6 a 0.50000002,0.50000002 0 0 0 -0.5,0.5 z"
       id="path198" />
    <path
       style="font-size:12px;display:inline;fill:none;fill-rule:evenodd;stroke:#000000;stroke-width:0.2;stroke-linecap:round;stroke-miterlimit:4;stroke-dasharray:none"
       d="m 137.5312,71.350443 a 0.50000002,0.50000002 0 0 0 0.5,0.5 h 6.00001 a 0.50000002,0.50000002 0 0 0 0.5,-0.5 v -15 a 0.50000002,0.50000002 0 0 0 -0.5,-0.5 h -6.00001 a 0.50000002,0.50000002 0 0 0 -0.5,0.5 z"
       id="path196" />
    <path
       style="font-size:12px;display:inline;fill:none;fill-rule:evenodd;stroke:#000000;stroke-width:0.2;stroke-linecap:round;stroke-miterlimit:4;stroke-dasharray:none"
       d="m 163.78846,33.250442 a 0.50000002,0.50000002 0 0 0 0.5,0.5 h 6 a 0.50000002,0.50000002 0 0 0 0.5,-0.5 V 18.250441 a 0.50000002,0.50000002 0 0 0 -0.5,-0.5 h -6 a 0.50000002,0.50000002 0 0 0 -0.5,0.5 z"
       id="path194" />
    <path
       style="font-size:12px;display:inline;fill:none;fill-rule:evenodd;stroke:#000000;stroke-width:0.2;stroke-linecap:round;stroke-miterlimit:4;stroke-dasharray:none"
       d="m 139.91246,33.250442 a 0.50000002,0.50000002 0 0 0 0.5,0.5 h 6 a 0.50000002,0.50000002 0 0 0 0.5,-0.5 V 18.250441 a 0.50000002,0.50000002 0 0 0 -0.5,-0.5 h -6 a 0.50000002,0.50000002 0 0 0 -0.5,0.5 z"
       id="path192" />
  </g>
  <g
     inkscape:groupmode="layer"
     id="layer1"
     inkscape:label="switches_3mm_13.8space">
    <rect
       style="fill:none;stroke:#000000;stroke-width:0.2"
       id="rect165"
       width="13.8"
       height="13.8"
       x="157.97546"
       y="94.050438"
       rx="0.25000003"
       ry="0.25000003" />
    <rect
       style="fill:none;stroke:#000000;stroke-width:0.2"
       id="rect233"
       width="13.8"
       height="13.8"
       x="138.92546"
       y="94.050438"
       rx="0.25000003"
       ry="0.25000003" />
    <rect
       style="fill:none;stroke:#000000;stroke-width:0.2"
       id="rect235"
       width="13.8"
       height="13.8"
       x="119.87544"
       y="94.050438"
       rx="0.25000003"
       ry="0.25000003" />
    <rect
       style="fill:none;stroke:#000000;stroke-width:0.2"
       id="rect237"
       width="13.8"
       height="13.8"
       x="100.82544"
       y="94.050438"
       rx="0.25000003"
       ry="0.25000003" />
    <rect
       style="fill:none;stroke:#000000;stroke-width:0.2"
       id="rect239"
       width="13.8"
       height="13.8"
       x="69.869194"
       y="94.050438"
       rx="0.25000003"
       ry="0.25000003" />
    <rect
       style="fill:none;stroke:#000000;stroke-width:0.2"
       id="rect241"
       width="13.8"
       height="13.8"
       x="38.912941"
       y="94.050438"
       rx="0.25000003"
       ry="0.25000003" />
    <rect
       style="fill:none;stroke:#000000;stroke-width:0.2"
       id="rect243"
       width="13.8"
       height="13.8"
       x="141.30672"
       y="75.000443"
       rx="0.25000003"
       ry="0.25000003" />
    <rect
       style="fill:none;stroke:#000000;stroke-width:0.2"
       id="rect245"
       width="13.8"
       height="13.8"
       x="105.58794"
       y="75.000443"
       rx="0.25000003"
       ry="0.25000003" />
    <rect
       style="fill:none;stroke:#000000;stroke-width:0.2"
       id="rect247"
       width="13.8"
       height="13.8"
       x="86.537941"
       y="75.000443"
       rx="0.25000003"
       ry="0.25000003" />
    <rect
       style="fill:none;stroke:#000000;stroke-width:0.2"
       id="rect249"
       width="13.8"
       height="13.8"
       x="67.487946"
       y="75.000443"
       rx="0.25000003"
       ry="0.25000003" />
    <rect
       style="fill:none;stroke:#000000;stroke-width:0.2"
       id="rect251"
       width="13.8"
       height="13.8"
       x="48.437943"
       y="75.000443"
       rx="0.25000003"
       ry="0.25000003" />
    <rect
       style="fill:none;stroke:#000000;stroke-width:0.2"
       id="rect253"
       width="13.8"
       height="13.8"
       x="29.387941"
       y="75.000443"
       rx="0.25000003"
       ry="0.25000003" />
    <rect
       style="fill:none;stroke:#000000;stroke-width:0.2"
       id="rect255"
       width="13.8"
       height="13.8"
       x="146.06921"
       y="55.950443"
       rx="0.25000003"
       ry="0.25000003" />
    <rect
       style="fill:none;stroke:#000000;stroke-width:0.2"
       id="rect257"
       width="13.8"
       height="13.8"
       x="115.11294"
       y="55.950443"
       rx="0.25000003"
       ry="0.25000003" />
    <rect
       style="fill:none;stroke:#000000;stroke-width:0.2"
       id="rect259"
       width="13.8"
       height="13.8"
       x="96.062943"
       y="55.950443"
       rx="0.25000003"
       ry="0.25000003" />
    <rect
       style="fill:none;stroke:#000000;stroke-width:0.2"
       id="rect261"
       width="13.8"
       height="13.8"
       x="77.012947"
       y="55.950443"
       rx="0.25000003"
       ry="0.25000003" />
    <rect
       style="fill:none;stroke:#000000;stroke-width:0.2"
       id="rect263"
       width="13.8"
       height="13.8"
       x="57.962944"
       y="55.950443"
       rx="0.25000003"
       ry="0.25000003" />
    <rect
       style="fill:none;stroke:#000000;stroke-width:0.2"
       id="rect265"
       width="13.8"
       height="13.8"
       x="38.912941"
       y="55.950443"
       rx="0.25000003"
       ry="0.25000003" />
    <rect
       style="fill:none;stroke:#000000;stroke-width:0.2"
       id="rect267"
       width="13.8"
       height="13.8"
       x="19.862942"
       y="55.950443"
       rx="0.25000003"
       ry="0.25000003" />
    <rect
       style="fill:none;stroke:#000000;stroke-width:0.2"
       id="rect269"
       width="13.8"
       height="13.8"
       x="153.21297"
       y="36.90044"
       rx="0.25000003"
       ry="0.25000003" />
    <rect
       style="fill:none;stroke:#000000;stroke-width:0.2"
       id="rect271"
       width="13.8"
       height="13.8"
       x="129.40045"
       y="36.90044"
       rx="0.25000003"
       ry="0.25000003" />
    <rect
       style="fill:none;stroke:#000000;stroke-width:0.2"
       id="rect273"
       width="13.8"
       height="13.8"
       x="110.35044"
       y="36.90044"
       rx="0.25000003"
       ry="0.25000003" />
    <rect
       style="fill:none;stroke:#000000;stroke-width:0.2"
       id="rect275"
       width="13.8"
       height="13.8"
       x="91.300446"
       y="36.90044"
       rx="0.25000003"
       ry="0.25000003" />
    <rect
       style="fill:none;stroke:#000000;stroke-width:0.2"
       id="rect277"
       width="13.8"
       height="13.8"
       x="72.250443"
       y="36.90044"
       rx="0.25000003"
       ry="0.25000003" />
    <rect
       style="fill:none;stroke:#000000;stroke-width:0.2"
       id="rect279"
       width="13.8"
       height="13.8"
       x="53.200443"
       y="36.90044"
       rx="0.25000003"
       ry="0.25000003" />
    <rect
       style="fill:none;stroke:#000000;stroke-width:0.2"
       id="rect281"
       width="13.8"
       height="13.8"
       x="34.15044"
       y="36.90044"
       rx="0.25000003"
       ry="0.25000003" />
    <rect
       style="fill:none;stroke:#000000;stroke-width:0.2"
       id="rect283"
       width="13.8"
       height="13.8"
       x="15.100441"
       y="36.90044"
       rx="0.25000003"
       ry="0.25000003" />
    <rect
       style="fill:none;stroke:#000000;stroke-width:0.2"
       id="rect285"
       width="13.8"
       height="13.8"
       x="148.45045"
       y="17.850441"
       rx="0.25000003"
       ry="0.25000003" />
    <rect
       style="fill:none;stroke:#000000;stroke-width:0.2"
       id="rect287"
       width="13.8"
       height="13.8"
       x="119.87544"
       y="17.850441"
       rx="0.25000003"
       ry="0.25000003" />
    <rect
       style="fill:none;stroke:#000000;stroke-width:0.2"
       id="rect289"
       width="13.8"
       height="13.8"
       x="100.82544"
       y="17.850441"
       rx="0.25000003"
       ry="0.25000003" />
    <rect
       style="fill:none;stroke:#000000;stroke-width:0.2"
       id="rect291"
       width="13.8"
       height="13.8"
       x="81.775444"
       y="17.850441"
       rx="0.25000003"
       ry="0.25000003" />
    <rect
       style="fill:none;stroke:#000000;stroke-width:0.2"
       id="rect293"
       width="13.8"
       height="13.8"
       x="62.725445"
       y="17.850441"
       rx="0.25000003"
       ry="0.25000003" />
    <rect
       style="fill:none;stroke:#000000;stroke-width:0.2"
       id="rect295"
       width="13.8"
       height="13.8"
       x="43.675442"
       y="17.850441"
       rx="0.25000003"
       ry="0.25000003" />
    <rect
       style="fill:none;stroke:#000000;stroke-width:0.2"
       id="rect297"
       width="13.8"
       height="13.8"
       x="24.625443"
       y="17.850441"
       rx="0.25000003"
       ry="0.25000003" />
  </g>
  <g
     inkscape:groupmode="layer"
     id="g1168"
     inkscape:label="case"
     style="display:inline">
    <path
       id="path1166"
       style="font-size:12px;fill:none;fill-rule:evenodd;stroke:#000000;stroke-width:0.755906;stroke-linecap:round;stroke-miterlimit:4;stroke-dasharray:none"
       d="M 698.83465,453.74016 V 22.858268 a 5,5 45 0 0 -5,-5 H 88.150391 a 5,5 135 0 0 -5,5 V 124.54492 a 5,5 135 0 1 -5,5 h -26 a 5,5 135 0 0 -5,5 v 62 a 5,5 45 0 0 5,5 h 8 a 5,5 45 0 1 5,5 v 62 a 5,5 45 0 0 5,5 H 96.15039 a 5,5 45 0 1 5,5 v 175.19524 a 5,5 45 0 0 5,5 h 587.68426 a 5,5 135 0 0 5,-5 z"
       transform="scale(0.26458333)"
       sodipodi:nodetypes="ccccccccccc"
       inkscape:path-effect="#path-effect165"
       inkscape:original-d="M 698.83465,458.74016 V 17.858268 H 83.150391 V 129.54492 h -36 v 72 h 18 v 72 h 35.999999 v 185.19524 z" />
  </g>
  <g
     inkscape:groupmode="layer"
     id="g1206"
     inkscape:label="spacer_holes_3.5mm"
     style="display:inline">
    <circle
       style="fill:none;stroke:#000000;stroke-width:0.2;stroke-miterlimit:4;stroke-dasharray:none;stroke-opacity:1"
       id="circle1192"
       cx="27"
       cy="9.7250004"
       r="1.75" />
    <circle
       style="fill:none;stroke:#000000;stroke-width:0.2;stroke-miterlimit:4;stroke-dasharray:none;stroke-opacity:1"
       id="circle1194"
       cx="133.35001"
       cy="9.7250004"
       r="1.75" />
    <circle
       style="fill:none;stroke:#000000;stroke-width:0.2;stroke-miterlimit:4;stroke-dasharray:none;stroke-opacity:1"
       id="circle1196"
       cx="179.89999"
       cy="9.7250004"
       r="1.75" />
    <circle
       style="fill:none;stroke:#000000;stroke-width:0.2;stroke-miterlimit:4;stroke-dasharray:none;stroke-opacity:1"
       id="circle1198"
       cx="179.89999"
       cy="63.049999"
       r="1.75" />
    <circle
       style="fill:none;stroke:#000000;stroke-width:0.2;stroke-miterlimit:4;stroke-dasharray:none;stroke-opacity:1"
       id="circle1200"
       cx="179.89999"
       cy="116.375"
       r="1.75" />
    <circle
       style="fill:none;stroke:#000000;stroke-width:0.2;stroke-miterlimit:4;stroke-dasharray:none;stroke-opacity:1"
       id="circle1202"
       cx="105.833"
       cy="116.375"
       r="1.75" />
    <circle
       style="fill:none;stroke:#000000;stroke-width:0.2;stroke-miterlimit:4;stroke-dasharray:none;stroke-opacity:1"
       id="circle1204"
       cx="31.763"
       cy="116.375"
       r="1.75" />
    <circle
       style="fill:none;stroke:#000000;stroke-width:0.2;stroke-miterlimit:4;stroke-dasharray:none;stroke-opacity:1"
       id="circle299"
       cx="51"
       cy="9.7250004"
       r="1.75" />
  </g>
</svg>
