<?xml version="1.0" encoding="UTF-8" standalone="no"?>
<svg
   xmlns:dc="http://purl.org/dc/elements/1.1/"
   xmlns:cc="http://creativecommons.org/ns#"
   xmlns:rdf="http://www.w3.org/1999/02/22-rdf-syntax-ns#"
   xmlns:svg="http://www.w3.org/2000/svg"
   xmlns="http://www.w3.org/2000/svg"
   xmlns:sodipodi="http://sodipodi.sourceforge.net/DTD/sodipodi-0.dtd"
   xmlns:inkscape="http://www.inkscape.org/namespaces/inkscape"
   width="200mm"
   height="150mm"
   viewBox="0 0 199.99999 150"
   version="1.1"
   id="svg5"
   sodipodi:docname="vInspiration-right-bottom.svg"
   inkscape:version="1.0.1 (3bc2e813f5, 2020-09-07)">
  <metadata
     id="metadata11">
    <rdf:RDF>
      <cc:Work
         rdf:about="">
        <dc:format>image/svg+xml</dc:format>
        <dc:type
           rdf:resource="http://purl.org/dc/dcmitype/StillImage" />
        <dc:title />
      </cc:Work>
    </rdf:RDF>
  </metadata>
  <defs
     id="defs9">
    <inkscape:path-effect
       effect="fillet_chamfer"
       id="path-effect165"
       is_visible="true"
       lpeversion="1"
       satellites_param="F,0,0,1,0,5,0,1 @ F,0,0,1,0,5,0,1 @ F,0,0,1,0,5,0,1 @ F,0,0,1,0,5,0,1 @ F,0,0,1,0,5,0,1 @ F,0,0,1,0,5,0,1 @ F,0,0,1,0,5,0,1 @ F,0,0,1,0,5,0,1 @ F,0,0,1,0,5,0,1 @ F,0,0,1,0,5,0,1"
       unit="mm"
       method="auto"
       mode="F"
       radius="5"
       chamfer_steps="1"
       flexible="false"
       use_knot_distance="true"
       apply_no_radius="true"
       apply_with_radius="true"
       only_selected="false"
       hide_knots="false" />
    <inkscape:path-effect
       effect="fillet_chamfer"
       id="path-effect163"
       is_visible="true"
       lpeversion="1"
       satellites_param="F,0,0,1,0,5,0,1 @ F,0,0,1,0,5,0,1 @ F,0,0,1,0,5,0,1 @ F,0,0,1,0,5,0,1 @ F,0,0,1,0,5,0,1 @ F,0,0,1,0,5,0,1 @ F,0,0,1,0,5,0,1 @ F,0,0,1,0,5,0,1 @ F,0,0,1,0,5,0,1 @ F,0,0,1,0,5,0,1"
       unit="mm"
       method="auto"
       mode="F"
       radius="5"
       chamfer_steps="1"
       flexible="false"
       use_knot_distance="true"
       apply_no_radius="true"
       apply_with_radius="true"
       only_selected="false"
       hide_knots="false" />
    <inkscape:path-effect
       effect="fillet_chamfer"
       id="path-effect161"
       is_visible="true"
       lpeversion="1"
       satellites_param="F,0,0,1,0,5,0,1 @ F,0,0,1,0,5,0,1 @ F,0,0,1,0,5,0,1 @ F,0,0,1,0,5,0,1 @ F,0,0,1,0,5,0,1 @ F,0,0,1,0,5,0,1 @ F,0,0,1,0,5,0,1 @ F,0,0,1,0,5,0,1 @ F,0,0,1,0,5,0,1 @ F,0,0,1,0,5,0,1 @ F,0,0,1,0,5,0,1 @ F,0,0,1,0,5,0,1 @ F,0,0,1,0,5,0,1 @ F,0,0,1,0,5,0,1"
       unit="mm"
       method="auto"
       mode="F"
       radius="5"
       chamfer_steps="1"
       flexible="false"
       use_knot_distance="true"
       apply_no_radius="true"
       apply_with_radius="true"
       only_selected="false"
       hide_knots="false" />
    <inkscape:path-effect
       effect="fillet_chamfer"
       id="path-effect20"
       is_visible="true"
       lpeversion="1"
       satellites_param="F,0,0,1,0,5,0,1 @ F,0,0,1,0,5,0,1 @ F,0,0,1,0,5,0,1 @ F,0,0,1,0,5,0,1 @ F,0,0,1,0,5,0,1 @ F,0,0,1,0,5,0,1 @ F,0,0,1,0,5,0,1 @ F,0,0,1,0,5,0,1 @ F,0,0,1,0,5,0,1 @ F,0,0,1,0,5,0,1"
       unit="mm"
       method="auto"
       mode="F"
       radius="5"
       chamfer_steps="1"
       flexible="false"
       use_knot_distance="true"
       apply_no_radius="true"
       apply_with_radius="true"
       only_selected="false"
       hide_knots="false" />
  </defs>
  <sodipodi:namedview
     pagecolor="#ffffff"
     bordercolor="#666666"
     borderopacity="1"
     objecttolerance="10"
     gridtolerance="10"
     guidetolerance="10"
     inkscape:pageopacity="0"
     inkscape:pageshadow="2"
     inkscape:window-width="2560"
     inkscape:window-height="1361"
     id="namedview7"
     showgrid="false"
     inkscape:document-units="mm"
     inkscape:zoom="2.047875"
     inkscape:cx="377.95276"
     inkscape:cy="283.46457"
     inkscape:window-x="-9"
     inkscape:window-y="41"
     inkscape:window-maximized="1"
     inkscape:current-layer="layer1"
     inkscape:snap-object-midpoints="true"
     inkscape:snap-nodes="true"
     inkscape:snap-intersection-paths="true"
     inkscape:object-paths="true"
     inkscape:snap-smooth-nodes="true"
     showguides="true"
     inkscape:guide-bbox="true"
     inkscape:document-rotation="0" />
  <g
     inkscape:groupmode="layer"
     id="g1168"
     inkscape:label="case"
     style="display:inline">
    <path
       id="path1166"
       style="font-size:12px;fill:none;fill-rule:evenodd;stroke:#000000;stroke-width:0.755906;stroke-linecap:round;stroke-miterlimit:4;stroke-dasharray:none"
       d="M 698.83465,453.74016 V 22.858268 a 5,5 45 0 0 -5,-5 H 88.150391 a 5,5 135 0 0 -5,5 V 124.54492 a 5,5 135 0 1 -5,5 h -26 a 5,5 135 0 0 -5,5 v 62 a 5,5 45 0 0 5,5 h 8 a 5,5 45 0 1 5,5 v 62 a 5,5 45 0 0 5,5 H 96.15039 a 5,5 45 0 1 5,5 v 175.19524 a 5,5 45 0 0 5,5 h 587.68426 a 5,5 135 0 0 5,-5 z"
       transform="scale(0.26458333)"
       sodipodi:nodetypes="ccccccccccc"
       inkscape:path-effect="#path-effect165"
       inkscape:original-d="M 698.83465,458.74016 V 17.858268 H 83.150391 V 129.54492 h -36 v 72 h 18 v 72 h 35.999999 v 185.19524 z" />
  </g>
  <g
     inkscape:groupmode="layer"
     id="layer2"
     inkscape:label="screw_holes_2mm"
     style="display:inline">
    <circle
       style="fill:none;stroke:#000000;stroke-width:0.2;stroke-miterlimit:4;stroke-dasharray:none;stroke-opacity:1"
       id="path1176"
       cx="27"
       cy="9.7250004"
       r="1" />
    <circle
       style="fill:none;stroke:#000000;stroke-width:0.2;stroke-miterlimit:4;stroke-dasharray:none;stroke-opacity:1"
       id="circle1178"
       cx="51"
       cy="9.7250004"
       r="1" />
    <circle
       style="fill:none;stroke:#000000;stroke-width:0.2;stroke-miterlimit:4;stroke-dasharray:none;stroke-opacity:1"
       id="circle1180"
       cx="179.89999"
       cy="9.7250004"
       r="1" />
    <circle
       style="fill:none;stroke:#000000;stroke-width:0.2;stroke-miterlimit:4;stroke-dasharray:none;stroke-opacity:1"
       id="circle1182"
       cx="179.89999"
       cy="63.049999"
       r="1" />
    <circle
       style="fill:none;stroke:#000000;stroke-width:0.2;stroke-miterlimit:4;stroke-dasharray:none;stroke-opacity:1"
       id="circle1184"
       cx="179.89999"
       cy="116.375"
       r="1" />
    <circle
       style="fill:none;stroke:#000000;stroke-width:0.2;stroke-miterlimit:4;stroke-dasharray:none;stroke-opacity:1"
       id="circle1188"
       cx="105.833"
       cy="116.375"
       r="1" />
    <circle
       style="fill:none;stroke:#000000;stroke-width:0.2;stroke-miterlimit:4;stroke-dasharray:none;stroke-opacity:1"
       id="circle1190"
       cx="31.763"
       cy="116.375"
       r="1" />
    <circle
       style="fill:none;stroke:#000000;stroke-width:0.2;stroke-miterlimit:4;stroke-dasharray:none;stroke-opacity:1"
       id="circle164"
       cx="133.35001"
       cy="9.7250004"
       r="1" />
  </g>
  <g
     inkscape:groupmode="layer"
     id="layer1"
     inkscape:label="micro_jpm_stuff">
    <g
       id="g187"
       inkscape:label="micro_jpm_mounting_holes"
       style="display:inline"
       transform="translate(89.043961,27.378068)">
      <path
         id="path185"
         style="display:inline;fill:none;stroke:#000000;stroke-width:0.25;stroke-miterlimit:4;stroke-dasharray:none"
         d="m 35.032578,-9.203069 a 1.45,1.45 0 0 1 -1.45,1.4500009 1.45,1.45 0 0 1 -1.45,-1.4500009 1.45,1.45 0 0 1 1.45,-1.449999 1.45,1.45 0 0 1 1.45,1.449999 m 0,45.799002 a 1.45,1.45 0 0 1 -1.45,1.45 1.45,1.45 0 0 1 -1.45,-1.45 1.45,1.45 0 0 1 1.45,-1.45 1.45,1.45 0 0 1 1.45,1.45 m -45.798999,0 a 1.45,1.45 0 0 1 -1.45,1.45 1.45,1.45 0 0 1 -1.45,-1.45 1.45,1.45 0 0 1 1.45,-1.45 1.45,1.45 0 0 1 1.45,1.45 m 0,-45.799002 a 1.45,1.45 0 0 1 -1.45,1.4500009 1.45,1.45 0 0 1 -1.45,-1.4500009 1.45,1.45 0 0 1 1.45,-1.449999 1.45,1.45 0 0 1 1.45,1.449999" />
    </g>
  </g>
</svg>
