<?xml version="1.0"?>
<!-- Generated by SVGo -->
<svg width="372.902mm" height="145.468mm"
     viewBox="0.000 0.000 372.902 145.468"
     xmlns="http://www.w3.org/2000/svg" 
     xmlns:xlink="http://www.w3.org/1999/xlink">
<polygon points="362.902,5.001 363.294,5.016 363.684,5.062 364.069,5.139 364.447,5.245 364.815,5.381 365.171,5.545 365.514,5.737 365.840,5.955 366.149,6.198 366.437,6.465 366.704,6.753 366.947,7.062 367.165,7.388 367.357,7.731 367.521,8.087 367.657,8.455 367.763,8.833 367.840,9.218 367.886,9.608 367.901,10.001 367.902,135.468 367.886,135.860 367.840,136.250 367.763,136.635 367.657,137.013 367.521,137.381 367.357,137.738 367.165,138.080 366.947,138.407 366.704,138.715 366.437,139.003 366.149,139.270 365.840,139.513 365.514,139.731 365.171,139.923 364.815,140.087 364.447,140.223 364.069,140.330 363.684,140.406 363.294,140.452 362.902,140.468 10.001,140.468 9.608,140.452 9.218,140.406 8.833,140.330 8.455,140.223 8.087,140.087 7.731,139.923 7.388,139.731 7.062,139.513 6.753,139.270 6.465,139.003 6.198,138.715 5.955,138.407 5.737,138.080 5.545,137.738 5.381,137.381 5.245,137.013 5.139,136.635 5.062,136.250 5.016,135.860 5.000,135.468 5.001,10.001 5.016,9.608 5.062,9.218 5.139,8.833 5.245,8.455 5.381,8.087 5.545,7.731 5.737,7.388 5.955,7.062 6.198,6.753 6.465,6.465 6.753,6.198 7.062,5.955 7.388,5.737 7.731,5.545 8.087,5.381 8.455,5.245 8.833,5.139 9.218,5.062 9.608,5.016 10.001,5.000" style="fill:none;stroke-width:0.050000mm;stroke:black"/>
<polygon points="9.522,133.994 9.089,134.214 8.747,134.557 8.526,134.989 8.451,135.468 8.526,135.947 8.747,136.379 9.089,136.722 9.522,136.942 10.001,137.018 10.479,136.942 10.912,136.722 11.254,136.379 11.475,135.947 11.551,135.468 11.475,134.989 11.254,134.557 10.912,134.214 10.479,133.994 10.001,133.918" style="fill:none;stroke-width:0.050000mm;stroke:black"/>
<polygon points="127.155,133.994 126.723,134.214 126.380,134.557 126.160,134.989 126.084,135.468 126.160,135.947 126.380,136.379 126.723,136.722 127.155,136.942 127.634,137.018 128.113,136.942 128.545,136.722 128.888,136.379 129.108,135.947 129.184,135.468 129.108,134.989 128.888,134.557 128.545,134.214 128.113,133.994 127.634,133.918" style="fill:none;stroke-width:0.050000mm;stroke:black"/>
<polygon points="244.789,133.994 244.357,134.214 244.014,134.557 243.794,134.989 243.718,135.468 243.794,135.947 244.014,136.379 244.357,136.722 244.789,136.942 245.268,137.018 245.747,136.942 246.179,136.722 246.522,136.379 246.742,135.947 246.818,135.468 246.742,134.989 246.522,134.557 246.179,134.214 245.747,133.994 245.268,133.918" style="fill:none;stroke-width:0.050000mm;stroke:black"/>
<polygon points="362.423,133.994 361.990,134.214 361.648,134.557 361.427,134.989 361.352,135.468 361.427,135.947 361.648,136.379 361.990,136.722 362.423,136.942 362.902,137.018 363.380,136.942 363.813,136.722 364.155,136.379 364.376,135.947 364.452,135.468 364.376,134.989 364.155,134.557 363.813,134.214 363.380,133.994 362.902,133.918" style="fill:none;stroke-width:0.050000mm;stroke:black"/>
<polygon points="81.675,15.952 81.675,16.905 43.575,16.905 43.575,35.955 41.670,35.955 41.670,55.005 38.812,55.005 38.812,74.055 34.050,74.055 34.050,112.156 81.677,112.156 81.677,93.107 92.348,93.107 88.406,111.654 176.918,130.468 180.879,111.832 171.562,109.852 175.523,91.218 166.206,89.238 170.167,70.604 165.508,69.614 169.469,50.980 160.152,49.000 164.113,30.366 108.210,18.483 104.249,37.117 94.933,35.137 90.971,53.772 95.630,54.762 91.669,73.396 94.770,74.055 91.202,74.055 91.202,55.005 89.297,55.005 89.297,35.955 81.677,35.955 81.677,35.004 100.727,35.004 100.727,15.952" style="fill:none;stroke-width:0.050000mm;stroke:black"/>
<polygon points="246.319,20.172 246.319,20.171 171.782,36.015 175.743,54.650 185.060,52.670 189.021,71.304 193.680,70.314 197.640,88.945 188.323,90.925 192.284,109.559 192.283,109.559 196.244,128.194 247.487,117.302 247.487,117.303 275.440,111.361 271.560,93.107 357.902,93.107 357.902,74.055 353.139,74.055 353.139,55.005 350.282,55.005 350.282,35.955 345.519,35.955 345.519,16.905 269.317,16.905 269.317,35.955 264.555,35.955 264.555,55.007 265.680,55.007 263.558,55.458 259.596,36.826 268.914,34.846 264.953,16.210" style="fill:none;stroke-width:0.050000mm;stroke:black"/>
<polygon points="100.986,75.376 97.025,94.008 92.786,93.107 95.964,93.107 95.964,74.309" style="fill:none;stroke-width:0.050000mm;stroke:black"/>
<polygon points="267.412,93.107 269.686,93.107 266.821,93.716 262.860,75.084 267.412,74.117" style="fill:none;stroke-width:0.050000mm;stroke:black"/>
<polygon points="272.175,74.055 267.703,74.055 272.175,73.104" style="fill:none;stroke-width:0.050000mm;stroke:black"/>
<polygon points="272.175,73.095 268.331,55.007 272.175,55.007" style="fill:none;stroke-width:0.050000mm;stroke:black"/>
<polygon points="17.857,14.999 17.857,53.102 36.909,53.102 36.909,14.999" style="fill:none;stroke-width:0.050000mm;stroke:black"/>
<polygon points="9.522,8.526 9.089,8.747 8.747,9.089 8.526,9.522 8.451,10.001 8.526,10.479 8.747,10.912 9.089,11.254 9.522,11.475 10.001,11.551 10.479,11.475 10.912,11.254 11.254,10.912 11.475,10.479 11.551,10.001 11.475,9.522 11.254,9.089 10.912,8.747 10.479,8.526 10.001,8.451" style="fill:none;stroke-width:0.050000mm;stroke:black"/>
<polygon points="362.423,8.526 361.990,8.747 361.648,9.089 361.427,9.522 361.352,10.001 361.427,10.479 361.648,10.912 361.990,11.254 362.423,11.475 362.902,11.551 363.380,11.475 363.813,11.254 364.155,10.912 364.376,10.479 364.452,10.001 364.376,9.522 364.155,9.089 363.813,8.747 363.380,8.526 362.902,8.451" style="fill:none;stroke-width:0.050000mm;stroke:black"/>
<polygon points="244.789,8.526 244.357,8.747 244.014,9.089 243.794,9.522 243.718,10.001 243.794,10.479 244.014,10.912 244.357,11.254 244.789,11.475 245.268,11.551 245.747,11.475 246.179,11.254 246.522,10.912 246.742,10.479 246.818,10.001 246.742,9.522 246.522,9.089 246.179,8.747 245.747,8.526 245.268,8.451" style="fill:none;stroke-width:0.050000mm;stroke:black"/>
<polygon points="127.155,8.526 126.723,8.747 126.380,9.089 126.160,9.522 126.084,10.001 126.160,10.479 126.380,10.912 126.723,11.254 127.155,11.475 127.634,11.551 128.113,11.475 128.545,11.254 128.888,10.912 129.108,10.479 129.184,10.001 129.108,9.522 128.888,9.089 128.545,8.747 128.113,8.526 127.634,8.451" style="fill:none;stroke-width:0.050000mm;stroke:black"/>
</svg>
