<?xml version="1.0"?>
<!-- Generated by SVGo -->
<svg width="372.902mm" height="145.468mm"
     viewBox="0.000 0.000 372.902 145.468"
     xmlns="http://www.w3.org/2000/svg" 
     xmlns:xlink="http://www.w3.org/1999/xlink">
<polygon points="362.902,5.001 363.294,5.016 363.684,5.062 364.069,5.139 364.447,5.245 364.815,5.381 365.171,5.545 365.514,5.737 365.840,5.955 366.149,6.198 366.437,6.465 366.704,6.753 366.947,7.062 367.165,7.388 367.357,7.731 367.521,8.087 367.657,8.455 367.763,8.833 367.840,9.218 367.886,9.608 367.901,10.001 367.902,135.468 367.886,135.860 367.840,136.250 367.763,136.635 367.657,137.013 367.521,137.381 367.357,137.738 367.165,138.080 366.947,138.407 366.704,138.715 366.437,139.003 366.149,139.270 365.840,139.513 365.514,139.731 365.171,139.923 364.815,140.087 364.447,140.223 364.069,140.330 363.684,140.406 363.294,140.452 362.902,140.468 10.001,140.468 9.608,140.452 9.218,140.406 8.833,140.330 8.455,140.223 8.087,140.087 7.731,139.923 7.388,139.731 7.062,139.513 6.753,139.270 6.465,139.003 6.198,138.715 5.955,138.407 5.737,138.080 5.545,137.738 5.381,137.381 5.245,137.013 5.139,136.635 5.062,136.250 5.016,135.860 5.000,135.468 5.001,10.001 5.016,9.608 5.062,9.218 5.139,8.833 5.245,8.455 5.381,8.087 5.545,7.731 5.737,7.388 5.955,7.062 6.198,6.753 6.465,6.465 6.753,6.198 7.062,5.955 7.388,5.737 7.731,5.545 8.087,5.381 8.455,5.245 8.833,5.139 9.218,5.062 9.608,5.016 10.001,5.000" style="fill:none;stroke-width:0.050000mm;stroke:black"/>
<polygon points="9.522,133.994 9.089,134.214 8.747,134.557 8.526,134.989 8.451,135.468 8.526,135.947 8.747,136.379 9.089,136.722 9.522,136.942 10.001,137.018 10.479,136.942 10.912,136.722 11.254,136.379 11.475,135.947 11.551,135.468 11.475,134.989 11.254,134.557 10.912,134.214 10.479,133.994 10.001,133.918" style="fill:none;stroke-width:0.050000mm;stroke:black"/>
<polygon points="127.155,133.994 126.723,134.214 126.380,134.557 126.160,134.989 126.084,135.468 126.160,135.947 126.380,136.379 126.723,136.722 127.155,136.942 127.634,137.018 128.113,136.942 128.545,136.722 128.888,136.379 129.108,135.947 129.184,135.468 129.108,134.989 128.888,134.557 128.545,134.214 128.113,133.994 127.634,133.918" style="fill:none;stroke-width:0.050000mm;stroke:black"/>
<polygon points="244.789,133.994 244.357,134.214 244.014,134.557 243.794,134.989 243.718,135.468 243.794,135.947 244.014,136.379 244.357,136.722 244.789,136.942 245.268,137.018 245.747,136.942 246.179,136.722 246.522,136.379 246.742,135.947 246.818,135.468 246.742,134.989 246.522,134.557 246.179,134.214 245.747,133.994 245.268,133.918" style="fill:none;stroke-width:0.050000mm;stroke:black"/>
<polygon points="362.423,133.994 361.990,134.214 361.648,134.557 361.427,134.989 361.352,135.468 361.427,135.947 361.648,136.379 361.990,136.722 362.423,136.942 362.902,137.018 363.380,136.942 363.813,136.722 364.155,136.379 364.376,135.947 364.452,135.468 364.376,134.989 364.155,134.557 363.813,134.214 363.380,133.994 362.902,133.918" style="fill:none;stroke-width:0.050000mm;stroke:black"/>
<polygon points="164.065,111.454 163.282,111.287 160.621,123.808 161.403,123.974 161.279,124.561 174.973,127.472 175.097,126.885 175.880,127.051 178.541,114.531 177.759,114.365 177.883,113.778 164.189,110.867" style="fill:none;stroke-width:0.050000mm;stroke:black"/>
<polygon points="227.075,106.249 227.747,109.409 227.037,109.560 226.185,105.549 225.403,105.715 225.278,105.128 211.584,108.039 211.709,108.626 210.926,108.792 211.778,112.803 211.069,112.954 210.398,109.794 203.795,111.198 204.467,114.357 203.660,114.528 204.242,117.267 205.049,117.096 206.353,123.229 208.040,122.870 208.289,124.044 211.517,123.358 211.268,122.184 212.955,121.825 212.026,117.453 212.735,117.302 213.587,121.313 214.370,121.146 214.495,121.733 228.189,118.822 228.064,118.236 228.846,118.069 227.994,114.059 228.703,113.908 229.632,118.280 231.320,117.922 231.569,119.096 234.797,118.409 234.548,117.236 236.235,116.877 234.931,110.744 235.738,110.573 235.156,107.834 234.349,108.005 233.678,104.846" style="fill:none;stroke-width:0.050000mm;stroke:black"/>
<polygon points="127.455,103.294 125.768,102.935 124.464,109.068 123.657,108.897 123.075,111.635 123.882,111.807 123.210,114.966 129.813,116.370 130.484,113.210 131.193,113.361 130.341,117.372 131.123,117.538 130.998,118.125 144.693,121.036 144.818,120.449 145.600,120.615 146.452,116.604 147.162,116.755 146.490,119.915 153.093,121.318 153.764,118.159 154.571,118.330 155.153,115.591 154.346,115.420 155.650,109.287 153.963,108.928 154.212,107.754 150.984,107.068 150.735,108.242 149.047,107.883 148.118,112.256 147.409,112.105 148.261,108.095 147.479,107.928 147.604,107.341 133.910,104.431 133.785,105.018 133.002,104.851 132.150,108.862 131.441,108.711 132.370,104.339 130.682,103.980 130.932,102.806 127.704,102.120" style="fill:none;stroke-width:0.050000mm;stroke:black"/>
<polygon points="98.847,97.591 98.064,97.425 95.403,109.945 96.185,110.112 96.061,110.698 109.755,113.609 109.879,113.022 110.662,113.189 113.323,100.668 112.541,100.502 112.665,99.915 98.971,97.004" style="fill:none;stroke-width:0.050000mm;stroke:black"/>
<polygon points="251.180,99.623 251.305,100.210 250.523,100.376 253.184,112.896 253.966,112.730 254.091,113.317 267.785,110.406 267.661,109.819 268.443,109.653 265.782,97.132 264.999,97.299 264.875,96.712" style="fill:none;stroke-width:0.050000mm;stroke:black"/>
<polygon points="65.151,95.631 65.151,96.230 64.350,96.230 64.350,109.031 65.151,109.031 65.151,109.631 79.151,109.631 79.151,109.031 79.951,109.031 79.951,96.230 79.151,96.230 79.151,95.631" style="fill:none;stroke-width:0.050000mm;stroke:black"/>
<polygon points="41.338,95.631 41.338,96.230 40.538,96.230 40.538,109.031 41.338,109.031 41.338,109.631 55.338,109.631 55.338,109.031 56.138,109.031 56.138,96.230 55.338,96.230 55.338,95.631" style="fill:none;stroke-width:0.050000mm;stroke:black"/>
<polygon points="158.708,90.840 157.926,90.673 155.265,103.194 156.047,103.360 155.922,103.947 169.616,106.858 169.741,106.271 170.524,106.437 173.185,93.917 172.402,93.750 172.527,93.164 158.833,90.253" style="fill:none;stroke-width:0.050000mm;stroke:black"/>
<polygon points="191.319,92.871 191.443,93.458 190.661,93.624 193.322,106.145 194.105,105.978 194.229,106.565 207.923,103.654 207.799,103.067 208.581,102.901 205.920,90.381 205.137,90.547 205.013,89.960" style="fill:none;stroke-width:0.050000mm;stroke:black"/>
<polygon points="140.075,86.879 139.292,86.713 136.631,99.233 137.413,99.399 137.289,99.986 150.983,102.897 151.107,102.310 151.890,102.476 154.551,89.956 153.769,89.790 153.894,89.203 140.199,86.292" style="fill:none;stroke-width:0.050000mm;stroke:black"/>
<polygon points="209.952,88.910 210.077,89.497 209.295,89.664 211.956,102.184 212.738,102.018 212.863,102.604 226.557,99.694 226.432,99.107 227.215,98.940 224.554,86.420 223.771,86.586 223.646,86.000" style="fill:none;stroke-width:0.050000mm;stroke:black"/>
<polygon points="121.441,82.918 120.658,82.752 117.997,95.272 118.780,95.439 118.655,96.025 132.349,98.936 132.474,98.349 133.256,98.516 135.918,85.995 135.135,85.829 135.260,85.242 121.566,82.331" style="fill:none;stroke-width:0.050000mm;stroke:black"/>
<polygon points="228.586,84.950 228.711,85.537 227.928,85.703 230.590,98.223 231.372,98.057 231.497,98.644 245.191,95.733 245.066,95.146 245.849,94.980 243.187,82.459 242.405,82.626 242.280,82.039" style="fill:none;stroke-width:0.050000mm;stroke:black"/>
<polygon points="102.807,78.958 102.025,78.791 99.363,91.311 100.146,91.478 100.021,92.065 113.715,94.975 113.840,94.389 114.623,94.555 117.284,82.035 116.501,81.868 116.626,81.281 102.932,78.371" style="fill:none;stroke-width:0.050000mm;stroke:black"/>
<polygon points="247.220,80.989 247.344,81.576 246.562,81.742 249.223,94.262 250.006,94.096 250.130,94.683 263.825,91.772 263.700,91.185 264.482,91.019 261.821,78.499 261.039,78.665 260.914,78.078" style="fill:none;stroke-width:0.050000mm;stroke:black"/>
<polygon points="48.482,76.581 48.482,77.180 47.682,77.180 47.682,81.281 46.957,81.281 46.957,78.051 40.207,78.051 40.207,81.281 39.382,81.281 39.382,84.081 40.207,84.081 40.207,90.351 41.932,90.351 41.932,91.551 45.232,91.551 45.232,90.351 46.957,90.351 46.957,85.881 47.682,85.881 47.682,89.981 48.482,89.981 48.482,90.581 62.482,90.581 62.482,89.981 63.282,89.981 63.282,85.881 64.007,85.881 64.007,90.351 65.732,90.351 65.732,91.551 69.032,91.551 69.032,90.351 70.757,90.351 70.757,84.081 71.582,84.081 71.582,81.281 70.757,81.281 70.757,78.051 64.007,78.051 64.007,81.281 63.282,81.281 63.282,77.180 62.482,77.180 62.482,76.581" style="fill:none;stroke-width:0.050000mm;stroke:black"/>
<polygon points="341.376,76.581 341.376,77.180 340.576,77.180 340.576,89.981 341.376,89.981 341.376,90.581 355.376,90.581 355.376,89.981 356.176,89.981 356.176,77.180 355.376,77.180 355.376,76.581" style="fill:none;stroke-width:0.050000mm;stroke:black"/>
<polygon points="315.182,76.581 315.182,77.180 314.382,77.180 314.382,89.981 315.182,89.981 315.182,90.581 329.182,90.581 329.182,89.981 329.982,89.981 329.982,77.180 329.182,77.180 329.182,76.581" style="fill:none;stroke-width:0.050000mm;stroke:black"/>
<polygon points="288.988,76.581 288.988,77.180 288.188,77.180 288.188,89.981 288.988,89.981 288.988,90.581 302.988,90.581 302.988,89.981 303.788,89.981 303.788,77.180 302.988,77.180 302.988,76.581" style="fill:none;stroke-width:0.050000mm;stroke:black"/>
<polygon points="269.938,76.581 269.938,77.180 269.138,77.180 269.138,89.981 269.938,89.981 269.938,90.581 283.938,90.581 283.938,89.981 284.738,89.981 284.738,77.180 283.938,77.180 283.938,76.581" style="fill:none;stroke-width:0.050000mm;stroke:black"/>
<polygon points="79.438,76.581 79.438,77.180 78.638,77.180 78.638,89.981 79.438,89.981 79.438,90.581 93.438,90.581 93.438,89.981 94.238,89.981 94.238,77.180 93.438,77.180 93.438,76.581" style="fill:none;stroke-width:0.050000mm;stroke:black"/>
<polygon points="153.352,70.226 152.570,70.059 149.908,82.580 150.691,82.746 150.566,83.333 164.260,86.244 164.385,85.657 165.168,85.823 167.829,73.303 167.046,73.136 167.171,72.549 153.477,69.639" style="fill:none;stroke-width:0.050000mm;stroke:black"/>
<polygon points="196.675,72.257 196.799,72.844 196.017,73.010 198.678,85.531 199.461,85.364 199.585,85.951 213.280,83.040 213.155,82.453 213.937,82.287 211.276,69.767 210.494,69.933 210.369,69.346" style="fill:none;stroke-width:0.050000mm;stroke:black"/>
<polygon points="134.719,66.265 133.936,66.099 131.275,78.619 132.057,78.785 131.933,79.372 145.627,82.283 145.751,81.696 146.534,81.862 149.195,69.342 148.413,69.176 148.537,68.589 134.843,65.678" style="fill:none;stroke-width:0.050000mm;stroke:black"/>
<polygon points="215.308,68.296 215.433,68.883 214.651,69.050 217.312,81.570 218.094,81.403 218.219,81.990 231.913,79.080 231.789,78.493 232.571,78.326 229.910,65.806 229.127,65.972 229.003,65.386" style="fill:none;stroke-width:0.050000mm;stroke:black"/>
<polygon points="116.085,62.304 115.302,62.138 112.641,74.658 113.424,74.824 113.299,75.411 126.993,78.322 127.118,77.735 127.900,77.902 130.561,65.380 129.777,65.215 129.902,64.627 116.210,61.717" style="fill:none;stroke-width:0.050000mm;stroke:black"/>
<polygon points="233.942,64.335 234.067,64.922 233.284,65.088 235.946,77.609 236.728,77.443 236.853,78.030 250.547,75.119 250.422,74.532 251.205,74.366 248.543,61.845 247.761,62.012 247.636,61.425" style="fill:none;stroke-width:0.050000mm;stroke:black"/>
<polygon points="97.451,58.343 96.669,58.177 94.007,70.697 94.790,70.864 94.665,71.451 108.359,74.361 108.484,73.774 109.266,73.941 111.928,61.421 111.145,61.254 111.270,60.667 97.576,57.757" style="fill:none;stroke-width:0.050000mm;stroke:black"/>
<polygon points="252.576,60.375 252.701,60.962 251.918,61.128 254.579,73.648 255.362,73.482 255.487,74.069 269.181,71.158 269.056,70.571 269.838,70.405 267.177,57.885 266.395,58.051 266.270,57.464" style="fill:none;stroke-width:0.050000mm;stroke:black"/>
<polygon points="324.707,57.531 324.707,58.131 323.907,58.131 323.907,62.231 323.182,62.231 323.182,59.001 316.432,59.001 316.432,62.231 315.607,62.231 315.607,65.031 316.432,65.031 316.432,71.301 318.157,71.301 318.157,72.501 321.457,72.501 321.457,71.301 323.182,71.301 323.182,66.831 323.907,66.831 323.907,70.931 324.707,70.931 324.707,71.531 338.707,71.531 338.707,70.931 339.507,70.931 339.507,66.831 340.232,66.831 340.232,71.301 341.957,71.301 341.957,72.501 345.257,72.501 345.257,71.301 346.982,71.301 346.982,65.031 347.807,65.031 347.807,62.231 346.982,62.231 346.982,59.001 340.232,59.001 340.232,62.231 339.507,62.231 339.507,58.131 338.707,58.131 338.707,57.531" style="fill:none;stroke-width:0.050000mm;stroke:black"/>
<polygon points="293.751,57.531 293.751,58.131 292.951,58.131 292.951,70.931 293.751,70.931 293.751,71.531 307.751,71.531 307.751,70.931 308.551,70.931 308.551,58.131 307.751,58.131 307.751,57.531" style="fill:none;stroke-width:0.050000mm;stroke:black"/>
<polygon points="274.701,57.531 274.701,58.131 273.901,58.131 273.901,70.931 274.701,70.931 274.701,71.531 288.701,71.531 288.701,70.931 289.501,70.931 289.501,58.131 288.701,58.131 288.701,57.531" style="fill:none;stroke-width:0.050000mm;stroke:black"/>
<polygon points="74.676,57.531 74.676,58.131 73.876,58.131 73.876,70.931 74.676,70.931 74.676,71.531 88.676,71.531 88.676,70.931 89.476,70.931 89.476,58.131 88.676,58.131 88.676,57.531" style="fill:none;stroke-width:0.050000mm;stroke:black"/>
<polygon points="48.482,57.531 48.482,58.131 47.682,58.131 47.682,70.931 48.482,70.931 48.482,71.531 62.482,71.531 62.482,70.931 63.282,70.931 63.282,58.131 62.482,58.131 62.482,57.531" style="fill:none;stroke-width:0.050000mm;stroke:black"/>
<polygon points="188.056,54.613 188.180,55.200 187.398,55.367 190.059,67.887 190.842,67.721 190.966,68.308 204.660,65.397 204.536,64.810 205.318,64.644 202.657,52.123 201.874,52.290 201.750,51.703" style="fill:none;stroke-width:0.050000mm;stroke:black"/>
<polygon points="152.655,50.602 151.872,50.435 149.211,62.956 149.993,63.122 149.869,63.709 163.563,66.620 163.687,66.033 164.470,66.199 167.131,53.679 166.349,53.512 166.473,52.926 152.779,50.015" style="fill:none;stroke-width:0.050000mm;stroke:black"/>
<polygon points="206.689,50.653 206.814,51.240 206.032,51.406 208.693,63.926 209.475,63.760 209.600,64.347 223.294,61.436 223.169,60.849 223.952,60.683 221.291,48.163 220.508,48.329 220.383,47.742" style="fill:none;stroke-width:0.050000mm;stroke:black"/>
<polygon points="134.021,46.641 133.238,46.475 130.577,58.995 131.360,59.161 131.235,59.748 144.929,62.659 145.054,62.072 145.836,62.238 148.497,49.718 147.715,49.552 147.840,48.965 134.146,46.054" style="fill:none;stroke-width:0.050000mm;stroke:black"/>
<polygon points="225.323,46.692 225.448,47.279 224.665,47.445 227.327,59.966 228.109,59.799 228.234,60.386 241.928,57.475 241.803,56.888 242.586,56.722 239.924,44.202 239.142,44.368 239.017,43.781" style="fill:none;stroke-width:0.050000mm;stroke:black"/>
<polygon points="115.387,42.680 114.605,42.514 111.943,55.034 112.726,55.201 112.601,55.787 126.295,58.698 126.420,58.111 127.202,58.278 129.864,45.757 129.081,45.591 129.206,45.004 115.512,42.093" style="fill:none;stroke-width:0.050000mm;stroke:black"/>
<polygon points="243.957,42.731 244.081,43.318 243.299,43.485 245.960,56.005 246.743,55.838 246.867,56.425 260.561,53.515 260.436,52.928 261.219,52.761 258.558,40.241 257.775,40.407 257.650,39.821" style="fill:none;stroke-width:0.050000mm;stroke:black"/>
<polygon points="96.753,38.720 95.971,38.553 93.310,51.074 94.092,51.240 93.967,51.827 107.661,54.737 107.786,54.151 108.569,54.317 111.230,41.797 110.447,41.630 110.572,41.043 96.878,38.133" style="fill:none;stroke-width:0.050000mm;stroke:black"/>
<polygon points="328.993,38.481 328.993,39.081 328.193,39.081 328.193,51.881 328.993,51.881 328.993,52.481 342.993,52.481 342.993,51.881 343.793,51.881 343.793,39.081 342.993,39.081 342.993,38.481" style="fill:none;stroke-width:0.050000mm;stroke:black"/>
<polygon points="305.181,38.481 305.181,39.081 304.381,39.081 304.381,51.881 305.181,51.881 305.181,52.481 319.181,52.481 319.181,51.881 319.981,51.881 319.981,39.081 319.181,39.081 319.181,38.481" style="fill:none;stroke-width:0.050000mm;stroke:black"/>
<polygon points="286.131,38.481 286.131,39.081 285.331,39.081 285.331,51.881 286.131,51.881 286.131,52.481 300.131,52.481 300.131,51.881 300.931,51.881 300.931,39.081 300.131,39.081 300.131,38.481" style="fill:none;stroke-width:0.050000mm;stroke:black"/>
<polygon points="267.081,38.481 267.081,39.081 266.281,39.081 266.281,51.881 267.081,51.881 267.081,52.481 281.081,52.481 281.081,51.881 281.881,51.881 281.881,39.081 281.081,39.081 281.081,38.481" style="fill:none;stroke-width:0.050000mm;stroke:black"/>
<polygon points="72.771,38.481 72.771,39.081 71.971,39.081 71.971,51.881 72.771,51.881 72.771,52.481 86.771,52.481 86.771,51.881 87.571,51.881 87.571,39.081 86.771,39.081 86.771,38.481" style="fill:none;stroke-width:0.050000mm;stroke:black"/>
<polygon points="48.958,38.481 48.958,39.081 48.158,39.081 48.158,51.881 48.958,51.881 48.958,52.481 62.958,52.481 62.958,51.881 63.758,51.881 63.758,39.081 62.958,39.081 62.958,38.481" style="fill:none;stroke-width:0.050000mm;stroke:black"/>
<polygon points="174.778,37.960 174.903,38.547 174.120,38.713 176.782,51.234 177.564,51.067 177.689,51.654 191.383,48.743 191.258,48.157 192.041,47.990 189.379,35.470 188.597,35.636 188.472,35.049" style="fill:none;stroke-width:0.050000mm;stroke:black"/>
<polygon points="20.383,36.576 20.383,37.176 19.583,37.176 19.583,49.976 20.383,49.976 20.383,50.576 34.383,50.576 34.383,49.976 35.183,49.976 35.183,37.176 34.383,37.176 34.383,36.576" style="fill:none;stroke-width:0.050000mm;stroke:black"/>
<polygon points="193.412,33.999 193.536,34.586 192.754,34.753 195.415,47.273 196.198,47.107 196.322,47.693 210.017,44.783 209.892,44.196 210.674,44.029 208.013,31.509 207.231,31.676 207.106,31.089" style="fill:none;stroke-width:0.050000mm;stroke:black"/>
<polygon points="147.298,29.988 146.516,29.821 143.855,42.342 144.637,42.508 144.512,43.095 158.206,46.006 158.331,45.419 159.114,45.585 161.775,33.065 160.992,32.898 161.117,32.312 147.423,29.401" style="fill:none;stroke-width:0.050000mm;stroke:black"/>
<polygon points="212.045,30.039 212.170,30.626 211.388,30.792 214.049,43.312 214.831,43.146 214.956,43.733 228.650,40.822 228.526,40.235 229.308,40.069 226.647,27.548 225.864,27.715 225.740,27.128" style="fill:none;stroke-width:0.050000mm;stroke:black"/>
<polygon points="128.664,26.027 127.882,25.861 125.221,38.381 126.003,38.547 125.879,39.134 139.573,42.045 139.698,41.458 140.480,41.624 143.141,29.104 142.359,28.938 142.484,28.351 128.789,25.440" style="fill:none;stroke-width:0.050000mm;stroke:black"/>
<polygon points="230.679,26.078 230.804,26.665 230.021,26.831 232.683,39.351 233.465,39.185 233.590,39.772 247.284,36.861 247.159,36.274 247.942,36.108 245.280,23.588 244.498,23.754 244.373,23.167" style="fill:none;stroke-width:0.050000mm;stroke:black"/>
<polygon points="110.031,22.066 109.248,21.900 106.587,34.420 107.370,34.586 107.245,35.173 120.939,38.084 121.064,37.497 121.846,37.664 124.508,25.143 123.725,24.977 123.850,24.390 110.156,21.479" style="fill:none;stroke-width:0.050000mm;stroke:black"/>
<polygon points="249.313,22.117 249.438,22.704 248.655,22.870 251.316,35.391 252.099,35.224 252.224,35.811 265.918,32.901 265.793,32.314 266.575,32.147 263.914,19.627 263.132,19.793 263.007,19.206" style="fill:none;stroke-width:0.050000mm;stroke:black"/>
<polygon points="319.468,19.431 319.468,20.031 318.668,20.031 318.668,24.131 317.943,24.131 317.943,20.901 311.193,20.901 311.193,24.131 310.368,24.131 310.368,26.931 311.193,26.931 311.193,33.201 312.918,33.201 312.918,34.401 316.218,34.401 316.218,33.201 317.943,33.201 317.943,28.731 318.668,28.731 318.668,32.831 319.468,32.831 319.468,33.431 333.468,33.431 333.468,32.831 334.268,32.831 334.268,28.731 334.993,28.731 334.993,33.201 336.718,33.201 336.718,34.401 340.018,34.401 340.018,33.201 341.743,33.201 341.743,26.931 342.568,26.931 342.568,24.131 341.743,24.131 341.743,20.901 334.993,20.901 334.993,24.131 334.268,24.131 334.268,20.031 333.468,20.031 333.468,19.431" style="fill:none;stroke-width:0.050000mm;stroke:black"/>
<polygon points="290.893,19.431 290.893,20.031 290.093,20.031 290.093,32.831 290.893,32.831 290.893,33.431 304.893,33.431 304.893,32.831 305.693,32.831 305.693,20.031 304.893,20.031 304.893,19.431" style="fill:none;stroke-width:0.050000mm;stroke:black"/>
<polygon points="271.843,19.431 271.843,20.031 271.043,20.031 271.043,32.831 271.843,32.831 271.843,33.431 285.843,33.431 285.843,32.831 286.643,32.831 286.643,20.031 285.843,20.031 285.843,19.431" style="fill:none;stroke-width:0.050000mm;stroke:black"/>
<polygon points="65.151,19.431 65.151,20.031 64.350,20.031 64.350,32.831 65.151,32.831 65.151,33.431 79.151,33.431 79.151,32.831 79.951,32.831 79.951,20.031 79.151,20.031 79.151,19.431" style="fill:none;stroke-width:0.050000mm;stroke:black"/>
<polygon points="46.101,19.431 46.101,20.031 45.301,20.031 45.301,32.831 46.101,32.831 46.101,33.431 60.101,33.431 60.101,32.831 60.901,32.831 60.901,20.031 60.101,20.031 60.101,19.431" style="fill:none;stroke-width:0.050000mm;stroke:black"/>
<polygon points="84.201,18.478 84.201,19.078 83.401,19.078 83.401,31.878 84.201,31.878 84.201,32.477 98.201,32.477 98.201,31.878 99.001,31.878 99.001,19.078 98.201,19.078 98.201,18.478" style="fill:none;stroke-width:0.050000mm;stroke:black"/>
<polygon points="20.383,17.526 20.383,18.126 19.583,18.126 19.583,30.925 20.383,30.925 20.383,31.526 34.383,31.526 34.383,30.925 35.183,30.925 35.183,18.126 34.383,18.126 34.383,17.526" style="fill:none;stroke-width:0.050000mm;stroke:black"/>
<polygon points="9.522,8.526 9.089,8.747 8.747,9.089 8.526,9.522 8.451,10.001 8.526,10.479 8.747,10.912 9.089,11.254 9.522,11.475 10.001,11.551 10.479,11.475 10.912,11.254 11.254,10.912 11.475,10.479 11.551,10.001 11.475,9.522 11.254,9.089 10.912,8.747 10.479,8.526 10.001,8.451" style="fill:none;stroke-width:0.050000mm;stroke:black"/>
<polygon points="362.423,8.526 361.990,8.747 361.648,9.089 361.427,9.522 361.352,10.001 361.427,10.479 361.648,10.912 361.990,11.254 362.423,11.475 362.902,11.551 363.380,11.475 363.813,11.254 364.155,10.912 364.376,10.479 364.452,10.001 364.376,9.522 364.155,9.089 363.813,8.747 363.380,8.526 362.902,8.451" style="fill:none;stroke-width:0.050000mm;stroke:black"/>
<polygon points="244.789,8.526 244.357,8.747 244.014,9.089 243.794,9.522 243.718,10.001 243.794,10.479 244.014,10.912 244.357,11.254 244.789,11.475 245.268,11.551 245.747,11.475 246.179,11.254 246.522,10.912 246.742,10.479 246.818,10.001 246.742,9.522 246.522,9.089 246.179,8.747 245.747,8.526 245.268,8.451" style="fill:none;stroke-width:0.050000mm;stroke:black"/>
<polygon points="127.155,8.526 126.723,8.747 126.380,9.089 126.160,9.522 126.084,10.001 126.160,10.479 126.380,10.912 126.723,11.254 127.155,11.475 127.634,11.551 128.113,11.475 128.545,11.254 128.888,10.912 129.108,10.479 129.184,10.001 129.108,9.522 128.888,9.089 128.545,8.747 128.113,8.526 127.634,8.451" style="fill:none;stroke-width:0.050000mm;stroke:black"/>
</svg>
