<svg width="374.831242mm" height="131.601385mm" viewBox="0 0 374.831242 131.601385" xmlns="http://www.w3.org/2000/svg"><g id="svgGroup" stroke-linecap="round" fill-rule="evenodd" font-size="9pt" stroke="#000" stroke-width="0.25mm" fill="none" style="stroke:#000;stroke-width:0.25mm;fill:none"><path d="M 319.616892 84.846605 A 0.5 0.5 0 0 0 320.209921 85.231723 L 370.474481 74.547661 A 0.5 0.5 0 0 0 370.859599 73.954631 L 367.106793 56.299067 A 0.5 0.5 0 0 0 366.513764 55.913949 L 316.249204 66.598011 A 0.5 0.5 0 0 0 315.864086 67.19104 L 319.616892 84.846605 Z M 324.97303 64.232534 A 0.5 0.5 0 0 0 325.566059 64.617652 L 366.513763 55.913949 A 0.5 0.5 0 0 0 366.898881 55.32092 L 363.146075 37.665355 A 0.5 0.5 0 0 0 362.553046 37.280237 L 321.605342 45.983941 A 0.5 0.5 0 0 0 321.220224 46.57697 L 324.97303 64.232534 Z M 125.788483 119.321301 A 0.5 0.5 0 0 0 126.173601 119.91433 L 162.462877 127.627854 A 0.5 0.5 0 0 0 163.055906 127.242736 L 166.808712 109.587172 A 0.5 0.5 0 0 0 166.423594 108.994142 L 130.134318 101.280619 A 0.5 0.5 0 0 0 129.541289 101.665737 L 125.788483 119.321301 Z M 321.710023 25.974931 A 0.5 0.5 0 0 0 322.303053 26.360049 L 358.592329 18.646525 A 0.5 0.5 0 0 0 358.977447 18.053495 L 355.224641 0.397931 A 0.5 0.5 0 0 0 354.631611 0.012813 L 318.342335 7.726337 A 0.5 0.5 0 0 0 317.957217 8.319367 L 321.710023 25.974931 Z M 211.775338 127.244622 A 0.5 0.5 0 0 0 212.368368 127.62974 L 248.657644 119.916216 A 0.5 0.5 0 0 0 249.042762 119.323187 L 245.289956 101.667623 A 0.5 0.5 0 0 0 244.696926 101.282505 L 208.40765 108.996028 A 0.5 0.5 0 0 0 208.022532 109.589058 L 211.775338 127.244622 Z M 35.882931 61.26011 A 0.5 0.5 0 0 0 36.268049 61.85314 L 67.898897 68.576484 A 0.5 0.5 0 0 0 68.491926 68.191366 L 72.244732 50.535802 A 0.5 0.5 0 0 0 71.859614 49.942772 L 40.228766 43.219428 A 0.5 0.5 0 0 0 39.635737 43.604546 L 35.882931 61.26011 Z M 22.605357 77.913462 A 0.5 0.5 0 0 0 22.990475 78.506491 L 54.621323 85.229836 A 0.5 0.5 0 0 0 55.214352 84.844718 L 58.967158 67.189154 A 0.5 0.5 0 0 0 58.58204 66.596124 L 26.951192 59.87278 A 0.5 0.5 0 0 0 26.358163 60.257898 L 22.605357 77.913462 Z M 49.160503 44.606756 A 0.5 0.5 0 0 0 49.545621 45.199785 L 76.518042 50.93295 A 0.5 0.5 0 0 0 77.111071 50.547832 L 80.863877 32.892268 A 0.5 0.5 0 0 0 80.478759 32.299238 L 53.506339 26.566073 A 0.5 0.5 0 0 0 52.91331 26.951191 L 49.160503 44.606755 Z M 7.932362 55.319033 A 0.5 0.5 0 0 0 8.31748 55.912063 L 35.2899 61.645228 A 0.5 0.5 0 0 0 35.88293 61.26011 L 39.635736 43.604546 A 0.5 0.5 0 0 0 39.250618 43.011516 L 12.278198 37.278351 A 0.5 0.5 0 0 0 11.685168 37.663469 L 7.932362 55.319033 Z M 0.010926 92.586457 A 0.5 0.5 0 0 0 0.396044 93.179487 L 27.368464 98.912651 A 0.5 0.5 0 0 0 27.961494 98.527533 L 31.7143 80.871969 A 0.5 0.5 0 0 0 31.329182 80.27894 L 4.356762 74.545775 A 0.5 0.5 0 0 0 3.763732 74.930893 L 0.010926 92.586457 Z M 334.987595 42.628284 A 0.5 0.5 0 0 0 335.580624 43.013402 L 362.553045 37.280237 A 0.5 0.5 0 0 0 362.938163 36.687208 L 359.185356 19.031643 A 0.5 0.5 0 0 0 358.592327 18.646525 L 331.619907 24.37969 A 0.5 0.5 0 0 0 331.234789 24.97272 L 334.987595 42.628284 Z M 27.961495 98.527532 A 0.5 0.5 0 0 0 28.346613 99.120562 L 50.660605 103.863547 A 0.5 0.5 0 0 0 51.253635 103.478429 L 55.006441 85.822865 A 0.5 0.5 0 0 0 54.621323 85.229835 L 32.307331 80.48685 A 0.5 0.5 0 0 0 31.714301 80.871968 L 27.961495 98.527532 Z M 51.253635 103.478431 A 0.5 0.5 0 0 0 51.638753 104.071461 L 73.952745 108.814446 A 0.5 0.5 0 0 0 74.545774 108.429328 L 78.29858 90.773764 A 0.5 0.5 0 0 0 77.913462 90.180734 L 55.59947 85.437749 A 0.5 0.5 0 0 0 55.006441 85.822867 L 51.253635 103.478431 Z M 83.86263 110.409686 A 0.5 0.5 0 0 0 84.247748 111.002715 L 106.56174 115.745701 A 0.5 0.5 0 0 0 107.15477 115.360583 L 110.907576 97.705019 A 0.5 0.5 0 0 0 110.522458 97.111989 L 88.208466 92.369004 A 0.5 0.5 0 0 0 87.615436 92.754122 L 83.86263 110.409686 Z M 267.676474 115.362469 A 0.5 0.5 0 0 0 268.269504 115.747587 L 290.583496 111.004601 A 0.5 0.5 0 0 0 290.968614 110.411572 L 287.215808 92.756007 A 0.5 0.5 0 0 0 286.622779 92.37089 L 264.308786 97.113875 A 0.5 0.5 0 0 0 263.923668 97.706905 L 267.676474 115.362469 Z M 15.853798 18.051608 A 0.5 0.5 0 0 0 16.238916 18.644638 L 33.89448 22.397444 A 0.5 0.5 0 0 0 34.48751 22.012326 L 38.240316 4.356762 A 0.5 0.5 0 0 0 37.855198 3.763732 L 20.199633 0.010926 A 0.5 0.5 0 0 0 19.606604 0.396044 L 15.853798 18.051608 Z M 34.48751 22.012326 A 0.5 0.5 0 0 0 34.872628 22.605356 L 52.528192 26.358162 A 0.5 0.5 0 0 0 53.121221 25.973044 L 56.874027 8.31748 A 0.5 0.5 0 0 0 56.488909 7.72445 L 38.833345 3.971644 A 0.5 0.5 0 0 0 38.240316 4.356762 L 34.48751 22.012326 Z M 53.121221 25.973044 A 0.5 0.5 0 0 0 53.506339 26.566074 L 71.161903 30.31888 A 0.5 0.5 0 0 0 71.754933 29.933762 L 75.507739 12.278198 A 0.5 0.5 0 0 0 75.122621 11.685168 L 57.467057 7.932362 A 0.5 0.5 0 0 0 56.874027 8.31748 L 53.121221 25.973044 Z M 71.754933 29.933762 A 0.5 0.5 0 0 0 72.140051 30.526792 L 89.795615 34.279598 A 0.5 0.5 0 0 0 90.388645 33.89448 L 94.141451 16.238916 A 0.5 0.5 0 0 0 93.756333 15.645886 L 76.100769 11.89308 A 0.5 0.5 0 0 0 75.507739 12.278198 L 71.754933 29.933762 Z M 90.388645 33.89448 A 0.5 0.5 0 0 0 90.773763 34.48751 L 108.429327 38.240316 A 0.5 0.5 0 0 0 109.022357 37.855198 L 112.775163 20.199633 A 0.5 0.5 0 0 0 112.390045 19.606604 L 94.734481 15.853798 A 0.5 0.5 0 0 0 94.141451 16.238916 L 90.388645 33.89448 Z M 109.022357 37.855198 A 0.5 0.5 0 0 0 109.407475 38.448227 L 127.063039 42.201033 A 0.5 0.5 0 0 0 127.656068 41.815915 L 131.408874 24.160351 A 0.5 0.5 0 0 0 131.023756 23.567322 L 113.368192 19.814516 A 0.5 0.5 0 0 0 112.775163 20.199634 L 109.022357 37.855198 Z M 127.656068 41.815916 A 0.5 0.5 0 0 0 128.041186 42.408945 L 145.696751 46.161751 A 0.5 0.5 0 0 0 146.28978 45.776633 L 150.042586 28.121069 A 0.5 0.5 0 0 0 149.657468 27.52804 L 132.001904 23.775234 A 0.5 0.5 0 0 0 131.408874 24.160352 L 127.656068 41.815916 Z M 146.28978 45.776634 A 0.5 0.5 0 0 0 146.674898 46.369663 L 164.330462 50.122469 A 0.5 0.5 0 0 0 164.923492 49.737351 L 168.676298 32.081787 A 0.5 0.5 0 0 0 168.29118 31.488757 L 150.635616 27.735951 A 0.5 0.5 0 0 0 150.042586 28.121069 L 146.28978 45.776633 Z M 164.923492 49.737351 A 0.5 0.5 0 0 0 165.30861 50.330381 L 182.964174 54.083187 A 0.5 0.5 0 0 0 183.557204 53.698069 L 187.31001 36.042505 A 0.5 0.5 0 0 0 186.924892 35.449475 L 169.269328 31.696669 A 0.5 0.5 0 0 0 168.676298 32.081787 L 164.923492 49.737351 Z M 11.89308 36.68532 A 0.5 0.5 0 0 0 12.278198 37.27835 L 29.933762 41.031156 A 0.5 0.5 0 0 0 30.526792 40.646038 L 34.279598 22.990474 A 0.5 0.5 0 0 0 33.89448 22.397444 L 16.238916 18.644638 A 0.5 0.5 0 0 0 15.645886 19.029756 L 11.89308 36.68532 Z M 30.526792 40.646038 A 0.5 0.5 0 0 0 30.91191 41.239068 L 48.567474 44.991874 A 0.5 0.5 0 0 0 49.160503 44.606756 L 52.913309 26.951192 A 0.5 0.5 0 0 0 52.528191 26.358162 L 34.872627 22.605356 A 0.5 0.5 0 0 0 34.279598 22.990474 L 30.526792 40.646038 Z M 77.111071 50.547834 A 0.5 0.5 0 0 0 77.496189 51.140863 L 95.151753 54.893669 A 0.5 0.5 0 0 0 95.744783 54.508551 L 99.497589 36.852987 A 0.5 0.5 0 0 0 99.112471 36.259958 L 81.456907 32.507152 A 0.5 0.5 0 0 0 80.863877 32.89227 L 77.111071 50.547834 Z M 95.744783 54.508552 A 0.5 0.5 0 0 0 96.129901 55.101581 L 113.785465 58.854387 A 0.5 0.5 0 0 0 114.378495 58.469269 L 118.131301 40.813705 A 0.5 0.5 0 0 0 117.746183 40.220675 L 100.090619 36.467869 A 0.5 0.5 0 0 0 99.497589 36.852987 L 95.744783 54.508552 Z M 114.378495 58.469268 A 0.5 0.5 0 0 0 114.763613 59.062297 L 132.419177 62.815103 A 0.5 0.5 0 0 0 133.012207 62.429985 L 136.765012 44.774421 A 0.5 0.5 0 0 0 136.379894 44.181391 L 118.72433 40.428585 A 0.5 0.5 0 0 0 118.131301 40.813703 L 114.378495 58.469267 Z M 133.012206 62.429985 A 0.5 0.5 0 0 0 133.397324 63.023015 L 151.052889 66.775821 A 0.5 0.5 0 0 0 151.645918 66.390703 L 155.398724 48.735139 A 0.5 0.5 0 0 0 155.013606 48.142109 L 137.358042 44.389303 A 0.5 0.5 0 0 0 136.765012 44.774421 L 133.012206 62.429985 Z M 151.645918 66.390703 A 0.5 0.5 0 0 0 152.031036 66.983733 L 169.6866 70.736539 A 0.5 0.5 0 0 0 170.27963 70.351421 L 174.032436 52.695857 A 0.5 0.5 0 0 0 173.647318 52.102827 L 155.991754 48.350021 A 0.5 0.5 0 0 0 155.398724 48.735139 L 151.645918 66.390703 Z M 68.491925 68.191365 A 0.5 0.5 0 0 0 68.877043 68.784394 L 86.532607 72.5372 A 0.5 0.5 0 0 0 87.125637 72.152082 L 90.878443 54.496518 A 0.5 0.5 0 0 0 90.493325 53.903488 L 72.837761 50.150682 A 0.5 0.5 0 0 0 72.244731 50.5358 L 68.491925 68.191365 Z M 87.125637 72.152082 A 0.5 0.5 0 0 0 87.510755 72.745112 L 105.166319 76.497918 A 0.5 0.5 0 0 0 105.759349 76.1128 L 109.512155 58.457236 A 0.5 0.5 0 0 0 109.127037 57.864206 L 91.471473 54.1114 A 0.5 0.5 0 0 0 90.878443 54.496518 L 87.125637 72.152082 Z M 105.759349 76.1128 A 0.5 0.5 0 0 0 106.144467 76.70583 L 123.800031 80.458636 A 0.5 0.5 0 0 0 124.393061 80.073518 L 128.145867 62.417954 A 0.5 0.5 0 0 0 127.760749 61.824924 L 110.105185 58.072118 A 0.5 0.5 0 0 0 109.512155 58.457236 L 105.759349 76.1128 Z M 124.393061 80.073518 A 0.5 0.5 0 0 0 124.778179 80.666548 L 142.433743 84.419354 A 0.5 0.5 0 0 0 143.026772 84.034236 L 146.779578 66.378672 A 0.5 0.5 0 0 0 146.39446 65.785642 L 128.738896 62.032836 A 0.5 0.5 0 0 0 128.145867 62.417954 L 124.393061 80.073518 Z M 143.026772 84.034236 A 0.5 0.5 0 0 0 143.41189 84.627266 L 161.067455 88.380072 A 0.5 0.5 0 0 0 161.660484 87.994954 L 165.41329 70.33939 A 0.5 0.5 0 0 0 165.028172 69.74636 L 147.372608 65.993554 A 0.5 0.5 0 0 0 146.779578 66.378672 L 143.026772 84.034236 Z M 3.971644 73.952744 A 0.5 0.5 0 0 0 4.356762 74.545773 L 22.012326 78.298579 A 0.5 0.5 0 0 0 22.605356 77.913461 L 26.358162 60.257897 A 0.5 0.5 0 0 0 25.973044 59.664868 L 8.31748 55.912062 A 0.5 0.5 0 0 0 7.72445 56.29718 L 3.971644 73.952744 Z M 55.214352 84.844718 A 0.5 0.5 0 0 0 55.59947 85.437748 L 73.255034 89.190554 A 0.5 0.5 0 0 0 73.848063 88.805436 L 77.600869 71.149872 A 0.5 0.5 0 0 0 77.215751 70.556842 L 59.560187 66.804036 A 0.5 0.5 0 0 0 58.967158 67.189154 L 55.214352 84.844718 Z M 73.848063 88.805436 A 0.5 0.5 0 0 0 74.233181 89.398466 L 91.888745 93.151272 A 0.5 0.5 0 0 0 92.481775 92.766154 L 96.234581 75.11059 A 0.5 0.5 0 0 0 95.849463 74.51756 L 78.193899 70.764754 A 0.5 0.5 0 0 0 77.600869 71.149872 L 73.848063 88.805436 Z M 92.481775 92.766154 A 0.5 0.5 0 0 0 92.866893 93.359184 L 110.522457 97.11199 A 0.5 0.5 0 0 0 111.115487 96.726872 L 114.868293 79.071308 A 0.5 0.5 0 0 0 114.483175 78.478278 L 96.827611 74.725472 A 0.5 0.5 0 0 0 96.234581 75.11059 L 92.481775 92.766154 Z M 111.115487 96.726872 A 0.5 0.5 0 0 0 111.500605 97.319902 L 129.156169 101.072708 A 0.5 0.5 0 0 0 129.749199 100.68759 L 133.502005 83.032026 A 0.5 0.5 0 0 0 133.116887 82.438996 L 115.461323 78.68619 A 0.5 0.5 0 0 0 114.868293 79.071308 L 111.115487 96.726872 Z M 129.749199 100.68759 A 0.5 0.5 0 0 0 130.134317 101.28062 L 147.789881 105.033426 A 0.5 0.5 0 0 0 148.38291 104.648308 L 152.135716 86.992743 A 0.5 0.5 0 0 0 151.750598 86.399714 L 134.095034 82.646908 A 0.5 0.5 0 0 0 133.502005 83.032026 L 129.749199 100.68759 Z M 107.154769 115.360584 A 0.5 0.5 0 0 0 107.539887 115.953613 L 125.195451 119.706419 A 0.5 0.5 0 0 0 125.788481 119.321301 L 129.541287 101.665737 A 0.5 0.5 0 0 0 129.156169 101.072708 L 111.500605 97.319902 A 0.5 0.5 0 0 0 110.907575 97.70502 L 107.154769 115.360584 Z M 163.055906 127.242736 A 0.5 0.5 0 0 0 163.441024 127.835765 L 181.096588 131.588571 A 0.5 0.5 0 0 0 181.689618 131.203453 L 185.442424 113.547889 A 0.5 0.5 0 0 0 185.057306 112.954859 L 167.401742 109.202053 A 0.5 0.5 0 0 0 166.808712 109.587171 L 163.055906 127.242735 Z M 191.274039 53.699955 A 0.5 0.5 0 0 0 191.867068 54.085073 L 209.522632 50.332267 A 0.5 0.5 0 0 0 209.90775 49.739237 L 206.154944 32.083673 A 0.5 0.5 0 0 0 205.561915 31.698555 L 187.90635 35.451361 A 0.5 0.5 0 0 0 187.521233 36.044391 L 191.274039 53.699955 Z M 209.90775 49.739237 A 0.5 0.5 0 0 0 210.50078 50.124355 L 228.156344 46.371549 A 0.5 0.5 0 0 0 228.541462 45.77852 L 224.788656 28.122955 A 0.5 0.5 0 0 0 224.195627 27.737837 L 206.540062 31.490643 A 0.5 0.5 0 0 0 206.154944 32.083673 L 209.90775 49.739237 Z M 228.541462 45.778519 A 0.5 0.5 0 0 0 229.134492 46.163637 L 246.790056 42.410831 A 0.5 0.5 0 0 0 247.175174 41.817802 L 243.422368 24.162237 A 0.5 0.5 0 0 0 242.829338 23.777119 L 225.173774 27.529925 A 0.5 0.5 0 0 0 224.788656 28.122955 L 228.541462 45.778519 Z M 247.175174 41.817801 A 0.5 0.5 0 0 0 247.768204 42.202919 L 265.423768 38.450113 A 0.5 0.5 0 0 0 265.808886 37.857084 L 262.05608 20.201519 A 0.5 0.5 0 0 0 261.46305 19.816402 L 243.807486 23.569208 A 0.5 0.5 0 0 0 243.422368 24.162237 L 247.175174 41.817801 Z M 265.808886 37.857083 A 0.5 0.5 0 0 0 266.401915 38.242201 L 284.05748 34.489395 A 0.5 0.5 0 0 0 284.442598 33.896366 L 280.689792 16.240802 A 0.5 0.5 0 0 0 280.096762 15.855684 L 262.441198 19.60849 A 0.5 0.5 0 0 0 262.05608 20.201519 L 265.808886 37.857084 Z M 284.442597 33.896366 A 0.5 0.5 0 0 0 285.035627 34.281484 L 302.691191 30.528678 A 0.5 0.5 0 0 0 303.076309 29.935648 L 299.323503 12.280084 A 0.5 0.5 0 0 0 298.730474 11.894966 L 281.074909 15.647772 A 0.5 0.5 0 0 0 280.689791 16.240801 L 284.442597 33.896366 Z M 303.076311 29.935648 A 0.5 0.5 0 0 0 303.669341 30.320766 L 321.324905 26.56796 A 0.5 0.5 0 0 0 321.710023 25.97493 L 317.957217 8.319366 A 0.5 0.5 0 0 0 317.364187 7.934248 L 299.708623 11.687054 A 0.5 0.5 0 0 0 299.323505 12.280084 L 303.076311 29.935648 Z M 204.551612 70.353307 A 0.5 0.5 0 0 0 205.144642 70.738425 L 222.800206 66.985619 A 0.5 0.5 0 0 0 223.185324 66.392589 L 219.432518 48.737025 A 0.5 0.5 0 0 0 218.839489 48.351907 L 201.183924 52.104713 A 0.5 0.5 0 0 0 200.798806 52.697743 L 204.551612 70.353307 Z M 223.185324 66.392591 A 0.5 0.5 0 0 0 223.778354 66.777709 L 241.433918 63.024903 A 0.5 0.5 0 0 0 241.819036 62.431873 L 238.06623 44.776309 A 0.5 0.5 0 0 0 237.4732 44.391191 L 219.817636 48.143997 A 0.5 0.5 0 0 0 219.432518 48.737027 L 223.185324 66.392591 Z M 241.819036 62.431873 A 0.5 0.5 0 0 0 242.412066 62.816991 L 260.06763 59.064185 A 0.5 0.5 0 0 0 260.452748 58.471155 L 256.699942 40.815591 A 0.5 0.5 0 0 0 256.106912 40.430473 L 238.451348 44.183279 A 0.5 0.5 0 0 0 238.06623 44.776309 L 241.819036 62.431873 Z M 260.452748 58.471155 A 0.5 0.5 0 0 0 261.045777 58.856273 L 278.701342 55.103467 A 0.5 0.5 0 0 0 279.08646 54.510438 L 275.333654 36.854873 A 0.5 0.5 0 0 0 274.740624 36.469755 L 257.08506 40.222561 A 0.5 0.5 0 0 0 256.699942 40.815591 L 260.452748 58.471155 Z M 279.086459 54.510437 A 0.5 0.5 0 0 0 279.679489 54.895555 L 297.335053 51.142749 A 0.5 0.5 0 0 0 297.720171 50.54972 L 293.967365 32.894155 A 0.5 0.5 0 0 0 293.374336 32.509037 L 275.718771 36.261843 A 0.5 0.5 0 0 0 275.333653 36.854873 L 279.086459 54.510437 Z M 297.720171 50.549719 A 0.5 0.5 0 0 0 298.313201 50.934837 L 315.968765 47.182031 A 0.5 0.5 0 0 0 316.353883 46.589002 L 312.601077 28.933437 A 0.5 0.5 0 0 0 312.008047 28.54832 L 294.352483 32.301126 A 0.5 0.5 0 0 0 293.967365 32.894155 L 297.720171 50.549719 Z M 316.353883 46.589002 A 0.5 0.5 0 0 0 316.946913 46.97412 L 334.602477 43.221314 A 0.5 0.5 0 0 0 334.987595 42.628284 L 331.234789 24.97272 A 0.5 0.5 0 0 0 330.641759 24.587602 L 312.986195 28.340408 A 0.5 0.5 0 0 0 312.601077 28.933437 L 316.353883 46.589002 Z M 213.170758 87.99684 A 0.5 0.5 0 0 0 213.763788 88.381958 L 231.419352 84.629152 A 0.5 0.5 0 0 0 231.80447 84.036122 L 228.051664 66.380558 A 0.5 0.5 0 0 0 227.458634 65.99544 L 209.80307 69.748246 A 0.5 0.5 0 0 0 209.417952 70.341276 L 213.170758 87.99684 Z M 231.80447 84.036122 A 0.5 0.5 0 0 0 232.3975 84.42124 L 250.053064 80.668434 A 0.5 0.5 0 0 0 250.438182 80.075404 L 246.685376 62.41984 A 0.5 0.5 0 0 0 246.092346 62.034722 L 228.436782 65.787528 A 0.5 0.5 0 0 0 228.051664 66.380558 L 231.80447 84.036122 Z M 250.438182 80.075404 A 0.5 0.5 0 0 0 251.031211 80.460522 L 268.686776 76.707716 A 0.5 0.5 0 0 0 269.071894 76.114686 L 265.319088 58.459122 A 0.5 0.5 0 0 0 264.726058 58.074004 L 247.070494 61.82681 A 0.5 0.5 0 0 0 246.685376 62.41984 L 250.438182 80.075404 Z M 269.071894 76.114686 A 0.5 0.5 0 0 0 269.664923 76.499804 L 287.320487 72.746998 A 0.5 0.5 0 0 0 287.705605 72.153968 L 283.952799 54.498404 A 0.5 0.5 0 0 0 283.35977 54.113286 L 265.704205 57.866092 A 0.5 0.5 0 0 0 265.319088 58.459122 L 269.071894 76.114686 Z M 287.705605 72.15397 A 0.5 0.5 0 0 0 288.298635 72.539088 L 305.954199 68.786282 A 0.5 0.5 0 0 0 306.339317 68.193252 L 302.586511 50.537688 A 0.5 0.5 0 0 0 301.993482 50.15257 L 284.337917 53.905376 A 0.5 0.5 0 0 0 283.952799 54.498406 L 287.705605 72.15397 Z M 306.339317 68.193252 A 0.5 0.5 0 0 0 306.932347 68.57837 L 324.587911 64.825564 A 0.5 0.5 0 0 0 324.973029 64.232535 L 321.220223 46.57697 A 0.5 0.5 0 0 0 320.627193 46.191852 L 302.971629 49.944658 A 0.5 0.5 0 0 0 302.586511 50.537688 L 306.339317 68.193252 Z M 226.448332 104.650193 A 0.5 0.5 0 0 0 227.041362 105.035311 L 244.696926 101.282505 A 0.5 0.5 0 0 0 245.082044 100.689476 L 241.329238 83.033912 A 0.5 0.5 0 0 0 240.736208 82.648794 L 223.080644 86.4016 A 0.5 0.5 0 0 0 222.695526 86.994629 L 226.448332 104.650194 Z M 245.082044 100.689476 A 0.5 0.5 0 0 0 245.675073 101.074594 L 263.330638 97.321788 A 0.5 0.5 0 0 0 263.715756 96.728758 L 259.96295 79.073194 A 0.5 0.5 0 0 0 259.36992 78.688076 L 241.714356 82.440882 A 0.5 0.5 0 0 0 241.329238 83.033911 L 245.082044 100.689476 Z M 263.715756 96.728758 A 0.5 0.5 0 0 0 264.308785 97.113876 L 281.964349 93.36107 A 0.5 0.5 0 0 0 282.349467 92.76804 L 278.596661 75.112476 A 0.5 0.5 0 0 0 278.003632 74.727358 L 260.348067 78.480164 A 0.5 0.5 0 0 0 259.96295 79.073194 L 263.715756 96.728758 Z M 282.349467 92.76804 A 0.5 0.5 0 0 0 282.942497 93.153158 L 300.598061 89.400352 A 0.5 0.5 0 0 0 300.983179 88.807322 L 297.230373 71.151758 A 0.5 0.5 0 0 0 296.637344 70.76664 L 278.981779 74.519446 A 0.5 0.5 0 0 0 278.596661 75.112476 L 282.349467 92.76804 Z M 300.983179 88.807322 A 0.5 0.5 0 0 0 301.576209 89.19244 L 319.231773 85.439634 A 0.5 0.5 0 0 0 319.616891 84.846604 L 315.864085 67.19104 A 0.5 0.5 0 0 0 315.271055 66.805922 L 297.615491 70.558728 A 0.5 0.5 0 0 0 297.230373 71.151758 L 300.983179 88.807322 Z M 193.141626 131.205341 A 0.5 0.5 0 0 0 193.734656 131.590459 L 211.39022 127.837653 A 0.5 0.5 0 0 0 211.775338 127.244623 L 208.022532 109.589059 A 0.5 0.5 0 0 0 207.429502 109.203941 L 189.773938 112.956747 A 0.5 0.5 0 0 0 189.38882 113.549777 L 193.141626 131.205341 Z M 249.042762 119.323187 A 0.5 0.5 0 0 0 249.635791 119.708305 L 267.291356 115.955499 A 0.5 0.5 0 0 0 267.676473 115.36247 L 263.923667 97.706905 A 0.5 0.5 0 0 0 263.330638 97.321788 L 245.675074 101.074594 A 0.5 0.5 0 0 0 245.289956 101.667623 L 249.042762 119.323187 Z M 300.285469 108.431213 A 0.5 0.5 0 0 0 300.878499 108.816331 L 318.534063 105.063525 A 0.5 0.5 0 0 0 318.919181 104.470495 L 315.166375 86.814931 A 0.5 0.5 0 0 0 314.573345 86.429813 L 296.917781 90.182619 A 0.5 0.5 0 0 0 296.532663 90.775649 L 300.285469 108.431213 Z M 318.919181 104.470495 A 0.5 0.5 0 0 0 319.51221 104.855613 L 337.167775 101.102807 A 0.5 0.5 0 0 0 337.552893 100.509777 L 333.800087 82.854213 A 0.5 0.5 0 0 0 333.207057 82.469095 L 315.551493 86.221901 A 0.5 0.5 0 0 0 315.166375 86.814931 L 318.919181 104.470495 Z M 337.552893 100.509779 A 0.5 0.5 0 0 0 338.145922 100.894897 L 355.801486 97.142091 A 0.5 0.5 0 0 0 356.186604 96.549061 L 352.433798 78.893497 A 0.5 0.5 0 0 0 351.840769 78.508379 L 334.185204 82.261185 A 0.5 0.5 0 0 0 333.800087 82.854215 L 337.552893 100.509779 Z M 356.186604 96.549061 A 0.5 0.5 0 0 0 356.779634 96.934179 L 374.435198 93.181373 A 0.5 0.5 0 0 0 374.820316 92.588343 L 371.06751 74.932779 A 0.5 0.5 0 0 0 370.474481 74.547661 L 352.818916 78.300467 A 0.5 0.5 0 0 0 352.433798 78.893497 L 356.186604 96.549061 Z" vector-effect="non-scaling-stroke"/></g></svg>