<?xml version="1.0" encoding="UTF-8" standalone="no"?>
<svg
   xmlns:dc="http://purl.org/dc/elements/1.1/"
   xmlns:cc="http://creativecommons.org/ns#"
   xmlns:rdf="http://www.w3.org/1999/02/22-rdf-syntax-ns#"
   xmlns:svg="http://www.w3.org/2000/svg"
   xmlns="http://www.w3.org/2000/svg"
   xmlns:sodipodi="http://sodipodi.sourceforge.net/DTD/sodipodi-0.dtd"
   xmlns:inkscape="http://www.inkscape.org/namespaces/inkscape"
   width="200mm"
   height="150mm"
   viewBox="0 0 199.99999 150"
   version="1.1"
   id="svg5"
   sodipodi:docname="vInspiration-right-5mm.svg"
   inkscape:version="1.0.1 (3bc2e813f5, 2020-09-07)">
  <metadata
     id="metadata11">
    <rdf:RDF>
      <cc:Work
         rdf:about="">
        <dc:format>image/svg+xml</dc:format>
        <dc:type
           rdf:resource="http://purl.org/dc/dcmitype/StillImage" />
        <dc:title />
      </cc:Work>
    </rdf:RDF>
  </metadata>
  <defs
     id="defs9" />
  <sodipodi:namedview
     pagecolor="#ffffff"
     bordercolor="#666666"
     borderopacity="1"
     objecttolerance="10"
     gridtolerance="10"
     guidetolerance="10"
     inkscape:pageopacity="0"
     inkscape:pageshadow="2"
     inkscape:window-width="2560"
     inkscape:window-height="1361"
     id="namedview7"
     showgrid="false"
     inkscape:document-units="mm"
     inkscape:zoom="2.047875"
     inkscape:cx="377.95276"
     inkscape:cy="283.46457"
     inkscape:window-x="-9"
     inkscape:window-y="41"
     inkscape:window-maximized="1"
     inkscape:current-layer="g1241"
     inkscape:snap-object-midpoints="true"
     inkscape:snap-nodes="true"
     inkscape:snap-intersection-paths="true"
     inkscape:object-paths="true"
     inkscape:snap-smooth-nodes="true"
     showguides="true"
     inkscape:guide-bbox="true"
     inkscape:document-rotation="0" />
  <g
     inkscape:groupmode="layer"
     id="g1241"
     inkscape:label="switches_3mm_grouped"
     style="display:none">
    <path
       id="path1239"
       style="font-size:12px;display:inline;fill:none;fill-rule:evenodd;stroke:#000000;stroke-width:0.2;stroke-linecap:round;stroke-miterlimit:4;stroke-dasharray:none"
       d="m 24.525442,31.250442 a 0.50000002,0.50000002 0 0 0 0.499999,0.5 h 13.000001 a 0.50000002,0.50000002 0 0 0 0.5,-0.5 V 18.250441 a 0.50000002,0.50000002 0 0 0 -0.5,-0.5 H 25.025441 a 0.50000002,0.50000002 0 0 0 -0.499999,0.5 z m 19.05,0 a 0.50000002,0.50000002 0 0 0 0.5,0.5 h 13.000001 a 0.50000002,0.50000002 0 0 0 0.5,-0.5 V 18.250441 a 0.50000002,0.50000002 0 0 0 -0.5,-0.5 H 44.075442 a 0.50000002,0.50000002 0 0 0 -0.5,0.5 z m 19.050001,0 a 0.50000002,0.50000002 0 0 0 0.5,0.5 h 13.000001 a 0.50000002,0.50000002 0 0 0 0.5,-0.5 V 18.250441 a 0.50000002,0.50000002 0 0 0 -0.5,-0.5 H 63.125443 a 0.50000002,0.50000002 0 0 0 -0.5,0.5 z m 19.050001,0 a 0.50000002,0.50000002 0 0 0 0.5,0.5 h 13 a 0.50000002,0.50000002 0 0 0 0.5,-0.5 V 18.250441 a 0.50000002,0.50000002 0 0 0 -0.5,-0.5 h -13 a 0.50000002,0.50000002 0 0 0 -0.5,0.5 z m 19.049996,0 a 0.50000002,0.50000002 0 0 0 0.5,0.5 h 13 a 0.50000002,0.50000002 0 0 0 0.5,-0.5 V 18.250441 a 0.50000002,0.50000002 0 0 0 -0.5,-0.5 h -13 a 0.50000002,0.50000002 0 0 0 -0.5,0.5 z m 19.05,0 a 0.50000002,0.50000002 0 0 0 0.5,0.5 h 13 a 0.50000002,0.50000002 0 0 0 0.50001,-0.5 V 18.250441 a 0.50000002,0.50000002 0 0 0 -0.50001,-0.5 h -13 a 0.50000002,0.50000002 0 0 0 -0.5,0.5 z m 28.57502,0 a 0.50000002,0.50000002 0 0 0 0.5,0.5 h 13 a 0.50000002,0.50000002 0 0 0 0.5,-0.5 V 18.250441 a 0.50000002,0.50000002 0 0 0 -0.5,-0.5 h -13 a 0.50000002,0.50000002 0 0 0 -0.5,0.5 z m -133.350019,19.05 a 0.50000002,0.50000002 0 0 0 0.5,0.5 h 13.000001 a 0.50000002,0.50000002 0 0 0 0.5,-0.5 v -13 a 0.50000002,0.50000002 0 0 0 -0.5,-0.5 H 15.500441 a 0.50000002,0.50000002 0 0 0 -0.5,0.5 z m 19.050001,0 a 0.50000002,0.50000002 0 0 0 0.5,0.5 h 13 a 0.50000002,0.50000002 0 0 0 0.5,-0.5 v -13 a 0.50000002,0.50000002 0 0 0 -0.5,-0.5 h -13 a 0.50000002,0.50000002 0 0 0 -0.5,0.5 z m 19.050001,0 a 0.50000002,0.50000002 0 0 0 0.5,0.5 h 13 a 0.50000002,0.50000002 0 0 0 0.5,-0.5 v -13 a 0.50000002,0.50000002 0 0 0 -0.5,-0.5 h -13 a 0.50000002,0.50000002 0 0 0 -0.5,0.5 z m 19.05,0 a 0.50000002,0.50000002 0 0 0 0.5,0.5 h 13.000001 a 0.50000002,0.50000002 0 0 0 0.5,-0.5 v -13 a 0.50000002,0.50000002 0 0 0 -0.5,-0.5 H 72.650443 a 0.50000002,0.50000002 0 0 0 -0.5,0.5 z m 19.050001,0 a 0.50000002,0.50000002 0 0 0 0.5,0.5 h 12.999996 a 0.50000002,0.50000002 0 0 0 0.5,-0.5 v -13 a 0.50000002,0.50000002 0 0 0 -0.5,-0.5 H 91.700444 a 0.50000002,0.50000002 0 0 0 -0.5,0.5 z m 19.049996,0 a 0.50000002,0.50000002 0 0 0 0.5,0.5 h 13 a 0.50000002,0.50000002 0 0 0 0.5,-0.5 v -13 a 0.50000002,0.50000002 0 0 0 -0.5,-0.5 h -13 a 0.50000002,0.50000002 0 0 0 -0.5,0.5 z m 19.05,0 a 0.50000002,0.50000002 0 0 0 0.5,0.5 h 13.00002 a 0.50000002,0.50000002 0 0 0 0.5,-0.5 v -13 a 0.50000002,0.50000002 0 0 0 -0.5,-0.5 h -13.00002 a 0.50000002,0.50000002 0 0 0 -0.5,0.5 z m 23.81252,0 a 0.50000002,0.50000002 0 0 0 0.5,0.5 h 13 a 0.50000002,0.50000002 0 0 0 0.5,-0.5 v -13 a 0.50000002,0.50000002 0 0 0 -0.5,-0.5 h -13 a 0.50000002,0.50000002 0 0 0 -0.5,0.5 z M 19.762942,69.350443 a 0.50000002,0.50000002 0 0 0 0.5,0.5 h 13 a 0.50000002,0.50000002 0 0 0 0.5,-0.5 v -13 a 0.50000002,0.50000002 0 0 0 -0.5,-0.5 h -13 a 0.50000002,0.50000002 0 0 0 -0.5,0.5 z m 19.05,0 a 0.50000002,0.50000002 0 0 0 0.5,0.5 h 13.000001 a 0.50000002,0.50000002 0 0 0 0.5,-0.5 v -13 a 0.50000002,0.50000002 0 0 0 -0.5,-0.5 H 39.312942 a 0.50000002,0.50000002 0 0 0 -0.5,0.5 z m 19.050001,0 a 0.50000002,0.50000002 0 0 0 0.5,0.5 h 13 a 0.50000002,0.50000002 0 0 0 0.5,-0.5 v -13 a 0.50000002,0.50000002 0 0 0 -0.5,-0.5 h -13 a 0.50000002,0.50000002 0 0 0 -0.5,0.5 z m 19.050001,0 a 0.50000002,0.50000002 0 0 0 0.5,0.5 h 13 a 0.50000002,0.50000002 0 0 0 0.5,-0.5 v -13 a 0.50000002,0.50000002 0 0 0 -0.5,-0.5 h -13 a 0.50000002,0.50000002 0 0 0 -0.5,0.5 z m 19.05,0 a 0.50000002,0.50000002 0 0 0 0.5,0.5 h 12.999996 a 0.50000002,0.50000002 0 0 0 0.5,-0.5 v -13 a 0.50000002,0.50000002 0 0 0 -0.5,-0.5 H 96.462944 a 0.50000002,0.50000002 0 0 0 -0.5,0.5 z m 19.049996,0 a 0.50000002,0.50000002 0 0 0 0.5,0.5 h 13 a 0.50000002,0.50000002 0 0 0 0.5,-0.5 v -13 a 0.50000002,0.50000002 0 0 0 -0.5,-0.5 h -13 a 0.50000002,0.50000002 0 0 0 -0.5,0.5 z m 30.95627,0 a 0.50000002,0.50000002 0 0 0 0.5,0.5 h 13 a 0.50000002,0.50000002 0 0 0 0.5,-0.5 v -13 a 0.50000002,0.50000002 0 0 0 -0.5,-0.5 h -13 a 0.50000002,0.50000002 0 0 0 -0.5,0.5 z M 29.287942,88.400444 a 0.50000002,0.50000002 0 0 0 0.5,0.5 h 13 a 0.50000002,0.50000002 0 0 0 0.5,-0.5 V 75.400443 a 0.50000002,0.50000002 0 0 0 -0.5,-0.5 h -13 a 0.50000002,0.50000002 0 0 0 -0.5,0.5 z m 19.05,0 a 0.50000002,0.50000002 0 0 0 0.5,0.5 h 13.000001 a 0.50000002,0.50000002 0 0 0 0.5,-0.5 V 75.400443 a 0.50000002,0.50000002 0 0 0 -0.5,-0.5 H 48.837942 a 0.50000002,0.50000002 0 0 0 -0.5,0.5 z m 19.050001,0 a 0.50000002,0.50000002 0 0 0 0.5,0.5 h 13.000001 a 0.50000002,0.50000002 0 0 0 0.5,-0.5 V 75.400443 a 0.50000002,0.50000002 0 0 0 -0.5,-0.5 H 67.887943 a 0.50000002,0.50000002 0 0 0 -0.5,0.5 z m 19.050001,0 a 0.50000002,0.50000002 0 0 0 0.5,0.5 h 13.000001 a 0.50000002,0.50000002 0 0 0 0.499995,-0.5 V 75.400443 a 0.50000002,0.50000002 0 0 0 -0.499995,-0.5 H 86.937944 a 0.50000002,0.50000002 0 0 0 -0.5,0.5 z m 19.049996,0 a 0.50000002,0.50000002 0 0 0 0.5,0.5 h 13 a 0.50000002,0.50000002 0 0 0 0.5,-0.5 V 75.400443 a 0.50000002,0.50000002 0 0 0 -0.5,-0.5 h -13 a 0.50000002,0.50000002 0 0 0 -0.5,0.5 z m 35.71877,0 a 0.50000002,0.50000002 0 0 0 0.5,0.5 h 13 a 0.50000002,0.50000002 0 0 0 0.5,-0.5 V 75.400443 a 0.50000002,0.50000002 0 0 0 -0.5,-0.5 h -13 a 0.50000002,0.50000002 0 0 0 -0.5,0.5 z M 38.812942,107.45044 a 0.50000002,0.50000002 0 0 0 0.5,0.5 h 13.000001 a 0.50000002,0.50000002 0 0 0 0.5,-0.5 V 94.450444 a 0.50000002,0.50000002 0 0 0 -0.5,-0.5 H 39.312942 a 0.50000002,0.50000002 0 0 0 -0.5,0.5 z m 30.956251,0 a 0.50000002,0.50000002 0 0 0 0.5,0.5 h 13.000001 a 0.50000002,0.50000002 0 0 0 0.5,-0.5 V 94.450444 a 0.50000002,0.50000002 0 0 0 -0.5,-0.5 H 70.269193 a 0.50000002,0.50000002 0 0 0 -0.5,0.5 z m 30.956247,0 a 0.50000002,0.50000002 0 0 0 0.5,0.5 h 13 a 0.50000002,0.50000002 0 0 0 0.5,-0.5 V 94.450444 a 0.50000002,0.50000002 0 0 0 -0.5,-0.5 h -13 a 0.50000002,0.50000002 0 0 0 -0.5,0.5 z m 19.05,0 a 0.50000002,0.50000002 0 0 0 0.5,0.5 h 13 a 0.50000002,0.50000002 0 0 0 0.50001,-0.5 V 94.450444 a 0.50000002,0.50000002 0 0 0 -0.50001,-0.5 h -13 a 0.50000002,0.50000002 0 0 0 -0.5,0.5 z m 19.05002,0 a 0.50000002,0.50000002 0 0 0 0.5,0.5 h 13 a 0.50000002,0.50000002 0 0 0 0.5,-0.5 V 94.450444 a 0.50000002,0.50000002 0 0 0 -0.5,-0.5 h -13 a 0.50000002,0.50000002 0 0 0 -0.5,0.5 z m 19.05,0 a 0.50000002,0.50000002 0 0 0 0.5,0.5 h 13 a 0.50000002,0.50000002 0 0 0 0.5,-0.5 V 94.450444 a 0.50000002,0.50000002 0 0 0 -0.5,-0.5 h -13 a 0.50000002,0.50000002 0 0 0 -0.5,0.5 z m -17.963,-74.199998 a 0.50000002,0.50000002 0 0 0 0.5,0.5 h 6 a 0.50000002,0.50000002 0 0 0 0.5,-0.5 V 18.250441 a 0.50000002,0.50000002 0 0 0 -0.5,-0.5 h -6 a 0.50000002,0.50000002 0 0 0 -0.5,0.5 z m 23.876,0 a 0.50000002,0.50000002 0 0 0 0.5,0.5 h 6 a 0.50000002,0.50000002 0 0 0 0.5,-0.5 V 18.250441 a 0.50000002,0.50000002 0 0 0 -0.5,-0.5 h -6 a 0.50000002,0.50000002 0 0 0 -0.5,0.5 z M 137.5312,71.350443 a 0.50000002,0.50000002 0 0 0 0.5,0.5 h 6.00001 a 0.50000002,0.50000002 0 0 0 0.5,-0.5 v -15 a 0.50000002,0.50000002 0 0 0 -0.5,-0.5 h -6.00001 a 0.50000002,0.50000002 0 0 0 -0.5,0.5 z m 23.87601,0 a 0.50000002,0.50000002 0 0 0 0.5,0.5 h 6 a 0.50000002,0.50000002 0 0 0 0.5,-0.5 v -15 a 0.50000002,0.50000002 0 0 0 -0.5,-0.5 h -6 a 0.50000002,0.50000002 0 0 0 -0.5,0.5 z m -28.63852,19.050001 a 0.50000002,0.50000002 0 0 0 0.5,0.5 h 6.00002 a 0.50000002,0.50000002 0 0 0 0.5,-0.5 V 75.400443 a 0.50000002,0.50000002 0 0 0 -0.5,-0.5 h -6.00002 a 0.50000002,0.50000002 0 0 0 -0.5,0.5 z m 23.87602,0 a 0.50000002,0.50000002 0 0 0 0.5,0.5 h 6 a 0.50000002,0.50000002 0 0 0 0.5,-0.5 V 75.400443 a 0.50000002,0.50000002 0 0 0 -0.5,-0.5 h -6 a 0.50000002,0.50000002 0 0 0 -0.5,0.5 z M 30.374942,109.45044 a 0.50000002,0.50000002 0 0 0 0.5,0.5 h 6 a 0.50000002,0.50000002 0 0 0 0.5,-0.5 V 94.450444 a 0.50000002,0.50000002 0 0 0 -0.5,-0.5 h -6 a 0.50000002,0.50000002 0 0 0 -0.5,0.5 z m 23.876001,0 a 0.50000002,0.50000002 0 0 0 0.5,0.5 h 6 a 0.50000002,0.50000002 0 0 0 0.5,-0.5 V 94.450444 a 0.50000002,0.50000002 0 0 0 -0.5,-0.5 h -6 a 0.50000002,0.50000002 0 0 0 -0.5,0.5 z M 136.10045,31.250442 a 0.50000002,0.50000002 0 0 0 0.5,0.5 h 1 a 0.50000002,0.50000002 0 0 0 0.5,-0.5 V 18.250441 a 0.50000002,0.50000002 0 0 0 -0.5,-0.5 h -1 a 0.50000002,0.50000002 0 0 0 -0.5,0.5 z m 36.50001,0 a 0.50000002,0.50000002 0 0 0 0.5,0.5 h 1 a 0.50000002,0.50000002 0 0 0 0.5,-0.5 V 18.250441 a 0.50000002,0.50000002 0 0 0 -0.5,-0.5 h -1 a 0.50000002,0.50000002 0 0 0 -0.5,0.5 z m -25.0875,19.05 a 0.50000002,0.50000002 0 0 0 0.5,0.5 h 1 a 0.50000002,0.50000002 0 0 0 0.5,-0.5 v -13 a 0.50000002,0.50000002 0 0 0 -0.5,-0.5 h -1 a 0.50000002,0.50000002 0 0 0 -0.5,0.5 z m 23.2,0 a 0.50000002,0.50000002 0 0 0 0.5,0.5 h 1 a 0.50000002,0.50000002 0 0 0 0.5,-0.5 v -13 a 0.50000002,0.50000002 0 0 0 -0.5,-0.5 h -1 a 0.50000002,0.50000002 0 0 0 -0.5,0.5 z M 26.763,107.45044 c 0,0.27614 0.223858,0.5 0.500001,0.5 h 0.799941 c 0.276142,0 0.5,-0.22386 0.5,-0.5 V 94.450444 c 0,-0.276142 -0.223858,-0.5 -0.5,-0.5 H 27.263 c -0.276142,0 -0.500001,0.223857 -0.500001,0.5 z m 36.299943,0 a 0.50000002,0.50000002 0 0 0 0.5,0.5 h 1 a 0.50000002,0.50000002 0 0 0 0.5,-0.5 V 94.450444 a 0.50000002,0.50000002 0 0 0 -0.5,-0.5 h -1 a 0.50000002,0.50000002 0 0 0 -0.5,0.5 z" />
  </g>
  <g
     id="svgGroup"
     stroke-linecap="round"
     fill-rule="evenodd"
     font-size="12px"
     stroke="#000"
     stroke-width="0.25mm"
     fill="none"
     style="display:none;fill:none;stroke:#000000;stroke-width:0.2;stroke-miterlimit:4;stroke-dasharray:none"
     inkscape:label="switches_5mm_grouped"
     transform="translate(15.000441,15.000441)">
    <path
       id="path2"
       d="m 133.35,16.25 a 0.5,0.5 0 0 0 0.1,0.3 h -1.538 V 0.5 a 0.5,0.5 0 0 0 -0.5,-0.5 h -6 a 0.5,0.5 0 0 0 -0.5,0.5 v 19.15 a 0.5,0.5 0 0 0 0.5,0.5 h 3.5 2.5 17.876 2.5 3.5 a 0.5,0.5 0 0 0 0.5,-0.5 V 0.5 a 0.5,0.5 0 0 0 -0.5,-0.5 h -6 a 0.5,0.5 0 0 0 -0.5,0.5 v 16.05 h -1.538 a 0.5,0.5 0 0 0 0.1,-0.3 v -13 a 0.5,0.5 0 0 0 -0.5,-0.5 h -13 a 0.5,0.5 0 0 0 -0.5,0.5 z m -2.38125,38.1 a 0.5,0.5 0 0 0 0.1,0.3 h -1.538 V 38.6 a 0.5,0.5 0 0 0 -0.5,-0.5 h -6 a 0.5,0.5 0 0 0 -0.5,0.5 v 19.15 a 0.5,0.5 0 0 0 0.5,0.5 h 3.5 2.5 17.876 2.5 3.5 a 0.5,0.5 0 0 0 0.5,-0.5 V 38.6 a 0.5,0.5 0 0 0 -0.5,-0.5 h -6 a 0.5,0.5 0 0 0 -0.5,0.5 v 16.05 h -1.538 a 0.5,0.5 0 0 0 0.1,-0.3 v -13 a 0.5,0.5 0 0 0 -0.5,-0.5 h -13 a 0.5,0.5 0 0 0 -0.5,0.5 z m -4.7625,19.05 a 0.5,0.5 0 0 0 0.1,0.3 h -1.538 V 57.65 a 0.5,0.5 0 0 0 -0.5,-0.5 h -6 a 0.5,0.5 0 0 0 -0.5,0.5 V 76.8 a 0.5,0.5 0 0 0 0.5,0.5 h 3.5 2.5 17.876 2.5 3.5 a 0.5,0.5 0 0 0 0.5,-0.5 V 57.65 a 0.5,0.5 0 0 0 -0.5,-0.5 h -6 a 0.5,0.5 0 0 0 -0.5,0.5 V 73.7 h -1.538 a 0.5,0.5 0 0 0 0.1,-0.3 v -13 a 0.5,0.5 0 0 0 -0.5,-0.5 h -13 a 0.5,0.5 0 0 0 -0.5,0.5 z M 23.8125,92.45 a 0.5,0.5 0 0 0 0.1,0.3 h -1.538 V 76.7 a 0.5,0.5 0 0 0 -0.5,-0.5 h -6 a 0.5,0.5 0 0 0 -0.5,0.5 v 19.15 a 0.5,0.5 0 0 0 0.5,0.5 h 3.5 2.5 17.876 2.5 3.5 a 0.5,0.5 0 0 0 0.5,-0.5 V 76.7 a 0.5,0.5 0 0 0 -0.5,-0.5 h -6 a 0.5,0.5 0 0 0 -0.5,0.5 v 16.05 h -1.538 a 0.5,0.5 0 0 0 0.1,-0.3 v -13 a 0.5,0.5 0 0 0 -0.5,-0.5 h -13 a 0.5,0.5 0 0 0 -0.5,0.5 z M 9.525,16.25 a 0.5,0.5 0 0 0 0.5,0.5 h 13 a 0.5,0.5 0 0 0 0.5,-0.5 v -13 a 0.5,0.5 0 0 0 -0.5,-0.5 h -13 a 0.5,0.5 0 0 0 -0.5,0.5 z m 19.05,0 a 0.5,0.5 0 0 0 0.5,0.5 h 13 a 0.5,0.5 0 0 0 0.5,-0.5 v -13 a 0.5,0.5 0 0 0 -0.5,-0.5 h -13 a 0.5,0.5 0 0 0 -0.5,0.5 z m 19.05,0 a 0.5,0.5 0 0 0 0.5,0.5 h 13 a 0.5,0.5 0 0 0 0.5,-0.5 v -13 a 0.5,0.5 0 0 0 -0.5,-0.5 h -13 a 0.5,0.5 0 0 0 -0.5,0.5 z m 19.05,0 a 0.5,0.5 0 0 0 0.5,0.5 h 13 a 0.5,0.5 0 0 0 0.5,-0.5 v -13 a 0.5,0.5 0 0 0 -0.5,-0.5 h -13 a 0.5,0.5 0 0 0 -0.5,0.5 z m 19.05,0 a 0.5,0.5 0 0 0 0.5,0.5 h 13 a 0.5,0.5 0 0 0 0.5,-0.5 v -13 a 0.5,0.5 0 0 0 -0.5,-0.5 h -13 a 0.5,0.5 0 0 0 -0.5,0.5 z m 19.05,0 a 0.5,0.5 0 0 0 0.5,0.5 h 13 a 0.5,0.5 0 0 0 0.5,-0.5 v -13 a 0.5,0.5 0 0 0 -0.5,-0.5 h -13 a 0.5,0.5 0 0 0 -0.5,0.5 z M 0,35.3 a 0.5,0.5 0 0 0 0.5,0.5 h 13 A 0.5,0.5 0 0 0 14,35.3 v -13 A 0.5,0.5 0 0 0 13.5,21.8 H 0.5 A 0.5,0.5 0 0 0 0,22.3 Z m 19.05,0 a 0.5,0.5 0 0 0 0.5,0.5 h 13 a 0.5,0.5 0 0 0 0.5,-0.5 v -13 a 0.5,0.5 0 0 0 -0.5,-0.5 h -13 a 0.5,0.5 0 0 0 -0.5,0.5 z m 19.05,0 a 0.5,0.5 0 0 0 0.5,0.5 h 13 a 0.5,0.5 0 0 0 0.5,-0.5 v -13 a 0.5,0.5 0 0 0 -0.5,-0.5 h -13 a 0.5,0.5 0 0 0 -0.5,0.5 z m 19.05,0 a 0.5,0.5 0 0 0 0.5,0.5 h 13 a 0.5,0.5 0 0 0 0.5,-0.5 v -13 a 0.5,0.5 0 0 0 -0.5,-0.5 h -13 a 0.5,0.5 0 0 0 -0.5,0.5 z m 19.05,0 a 0.5,0.5 0 0 0 0.5,0.5 h 13 a 0.5,0.5 0 0 0 0.5,-0.5 v -13 a 0.5,0.5 0 0 0 -0.5,-0.5 h -13 a 0.5,0.5 0 0 0 -0.5,0.5 z m 19.05,0 a 0.5,0.5 0 0 0 0.5,0.5 h 13 a 0.5,0.5 0 0 0 0.5,-0.5 v -13 a 0.5,0.5 0 0 0 -0.5,-0.5 h -13 a 0.5,0.5 0 0 0 -0.5,0.5 z m 19.05,0 a 0.5,0.5 0 0 0 0.5,0.5 h 13 a 0.5,0.5 0 0 0 0.5,-0.5 v -13 a 0.5,0.5 0 0 0 -0.5,-0.5 h -13 a 0.5,0.5 0 0 0 -0.5,0.5 z m 23.8125,0 a 0.5,0.5 0 0 0 0.5,0.5 h 13 a 0.5,0.5 0 0 0 0.5,-0.5 v -13 a 0.5,0.5 0 0 0 -0.5,-0.5 h -13 a 0.5,0.5 0 0 0 -0.5,0.5 z M 4.7625,54.35 a 0.5,0.5 0 0 0 0.5,0.5 h 13 a 0.5,0.5 0 0 0 0.5,-0.5 v -13 a 0.5,0.5 0 0 0 -0.5,-0.5 h -13 a 0.5,0.5 0 0 0 -0.5,0.5 z m 19.05,0 a 0.5,0.5 0 0 0 0.5,0.5 h 13 a 0.5,0.5 0 0 0 0.5,-0.5 v -13 a 0.5,0.5 0 0 0 -0.5,-0.5 h -13 a 0.5,0.5 0 0 0 -0.5,0.5 z m 19.05,0 a 0.5,0.5 0 0 0 0.5,0.5 h 13 a 0.5,0.5 0 0 0 0.5,-0.5 v -13 a 0.5,0.5 0 0 0 -0.5,-0.5 h -13 a 0.5,0.5 0 0 0 -0.5,0.5 z m 19.05,0 a 0.5,0.5 0 0 0 0.5,0.5 h 13 a 0.5,0.5 0 0 0 0.5,-0.5 v -13 a 0.5,0.5 0 0 0 -0.5,-0.5 h -13 a 0.5,0.5 0 0 0 -0.5,0.5 z m 19.05,0 a 0.5,0.5 0 0 0 0.5,0.5 h 13 a 0.5,0.5 0 0 0 0.5,-0.5 v -13 a 0.5,0.5 0 0 0 -0.5,-0.5 h -13 a 0.5,0.5 0 0 0 -0.5,0.5 z m 19.05,0 a 0.5,0.5 0 0 0 0.5,0.5 h 13 a 0.5,0.5 0 0 0 0.5,-0.5 v -13 a 0.5,0.5 0 0 0 -0.5,-0.5 h -13 a 0.5,0.5 0 0 0 -0.5,0.5 z M 14.2875,73.4 a 0.5,0.5 0 0 0 0.5,0.5 h 13 a 0.5,0.5 0 0 0 0.5,-0.5 v -13 a 0.5,0.5 0 0 0 -0.5,-0.5 h -13 a 0.5,0.5 0 0 0 -0.5,0.5 z m 19.05,0 a 0.5,0.5 0 0 0 0.5,0.5 h 13 a 0.5,0.5 0 0 0 0.5,-0.5 v -13 a 0.5,0.5 0 0 0 -0.5,-0.5 h -13 a 0.5,0.5 0 0 0 -0.5,0.5 z m 19.05,0 a 0.5,0.5 0 0 0 0.5,0.5 h 13 a 0.5,0.5 0 0 0 0.5,-0.5 v -13 a 0.5,0.5 0 0 0 -0.5,-0.5 h -13 a 0.5,0.5 0 0 0 -0.5,0.5 z m 19.05,0 a 0.5,0.5 0 0 0 0.5,0.5 h 13 a 0.5,0.5 0 0 0 0.5,-0.5 v -13 a 0.5,0.5 0 0 0 -0.5,-0.5 h -13 a 0.5,0.5 0 0 0 -0.5,0.5 z m 19.05,0 a 0.5,0.5 0 0 0 0.5,0.5 h 13 a 0.5,0.5 0 0 0 0.5,-0.5 v -13 a 0.5,0.5 0 0 0 -0.5,-0.5 h -13 a 0.5,0.5 0 0 0 -0.5,0.5 z M 54.76875,92.45 a 0.5,0.5 0 0 0 0.5,0.5 h 13 a 0.5,0.5 0 0 0 0.5,-0.5 v -13 a 0.5,0.5 0 0 0 -0.5,-0.5 h -13 a 0.5,0.5 0 0 0 -0.5,0.5 z m 30.95625,0 a 0.5,0.5 0 0 0 0.5,0.5 h 13 a 0.5,0.5 0 0 0 0.5,-0.5 v -13 a 0.5,0.5 0 0 0 -0.5,-0.5 h -13 a 0.5,0.5 0 0 0 -0.5,0.5 z m 19.05,0 a 0.5,0.5 0 0 0 0.5,0.5 h 13 a 0.5,0.5 0 0 0 0.5,-0.5 v -13 a 0.5,0.5 0 0 0 -0.5,-0.5 h -13 a 0.5,0.5 0 0 0 -0.5,0.5 z m 19.05,0 a 0.5,0.5 0 0 0 0.5,0.5 h 13 a 0.5,0.5 0 0 0 0.5,-0.5 v -13 a 0.5,0.5 0 0 0 -0.5,-0.5 h -13 a 0.5,0.5 0 0 0 -0.5,0.5 z m 19.05,0 a 0.5,0.5 0 0 0 0.5,0.5 h 13 a 0.5,0.5 0 0 0 0.5,-0.5 v -13 a 0.5,0.5 0 0 0 -0.5,-0.5 h -13 a 0.5,0.5 0 0 0 -0.5,0.5 z M 121.1,16.25 a 0.5,0.5 0 0 0 0.5,0.5 h 1 a 0.5,0.5 0 0 0 0.5,-0.5 v -13 a 0.5,0.5 0 0 0 -0.5,-0.5 h -1 a 0.5,0.5 0 0 0 -0.5,0.5 z m 36.5,0 a 0.5,0.5 0 0 0 0.5,0.5 h 1 a 0.5,0.5 0 0 0 0.5,-0.5 v -13 a 0.5,0.5 0 0 0 -0.5,-0.5 h -1 a 0.5,0.5 0 0 0 -0.5,0.5 z M 132.5125,35.3 a 0.5,0.5 0 0 0 0.5,0.5 h 1 a 0.5,0.5 0 0 0 0.5,-0.5 v -13 a 0.5,0.5 0 0 0 -0.5,-0.5 h -1 a 0.5,0.5 0 0 0 -0.5,0.5 z m 23.2,0 a 0.5,0.5 0 0 0 0.5,0.5 h 1 a 0.5,0.5 0 0 0 0.5,-0.5 v -13 a 0.5,0.5 0 0 0 -0.5,-0.5 h -1 a 0.5,0.5 0 0 0 -0.5,0.5 z m -144.15,57.15 a 0.5,0.5 0 0 0 0.5,0.5 h 1 a 0.5,0.5 0 0 0 0.5,-0.5 v -13 a 0.5,0.5 0 0 0 -0.5,-0.5 h -1 a 0.5,0.5 0 0 0 -0.5,0.5 z m 36.5,0 a 0.5,0.5 0 0 0 0.5,0.5 h 1 a 0.5,0.5 0 0 0 0.5,-0.5 v -13 a 0.5,0.5 0 0 0 -0.5,-0.5 h -1 a 0.5,0.5 0 0 0 -0.5,0.5 z"
       style="stroke-width:0.2;stroke-miterlimit:4;stroke-dasharray:none" />
  </g>
  <g
     id="g29"
     stroke-linecap="round"
     fill-rule="evenodd"
     font-size="12px"
     stroke="#000"
     stroke-width="0.25mm"
     fill="none"
     style="display:inline;fill:none;stroke:#000000;stroke-width:0.2;stroke-miterlimit:4;stroke-dasharray:none"
     inkscape:label="switches_5mm"
     transform="translate(15.000441,15.000441)">
    <path
       d="m 48.0625,92.45 a 0.5,0.5 0 0 0 0.5,0.5 h 1 a 0.5,0.5 0 0 0 0.5,-0.5 v -13 a 0.5,0.5 0 0 0 -0.5,-0.5 h -1 a 0.5,0.5 0 0 0 -0.5,0.5 z"
       id="path109"
       style="stroke:#000000;stroke-width:0.2;stroke-miterlimit:4;stroke-dasharray:none;stroke-opacity:1" />
    <path
       d="m 11.762559,92.45 c 0,0.276142 0.223858,0.5 0.5,0.5 H 13.0625 c 0.276142,0 0.5,-0.223858 0.5,-0.5 v -13 c 0,-0.276142 -0.223858,-0.5 -0.5,-0.5 h -0.799941 c -0.276142,0 -0.5,0.223858 -0.5,0.5 z"
       id="path107"
       style="stroke:#000000;stroke-width:0.2;stroke-miterlimit:4;stroke-dasharray:none;stroke-opacity:1"
       sodipodi:nodetypes="sssssssss" />
    <path
       d="m 155.7125,35.3 a 0.5,0.5 0 0 0 0.5,0.5 h 1 a 0.5,0.5 0 0 0 0.5,-0.5 v -13 a 0.5,0.5 0 0 0 -0.5,-0.5 h -1 a 0.5,0.5 0 0 0 -0.5,0.5 z"
       id="path105"
       style="stroke:#000000;stroke-width:0.2;stroke-miterlimit:4;stroke-dasharray:none;stroke-opacity:1" />
    <path
       d="m 132.5125,35.3 a 0.5,0.5 0 0 0 0.5,0.5 h 1 a 0.5,0.5 0 0 0 0.5,-0.5 v -13 a 0.5,0.5 0 0 0 -0.5,-0.5 h -1 a 0.5,0.5 0 0 0 -0.5,0.5 z"
       id="path103"
       style="stroke:#000000;stroke-width:0.2;stroke-miterlimit:4;stroke-dasharray:none;stroke-opacity:1" />
    <path
       d="m 157.6,16.25 a 0.5,0.5 0 0 0 0.5,0.5 h 1 a 0.5,0.5 0 0 0 0.5,-0.5 v -13 a 0.5,0.5 0 0 0 -0.5,-0.5 h -1 a 0.5,0.5 0 0 0 -0.5,0.5 z"
       id="path101"
       style="stroke:#000000;stroke-width:0.2;stroke-miterlimit:4;stroke-dasharray:none;stroke-opacity:1" />
    <path
       d="m 121.1,16.25 a 0.5,0.5 0 0 0 0.5,0.5 h 1 a 0.5,0.5 0 0 0 0.5,-0.5 v -13 a 0.5,0.5 0 0 0 -0.5,-0.5 h -1 a 0.5,0.5 0 0 0 -0.5,0.5 z"
       id="path99"
       style="stroke:#000000;stroke-width:0.2;stroke-miterlimit:4;stroke-dasharray:none;stroke-opacity:1" />
    <path
       d="m 142.875,92.45 a 0.5,0.5 0 0 0 0.5,0.5 h 13 a 0.5,0.5 0 0 0 0.5,-0.5 v -13 a 0.5,0.5 0 0 0 -0.5,-0.5 h -13 a 0.5,0.5 0 0 0 -0.5,0.5 z"
       id="path97"
       style="stroke:#000000;stroke-width:0.2;stroke-miterlimit:4;stroke-dasharray:none;stroke-opacity:1" />
    <path
       d="m 123.825,92.45 a 0.5,0.5 0 0 0 0.5,0.5 h 13 a 0.5,0.5 0 0 0 0.5,-0.5 v -13 a 0.5,0.5 0 0 0 -0.5,-0.5 h -13 a 0.5,0.5 0 0 0 -0.5,0.5 z"
       id="path95"
       style="stroke:#000000;stroke-width:0.2;stroke-miterlimit:4;stroke-dasharray:none;stroke-opacity:1" />
    <path
       d="m 104.775,92.45 a 0.5,0.5 0 0 0 0.5,0.5 h 13 a 0.5,0.5 0 0 0 0.5,-0.5 v -13 a 0.5,0.5 0 0 0 -0.5,-0.5 h -13 a 0.5,0.5 0 0 0 -0.5,0.5 z"
       id="path93"
       style="stroke:#000000;stroke-width:0.2;stroke-miterlimit:4;stroke-dasharray:none;stroke-opacity:1" />
    <path
       d="m 85.725,92.45 a 0.5,0.5 0 0 0 0.5,0.5 h 13 a 0.5,0.5 0 0 0 0.5,-0.5 v -13 a 0.5,0.5 0 0 0 -0.5,-0.5 h -13 a 0.5,0.5 0 0 0 -0.5,0.5 z"
       id="path91"
       style="stroke:#000000;stroke-width:0.2;stroke-miterlimit:4;stroke-dasharray:none;stroke-opacity:1" />
    <path
       d="m 54.76875,92.45 a 0.5,0.5 0 0 0 0.5,0.5 h 13 a 0.5,0.5 0 0 0 0.5,-0.5 v -13 a 0.5,0.5 0 0 0 -0.5,-0.5 h -13 a 0.5,0.5 0 0 0 -0.5,0.5 z"
       id="path89"
       style="stroke:#000000;stroke-width:0.2;stroke-miterlimit:4;stroke-dasharray:none;stroke-opacity:1" />
    <path
       d="m 90.4875,73.4 a 0.5,0.5 0 0 0 0.5,0.5 h 13 a 0.5,0.5 0 0 0 0.5,-0.5 v -13 a 0.5,0.5 0 0 0 -0.5,-0.5 h -13 a 0.5,0.5 0 0 0 -0.5,0.5 z"
       id="path87"
       style="stroke:#000000;stroke-width:0.2;stroke-miterlimit:4;stroke-dasharray:none;stroke-opacity:1" />
    <path
       d="m 71.4375,73.4 a 0.5,0.5 0 0 0 0.5,0.5 h 13 a 0.5,0.5 0 0 0 0.5,-0.5 v -13 a 0.5,0.5 0 0 0 -0.5,-0.5 h -13 a 0.5,0.5 0 0 0 -0.5,0.5 z"
       id="path85"
       style="stroke:#000000;stroke-width:0.2;stroke-miterlimit:4;stroke-dasharray:none;stroke-opacity:1" />
    <path
       d="m 52.3875,73.4 a 0.5,0.5 0 0 0 0.5,0.5 h 13 a 0.5,0.5 0 0 0 0.5,-0.5 v -13 a 0.5,0.5 0 0 0 -0.5,-0.5 h -13 a 0.5,0.5 0 0 0 -0.5,0.5 z"
       id="path83"
       style="stroke:#000000;stroke-width:0.2;stroke-miterlimit:4;stroke-dasharray:none;stroke-opacity:1" />
    <path
       d="m 33.3375,73.4 a 0.5,0.5 0 0 0 0.5,0.5 h 13 a 0.5,0.5 0 0 0 0.5,-0.5 v -13 a 0.5,0.5 0 0 0 -0.5,-0.5 h -13 a 0.5,0.5 0 0 0 -0.5,0.5 z"
       id="path81"
       style="stroke:#000000;stroke-width:0.2;stroke-miterlimit:4;stroke-dasharray:none;stroke-opacity:1" />
    <path
       d="m 14.2875,73.4 a 0.5,0.5 0 0 0 0.5,0.5 h 13 a 0.5,0.5 0 0 0 0.5,-0.5 v -13 a 0.5,0.5 0 0 0 -0.5,-0.5 h -13 a 0.5,0.5 0 0 0 -0.5,0.5 z"
       id="path79"
       style="stroke:#000000;stroke-width:0.2;stroke-miterlimit:4;stroke-dasharray:none;stroke-opacity:1" />
    <path
       d="m 100.0125,54.35 a 0.5,0.5 0 0 0 0.5,0.5 h 13 a 0.5,0.5 0 0 0 0.5,-0.5 v -13 a 0.5,0.5 0 0 0 -0.5,-0.5 h -13 a 0.5,0.5 0 0 0 -0.5,0.5 z"
       id="path77"
       style="stroke:#000000;stroke-width:0.2;stroke-miterlimit:4;stroke-dasharray:none;stroke-opacity:1" />
    <path
       d="m 80.9625,54.35 a 0.5,0.5 0 0 0 0.5,0.5 h 13 a 0.5,0.5 0 0 0 0.5,-0.5 v -13 a 0.5,0.5 0 0 0 -0.5,-0.5 h -13 a 0.5,0.5 0 0 0 -0.5,0.5 z"
       id="path75"
       style="stroke:#000000;stroke-width:0.2;stroke-miterlimit:4;stroke-dasharray:none;stroke-opacity:1" />
    <path
       d="m 61.9125,54.35 a 0.5,0.5 0 0 0 0.5,0.5 h 13 a 0.5,0.5 0 0 0 0.5,-0.5 v -13 a 0.5,0.5 0 0 0 -0.5,-0.5 h -13 a 0.5,0.5 0 0 0 -0.5,0.5 z"
       id="path73"
       style="stroke:#000000;stroke-width:0.2;stroke-miterlimit:4;stroke-dasharray:none;stroke-opacity:1" />
    <path
       d="m 42.8625,54.35 a 0.5,0.5 0 0 0 0.5,0.5 h 13 a 0.5,0.5 0 0 0 0.5,-0.5 v -13 a 0.5,0.5 0 0 0 -0.5,-0.5 h -13 a 0.5,0.5 0 0 0 -0.5,0.5 z"
       id="path71"
       style="stroke:#000000;stroke-width:0.2;stroke-miterlimit:4;stroke-dasharray:none;stroke-opacity:1" />
    <path
       d="m 23.8125,54.35 a 0.5,0.5 0 0 0 0.5,0.5 h 13 a 0.5,0.5 0 0 0 0.5,-0.5 v -13 a 0.5,0.5 0 0 0 -0.5,-0.5 h -13 a 0.5,0.5 0 0 0 -0.5,0.5 z"
       id="path69"
       style="stroke:#000000;stroke-width:0.2;stroke-miterlimit:4;stroke-dasharray:none;stroke-opacity:1" />
    <path
       d="m 4.7625,54.35 a 0.5,0.5 0 0 0 0.5,0.5 h 13 a 0.5,0.5 0 0 0 0.5,-0.5 v -13 a 0.5,0.5 0 0 0 -0.5,-0.5 h -13 a 0.5,0.5 0 0 0 -0.5,0.5 z"
       id="path67"
       style="stroke:#000000;stroke-width:0.2;stroke-miterlimit:4;stroke-dasharray:none;stroke-opacity:1" />
    <path
       d="m 138.1125,35.3 a 0.5,0.5 0 0 0 0.5,0.5 h 13 a 0.5,0.5 0 0 0 0.5,-0.5 v -13 a 0.5,0.5 0 0 0 -0.5,-0.5 h -13 a 0.5,0.5 0 0 0 -0.5,0.5 z"
       id="path65"
       style="stroke:#000000;stroke-width:0.2;stroke-miterlimit:4;stroke-dasharray:none;stroke-opacity:1" />
    <path
       d="m 114.3,35.3 a 0.5,0.5 0 0 0 0.5,0.5 h 13 a 0.5,0.5 0 0 0 0.5,-0.5 v -13 a 0.5,0.5 0 0 0 -0.5,-0.5 h -13 a 0.5,0.5 0 0 0 -0.5,0.5 z"
       id="path63"
       style="stroke:#000000;stroke-width:0.2;stroke-miterlimit:4;stroke-dasharray:none;stroke-opacity:1" />
    <path
       d="m 95.25,35.3 a 0.5,0.5 0 0 0 0.5,0.5 h 13 a 0.5,0.5 0 0 0 0.5,-0.5 v -13 a 0.5,0.5 0 0 0 -0.5,-0.5 h -13 a 0.5,0.5 0 0 0 -0.5,0.5 z"
       id="path61"
       style="stroke:#000000;stroke-width:0.2;stroke-miterlimit:4;stroke-dasharray:none;stroke-opacity:1" />
    <path
       d="m 76.2,35.3 a 0.5,0.5 0 0 0 0.5,0.5 h 13 a 0.5,0.5 0 0 0 0.5,-0.5 v -13 a 0.5,0.5 0 0 0 -0.5,-0.5 h -13 a 0.5,0.5 0 0 0 -0.5,0.5 z"
       id="path59"
       style="stroke:#000000;stroke-width:0.2;stroke-miterlimit:4;stroke-dasharray:none;stroke-opacity:1" />
    <path
       d="m 57.15,35.3 a 0.5,0.5 0 0 0 0.5,0.5 h 13 a 0.5,0.5 0 0 0 0.5,-0.5 v -13 a 0.5,0.5 0 0 0 -0.5,-0.5 h -13 a 0.5,0.5 0 0 0 -0.5,0.5 z"
       id="path57"
       style="stroke:#000000;stroke-width:0.2;stroke-miterlimit:4;stroke-dasharray:none;stroke-opacity:1" />
    <path
       d="m 38.1,35.3 a 0.5,0.5 0 0 0 0.5,0.5 h 13 a 0.5,0.5 0 0 0 0.5,-0.5 v -13 a 0.5,0.5 0 0 0 -0.5,-0.5 h -13 a 0.5,0.5 0 0 0 -0.5,0.5 z"
       id="path55"
       style="stroke:#000000;stroke-width:0.2;stroke-miterlimit:4;stroke-dasharray:none;stroke-opacity:1" />
    <path
       d="m 19.05,35.3 a 0.5,0.5 0 0 0 0.5,0.5 h 13 a 0.5,0.5 0 0 0 0.5,-0.5 v -13 a 0.5,0.5 0 0 0 -0.5,-0.5 h -13 a 0.5,0.5 0 0 0 -0.5,0.5 z"
       id="path53"
       style="stroke:#000000;stroke-width:0.2;stroke-miterlimit:4;stroke-dasharray:none;stroke-opacity:1" />
    <path
       d="m 0,35.3 a 0.5,0.5 0 0 0 0.5,0.5 h 13 A 0.5,0.5 0 0 0 14,35.3 v -13 A 0.5,0.5 0 0 0 13.5,21.8 H 0.5 A 0.5,0.5 0 0 0 0,22.3 Z"
       id="path51"
       style="stroke:#000000;stroke-width:0.2;stroke-miterlimit:4;stroke-dasharray:none;stroke-opacity:1" />
    <path
       d="m 104.775,16.25 a 0.5,0.5 0 0 0 0.5,0.5 h 13 a 0.5,0.5 0 0 0 0.5,-0.5 v -13 a 0.5,0.5 0 0 0 -0.5,-0.5 h -13 a 0.5,0.5 0 0 0 -0.5,0.5 z"
       id="path49"
       style="stroke:#000000;stroke-width:0.2;stroke-miterlimit:4;stroke-dasharray:none;stroke-opacity:1" />
    <path
       d="m 85.725,16.25 a 0.5,0.5 0 0 0 0.5,0.5 h 13 a 0.5,0.5 0 0 0 0.5,-0.5 v -13 a 0.5,0.5 0 0 0 -0.5,-0.5 h -13 a 0.5,0.5 0 0 0 -0.5,0.5 z"
       id="path47"
       style="stroke:#000000;stroke-width:0.2;stroke-miterlimit:4;stroke-dasharray:none;stroke-opacity:1" />
    <path
       d="m 66.675,16.25 a 0.5,0.5 0 0 0 0.5,0.5 h 13 a 0.5,0.5 0 0 0 0.5,-0.5 v -13 a 0.5,0.5 0 0 0 -0.5,-0.5 h -13 a 0.5,0.5 0 0 0 -0.5,0.5 z"
       id="path45"
       style="stroke:#000000;stroke-width:0.2;stroke-miterlimit:4;stroke-dasharray:none;stroke-opacity:1" />
    <path
       d="m 47.625,16.25 a 0.5,0.5 0 0 0 0.5,0.5 h 13 a 0.5,0.5 0 0 0 0.5,-0.5 v -13 a 0.5,0.5 0 0 0 -0.5,-0.5 h -13 a 0.5,0.5 0 0 0 -0.5,0.5 z"
       id="path43"
       style="stroke:#000000;stroke-width:0.2;stroke-miterlimit:4;stroke-dasharray:none;stroke-opacity:1" />
    <path
       d="m 28.575,16.25 a 0.5,0.5 0 0 0 0.5,0.5 h 13 a 0.5,0.5 0 0 0 0.5,-0.5 v -13 a 0.5,0.5 0 0 0 -0.5,-0.5 h -13 a 0.5,0.5 0 0 0 -0.5,0.5 z"
       id="path41"
       style="stroke:#000000;stroke-width:0.2;stroke-miterlimit:4;stroke-dasharray:none;stroke-opacity:1" />
    <path
       d="m 9.525,16.25 a 0.5,0.5 0 0 0 0.5,0.5 h 13 a 0.5,0.5 0 0 0 0.5,-0.5 v -13 a 0.5,0.5 0 0 0 -0.5,-0.5 h -13 a 0.5,0.5 0 0 0 -0.5,0.5 z"
       id="path39"
       style="stroke:#000000;stroke-width:0.2;stroke-miterlimit:4;stroke-dasharray:none;stroke-opacity:1" />
    <path
       d="m 23.8125,92.45 a 0.5,0.5 0 0 0 0.1,0.3 h -1.538 V 76.7 a 0.5,0.5 0 0 0 -0.5,-0.5 h -6 a 0.5,0.5 0 0 0 -0.5,0.5 v 19.15 a 0.5,0.5 0 0 0 0.5,0.5 h 3.5 2.5 17.876 2.5 3.5 a 0.5,0.5 0 0 0 0.5,-0.5 V 76.7 a 0.5,0.5 0 0 0 -0.5,-0.5 h -6 a 0.5,0.5 0 0 0 -0.5,0.5 v 16.05 h -1.538 a 0.5,0.5 0 0 0 0.1,-0.3 v -13 a 0.5,0.5 0 0 0 -0.5,-0.5 h -13 a 0.5,0.5 0 0 0 -0.5,0.5 z"
       id="path37"
       style="stroke:#000000;stroke-width:0.2;stroke-miterlimit:4;stroke-dasharray:none;stroke-opacity:1" />
    <path
       d="m 126.20625,73.4 a 0.5,0.5 0 0 0 0.1,0.3 h -1.538 V 57.65 a 0.5,0.5 0 0 0 -0.5,-0.5 h -6 a 0.5,0.5 0 0 0 -0.5,0.5 V 76.8 a 0.5,0.5 0 0 0 0.5,0.5 h 3.5 2.5 17.876 2.5 3.5 a 0.5,0.5 0 0 0 0.5,-0.5 V 57.65 a 0.5,0.5 0 0 0 -0.5,-0.5 h -6 a 0.5,0.5 0 0 0 -0.5,0.5 V 73.7 h -1.538 a 0.5,0.5 0 0 0 0.1,-0.3 v -13 a 0.5,0.5 0 0 0 -0.5,-0.5 h -13 a 0.5,0.5 0 0 0 -0.5,0.5 z"
       id="path35"
       style="stroke:#000000;stroke-width:0.2;stroke-miterlimit:4;stroke-dasharray:none;stroke-opacity:1" />
    <path
       d="m 130.96875,54.35 a 0.5,0.5 0 0 0 0.1,0.3 h -1.538 V 38.6 a 0.5,0.5 0 0 0 -0.5,-0.5 h -6 a 0.5,0.5 0 0 0 -0.5,0.5 v 19.15 a 0.5,0.5 0 0 0 0.5,0.5 h 3.5 2.5 17.876 2.5 3.5 a 0.5,0.5 0 0 0 0.5,-0.5 V 38.6 a 0.5,0.5 0 0 0 -0.5,-0.5 h -6 a 0.5,0.5 0 0 0 -0.5,0.5 v 16.05 h -1.538 a 0.5,0.5 0 0 0 0.1,-0.3 v -13 a 0.5,0.5 0 0 0 -0.5,-0.5 h -13 a 0.5,0.5 0 0 0 -0.5,0.5 z"
       id="path33"
       style="stroke:#000000;stroke-width:0.2;stroke-miterlimit:4;stroke-dasharray:none;stroke-opacity:1" />
    <path
       d="m 133.35,16.25 a 0.5,0.5 0 0 0 0.1,0.3 h -1.538 V 0.5 a 0.5,0.5 0 0 0 -0.5,-0.5 h -6 a 0.5,0.5 0 0 0 -0.5,0.5 v 19.15 a 0.5,0.5 0 0 0 0.5,0.5 h 3.5 2.5 17.876 2.5 3.5 a 0.5,0.5 0 0 0 0.5,-0.5 V 0.5 a 0.5,0.5 0 0 0 -0.5,-0.5 h -6 a 0.5,0.5 0 0 0 -0.5,0.5 v 16.05 h -1.538 a 0.5,0.5 0 0 0 0.1,-0.3 v -13 a 0.5,0.5 0 0 0 -0.5,-0.5 h -13 a 0.5,0.5 0 0 0 -0.5,0.5 z"
       id="path27"
       style="stroke:#000000;stroke-width:0.2;stroke-miterlimit:4;stroke-dasharray:none;stroke-opacity:1" />
  </g>
  <g
     inkscape:groupmode="layer"
     id="layer3"
     inkscape:label="switches_3mm"
     style="display:none">
    <path
       style="font-size:12px;display:inline;fill:none;fill-rule:evenodd;stroke:#000000;stroke-width:0.2;stroke-linecap:round;stroke-miterlimit:4;stroke-dasharray:none"
       d="m 63.062943,107.45044 a 0.50000002,0.50000002 0 0 0 0.5,0.5 h 1 a 0.50000002,0.50000002 0 0 0 0.5,-0.5 V 94.450444 a 0.50000002,0.50000002 0 0 0 -0.5,-0.5 h -1 a 0.50000002,0.50000002 0 0 0 -0.5,0.5 z"
       id="path218" />
    <path
       style="font-size:12px;display:inline;fill:none;fill-rule:evenodd;stroke:#000000;stroke-width:0.2;stroke-linecap:round;stroke-miterlimit:4;stroke-dasharray:none"
       d="m 26.763,107.45044 c 0,0.27614 0.223858,0.5 0.500001,0.5 h 0.799941 c 0.276142,0 0.5,-0.22386 0.5,-0.5 V 94.450444 c 0,-0.276142 -0.223858,-0.5 -0.5,-0.5 H 27.263 c -0.276142,0 -0.500001,0.223857 -0.500001,0.5 z"
       id="path216"
       sodipodi:nodetypes="sssssssss" />
    <path
       style="font-size:12px;display:inline;fill:none;fill-rule:evenodd;stroke:#000000;stroke-width:0.2;stroke-linecap:round;stroke-miterlimit:4;stroke-dasharray:none"
       d="m 170.71296,50.300442 a 0.50000002,0.50000002 0 0 0 0.5,0.5 h 1 a 0.50000002,0.50000002 0 0 0 0.5,-0.5 v -13 a 0.50000002,0.50000002 0 0 0 -0.5,-0.5 h -1 a 0.50000002,0.50000002 0 0 0 -0.5,0.5 z"
       id="path214" />
    <path
       style="font-size:12px;display:inline;fill:none;fill-rule:evenodd;stroke:#000000;stroke-width:0.2;stroke-linecap:round;stroke-miterlimit:4;stroke-dasharray:none"
       d="m 147.51296,50.300442 a 0.50000002,0.50000002 0 0 0 0.5,0.5 h 1 a 0.50000002,0.50000002 0 0 0 0.5,-0.5 v -13 a 0.50000002,0.50000002 0 0 0 -0.5,-0.5 h -1 a 0.50000002,0.50000002 0 0 0 -0.5,0.5 z"
       id="path212" />
    <path
       style="font-size:12px;display:inline;fill:none;fill-rule:evenodd;stroke:#000000;stroke-width:0.2;stroke-linecap:round;stroke-miterlimit:4;stroke-dasharray:none"
       d="m 172.60046,31.250442 a 0.50000002,0.50000002 0 0 0 0.5,0.5 h 1 a 0.50000002,0.50000002 0 0 0 0.5,-0.5 V 18.250441 a 0.50000002,0.50000002 0 0 0 -0.5,-0.5 h -1 a 0.50000002,0.50000002 0 0 0 -0.5,0.5 z"
       id="path210" />
    <path
       style="font-size:12px;display:inline;fill:none;fill-rule:evenodd;stroke:#000000;stroke-width:0.2;stroke-linecap:round;stroke-miterlimit:4;stroke-dasharray:none"
       d="m 136.10045,31.250442 a 0.50000002,0.50000002 0 0 0 0.5,0.5 h 1 a 0.50000002,0.50000002 0 0 0 0.5,-0.5 V 18.250441 a 0.50000002,0.50000002 0 0 0 -0.5,-0.5 h -1 a 0.50000002,0.50000002 0 0 0 -0.5,0.5 z"
       id="path208" />
    <path
       style="font-size:12px;display:inline;fill:none;fill-rule:evenodd;stroke:#000000;stroke-width:0.2;stroke-linecap:round;stroke-miterlimit:4;stroke-dasharray:none"
       d="m 54.250943,109.45044 a 0.50000002,0.50000002 0 0 0 0.5,0.5 h 6 a 0.50000002,0.50000002 0 0 0 0.5,-0.5 V 94.450444 a 0.50000002,0.50000002 0 0 0 -0.5,-0.5 h -6 a 0.50000002,0.50000002 0 0 0 -0.5,0.5 z"
       id="path206" />
    <path
       style="font-size:12px;display:inline;fill:none;fill-rule:evenodd;stroke:#000000;stroke-width:0.2;stroke-linecap:round;stroke-miterlimit:4;stroke-dasharray:none"
       d="m 30.374942,109.45044 a 0.50000002,0.50000002 0 0 0 0.5,0.5 h 6 a 0.50000002,0.50000002 0 0 0 0.5,-0.5 V 94.450444 a 0.50000002,0.50000002 0 0 0 -0.5,-0.5 h -6 a 0.50000002,0.50000002 0 0 0 -0.5,0.5 z"
       id="path204" />
    <path
       style="font-size:12px;display:inline;fill:none;fill-rule:evenodd;stroke:#000000;stroke-width:0.2;stroke-linecap:round;stroke-miterlimit:4;stroke-dasharray:none"
       d="m 156.64471,90.400444 a 0.50000002,0.50000002 0 0 0 0.5,0.5 h 6 a 0.50000002,0.50000002 0 0 0 0.5,-0.5 V 75.400443 a 0.50000002,0.50000002 0 0 0 -0.5,-0.5 h -6 a 0.50000002,0.50000002 0 0 0 -0.5,0.5 z"
       id="path202" />
    <path
       style="font-size:12px;display:inline;fill:none;fill-rule:evenodd;stroke:#000000;stroke-width:0.2;stroke-linecap:round;stroke-miterlimit:4;stroke-dasharray:none"
       d="m 132.76869,90.400444 a 0.50000002,0.50000002 0 0 0 0.5,0.5 h 6.00002 a 0.50000002,0.50000002 0 0 0 0.5,-0.5 V 75.400443 a 0.50000002,0.50000002 0 0 0 -0.5,-0.5 h -6.00002 a 0.50000002,0.50000002 0 0 0 -0.5,0.5 z"
       id="path200" />
    <path
       style="font-size:12px;display:inline;fill:none;fill-rule:evenodd;stroke:#000000;stroke-width:0.2;stroke-linecap:round;stroke-miterlimit:4;stroke-dasharray:none"
       d="m 161.40721,71.350443 a 0.50000002,0.50000002 0 0 0 0.5,0.5 h 6 a 0.50000002,0.50000002 0 0 0 0.5,-0.5 v -15 a 0.50000002,0.50000002 0 0 0 -0.5,-0.5 h -6 a 0.50000002,0.50000002 0 0 0 -0.5,0.5 z"
       id="path198" />
    <path
       style="font-size:12px;display:inline;fill:none;fill-rule:evenodd;stroke:#000000;stroke-width:0.2;stroke-linecap:round;stroke-miterlimit:4;stroke-dasharray:none"
       d="m 137.5312,71.350443 a 0.50000002,0.50000002 0 0 0 0.5,0.5 h 6.00001 a 0.50000002,0.50000002 0 0 0 0.5,-0.5 v -15 a 0.50000002,0.50000002 0 0 0 -0.5,-0.5 h -6.00001 a 0.50000002,0.50000002 0 0 0 -0.5,0.5 z"
       id="path196" />
    <path
       style="font-size:12px;display:inline;fill:none;fill-rule:evenodd;stroke:#000000;stroke-width:0.2;stroke-linecap:round;stroke-miterlimit:4;stroke-dasharray:none"
       d="m 163.78846,33.250442 a 0.50000002,0.50000002 0 0 0 0.5,0.5 h 6 a 0.50000002,0.50000002 0 0 0 0.5,-0.5 V 18.250441 a 0.50000002,0.50000002 0 0 0 -0.5,-0.5 h -6 a 0.50000002,0.50000002 0 0 0 -0.5,0.5 z"
       id="path194" />
    <path
       style="font-size:12px;display:inline;fill:none;fill-rule:evenodd;stroke:#000000;stroke-width:0.2;stroke-linecap:round;stroke-miterlimit:4;stroke-dasharray:none"
       d="m 139.91246,33.250442 a 0.50000002,0.50000002 0 0 0 0.5,0.5 h 6 a 0.50000002,0.50000002 0 0 0 0.5,-0.5 V 18.250441 a 0.50000002,0.50000002 0 0 0 -0.5,-0.5 h -6 a 0.50000002,0.50000002 0 0 0 -0.5,0.5 z"
       id="path192" />
    <path
       style="font-size:12px;display:inline;fill:none;fill-rule:evenodd;stroke:#000000;stroke-width:0.2;stroke-linecap:round;stroke-miterlimit:4;stroke-dasharray:none"
       d="m 157.87546,107.45044 a 0.50000002,0.50000002 0 0 0 0.5,0.5 h 13 a 0.50000002,0.50000002 0 0 0 0.5,-0.5 V 94.450444 a 0.50000002,0.50000002 0 0 0 -0.5,-0.5 h -13 a 0.50000002,0.50000002 0 0 0 -0.5,0.5 z"
       id="path190" />
    <path
       style="font-size:12px;display:inline;fill:none;fill-rule:evenodd;stroke:#000000;stroke-width:0.2;stroke-linecap:round;stroke-miterlimit:4;stroke-dasharray:none"
       d="m 138.82546,107.45044 a 0.50000002,0.50000002 0 0 0 0.5,0.5 h 13 a 0.50000002,0.50000002 0 0 0 0.5,-0.5 V 94.450444 a 0.50000002,0.50000002 0 0 0 -0.5,-0.5 h -13 a 0.50000002,0.50000002 0 0 0 -0.5,0.5 z"
       id="path188" />
    <path
       style="font-size:12px;display:inline;fill:none;fill-rule:evenodd;stroke:#000000;stroke-width:0.2;stroke-linecap:round;stroke-miterlimit:4;stroke-dasharray:none"
       d="m 119.77544,107.45044 a 0.50000002,0.50000002 0 0 0 0.5,0.5 h 13 a 0.50000002,0.50000002 0 0 0 0.50001,-0.5 V 94.450444 a 0.50000002,0.50000002 0 0 0 -0.50001,-0.5 h -13 a 0.50000002,0.50000002 0 0 0 -0.5,0.5 z"
       id="path186" />
    <path
       style="font-size:12px;display:inline;fill:none;fill-rule:evenodd;stroke:#000000;stroke-width:0.2;stroke-linecap:round;stroke-miterlimit:4;stroke-dasharray:none"
       d="m 100.72544,107.45044 a 0.50000002,0.50000002 0 0 0 0.5,0.5 h 13 a 0.50000002,0.50000002 0 0 0 0.5,-0.5 V 94.450444 a 0.50000002,0.50000002 0 0 0 -0.5,-0.5 h -13 a 0.50000002,0.50000002 0 0 0 -0.5,0.5 z"
       id="path184" />
    <path
       style="font-size:12px;display:inline;fill:none;fill-rule:evenodd;stroke:#000000;stroke-width:0.2;stroke-linecap:round;stroke-miterlimit:4;stroke-dasharray:none"
       d="m 69.769193,107.45044 a 0.50000002,0.50000002 0 0 0 0.5,0.5 h 13.000001 a 0.50000002,0.50000002 0 0 0 0.5,-0.5 V 94.450444 a 0.50000002,0.50000002 0 0 0 -0.5,-0.5 H 70.269193 a 0.50000002,0.50000002 0 0 0 -0.5,0.5 z"
       id="path182" />
    <path
       style="font-size:12px;display:inline;fill:none;fill-rule:evenodd;stroke:#000000;stroke-width:0.2;stroke-linecap:round;stroke-miterlimit:4;stroke-dasharray:none"
       d="m 38.812942,107.45044 a 0.50000002,0.50000002 0 0 0 0.5,0.5 h 13.000001 a 0.50000002,0.50000002 0 0 0 0.5,-0.5 V 94.450444 a 0.50000002,0.50000002 0 0 0 -0.5,-0.5 H 39.312942 a 0.50000002,0.50000002 0 0 0 -0.5,0.5 z"
       id="path180" />
    <path
       style="font-size:12px;display:inline;fill:none;fill-rule:evenodd;stroke:#000000;stroke-width:0.2;stroke-linecap:round;stroke-miterlimit:4;stroke-dasharray:none"
       d="m 141.20671,88.400444 a 0.50000002,0.50000002 0 0 0 0.5,0.5 h 13 a 0.50000002,0.50000002 0 0 0 0.5,-0.5 V 75.400443 a 0.50000002,0.50000002 0 0 0 -0.5,-0.5 h -13 a 0.50000002,0.50000002 0 0 0 -0.5,0.5 z"
       id="path178" />
    <path
       style="font-size:12px;display:inline;fill:none;fill-rule:evenodd;stroke:#000000;stroke-width:0.2;stroke-linecap:round;stroke-miterlimit:4;stroke-dasharray:none"
       d="m 105.48794,88.400444 a 0.50000002,0.50000002 0 0 0 0.5,0.5 h 13 a 0.50000002,0.50000002 0 0 0 0.5,-0.5 V 75.400443 a 0.50000002,0.50000002 0 0 0 -0.5,-0.5 h -13 a 0.50000002,0.50000002 0 0 0 -0.5,0.5 z"
       id="path176" />
    <path
       style="font-size:12px;display:inline;fill:none;fill-rule:evenodd;stroke:#000000;stroke-width:0.2;stroke-linecap:round;stroke-miterlimit:4;stroke-dasharray:none"
       d="m 86.437944,88.400444 a 0.50000002,0.50000002 0 0 0 0.5,0.5 h 13.000001 a 0.50000002,0.50000002 0 0 0 0.499995,-0.5 V 75.400443 a 0.50000002,0.50000002 0 0 0 -0.499995,-0.5 H 86.937944 a 0.50000002,0.50000002 0 0 0 -0.5,0.5 z"
       id="path174" />
    <path
       style="font-size:12px;display:inline;fill:none;fill-rule:evenodd;stroke:#000000;stroke-width:0.2;stroke-linecap:round;stroke-miterlimit:4;stroke-dasharray:none"
       d="m 67.387943,88.400444 a 0.50000002,0.50000002 0 0 0 0.5,0.5 h 13.000001 a 0.50000002,0.50000002 0 0 0 0.5,-0.5 V 75.400443 a 0.50000002,0.50000002 0 0 0 -0.5,-0.5 H 67.887943 a 0.50000002,0.50000002 0 0 0 -0.5,0.5 z"
       id="path172" />
    <path
       style="font-size:12px;display:inline;fill:none;fill-rule:evenodd;stroke:#000000;stroke-width:0.2;stroke-linecap:round;stroke-miterlimit:4;stroke-dasharray:none"
       d="m 48.337942,88.400444 a 0.50000002,0.50000002 0 0 0 0.5,0.5 h 13.000001 a 0.50000002,0.50000002 0 0 0 0.5,-0.5 V 75.400443 a 0.50000002,0.50000002 0 0 0 -0.5,-0.5 H 48.837942 a 0.50000002,0.50000002 0 0 0 -0.5,0.5 z"
       id="path170" />
    <path
       style="font-size:12px;display:inline;fill:none;fill-rule:evenodd;stroke:#000000;stroke-width:0.2;stroke-linecap:round;stroke-miterlimit:4;stroke-dasharray:none"
       d="m 29.287942,88.400444 a 0.50000002,0.50000002 0 0 0 0.5,0.5 h 13 a 0.50000002,0.50000002 0 0 0 0.5,-0.5 V 75.400443 a 0.50000002,0.50000002 0 0 0 -0.5,-0.5 h -13 a 0.50000002,0.50000002 0 0 0 -0.5,0.5 z"
       id="path168" />
    <path
       style="font-size:12px;display:inline;fill:none;fill-rule:evenodd;stroke:#000000;stroke-width:0.2;stroke-linecap:round;stroke-miterlimit:4;stroke-dasharray:none"
       d="m 145.96921,69.350443 a 0.50000002,0.50000002 0 0 0 0.5,0.5 h 13 a 0.50000002,0.50000002 0 0 0 0.5,-0.5 v -13 a 0.50000002,0.50000002 0 0 0 -0.5,-0.5 h -13 a 0.50000002,0.50000002 0 0 0 -0.5,0.5 z"
       id="path166" />
    <path
       style="font-size:12px;display:inline;fill:none;fill-rule:evenodd;stroke:#000000;stroke-width:0.2;stroke-linecap:round;stroke-miterlimit:4;stroke-dasharray:none"
       d="m 115.01294,69.350443 a 0.50000002,0.50000002 0 0 0 0.5,0.5 h 13 a 0.50000002,0.50000002 0 0 0 0.5,-0.5 v -13 a 0.50000002,0.50000002 0 0 0 -0.5,-0.5 h -13 a 0.50000002,0.50000002 0 0 0 -0.5,0.5 z"
       id="path164" />
    <path
       style="font-size:12px;display:inline;fill:none;fill-rule:evenodd;stroke:#000000;stroke-width:0.2;stroke-linecap:round;stroke-miterlimit:4;stroke-dasharray:none"
       d="m 95.962944,69.350443 a 0.50000002,0.50000002 0 0 0 0.5,0.5 h 12.999996 a 0.50000002,0.50000002 0 0 0 0.5,-0.5 v -13 a 0.50000002,0.50000002 0 0 0 -0.5,-0.5 H 96.462944 a 0.50000002,0.50000002 0 0 0 -0.5,0.5 z"
       id="path162" />
    <path
       style="font-size:12px;display:inline;fill:none;fill-rule:evenodd;stroke:#000000;stroke-width:0.2;stroke-linecap:round;stroke-miterlimit:4;stroke-dasharray:none"
       d="m 76.912944,69.350443 a 0.50000002,0.50000002 0 0 0 0.5,0.5 h 13 a 0.50000002,0.50000002 0 0 0 0.5,-0.5 v -13 a 0.50000002,0.50000002 0 0 0 -0.5,-0.5 h -13 a 0.50000002,0.50000002 0 0 0 -0.5,0.5 z"
       id="path160" />
    <path
       style="font-size:12px;display:inline;fill:none;fill-rule:evenodd;stroke:#000000;stroke-width:0.2;stroke-linecap:round;stroke-miterlimit:4;stroke-dasharray:none"
       d="m 57.862943,69.350443 a 0.50000002,0.50000002 0 0 0 0.5,0.5 h 13 a 0.50000002,0.50000002 0 0 0 0.5,-0.5 v -13 a 0.50000002,0.50000002 0 0 0 -0.5,-0.5 h -13 a 0.50000002,0.50000002 0 0 0 -0.5,0.5 z"
       id="path158" />
    <path
       style="font-size:12px;display:inline;fill:none;fill-rule:evenodd;stroke:#000000;stroke-width:0.2;stroke-linecap:round;stroke-miterlimit:4;stroke-dasharray:none"
       d="m 38.812942,69.350443 a 0.50000002,0.50000002 0 0 0 0.5,0.5 h 13.000001 a 0.50000002,0.50000002 0 0 0 0.5,-0.5 v -13 a 0.50000002,0.50000002 0 0 0 -0.5,-0.5 H 39.312942 a 0.50000002,0.50000002 0 0 0 -0.5,0.5 z"
       id="path156" />
    <path
       style="font-size:12px;display:inline;fill:none;fill-rule:evenodd;stroke:#000000;stroke-width:0.2;stroke-linecap:round;stroke-miterlimit:4;stroke-dasharray:none"
       d="m 19.762942,69.350443 a 0.50000002,0.50000002 0 0 0 0.5,0.5 h 13 a 0.50000002,0.50000002 0 0 0 0.5,-0.5 v -13 a 0.50000002,0.50000002 0 0 0 -0.5,-0.5 h -13 a 0.50000002,0.50000002 0 0 0 -0.5,0.5 z"
       id="path154" />
    <path
       style="font-size:12px;display:inline;fill:none;fill-rule:evenodd;stroke:#000000;stroke-width:0.2;stroke-linecap:round;stroke-miterlimit:4;stroke-dasharray:none"
       d="m 153.11296,50.300442 a 0.50000002,0.50000002 0 0 0 0.5,0.5 h 13 a 0.50000002,0.50000002 0 0 0 0.5,-0.5 v -13 a 0.50000002,0.50000002 0 0 0 -0.5,-0.5 h -13 a 0.50000002,0.50000002 0 0 0 -0.5,0.5 z"
       id="path152" />
    <path
       style="font-size:12px;display:inline;fill:none;fill-rule:evenodd;stroke:#000000;stroke-width:0.2;stroke-linecap:round;stroke-miterlimit:4;stroke-dasharray:none"
       d="m 129.30044,50.300442 a 0.50000002,0.50000002 0 0 0 0.5,0.5 h 13.00002 a 0.50000002,0.50000002 0 0 0 0.5,-0.5 v -13 a 0.50000002,0.50000002 0 0 0 -0.5,-0.5 h -13.00002 a 0.50000002,0.50000002 0 0 0 -0.5,0.5 z"
       id="path150" />
    <path
       style="font-size:12px;display:inline;fill:none;fill-rule:evenodd;stroke:#000000;stroke-width:0.2;stroke-linecap:round;stroke-miterlimit:4;stroke-dasharray:none"
       d="m 110.25044,50.300442 a 0.50000002,0.50000002 0 0 0 0.5,0.5 h 13 a 0.50000002,0.50000002 0 0 0 0.5,-0.5 v -13 a 0.50000002,0.50000002 0 0 0 -0.5,-0.5 h -13 a 0.50000002,0.50000002 0 0 0 -0.5,0.5 z"
       id="path148" />
    <path
       style="font-size:12px;display:inline;fill:none;fill-rule:evenodd;stroke:#000000;stroke-width:0.2;stroke-linecap:round;stroke-miterlimit:4;stroke-dasharray:none"
       d="m 91.200444,50.300442 a 0.50000002,0.50000002 0 0 0 0.5,0.5 h 12.999996 a 0.50000002,0.50000002 0 0 0 0.5,-0.5 v -13 a 0.50000002,0.50000002 0 0 0 -0.5,-0.5 H 91.700444 a 0.50000002,0.50000002 0 0 0 -0.5,0.5 z"
       id="path146" />
    <path
       style="font-size:12px;display:inline;fill:none;fill-rule:evenodd;stroke:#000000;stroke-width:0.2;stroke-linecap:round;stroke-miterlimit:4;stroke-dasharray:none"
       d="m 72.150443,50.300442 a 0.50000002,0.50000002 0 0 0 0.5,0.5 h 13.000001 a 0.50000002,0.50000002 0 0 0 0.5,-0.5 v -13 a 0.50000002,0.50000002 0 0 0 -0.5,-0.5 H 72.650443 a 0.50000002,0.50000002 0 0 0 -0.5,0.5 z"
       id="path144" />
    <path
       style="font-size:12px;display:inline;fill:none;fill-rule:evenodd;stroke:#000000;stroke-width:0.2;stroke-linecap:round;stroke-miterlimit:4;stroke-dasharray:none"
       d="m 53.100443,50.300442 a 0.50000002,0.50000002 0 0 0 0.5,0.5 h 13 a 0.50000002,0.50000002 0 0 0 0.5,-0.5 v -13 a 0.50000002,0.50000002 0 0 0 -0.5,-0.5 h -13 a 0.50000002,0.50000002 0 0 0 -0.5,0.5 z"
       id="path142" />
    <path
       style="font-size:12px;display:inline;fill:none;fill-rule:evenodd;stroke:#000000;stroke-width:0.2;stroke-linecap:round;stroke-miterlimit:4;stroke-dasharray:none"
       d="m 34.050442,50.300442 a 0.50000002,0.50000002 0 0 0 0.5,0.5 h 13 a 0.50000002,0.50000002 0 0 0 0.5,-0.5 v -13 a 0.50000002,0.50000002 0 0 0 -0.5,-0.5 h -13 a 0.50000002,0.50000002 0 0 0 -0.5,0.5 z"
       id="path140" />
    <path
       style="font-size:12px;display:inline;fill:none;fill-rule:evenodd;stroke:#000000;stroke-width:0.2;stroke-linecap:round;stroke-miterlimit:4;stroke-dasharray:none"
       d="m 15.000441,50.300442 a 0.50000002,0.50000002 0 0 0 0.5,0.5 h 13.000001 a 0.50000002,0.50000002 0 0 0 0.5,-0.5 v -13 a 0.50000002,0.50000002 0 0 0 -0.5,-0.5 H 15.500441 a 0.50000002,0.50000002 0 0 0 -0.5,0.5 z"
       id="path138" />
    <path
       style="font-size:12px;display:inline;fill:none;fill-rule:evenodd;stroke:#000000;stroke-width:0.2;stroke-linecap:round;stroke-miterlimit:4;stroke-dasharray:none"
       d="m 148.35046,31.250442 a 0.50000002,0.50000002 0 0 0 0.5,0.5 h 13 a 0.50000002,0.50000002 0 0 0 0.5,-0.5 V 18.250441 a 0.50000002,0.50000002 0 0 0 -0.5,-0.5 h -13 a 0.50000002,0.50000002 0 0 0 -0.5,0.5 z"
       id="path136" />
    <path
       style="font-size:12px;display:inline;fill:none;fill-rule:evenodd;stroke:#000000;stroke-width:0.2;stroke-linecap:round;stroke-miterlimit:4;stroke-dasharray:none"
       d="m 119.77544,31.250442 a 0.50000002,0.50000002 0 0 0 0.5,0.5 h 13 a 0.50000002,0.50000002 0 0 0 0.50001,-0.5 V 18.250441 a 0.50000002,0.50000002 0 0 0 -0.50001,-0.5 h -13 a 0.50000002,0.50000002 0 0 0 -0.5,0.5 z"
       id="path134" />
    <path
       style="font-size:12px;display:inline;fill:none;fill-rule:evenodd;stroke:#000000;stroke-width:0.2;stroke-linecap:round;stroke-miterlimit:4;stroke-dasharray:none"
       d="m 100.72544,31.250442 a 0.50000002,0.50000002 0 0 0 0.5,0.5 h 13 a 0.50000002,0.50000002 0 0 0 0.5,-0.5 V 18.250441 a 0.50000002,0.50000002 0 0 0 -0.5,-0.5 h -13 a 0.50000002,0.50000002 0 0 0 -0.5,0.5 z"
       id="path132" />
    <path
       style="font-size:12px;display:inline;fill:none;fill-rule:evenodd;stroke:#000000;stroke-width:0.2;stroke-linecap:round;stroke-miterlimit:4;stroke-dasharray:none"
       d="m 81.675444,31.250442 a 0.50000002,0.50000002 0 0 0 0.5,0.5 h 13 a 0.50000002,0.50000002 0 0 0 0.5,-0.5 V 18.250441 a 0.50000002,0.50000002 0 0 0 -0.5,-0.5 h -13 a 0.50000002,0.50000002 0 0 0 -0.5,0.5 z"
       id="path130" />
    <path
       style="font-size:12px;display:inline;fill:none;fill-rule:evenodd;stroke:#000000;stroke-width:0.2;stroke-linecap:round;stroke-miterlimit:4;stroke-dasharray:none"
       d="m 62.625443,31.250442 a 0.50000002,0.50000002 0 0 0 0.5,0.5 h 13.000001 a 0.50000002,0.50000002 0 0 0 0.5,-0.5 V 18.250441 a 0.50000002,0.50000002 0 0 0 -0.5,-0.5 H 63.125443 a 0.50000002,0.50000002 0 0 0 -0.5,0.5 z"
       id="path128" />
    <path
       style="font-size:12px;display:inline;fill:none;fill-rule:evenodd;stroke:#000000;stroke-width:0.2;stroke-linecap:round;stroke-miterlimit:4;stroke-dasharray:none"
       d="m 43.575442,31.250442 a 0.50000002,0.50000002 0 0 0 0.5,0.5 h 13.000001 a 0.50000002,0.50000002 0 0 0 0.5,-0.5 V 18.250441 a 0.50000002,0.50000002 0 0 0 -0.5,-0.5 H 44.075442 a 0.50000002,0.50000002 0 0 0 -0.5,0.5 z"
       id="path126" />
    <path
       style="font-size:12px;display:inline;fill:none;fill-rule:evenodd;stroke:#000000;stroke-width:0.2;stroke-linecap:round;stroke-miterlimit:4;stroke-dasharray:none"
       d="m 24.525442,31.250442 a 0.50000002,0.50000002 0 0 0 0.499999,0.5 h 13.000001 a 0.50000002,0.50000002 0 0 0 0.5,-0.5 V 18.250441 a 0.50000002,0.50000002 0 0 0 -0.5,-0.5 H 25.025441 a 0.50000002,0.50000002 0 0 0 -0.499999,0.5 z"
       id="path111" />
  </g>
  <g
     inkscape:groupmode="layer"
     id="layer1"
     inkscape:label="keycaps_spaces"
     style="display:none">
    <path
       style="font-size:12px;fill:none;fill-rule:evenodd;stroke:#000000;stroke-width:0.2;stroke-linecap:round;stroke-miterlimit:4;stroke-dasharray:none"
       d="m 155.35044,110.47544 h 19.05 V 91.425441 h -19.05 z"
       id="path1000" />
    <path
       style="font-size:12px;fill:none;fill-rule:evenodd;stroke:#000000;stroke-width:0.2;stroke-linecap:round;stroke-miterlimit:4;stroke-dasharray:none"
       d="m 136.30044,110.47544 h 19.05001 V 91.425441 h -19.05001 z"
       id="path998" />
    <path
       style="font-size:12px;fill:none;fill-rule:evenodd;stroke:#000000;stroke-width:0.2;stroke-linecap:round;stroke-miterlimit:4;stroke-dasharray:none"
       d="m 117.25044,110.47544 h 19.05 V 91.425441 h -19.05 z"
       id="path996" />
    <path
       style="font-size:12px;fill:none;fill-rule:evenodd;stroke:#000000;stroke-width:0.2;stroke-linecap:round;stroke-miterlimit:4;stroke-dasharray:none"
       d="M 98.200442,110.47544 H 117.25044 V 91.425441 H 98.200442 Z"
       id="path994" />
    <path
       style="font-size:12px;fill:none;fill-rule:evenodd;stroke:#000000;stroke-width:0.2;stroke-linecap:round;stroke-miterlimit:4;stroke-dasharray:none"
       d="m 102.96294,91.425441 h 19.05 v -19.05 h -19.05 z"
       id="path992" />
    <path
       style="font-size:12px;fill:none;fill-rule:evenodd;stroke:#000000;stroke-width:0.2;stroke-linecap:round;stroke-miterlimit:4;stroke-dasharray:none"
       d="m 83.912942,91.425441 h 19.049998 v -19.05 H 83.912942 Z"
       id="path990" />
    <path
       style="font-size:12px;fill:none;fill-rule:evenodd;stroke:#000000;stroke-width:0.2;stroke-linecap:round;stroke-miterlimit:4;stroke-dasharray:none"
       d="m 64.862941,91.425441 h 19.05 v -19.05 h -19.05 z"
       id="path988" />
    <path
       style="font-size:12px;fill:none;fill-rule:evenodd;stroke:#000000;stroke-width:0.2;stroke-linecap:round;stroke-miterlimit:4;stroke-dasharray:none"
       d="m 45.812941,91.425441 h 19.05 v -19.05 h -19.05 z"
       id="path986" />
    <path
       style="font-size:12px;fill:none;fill-rule:evenodd;stroke:#000000;stroke-width:0.2;stroke-linecap:round;stroke-miterlimit:4;stroke-dasharray:none"
       d="m 26.762941,91.425441 h 19.05 v -19.05 h -19.05 z"
       id="path984" />
    <path
       style="font-size:12px;fill:none;fill-rule:evenodd;stroke:#000000;stroke-width:0.2;stroke-linecap:round;stroke-miterlimit:4;stroke-dasharray:none"
       d="m 112.48794,72.375441 h 19.05 v -19.05 h -19.05 z"
       id="path982" />
    <path
       style="font-size:12px;fill:none;fill-rule:evenodd;stroke:#000000;stroke-width:0.2;stroke-linecap:round;stroke-miterlimit:4;stroke-dasharray:none"
       d="m 93.437943,72.375441 h 19.049997 v -19.05 H 93.437943 Z"
       id="path980" />
    <path
       style="font-size:12px;fill:none;fill-rule:evenodd;stroke:#000000;stroke-width:0.2;stroke-linecap:round;stroke-miterlimit:4;stroke-dasharray:none"
       d="m 74.387941,72.375441 h 19.05 v -19.05 h -19.05 z"
       id="path978" />
    <path
       style="font-size:12px;fill:none;fill-rule:evenodd;stroke:#000000;stroke-width:0.2;stroke-linecap:round;stroke-miterlimit:4;stroke-dasharray:none"
       d="m 55.337941,72.375441 h 19.05 v -19.05 h -19.05 z"
       id="path976" />
    <path
       style="font-size:12px;fill:none;fill-rule:evenodd;stroke:#000000;stroke-width:0.2;stroke-linecap:round;stroke-miterlimit:4;stroke-dasharray:none"
       d="m 36.287941,72.375441 h 19.05 v -19.05 h -19.05 z"
       id="path974" />
    <path
       style="font-size:12px;fill:none;fill-rule:evenodd;stroke:#000000;stroke-width:0.2;stroke-linecap:round;stroke-miterlimit:4;stroke-dasharray:none"
       d="m 17.237941,72.375441 h 19.05 v -19.05 h -19.05 z"
       id="path972" />
    <path
       style="font-size:12px;fill:none;fill-rule:evenodd;stroke:#000000;stroke-width:0.2;stroke-linecap:round;stroke-miterlimit:4;stroke-dasharray:none"
       d="m 126.77544,53.325441 h 19.05 v -19.05 h -19.05 z"
       id="path970" />
    <path
       style="font-size:12px;fill:none;fill-rule:evenodd;stroke:#000000;stroke-width:0.2;stroke-linecap:round;stroke-miterlimit:4;stroke-dasharray:none"
       d="m 107.72544,53.325441 h 19.05 v -19.05 h -19.05 z"
       id="path968" />
    <path
       style="font-size:12px;fill:none;fill-rule:evenodd;stroke:#000000;stroke-width:0.2;stroke-linecap:round;stroke-miterlimit:4;stroke-dasharray:none"
       d="m 88.675443,53.325441 h 19.049997 v -19.05 H 88.675443 Z"
       id="path966" />
    <path
       style="font-size:12px;fill:none;fill-rule:evenodd;stroke:#000000;stroke-width:0.2;stroke-linecap:round;stroke-miterlimit:4;stroke-dasharray:none"
       d="m 69.625441,53.325441 h 19.05 v -19.05 h -19.05 z"
       id="path964" />
    <path
       style="font-size:12px;fill:none;fill-rule:evenodd;stroke:#000000;stroke-width:0.2;stroke-linecap:round;stroke-miterlimit:4;stroke-dasharray:none"
       d="m 50.575441,53.325441 h 19.05 v -19.05 h -19.05 z"
       id="path962" />
    <path
       style="font-size:12px;fill:none;fill-rule:evenodd;stroke:#000000;stroke-width:0.2;stroke-linecap:round;stroke-miterlimit:4;stroke-dasharray:none"
       d="m 31.525441,53.325441 h 19.05 v -19.05 h -19.05 z"
       id="path960" />
    <path
       style="font-size:12px;fill:none;fill-rule:evenodd;stroke:#000000;stroke-width:0.2;stroke-linecap:round;stroke-miterlimit:4;stroke-dasharray:none"
       d="m 12.475441,53.325441 h 19.05 v -19.05 h -19.05 z"
       id="path958" />
    <path
       style="font-size:12px;fill:none;fill-rule:evenodd;stroke:#000000;stroke-width:0.2;stroke-linecap:round;stroke-miterlimit:4;stroke-dasharray:none"
       d="m 117.25044,34.275441 h 19.05 v -19.05 h -19.05 z"
       id="path956" />
    <path
       style="font-size:12px;fill:none;fill-rule:evenodd;stroke:#000000;stroke-width:0.2;stroke-linecap:round;stroke-miterlimit:4;stroke-dasharray:none"
       d="m 98.200442,34.275441 h 19.049998 v -19.05 H 98.200442 Z"
       id="path954" />
    <path
       style="font-size:12px;fill:none;fill-rule:evenodd;stroke:#000000;stroke-width:0.2;stroke-linecap:round;stroke-miterlimit:4;stroke-dasharray:none"
       d="M 79.150441,34.275441 H 98.20044 v -19.05 H 79.150441 Z"
       id="path952" />
    <path
       style="font-size:12px;fill:none;fill-rule:evenodd;stroke:#000000;stroke-width:0.2;stroke-linecap:round;stroke-miterlimit:4;stroke-dasharray:none"
       d="m 60.100441,34.275441 h 19.05 v -19.05 h -19.05 z"
       id="path950" />
    <path
       style="font-size:12px;fill:none;fill-rule:evenodd;stroke:#000000;stroke-width:0.2;stroke-linecap:round;stroke-miterlimit:4;stroke-dasharray:none"
       d="m 41.050441,34.275441 h 19.05 v -19.05 h -19.05 z"
       id="path948" />
    <path
       style="font-size:12px;fill:none;fill-rule:evenodd;stroke:#000000;stroke-width:0.2;stroke-linecap:round;stroke-miterlimit:4;stroke-dasharray:none"
       d="m 22.000441,34.275441 h 19.05 v -19.05 h -19.05 z"
       id="path946" />
    <path
       style="font-size:12px;fill:none;fill-rule:evenodd;stroke:#000000;stroke-width:0.2;stroke-linecap:round;stroke-miterlimit:4;stroke-dasharray:none"
       d="m 64.862941,110.47544 h 23.8125 V 91.425441 h -23.8125 z"
       id="path944" />
    <path
       style="font-size:12px;fill:none;fill-rule:evenodd;stroke:#000000;stroke-width:0.2;stroke-linecap:round;stroke-miterlimit:4;stroke-dasharray:none"
       d="m 174.40045,34.275441 h -28.57501 v 19.05 h 28.57501 z"
       id="path942" />
    <path
       style="font-size:12px;fill:none;fill-rule:evenodd;stroke:#000000;stroke-width:0.2;stroke-linecap:round;stroke-miterlimit:4;stroke-dasharray:none"
       d="m 26.762941,110.47544 h 38.1 V 91.425441 h -38.1 z"
       id="path940" />
    <path
       style="font-size:12px;fill:none;fill-rule:evenodd;stroke:#000000;stroke-width:0.2;stroke-linecap:round;stroke-miterlimit:4;stroke-dasharray:none"
       d="m 136.30044,34.275441 h 38.10001 v -19.05 h -38.10001 z"
       id="path938" />
    <path
       style="font-size:12px;fill:none;fill-rule:evenodd;stroke:#000000;stroke-width:0.2;stroke-linecap:round;stroke-miterlimit:4;stroke-dasharray:none"
       d="m 131.53794,72.375441 h 42.86251 v -19.05 h -42.86251 z"
       id="path936" />
    <path
       style="font-size:12px;fill:none;fill-rule:evenodd;stroke:#000000;stroke-width:0.2;stroke-linecap:round;stroke-miterlimit:4;stroke-dasharray:none"
       d="m 122.01294,91.425441 h 52.38751 v -19.05 h -52.38751 z"
       id="path14" />
  </g>
  <g
     inkscape:groupmode="layer"
     id="g1070"
     inkscape:label="keycaps_spaces_grouped"
     style="display:none">
    <path
       id="path1068"
       style="font-size:12px;fill:none;fill-rule:evenodd;stroke:#000000;stroke-width:0.2;stroke-linecap:round;stroke-miterlimit:4;stroke-dasharray:none"
       d="m 122.01294,91.425441 h 52.38751 v -19.05 h -52.38751 z m 9.525,-19.05 h 42.86251 v -19.05 h -42.86251 z m 4.7625,-38.1 h 38.10001 v -19.05 H 136.30044 Z M 26.762941,110.47544 h 38.1 V 91.425441 h -38.1 z M 174.40045,34.275441 h -28.57501 v 19.05 h 28.57501 z M 64.862941,110.47544 h 23.8125 V 91.425441 h -23.8125 z m -42.8625,-76.199999 h 19.05 v -19.05 h -19.05 z m 19.05,0 h 19.05 v -19.05 h -19.05 z m 19.05,0 h 19.05 v -19.05 h -19.05 z m 19.05,0 H 98.20044 v -19.05 H 79.150441 Z m 19.050001,0 h 19.049998 v -19.05 H 98.200442 Z m 19.049998,0 h 19.05 v -19.05 h -19.05 z m -104.774999,19.05 h 19.05 v -19.05 h -19.05 z m 19.05,0 h 19.05 v -19.05 h -19.05 z m 19.05,0 h 19.05 v -19.05 h -19.05 z m 19.05,0 h 19.05 v -19.05 h -19.05 z m 19.050002,0 h 19.049997 v -19.05 H 88.675443 Z m 19.049997,0 h 19.05 v -19.05 h -19.05 z m 19.05,0 h 19.05 v -19.05 h -19.05 z m -109.537499,19.05 h 19.05 v -19.05 h -19.05 z m 19.05,0 h 19.05 v -19.05 h -19.05 z m 19.05,0 h 19.05 v -19.05 h -19.05 z m 19.05,0 h 19.05 v -19.05 h -19.05 z m 19.050002,0 h 19.049997 v -19.05 H 93.437943 Z m 19.049997,0 h 19.05 v -19.05 h -19.05 z m -85.724999,19.05 h 19.05 v -19.05 h -19.05 z m 19.05,0 h 19.05 v -19.05 h -19.05 z m 19.05,0 h 19.05 v -19.05 h -19.05 z m 19.050001,0 h 19.049998 v -19.05 H 83.912942 Z m 19.049998,0 h 19.05 v -19.05 h -19.05 z M 98.200442,110.47544 H 117.25044 V 91.425441 H 98.200442 Z m 19.049998,0 h 19.05 V 91.425441 h -19.05 z m 19.05,0 h 19.05001 V 91.425441 h -19.05001 z m 19.05,0 h 19.05 V 91.425441 h -19.05 z" />
  </g>
  <g
     inkscape:groupmode="layer"
     id="g1163"
     inkscape:label="keycaps_space"
     style="display:none">
    <path
       id="path1161"
       style="font-size:12px;fill:none;fill-rule:evenodd;stroke:#000000;stroke-width:0.755906;stroke-linecap:round;stroke-miterlimit:4;stroke-dasharray:none"
       d="m 83.150391,57.544922 v 71.999998 h -36 v 72 h 18 v 72 h 35.999999 v 72 72 h 144 90 v -72 h 36 v 72 h 72 72 72 72 v -72 -72 -72 -72 -71.999998 h -144 -72 -72 -72 -72 -72 z"
       transform="scale(0.26458333)" />
  </g>
  <g
     inkscape:groupmode="layer"
     id="g1158"
     inkscape:label="keycaps_extra_space"
     style="display:none">
    <path
       id="path1156"
       style="font-size:12px;fill:none;fill-rule:evenodd;stroke:#000000;stroke-width:0.755906;stroke-linecap:round;stroke-miterlimit:4;stroke-dasharray:none"
       d="m 101.15039,420.94489 h 235.88898 v -73.51181 h 32.22048 v 73.51181 H 661.03938 V 55.653544 H 83.150391 v 73.891376 h -36 v 72 h 18 v 72 h 35.999999 z"
       transform="scale(0.26458333)"
       sodipodi:nodetypes="ccccccccccccccc" />
  </g>
  <g
     inkscape:groupmode="layer"
     id="g1172"
     inkscape:label="inner_case"
     style="display:none">
    <path
       id="path1170"
       style="font-size:12px;fill:none;fill-rule:evenodd;stroke:#000000;stroke-width:0.755906;stroke-linecap:round;stroke-miterlimit:4;stroke-dasharray:none"
       d="M 661.03938,420.94489 V 55.653544 H 83.150391 v 73.891376 h -36 v 72 h 18 v 72 h 35.999999 v 147.39997 z"
       transform="scale(0.26458333)"
       sodipodi:nodetypes="ccccccccccc" />
  </g>
  <g
     inkscape:groupmode="layer"
     id="g1168"
     inkscape:label="case"
     style="display:inline">
    <path
       id="path1166"
       style="font-size:12px;fill:none;fill-rule:evenodd;stroke:#000000;stroke-width:0.755906;stroke-linecap:round;stroke-miterlimit:4;stroke-dasharray:none"
       d="M 698.83465,458.74016 V 17.858268 H 83.150391 V 129.54492 h -36 v 72 h 18 v 72 h 35.999999 v 185.19524 z"
       transform="scale(0.26458333)"
       sodipodi:nodetypes="ccccccccccc" />
  </g>
  <g
     inkscape:groupmode="layer"
     id="layer2"
     inkscape:label="screw_holes_2mm"
     style="display:inline">
    <circle
       style="fill:none;stroke:#000000;stroke-width:0.2;stroke-miterlimit:4;stroke-dasharray:none;stroke-opacity:1"
       id="path1176"
       cx="27"
       cy="9.7250004"
       r="1" />
    <circle
       style="fill:none;stroke:#000000;stroke-width:0.2;stroke-miterlimit:4;stroke-dasharray:none;stroke-opacity:1"
       id="circle1178"
       cx="103.45"
       cy="9.7250004"
       r="1" />
    <circle
       style="fill:none;stroke:#000000;stroke-width:0.2;stroke-miterlimit:4;stroke-dasharray:none;stroke-opacity:1"
       id="circle1180"
       cx="179.89999"
       cy="9.7250004"
       r="1" />
    <circle
       style="fill:none;stroke:#000000;stroke-width:0.2;stroke-miterlimit:4;stroke-dasharray:none;stroke-opacity:1"
       id="circle1182"
       cx="179.89999"
       cy="63.049999"
       r="1" />
    <circle
       style="fill:none;stroke:#000000;stroke-width:0.2;stroke-miterlimit:4;stroke-dasharray:none;stroke-opacity:1"
       id="circle1184"
       cx="179.89999"
       cy="116.375"
       r="1" />
    <circle
       style="fill:none;stroke:#000000;stroke-width:0.2;stroke-miterlimit:4;stroke-dasharray:none;stroke-opacity:1"
       id="circle1188"
       cx="105.833"
       cy="116.375"
       r="1" />
    <circle
       style="fill:none;stroke:#000000;stroke-width:0.2;stroke-miterlimit:4;stroke-dasharray:none;stroke-opacity:1"
       id="circle1190"
       cx="31.763"
       cy="116.375"
       r="1" />
  </g>
  <g
     inkscape:groupmode="layer"
     id="g1206"
     inkscape:label="spacer_holes_3.5mm"
     style="display:none">
    <circle
       style="fill:none;stroke:#000000;stroke-width:0.2;stroke-miterlimit:4;stroke-dasharray:none;stroke-opacity:1"
       id="circle1192"
       cx="27"
       cy="9.7250004"
       r="1.75" />
    <circle
       style="fill:none;stroke:#000000;stroke-width:0.2;stroke-miterlimit:4;stroke-dasharray:none;stroke-opacity:1"
       id="circle1194"
       cx="103.45"
       cy="9.7250004"
       r="1.75" />
    <circle
       style="fill:none;stroke:#000000;stroke-width:0.2;stroke-miterlimit:4;stroke-dasharray:none;stroke-opacity:1"
       id="circle1196"
       cx="179.89999"
       cy="9.7250004"
       r="1.75" />
    <circle
       style="fill:none;stroke:#000000;stroke-width:0.2;stroke-miterlimit:4;stroke-dasharray:none;stroke-opacity:1"
       id="circle1198"
       cx="179.89999"
       cy="63.049999"
       r="1.75" />
    <circle
       style="fill:none;stroke:#000000;stroke-width:0.2;stroke-miterlimit:4;stroke-dasharray:none;stroke-opacity:1"
       id="circle1200"
       cx="179.89999"
       cy="116.375"
       r="1.75" />
    <circle
       style="fill:none;stroke:#000000;stroke-width:0.2;stroke-miterlimit:4;stroke-dasharray:none;stroke-opacity:1"
       id="circle1202"
       cx="105.833"
       cy="116.375"
       r="1.75" />
    <circle
       style="fill:none;stroke:#000000;stroke-width:0.2;stroke-miterlimit:4;stroke-dasharray:none;stroke-opacity:1"
       id="circle1204"
       cx="31.763"
       cy="116.375"
       r="1.75" />
  </g>
</svg>
