<?xml version="1.0"?>
<!-- Generated by SVGo -->
<svg width="87.152mm" height="87.152mm"
     viewBox="0.000 0.000 87.152 87.152"
     xmlns="http://www.w3.org/2000/svg" 
     xmlns:xlink="http://www.w3.org/1999/xlink">
<polygon points="77.152,5.001 77.544,5.016 77.934,5.062 78.319,5.139 78.697,5.245 79.065,5.381 79.421,5.545 79.764,5.737 80.090,5.955 80.399,6.198 80.687,6.465 80.954,6.753 81.197,7.062 81.415,7.388 81.607,7.731 81.771,8.087 81.907,8.455 82.013,8.833 82.090,9.218 82.136,9.608 82.152,10.001 82.152,77.152 82.136,77.544 82.090,77.934 82.013,78.319 81.907,78.697 81.771,79.065 81.607,79.421 81.415,79.764 81.197,80.090 80.954,80.399 80.687,80.687 80.399,80.954 80.090,81.197 79.764,81.415 79.421,81.607 79.065,81.771 78.697,81.907 78.319,82.013 77.934,82.090 77.544,82.136 77.151,82.152 10.001,82.152 9.608,82.136 9.218,82.090 8.833,82.013 8.455,81.907 8.087,81.771 7.731,81.607 7.388,81.415 7.062,81.197 6.753,80.954 6.465,80.687 6.198,80.399 5.955,80.090 5.737,79.764 5.545,79.421 5.381,79.065 5.245,78.697 5.139,78.319 5.062,77.934 5.016,77.544 5.000,77.151 5.001,10.001 5.016,9.608 5.062,9.218 5.139,8.833 5.245,8.455 5.381,8.087 5.545,7.731 5.737,7.388 5.955,7.062 6.198,6.753 6.465,6.465 6.753,6.198 7.062,5.955 7.388,5.737 7.731,5.545 8.087,5.381 8.455,5.245 8.833,5.139 9.218,5.062 9.608,5.016 10.001,5.000" style="fill:none;stroke-width:0.050000mm;stroke:black"/>
<polygon points="9.321,75.059 8.707,75.372 8.221,75.858 7.908,76.472 7.801,77.152 7.908,77.831 8.221,78.445 8.707,78.931 9.321,79.244 10.001,79.352 10.680,79.244 11.294,78.931 11.780,78.445 12.093,77.831 12.201,77.152 12.093,76.472 11.780,75.858 11.294,75.372 10.680,75.059 10.001,74.952" style="fill:none;stroke-width:0.050000mm;stroke:black"/>
<polygon points="76.472,75.059 75.858,75.372 75.372,75.858 75.059,76.472 74.952,77.152 75.059,77.831 75.372,78.445 75.858,78.931 76.472,79.244 77.152,79.352 77.831,79.244 78.445,78.931 78.931,78.445 79.244,77.831 79.352,77.152 79.244,76.472 78.931,75.858 78.445,75.372 77.831,75.059 77.152,74.952" style="fill:none;stroke-width:0.050000mm;stroke:black"/>
<polygon points="14.999,14.999 14.999,72.152 72.152,72.152 72.152,14.999" style="fill:none;stroke-width:0.050000mm;stroke:black"/>
<polygon points="9.321,7.908 8.707,8.221 8.221,8.707 7.908,9.321 7.801,10.001 7.908,10.680 8.221,11.294 8.707,11.780 9.321,12.093 10.001,12.201 10.680,12.093 11.294,11.780 11.780,11.294 12.093,10.680 12.201,10.001 12.093,9.321 11.780,8.707 11.294,8.221 10.680,7.908 10.001,7.801" style="fill:none;stroke-width:0.050000mm;stroke:black"/>
<polygon points="76.472,7.908 75.858,8.221 75.372,8.707 75.059,9.321 74.952,10.001 75.059,10.680 75.372,11.294 75.858,11.780 76.472,12.093 77.152,12.201 77.831,12.093 78.445,11.780 78.931,11.294 79.244,10.680 79.352,10.001 79.244,9.321 78.931,8.707 78.445,8.221 77.831,7.908 77.152,7.801" style="fill:none;stroke-width:0.050000mm;stroke:black"/>
</svg>
