<?xml version="1.0" encoding="UTF-8" standalone="no"?>
<svg
   xmlns:dc="http://purl.org/dc/elements/1.1/"
   xmlns:cc="http://creativecommons.org/ns#"
   xmlns:rdf="http://www.w3.org/1999/02/22-rdf-syntax-ns#"
   xmlns:svg="http://www.w3.org/2000/svg"
   xmlns="http://www.w3.org/2000/svg"
   xmlns:sodipodi="http://sodipodi.sourceforge.net/DTD/sodipodi-0.dtd"
   xmlns:inkscape="http://www.inkscape.org/namespaces/inkscape"
   width="370mm"
   height="370mm"
   viewBox="0 0 369.99998 370"
   version="1.1"
   id="svg5"
   sodipodi:docname="vInspiration-right-transparent_3mm.svg"
   inkscape:version="1.0.2 (394de47547, 2021-03-26)">
  <metadata
     id="metadata11">
    <rdf:RDF>
      <cc:Work
         rdf:about="">
        <dc:format>image/svg+xml</dc:format>
        <dc:type
           rdf:resource="http://purl.org/dc/dcmitype/StillImage" />
        <dc:title></dc:title>
      </cc:Work>
    </rdf:RDF>
  </metadata>
  <defs
     id="defs9">
    <inkscape:path-effect
       effect="fillet_chamfer"
       id="path-effect148"
       is_visible="true"
       lpeversion="1"
       satellites_param="F,0,0,1,0,5,0,1 @ F,0,0,1,0,5,0,1 @ F,0,0,1,0,5,0,1 @ F,0,0,1,0,5,0,1 @ F,0,0,1,0,5,0,1 @ F,0,0,1,0,5,0,1 @ F,0,0,1,0,5,0,1 @ F,0,0,1,0,5,0,1 @ F,0,0,1,0,5,0,1 @ F,0,0,1,0,5,0,1 @ F,0,0,1,0,5,0,1 @ F,0,0,1,0,5,0,1 @ F,0,0,1,0,5,0,1 @ F,0,0,1,0,5,0,1 @ F,0,0,1,0,5,0,1 @ F,0,0,1,0,5,0,1 @ F,0,0,1,0,5,0,1 @ F,0,0,1,0,5,0,1 @ F,0,0,1,0,5,0,1 @ F,0,0,1,0,5,0,1 @ F,0,0,1,0,5,0,1 @ F,0,0,1,0,5,0,1 @ F,0,0,1,0,5,0,1 @ F,0,0,1,0,5,0,1"
       unit="mm"
       method="auto"
       mode="F"
       radius="5"
       chamfer_steps="1"
       flexible="false"
       use_knot_distance="true"
       apply_no_radius="true"
       apply_with_radius="true"
       only_selected="false"
       hide_knots="false" />
    <inkscape:path-effect
       effect="fillet_chamfer"
       id="path-effect122"
       is_visible="true"
       lpeversion="1"
       satellites_param="F,0,0,1,0,5,0,1 @ F,0,0,1,0,5,0,1 @ F,0,0,1,0,5,0,1 @ F,0,0,1,0,5,0,1 @ F,0,0,1,0,5,0,1 @ F,0,0,1,0,5,0,1 @ F,0,0,1,0,5,0,1 @ F,0,0,1,0,5,0,1 @ F,0,0,1,0,5,0,1 @ F,0,0,1,0,5,0,1 @ F,0,0,1,0,5,0,1 @ F,0,0,1,0,5,0,1 @ F,0,0,1,0,5,0,1 @ F,0,0,1,0,5,0,1 @ F,0,0,1,0,5,0,1 @ F,0,0,1,0,5,0,1 @ F,0,0,1,0,5,0,1 @ F,0,0,1,0,5,0,1 @ F,0,0,1,0,5,0,1 @ F,0,0,1,0,5,0,1 @ F,0,0,1,0,5,0,1 @ F,0,0,1,0,5,0,1 @ F,0,0,1,0,5,0,1 @ F,0,0,1,0,5,0,1"
       unit="mm"
       method="auto"
       mode="F"
       radius="5"
       chamfer_steps="1"
       flexible="false"
       use_knot_distance="true"
       apply_no_radius="true"
       apply_with_radius="true"
       only_selected="false"
       hide_knots="false" />
    <inkscape:path-effect
       effect="fillet_chamfer"
       id="path-effect96"
       is_visible="true"
       lpeversion="1"
       satellites_param="F,0,0,1,0,5,0,1 @ F,0,0,1,0,5,0,1 @ F,0,0,1,0,5,0,1 @ F,0,0,1,0,5,0,1 @ F,0,0,1,0,5,0,1 @ F,0,0,1,0,5,0,1 @ F,0,0,1,0,5,0,1 @ F,0,0,1,0,5,0,1 @ F,0,0,1,0,5,0,1 @ F,0,0,1,0,5,0,1 @ F,0,0,1,0,5,0,1 @ F,0,0,1,0,5,0,1 @ F,0,0,1,0,5,0,1 @ F,0,0,1,0,5,0,1 @ F,0,0,1,0,5,0,1 @ F,0,0,1,0,5,0,1 @ F,0,0,1,0,5,0,1 @ F,0,0,1,0,5,0,1 @ F,0,0,1,0,5,0,1 @ F,0,0,1,0,5,0,1 @ F,0,0,1,0,5,0,1 @ F,0,0,1,0,5,0,1 @ F,0,0,1,0,5,0,1 @ F,0,0,1,0,5,0,1"
       unit="mm"
       method="auto"
       mode="F"
       radius="5"
       chamfer_steps="1"
       flexible="false"
       use_knot_distance="true"
       apply_no_radius="true"
       apply_with_radius="true"
       only_selected="false"
       hide_knots="false" />
    <inkscape:path-effect
       effect="fillet_chamfer"
       id="path-effect165"
       is_visible="true"
       lpeversion="1"
       satellites_param="F,0,0,1,0,5,0,1 @ F,0,0,1,0,5,0,1 @ F,0,0,1,0,5,0,1 @ F,0,0,1,0,5,0,1 @ F,0,0,1,0,5,0,1 @ F,0,0,1,0,5,0,1 @ F,0,0,1,0,5,0,1 @ F,0,0,1,0,5,0,1 @ F,0,0,1,0,5,0,1 @ F,0,0,1,0,5,0,1"
       unit="mm"
       method="auto"
       mode="F"
       radius="5"
       chamfer_steps="1"
       flexible="false"
       use_knot_distance="true"
       apply_no_radius="true"
       apply_with_radius="true"
       only_selected="false"
       hide_knots="false" />
    <inkscape:path-effect
       effect="fillet_chamfer"
       id="path-effect163"
       is_visible="true"
       lpeversion="1"
       satellites_param="F,0,0,1,0,5,0,1 @ F,0,0,1,0,5,0,1 @ F,0,0,1,0,5,0,1 @ F,0,0,1,0,5,0,1 @ F,0,0,1,0,5,0,1 @ F,0,0,1,0,5,0,1 @ F,0,0,1,0,5,0,1 @ F,0,0,1,0,5,0,1 @ F,0,0,1,0,5,0,1 @ F,0,0,1,0,5,0,1"
       unit="mm"
       method="auto"
       mode="F"
       radius="5"
       chamfer_steps="1"
       flexible="false"
       use_knot_distance="true"
       apply_no_radius="true"
       apply_with_radius="true"
       only_selected="false"
       hide_knots="false" />
    <inkscape:path-effect
       effect="fillet_chamfer"
       id="path-effect161"
       is_visible="true"
       lpeversion="1"
       satellites_param="F,0,0,1,0,5,0,1 @ F,0,0,1,0,5,0,1 @ F,0,0,1,0,5,0,1 @ F,0,0,1,0,5,0,1 @ F,0,0,1,0,5,0,1 @ F,0,0,1,0,5,0,1 @ F,0,0,1,0,5,0,1 @ F,0,0,1,0,5,0,1 @ F,0,0,1,0,5,0,1 @ F,0,0,1,0,5,0,1 @ F,0,0,1,0,5,0,1 @ F,0,0,1,0,5,0,1 @ F,0,0,1,0,5,0,1 @ F,0,0,1,0,5,0,1"
       unit="mm"
       method="auto"
       mode="F"
       radius="5"
       chamfer_steps="1"
       flexible="false"
       use_knot_distance="true"
       apply_no_radius="true"
       apply_with_radius="true"
       only_selected="false"
       hide_knots="false" />
    <inkscape:path-effect
       effect="fillet_chamfer"
       id="path-effect20"
       is_visible="true"
       lpeversion="1"
       satellites_param="F,0,0,1,0,5,0,1 @ F,0,0,1,0,5,0,1 @ F,0,0,1,0,5,0,1 @ F,0,0,1,0,5,0,1 @ F,0,0,1,0,5,0,1 @ F,0,0,1,0,5,0,1 @ F,0,0,1,0,5,0,1 @ F,0,0,1,0,5,0,1 @ F,0,0,1,0,5,0,1 @ F,0,0,1,0,5,0,1"
       unit="mm"
       method="auto"
       mode="F"
       radius="5"
       chamfer_steps="1"
       flexible="false"
       use_knot_distance="true"
       apply_no_radius="true"
       apply_with_radius="true"
       only_selected="false"
       hide_knots="false" />
    <inkscape:path-effect
       effect="fillet_chamfer"
       id="path-effect1072"
       is_visible="true"
       lpeversion="1"
       satellites_param="F,0,0,1,0,5,0,1 @ F,0,0,1,0,5,0,1 @ F,0,0,1,0,5,0,1 @ F,0,0,1,0,5,0,1 @ F,0,0,1,0,5,0,1 @ F,0,0,1,0,5,0,1 @ F,0,0,1,0,5,0,1 @ F,0,0,1,0,5,0,1 @ F,0,0,1,0,5,0,1 @ F,0,0,1,0,5,0,1 @ F,0,0,1,0,5,0,1 @ F,0,0,1,0,5,0,1 @ F,0,0,1,0,5,0,1 @ F,0,0,1,0,5,0,1 @ F,0,0,1,0,5,0,1 @ F,0,0,1,0,5,0,1 @ F,0,0,1,0,5,0,1 @ F,0,0,1,0,5,0,1 @ F,0,0,1,0,5,0,1 @ F,0,0,1,0,5,0,1 @ F,0,0,1,0,5,0,1 @ F,0,0,1,0,5,0,1 @ F,0,0,1,0,5,0,1 @ F,0,0,1,0,5,0,1"
       unit="mm"
       method="auto"
       mode="F"
       radius="5"
       chamfer_steps="1"
       flexible="false"
       use_knot_distance="true"
       apply_no_radius="true"
       apply_with_radius="true"
       only_selected="false"
       hide_knots="false" />
    <inkscape:path-effect
       effect="fillet_chamfer"
       id="path-effect237"
       is_visible="true"
       lpeversion="1"
       satellites_param="F,0,0,1,0,5,0,1 @ F,0,0,1,0,5,0,1 @ F,0,0,1,0,5,0,1 @ F,0,0,1,0,5,0,1 | F,0,0,1,0,5,0,1 @ F,0,0,1,0,5,0,1 @ F,0,0,1,0,5,0,1 @ F,0,0,1,0,5,0,1 @ F,0,0,1,0,5,0,1 @ F,0,0,1,0,5,0,1 @ F,0,0,1,0,5,0,1 @ F,0,0,1,0,5,0,1 @ F,0,0,1,0,5,0,1 @ F,0,0,1,0,5,0,1 @ F,0,0,1,0,5,0,1 @ F,0,0,1,0,5,0,1 @ F,0,0,1,0,5,0,1 @ F,0,0,1,0,5,0,1 @ F,0,0,1,0,5,0,1 @ F,0,0,1,0,5,0,1 @ F,0,0,1,0,5,0,1 @ F,0,0,1,0,5,0,1 @ F,0,0,1,0,5,0,1 @ F,0,0,1,0,5,0,1 @ F,0,0,1,0,5,0,1 @ F,0,0,1,0,5,0,1 @ F,0,0,1,0,5,0,1 @ F,0,0,1,0,5,0,1"
       unit="mm"
       method="auto"
       mode="F"
       radius="5"
       chamfer_steps="1"
       flexible="false"
       use_knot_distance="true"
       apply_no_radius="true"
       apply_with_radius="true"
       only_selected="false"
       hide_knots="false" />
    <inkscape:path-effect
       effect="fillet_chamfer"
       id="path-effect175"
       is_visible="true"
       lpeversion="1"
       satellites_param="F,0,0,1,0,5,0,1 @ F,0,0,1,0,5,0,1 @ F,0,0,1,0,5,0,1 @ F,0,0,1,0,5,0,1 @ F,0,0,1,0,5,0,1 @ F,0,0,1,0,5,0,1 @ F,0,0,1,0,5,0,1 @ F,0,0,1,0,5,0,1 @ F,0,0,1,0,5,0,1 @ F,0,0,1,0,5,0,1"
       unit="mm"
       method="auto"
       mode="F"
       radius="5"
       chamfer_steps="1"
       flexible="false"
       use_knot_distance="true"
       apply_no_radius="true"
       apply_with_radius="true"
       only_selected="false"
       hide_knots="false" />
    <inkscape:path-effect
       effect="fillet_chamfer"
       id="path-effect171"
       is_visible="true"
       lpeversion="1"
       satellites_param="F,0,0,1,0,5,0,1 @ F,0,0,1,0,5,0,1 @ F,0,0,1,0,5,0,1 @ F,0,0,1,0,5,0,1 @ F,0,0,1,0,5,0,1 @ F,0,0,1,0,5,0,1 @ F,0,0,1,0,5,0,1 @ F,0,0,1,0,5,0,1 @ F,0,0,1,0,5,0,1 @ F,0,0,1,0,5,0,1"
       unit="mm"
       method="auto"
       mode="F"
       radius="5"
       chamfer_steps="1"
       flexible="false"
       use_knot_distance="true"
       apply_no_radius="true"
       apply_with_radius="true"
       only_selected="false"
       hide_knots="false" />
    <inkscape:path-effect
       effect="fillet_chamfer"
       id="path-effect166"
       is_visible="true"
       lpeversion="1"
       satellites_param="F,0,0,1,0,5,0,1 @ F,0,0,1,0,5,0,1 @ F,0,0,1,0,5,0,1 @ F,0,0,1,0,5,0,1 @ F,0,0,1,0,5,0,1 @ F,0,0,1,0,5,0,1 @ F,0,0,1,0,5,0,1 @ F,0,0,1,0,5,0,1 @ F,0,0,1,0,5,0,1 @ F,0,0,1,0,5,0,1"
       unit="mm"
       method="auto"
       mode="F"
       radius="5"
       chamfer_steps="1"
       flexible="false"
       use_knot_distance="true"
       apply_no_radius="true"
       apply_with_radius="true"
       only_selected="false"
       hide_knots="false" />
    <inkscape:path-effect
       effect="fillet_chamfer"
       id="path-effect164"
       is_visible="true"
       lpeversion="1"
       satellites_param="F,0,0,1,0,5,0,1 @ F,0,0,1,0,5,0,1 @ F,0,0,1,0,5,0,1 @ F,0,0,1,0,5,0,1 @ F,0,0,1,0,5,0,1 @ F,0,0,1,0,5,0,1 @ F,0,0,1,0,5,0,1 @ F,0,0,1,0,5,0,1 @ F,0,0,1,0,5,0,1 @ F,0,0,1,0,5,0,1"
       unit="mm"
       method="auto"
       mode="F"
       radius="5"
       chamfer_steps="1"
       flexible="false"
       use_knot_distance="true"
       apply_no_radius="true"
       apply_with_radius="true"
       only_selected="false"
       hide_knots="false" />
  </defs>
  <sodipodi:namedview
     pagecolor="#ffffff"
     bordercolor="#666666"
     borderopacity="1"
     objecttolerance="10"
     gridtolerance="10"
     guidetolerance="10"
     inkscape:pageopacity="0"
     inkscape:pageshadow="2"
     inkscape:window-width="2560"
     inkscape:window-height="1372"
     id="namedview7"
     showgrid="false"
     inkscape:document-units="mm"
     inkscape:zoom="0.89995173"
     inkscape:cx="698.83391"
     inkscape:cy="679.18247"
     inkscape:window-x="0"
     inkscape:window-y="40"
     inkscape:window-maximized="1"
     inkscape:current-layer="g1168"
     inkscape:snap-object-midpoints="true"
     inkscape:snap-nodes="true"
     inkscape:snap-intersection-paths="true"
     inkscape:object-paths="true"
     inkscape:snap-smooth-nodes="true"
     showguides="false"
     inkscape:guide-bbox="true"
     inkscape:document-rotation="0" />
  <g
     inkscape:groupmode="layer"
     id="g1168"
     inkscape:label="case"
     style="display:inline">
    <path
       id="path1166"
       style="font-size:12px;fill:none;fill-rule:evenodd;stroke:#000000;stroke-width:0.755906;stroke-linecap:round;stroke-miterlimit:4;stroke-dasharray:none;stroke-opacity:1"
       d="M 698.83465,453.74016 V 22.858268 a 5,5 45 0 0 -5,-5 H 88.150391 a 5,5 135 0 0 -5,5 V 124.54492 a 5,5 135 0 1 -5,5 h -26 a 5,5 135 0 0 -5,5 v 62 a 5,5 45 0 0 5,5 h 8 a 5,5 45 0 1 5,5 v 62 a 5,5 45 0 0 5,5 H 96.15039 a 5,5 45 0 1 5,5 v 175.19524 a 5,5 45 0 0 5,5 h 587.68426 a 5,5 135 0 0 5,-5 z"
       transform="scale(0.26458333)"
       sodipodi:nodetypes="ccccccccccc" />
  </g>
  <g
     inkscape:groupmode="layer"
     id="layer2"
     inkscape:label="screw_holes_2mm"
     style="display:inline">
    <path
       id="path1176"
       style="fill:none;stroke:#000000;stroke-width:0.2;stroke-miterlimit:4;stroke-dasharray:none;stroke-opacity:1"
       d="M 28,9.7250004 A 1,1 0 0 1 27,10.725 1,1 0 0 1 26,9.7250004 a 1,1 0 0 1 1,-1 1,1 0 0 1 1,1 z" />
    <path
       id="circle1178"
       style="fill:none;stroke:#000000;stroke-width:0.2;stroke-miterlimit:4;stroke-dasharray:none;stroke-opacity:1"
       d="M 52,9.7250004 A 1,1 0 0 1 51,10.725 1,1 0 0 1 50,9.7250004 a 1,1 0 0 1 1,-1 1,1 0 0 1 1,1 z" />
    <path
       id="circle1180"
       style="fill:none;stroke:#000000;stroke-width:0.2;stroke-miterlimit:4;stroke-dasharray:none;stroke-opacity:1"
       d="m 180.89999,9.7250004 a 1,1 0 0 1 -1,0.9999996 1,1 0 0 1 -1,-0.9999996 1,1 0 0 1 1,-1 1,1 0 0 1 1,1 z" />
    <path
       id="circle1182"
       style="fill:none;stroke:#000000;stroke-width:0.2;stroke-miterlimit:4;stroke-dasharray:none;stroke-opacity:1"
       d="m 180.89999,63.049999 a 1,1 0 0 1 -1,1 1,1 0 0 1 -1,-1 1,1 0 0 1 1,-1 1,1 0 0 1 1,1 z" />
    <path
       id="circle1184"
       style="fill:none;stroke:#000000;stroke-width:0.2;stroke-miterlimit:4;stroke-dasharray:none;stroke-opacity:1"
       d="m 180.89999,116.375 a 1,1 0 0 1 -1,1 1,1 0 0 1 -1,-1 1,1 0 0 1 1,-1 1,1 0 0 1 1,1 z" />
    <path
       id="circle1188"
       style="fill:none;stroke:#000000;stroke-width:0.2;stroke-miterlimit:4;stroke-dasharray:none;stroke-opacity:1"
       d="m 106.833,116.375 a 1,1 0 0 1 -1,1 1,1 0 0 1 -1,-1 1,1 0 0 1 1,-1 1,1 0 0 1 1,1 z" />
    <path
       id="circle1190"
       style="fill:none;stroke:#000000;stroke-width:0.2;stroke-miterlimit:4;stroke-dasharray:none;stroke-opacity:1"
       d="m 32.763,116.375 a 1,1 0 0 1 -1,1 1,1 0 0 1 -1,-1 1,1 0 0 1 1,-1 1,1 0 0 1 1,1 z" />
    <path
       id="circle164"
       style="fill:none;stroke:#000000;stroke-width:0.2;stroke-miterlimit:4;stroke-dasharray:none;stroke-opacity:1"
       d="m 134.35001,9.7250004 a 1,1 0 0 1 -1,0.9999996 1,1 0 0 1 -1,-0.9999996 1,1 0 0 1 1,-1 1,1 0 0 1 1,1 z" />
  </g>
  <g
     inkscape:groupmode="layer"
     id="layer1"
     inkscape:label="micro_jpm_stuff">
    <g
       id="g187"
       inkscape:label="micro_jpm_mounting_holes"
       style="display:inline;stroke:#000000;stroke-width:0.2;stroke-miterlimit:4;stroke-dasharray:none;stroke-opacity:1"
       transform="translate(89.043961,27.378068)">
      <path
         id="path185"
         style="display:inline;fill:none;stroke:#000000;stroke-width:0.2;stroke-miterlimit:4;stroke-dasharray:none;stroke-opacity:1"
         d="m 35.032578,-9.203069 a 1.45,1.45 0 0 1 -1.45,1.4500009 1.45,1.45 0 0 1 -1.45,-1.4500009 1.45,1.45 0 0 1 1.45,-1.449999 1.45,1.45 0 0 1 1.45,1.449999 m 0,45.799002 a 1.45,1.45 0 0 1 -1.45,1.45 1.45,1.45 0 0 1 -1.45,-1.45 1.45,1.45 0 0 1 1.45,-1.45 1.45,1.45 0 0 1 1.45,1.45 m -45.798999,0 a 1.45,1.45 0 0 1 -1.45,1.45 1.45,1.45 0 0 1 -1.45,-1.45 1.45,1.45 0 0 1 1.45,-1.45 1.45,1.45 0 0 1 1.45,1.45 m 0,-45.799002 a 1.45,1.45 0 0 1 -1.45,1.4500009 1.45,1.45 0 0 1 -1.45,-1.4500009 1.45,1.45 0 0 1 1.45,-1.449999 1.45,1.45 0 0 1 1.45,1.449999" />
    </g>
  </g>
  <g
     inkscape:groupmode="layer"
     id="layer3"
     inkscape:label="open1"
     style="display:inline">
    <g
       id="g70"
       transform="matrix(-1,0,0,1,369.79982,2.2388347e-4)"
       style="stroke:#000000;stroke-width:0.2;stroke-miterlimit:4;stroke-dasharray:none;stroke-opacity:1">
      <g
         id="g1070"
         inkscape:label="case_handwired"
         style="stroke:#000000;stroke-width:0.2;stroke-miterlimit:4;stroke-dasharray:none;stroke-opacity:1">
        <path
           id="path1068"
           style="font-size:12px;fill:none;fill-rule:evenodd;stroke:#000000;stroke-width:0.755906;stroke-linecap:round;stroke-miterlimit:4;stroke-dasharray:none;stroke-opacity:1"
           d="m 698.83398,22.857422 c 0,-2.761424 -2.23858,-5 -5,-5 H 419.71623 c -2.76142,0 -5,2.238576 -5,5 v 27.796875 c 0,2.761424 2.23858,5 5,5 h 236.32283 c 2.76142,0 5,2.238576 5,5 V 415.94531 c 0,2.76142 -2.23858,5 -5,5 H 113.70898 c -2.76142,0 -5,-2.23858 -5,-5 V 270.98438 c 0,-2.76142 -2.23858,-5 -5,-5 H 77.708984 c -2.761424,0 -5,-2.23858 -5,-5 v -62 c 0,-2.76142 -2.238576,-5 -5,-5 h -8 c -2.761424,0 -5,-2.23858 -5,-5 v -46.88282 c 0,-2.76142 2.238576,-5 5,-5 h 26 c 2.761424,0 5,-2.23858 5,-5 V 60.654297 c 0,-2.761424 2.238576,-5 5,-5 h 35.354006 c 2.76142,0 5,-2.238576 5,-5 V 22.858268 c 0,-2.761437 -2.23856,-5.000036 -5,-5.00008 l -42.912599,-6.86e-4 c -2.761411,-4.4e-5 -5,2.238509 -5,4.99992 V 124.54492 c 0,2.76142 -2.238576,5 -5,5 h -26 c -2.761424,0 -5,2.23858 -5,5 v 62 c 0,2.76142 2.238576,5 5,5 h 8 c 2.761424,0 5,2.23858 5,5 v 62 c 0,2.76142 2.238576,5 5,5 H 96.15039 c 2.761424,0 5,2.23858 5,5 v 175.19531 c 0,2.76142 2.23858,5 5,5 h 587.68359 c 2.76142,0 5,-2.23858 5,-5"
           transform="scale(0.26458333)"
           sodipodi:nodetypes="csssscccccccccccccccccccccccccsssssssssssssssssc" />
      </g>
      <g
         id="g1206"
         inkscape:label="spacer_holes_3.5mm"
         style="display:inline;stroke:#000000;stroke-width:0.2;stroke-miterlimit:4;stroke-dasharray:none;stroke-opacity:1">
        <path
           id="circle1192"
           style="fill:none;stroke:#000000;stroke-width:0.2;stroke-miterlimit:4;stroke-dasharray:none;stroke-opacity:1"
           d="M 28.75,9.7250004 A 1.75,1.75 0 0 1 27,11.475 1.75,1.75 0 0 1 25.25,9.7250004 a 1.75,1.75 0 0 1 1.75,-1.75 1.75,1.75 0 0 1 1.75,1.75 z" />
        <path
           id="circle1196"
           style="fill:none;stroke:#000000;stroke-width:0.2;stroke-miterlimit:4;stroke-dasharray:none;stroke-opacity:1"
           d="m 181.64999,9.7250004 a 1.75,1.75 0 0 1 -1.75,1.7499996 1.75,1.75 0 0 1 -1.75,-1.7499996 1.75,1.75 0 0 1 1.75,-1.75 1.75,1.75 0 0 1 1.75,1.75 z" />
        <path
           id="circle1198"
           style="fill:none;stroke:#000000;stroke-width:0.2;stroke-miterlimit:4;stroke-dasharray:none;stroke-opacity:1"
           d="m 181.64999,63.049999 a 1.75,1.75 0 0 1 -1.75,1.75 1.75,1.75 0 0 1 -1.75,-1.75 1.75,1.75 0 0 1 1.75,-1.75 1.75,1.75 0 0 1 1.75,1.75 z" />
        <path
           id="circle1200"
           style="fill:none;stroke:#000000;stroke-width:0.2;stroke-miterlimit:4;stroke-dasharray:none;stroke-opacity:1"
           d="m 181.64999,116.375 a 1.75,1.75 0 0 1 -1.75,1.75 1.75,1.75 0 0 1 -1.75,-1.75 1.75,1.75 0 0 1 1.75,-1.75 1.75,1.75 0 0 1 1.75,1.75 z" />
        <path
           id="circle1202"
           style="fill:none;stroke:#000000;stroke-width:0.2;stroke-miterlimit:4;stroke-dasharray:none;stroke-opacity:1"
           d="m 107.583,116.375 a 1.75,1.75 0 0 1 -1.75,1.75 1.75,1.75 0 0 1 -1.75,-1.75 1.75,1.75 0 0 1 1.75,-1.75 1.75,1.75 0 0 1 1.75,1.75 z" />
        <path
           id="circle1204"
           style="fill:none;stroke:#000000;stroke-width:0.2;stroke-miterlimit:4;stroke-dasharray:none;stroke-opacity:1"
           d="m 33.513,116.375 a 1.75,1.75 0 0 1 -1.75,1.75 1.75,1.75 0 0 1 -1.75,-1.75 1.75,1.75 0 0 1 1.75,-1.75 1.75,1.75 0 0 1 1.75,1.75 z" />
        <path
           id="circle187"
           style="fill:none;stroke:#000000;stroke-width:0.2;stroke-miterlimit:4;stroke-dasharray:none;stroke-opacity:1"
           d="m 135.10001,9.7250004 a 1.75,1.75 0 0 1 -1.75,1.7499996 1.75,1.75 0 0 1 -1.75,-1.7499996 1.75,1.75 0 0 1 1.75,-1.75 1.75,1.75 0 0 1 1.75,1.75 z" />
      </g>
    </g>
  </g>
  <g
     inkscape:groupmode="layer"
     id="g94"
     inkscape:label="open2"
     style="display:inline">
    <g
       id="g92"
       transform="matrix(1,0,0,-1,-2.0900714e-4,242.75026)"
       style="stroke:#000000;stroke-width:0.2;stroke-miterlimit:4;stroke-dasharray:none;stroke-opacity:1">
      <g
         id="g74"
         inkscape:label="case_handwired"
         style="stroke:#000000;stroke-width:0.2;stroke-miterlimit:4;stroke-dasharray:none;stroke-opacity:1">
        <path
           id="path72"
           style="font-size:12px;fill:none;fill-rule:evenodd;stroke:#000000;stroke-width:0.755906;stroke-linecap:round;stroke-miterlimit:4;stroke-dasharray:none;stroke-opacity:1"
           d="m 419.71623,17.857422 c -2.76142,0 -5,2.238576 -5,5 v 27.796875 c 0,2.761424 2.23858,5 5,5 h 236.32283 c 2.76142,0 5,2.238576 5,5 V 415.94531 c 0,2.76142 -2.23858,5 -5,5 H 113.70898 c -2.76142,0 -5,-2.23858 -5,-5 V 270.98438 c 0,-2.76142 -2.23858,-5 -5,-5 H 77.708984 c -2.761424,0 -5,-2.23858 -5,-5 v -62 c 0,-2.76142 -2.238576,-5 -5,-5 h -8 c -2.761424,0 -5,-2.23858 -5,-5 v -46.88282 c 0,-2.76142 2.238576,-5 5,-5 h 26 c 2.761424,0 5,-2.23858 5,-5 V 60.654297 c 0,-2.761424 2.238576,-5 5,-5 h 35.354006 c 2.76142,0 5,-2.238576 5,-5 V 22.858268 c 0,-2.761437 -2.23856,-5.000036 -5,-5.00008 l -42.912599,-6.86e-4 c -2.761411,-4.4e-5 -5,2.238509 -5,4.99992 V 124.54492 c 0,2.76142 -2.238576,5 -5,5 h -26 c -2.761424,0 -5,2.23858 -5,5 v 62 c 0,2.76142 2.238576,5 5,5 h 8 c 2.761424,0 5,2.23858 5,5 v 62 c 0,2.76142 2.238576,5 5,5 H 96.15039 c 2.761424,0 5,2.23858 5,5 v 175.19531 c 0,2.76142 2.23858,5 5,5 m 587.68359,0 c 2.76142,0 5,-2.23858 5,-5 V 22.857422 c 0,-2.761424 -2.23858,-5 -5,-5"
           transform="scale(0.26458333)"
           sodipodi:nodetypes="csscccccccccccccccccccccccccsssssssssssssssccssc" />
      </g>
      <g
         id="g90"
         inkscape:label="spacer_holes_3.5mm"
         style="display:inline;stroke:#000000;stroke-width:0.2;stroke-miterlimit:4;stroke-dasharray:none;stroke-opacity:1">
        <path
           id="circle76"
           style="fill:none;stroke:#000000;stroke-width:0.2;stroke-miterlimit:4;stroke-dasharray:none;stroke-opacity:1"
           d="M 28.75,9.7250004 A 1.75,1.75 0 0 1 27,11.475 1.75,1.75 0 0 1 25.25,9.7250004 a 1.75,1.75 0 0 1 1.75,-1.75 1.75,1.75 0 0 1 1.75,1.75 z" />
        <path
           id="circle78"
           style="fill:none;stroke:#000000;stroke-width:0.2;stroke-miterlimit:4;stroke-dasharray:none;stroke-opacity:1"
           d="m 181.64999,9.7250004 a 1.75,1.75 0 0 1 -1.75,1.7499996 1.75,1.75 0 0 1 -1.75,-1.7499996 1.75,1.75 0 0 1 1.75,-1.75 1.75,1.75 0 0 1 1.75,1.75 z" />
        <path
           id="circle80"
           style="fill:none;stroke:#000000;stroke-width:0.2;stroke-miterlimit:4;stroke-dasharray:none;stroke-opacity:1"
           d="m 181.64999,63.049999 a 1.75,1.75 0 0 1 -1.75,1.75 1.75,1.75 0 0 1 -1.75,-1.75 1.75,1.75 0 0 1 1.75,-1.75 1.75,1.75 0 0 1 1.75,1.75 z" />
        <path
           id="circle82"
           style="fill:none;stroke:#000000;stroke-width:0.2;stroke-miterlimit:4;stroke-dasharray:none;stroke-opacity:1"
           d="m 181.64999,116.375 a 1.75,1.75 0 0 1 -1.75,1.75 1.75,1.75 0 0 1 -1.75,-1.75 1.75,1.75 0 0 1 1.75,-1.75 1.75,1.75 0 0 1 1.75,1.75 z" />
        <path
           id="circle84"
           style="fill:none;stroke:#000000;stroke-width:0.2;stroke-miterlimit:4;stroke-dasharray:none;stroke-opacity:1"
           d="m 107.583,116.375 a 1.75,1.75 0 0 1 -1.75,1.75 1.75,1.75 0 0 1 -1.75,-1.75 1.75,1.75 0 0 1 1.75,-1.75 1.75,1.75 0 0 1 1.75,1.75 z" />
        <path
           id="circle86"
           style="fill:none;stroke:#000000;stroke-width:0.2;stroke-miterlimit:4;stroke-dasharray:none;stroke-opacity:1"
           d="m 33.513,116.375 a 1.75,1.75 0 0 1 -1.75,1.75 1.75,1.75 0 0 1 -1.75,-1.75 1.75,1.75 0 0 1 1.75,-1.75 1.75,1.75 0 0 1 1.75,1.75 z" />
        <path
           id="circle88"
           style="fill:none;stroke:#000000;stroke-width:0.2;stroke-miterlimit:4;stroke-dasharray:none;stroke-opacity:1"
           d="m 135.10001,9.7250004 a 1.75,1.75 0 0 1 -1.75,1.7499996 1.75,1.75 0 0 1 -1.75,-1.7499996 1.75,1.75 0 0 1 1.75,-1.75 1.75,1.75 0 0 1 1.75,1.75 z" />
      </g>
    </g>
  </g>
  <g
     inkscape:groupmode="layer"
     id="g120"
     inkscape:label="open3"
     style="display:inline">
    <g
       id="g118"
       transform="rotate(180,184.89972,121.37513)"
       style="stroke:#000000;stroke-width:0.2;stroke-miterlimit:4;stroke-dasharray:none;stroke-opacity:1">
      <g
         id="g100"
         inkscape:label="case_handwired"
         style="stroke:#000000;stroke-width:0.2;stroke-miterlimit:4;stroke-dasharray:none;stroke-opacity:1">
        <path
           id="path98"
           style="font-size:12px;fill:none;fill-rule:evenodd;stroke:#000000;stroke-width:0.755906;stroke-linecap:round;stroke-miterlimit:4;stroke-dasharray:none;stroke-opacity:1"
           d="m 419.71623,17.857422 c -2.76142,0 -5,2.238576 -5,5 v 27.796875 c 0,2.761424 2.23858,5 5,5 h 236.32283 c 2.76142,0 5,2.238576 5,5 V 415.94531 c 0,2.76142 -2.23858,5 -5,5 H 113.70898 c -2.76142,0 -5,-2.23858 -5,-5 V 270.98438 c 0,-2.76142 -2.23858,-5 -5,-5 H 77.708984 c -2.761424,0 -5,-2.23858 -5,-5 v -62 c 0,-2.76142 -2.238576,-5 -5,-5 h -8 c -2.761424,0 -5,-2.23858 -5,-5 v -46.88282 c 0,-2.76142 2.238576,-5 5,-5 h 26 c 2.761424,0 5,-2.23858 5,-5 V 60.654297 c 0,-2.761424 2.238576,-5 5,-5 h 35.354006 c 2.76142,0 5,-2.238576 5,-5 V 22.858268 c 0,-2.761437 -2.23856,-5.000036 -5,-5.00008 l -42.912599,-6.86e-4 c -2.761411,-4.4e-5 -5,2.238509 -5,4.99992 V 124.54492 c 0,2.76142 -2.238576,5 -5,5 h -26 c -2.761424,0 -5,2.23858 -5,5 v 62 c 0,2.76142 2.238576,5 5,5 h 8 c 2.761424,0 5,2.23858 5,5 v 62 c 0,2.76142 2.238576,5 5,5 H 96.15039 c 2.761424,0 5,2.23858 5,5 v 175.19531 c 0,2.76142 2.23858,5 5,5 m 587.68359,0 c 2.76142,0 5,-2.23858 5,-5 m 0,-430.882808 c 0,-2.761424 -2.23858,-5 -5,-5"
           transform="scale(0.26458333)"
           sodipodi:nodetypes="csscccccccccccccccccccccccccsssssssssssssssccccc" />
      </g>
      <g
         id="g116"
         inkscape:label="spacer_holes_3.5mm"
         style="display:inline;stroke:#000000;stroke-width:0.2;stroke-miterlimit:4;stroke-dasharray:none;stroke-opacity:1">
        <path
           id="circle102"
           style="fill:none;stroke:#000000;stroke-width:0.2;stroke-miterlimit:4;stroke-dasharray:none;stroke-opacity:1"
           d="M 28.75,9.7250004 A 1.75,1.75 0 0 1 27,11.475 1.75,1.75 0 0 1 25.25,9.7250004 a 1.75,1.75 0 0 1 1.75,-1.75 1.75,1.75 0 0 1 1.75,1.75 z" />
        <path
           id="circle104"
           style="fill:none;stroke:#000000;stroke-width:0.2;stroke-miterlimit:4;stroke-dasharray:none;stroke-opacity:1"
           d="m 181.64999,9.7250004 a 1.75,1.75 0 0 1 -1.75,1.7499996 1.75,1.75 0 0 1 -1.75,-1.7499996 1.75,1.75 0 0 1 1.75,-1.75 1.75,1.75 0 0 1 1.75,1.75 z" />
        <path
           id="circle106"
           style="fill:none;stroke:#000000;stroke-width:0.2;stroke-miterlimit:4;stroke-dasharray:none;stroke-opacity:1"
           d="m 181.64999,63.049999 a 1.75,1.75 0 0 1 -1.75,1.75 1.75,1.75 0 0 1 -1.75,-1.75 1.75,1.75 0 0 1 1.75,-1.75 1.75,1.75 0 0 1 1.75,1.75 z" />
        <path
           id="circle108"
           style="fill:none;stroke:#000000;stroke-width:0.2;stroke-miterlimit:4;stroke-dasharray:none;stroke-opacity:1"
           d="m 181.64999,116.375 a 1.75,1.75 0 0 1 -1.75,1.75 1.75,1.75 0 0 1 -1.75,-1.75 1.75,1.75 0 0 1 1.75,-1.75 1.75,1.75 0 0 1 1.75,1.75 z" />
        <path
           id="circle110"
           style="fill:none;stroke:#000000;stroke-width:0.2;stroke-miterlimit:4;stroke-dasharray:none;stroke-opacity:1"
           d="m 107.583,116.375 a 1.75,1.75 0 0 1 -1.75,1.75 1.75,1.75 0 0 1 -1.75,-1.75 1.75,1.75 0 0 1 1.75,-1.75 1.75,1.75 0 0 1 1.75,1.75 z" />
        <path
           id="circle112"
           style="fill:none;stroke:#000000;stroke-width:0.2;stroke-miterlimit:4;stroke-dasharray:none;stroke-opacity:1"
           d="m 33.513,116.375 a 1.75,1.75 0 0 1 -1.75,1.75 1.75,1.75 0 0 1 -1.75,-1.75 1.75,1.75 0 0 1 1.75,-1.75 1.75,1.75 0 0 1 1.75,1.75 z" />
        <path
           id="circle114"
           style="fill:none;stroke:#000000;stroke-width:0.2;stroke-miterlimit:4;stroke-dasharray:none;stroke-opacity:1"
           d="m 135.10001,9.7250004 a 1.75,1.75 0 0 1 -1.75,1.7499996 1.75,1.75 0 0 1 -1.75,-1.7499996 1.75,1.75 0 0 1 1.75,-1.75 1.75,1.75 0 0 1 1.75,1.75 z" />
      </g>
    </g>
  </g>
  <g
     inkscape:groupmode="layer"
     id="g146"
     inkscape:label="open4"
     style="display:inline">
    <g
       id="g144"
       transform="rotate(180,145.05419,179.70025)">
      <g
         id="g126"
         inkscape:label="case_handwired"
         style="stroke:#000000;stroke-width:0.2;stroke-miterlimit:4;stroke-dasharray:none;stroke-opacity:1">
        <path
           id="path124"
           style="font-size:12px;fill:none;fill-rule:evenodd;stroke:#000000;stroke-width:0.755906;stroke-linecap:round;stroke-miterlimit:4;stroke-dasharray:none;stroke-opacity:1"
           d="m 419.71623,55.654297 h 236.32283 a 5,5 45 0 1 5,5 V 415.94531 a 5,5 135 0 1 -5,5 H 113.70898 a 5,5 45 0 1 -5,-5 V 270.98438 a 5,5 45 0 0 -5,-5 H 77.708984 a 5,5 45 0 1 -5,-5 v -62 a 5,5 45 0 0 -5,-5 h -8 a 5,5 45 0 1 -5,-5 l 0,-46.88282 a 5,5 135 0 1 5,-5 l 26,0 a 5,5 135 0 0 5,-5 V 60.654297 a 5,5 135 0 1 5,-5 l 35.354006,0 a 5,5 135 0 0 5,-5 V 22.858268 a 5.0000799,5.0000799 45.000458 0 0 -5,-5.00008 l -42.912599,-6.86e-4 a 4.9999201,4.9999201 135.00046 0 0 -5,4.99992 V 124.54492 a 5,5 135 0 1 -5,5 h -26 a 5,5 135 0 0 -5,5 v 62 a 5,5 45 0 0 5,5 h 8 a 5,5 45 0 1 5,5 v 62 a 5,5 45 0 0 5,5 H 96.15039 a 5,5 45 0 1 5,5 l 0,175.19531 a 5,5 45 0 0 5,5 h 587.68359 a 5,5 135 0 0 5,-5 V 22.857422 a 5,5 45 0 0 -5,-5 H 419.71623 a 5,5 135 0 0 -5,5 v 27.796875 a 5,5 45 0 0 5,5 z"
           transform="scale(0.26458333)"
           sodipodi:nodetypes="ccccccccccccccccccccccccc" />
      </g>
      <g
         id="g142"
         inkscape:label="spacer_holes_3.5mm"
         style="display:inline">
        <path
           id="circle140"
           style="fill:none;stroke:#000000;stroke-width:0.2;stroke-miterlimit:4;stroke-dasharray:none;stroke-opacity:1"
           d="m 135.10001,9.7250004 a 1.75,1.75 0 0 1 -1.75,1.7499996 1.75,1.75 0 0 1 -1.75,-1.7499996 1.75,1.75 0 0 1 1.75,-1.75 1.75,1.75 0 0 1 1.75,1.75 z" />
        <path
           id="circle128"
           style="fill:none;stroke:#000000;stroke-width:0.2;stroke-miterlimit:4;stroke-dasharray:none;stroke-opacity:1"
           d="M 28.75,9.7250004 A 1.75,1.75 0 0 1 27,11.475 1.75,1.75 0 0 1 25.25,9.7250004 a 1.75,1.75 0 0 1 1.75,-1.75 1.75,1.75 0 0 1 1.75,1.75 z" />
        <path
           id="circle130"
           style="fill:none;stroke:#000000;stroke-width:0.2;stroke-miterlimit:4;stroke-dasharray:none;stroke-opacity:1"
           d="m 181.64999,9.7250004 a 1.75,1.75 0 0 1 -1.75,1.7499996 1.75,1.75 0 0 1 -1.75,-1.7499996 1.75,1.75 0 0 1 1.75,-1.75 1.75,1.75 0 0 1 1.75,1.75 z" />
        <path
           id="circle132"
           style="fill:none;stroke:#000000;stroke-width:0.2;stroke-miterlimit:4;stroke-dasharray:none;stroke-opacity:1"
           d="m 181.64999,63.049999 a 1.75,1.75 0 0 1 -1.75,1.75 1.75,1.75 0 0 1 -1.75,-1.75 1.75,1.75 0 0 1 1.75,-1.75 1.75,1.75 0 0 1 1.75,1.75 z" />
        <path
           id="circle134"
           style="fill:none;stroke:#000000;stroke-width:0.2;stroke-miterlimit:4;stroke-dasharray:none;stroke-opacity:1"
           d="m 181.64999,116.375 a 1.75,1.75 0 0 1 -1.75,1.75 1.75,1.75 0 0 1 -1.75,-1.75 1.75,1.75 0 0 1 1.75,-1.75 1.75,1.75 0 0 1 1.75,1.75 z" />
        <path
           id="circle136"
           style="fill:none;stroke:#000000;stroke-width:0.2;stroke-miterlimit:4;stroke-dasharray:none;stroke-opacity:1"
           d="m 107.583,116.375 a 1.75,1.75 0 0 1 -1.75,1.75 1.75,1.75 0 0 1 -1.75,-1.75 1.75,1.75 0 0 1 1.75,-1.75 1.75,1.75 0 0 1 1.75,1.75 z" />
        <path
           id="circle138"
           style="fill:none;stroke:#000000;stroke-width:0.2;stroke-miterlimit:4;stroke-dasharray:none;stroke-opacity:1"
           d="m 33.513,116.375 a 1.75,1.75 0 0 1 -1.75,1.75 1.75,1.75 0 0 1 -1.75,-1.75 1.75,1.75 0 0 1 1.75,-1.75 1.75,1.75 0 0 1 1.75,1.75 z" />
      </g>
    </g>
  </g>
</svg>
