<?xml version="1.0" encoding="UTF-8" standalone="no"?>
<svg
   xmlns:dc="http://purl.org/dc/elements/1.1/"
   xmlns:cc="http://creativecommons.org/ns#"
   xmlns:rdf="http://www.w3.org/1999/02/22-rdf-syntax-ns#"
   xmlns:svg="http://www.w3.org/2000/svg"
   xmlns="http://www.w3.org/2000/svg"
   xmlns:sodipodi="http://sodipodi.sourceforge.net/DTD/sodipodi-0.dtd"
   xmlns:inkscape="http://www.inkscape.org/namespaces/inkscape"
   width="170mm"
   height="130mm"
   viewBox="0 0 170.00001 130"
   version="1.1"
   id="svg5"
   sodipodi:docname="vInspiration-left-bottom.svg"
   inkscape:version="1.0.2 (1.0.2+r75+1)">
  <metadata
     id="metadata11">
    <rdf:RDF>
      <cc:Work
         rdf:about="">
        <dc:format>image/svg+xml</dc:format>
        <dc:type
           rdf:resource="http://purl.org/dc/dcmitype/StillImage" />
        <dc:title />
      </cc:Work>
    </rdf:RDF>
  </metadata>
  <defs
     id="defs9">
    <inkscape:path-effect
       effect="fillet_chamfer"
       id="path-effect20"
       is_visible="true"
       lpeversion="1"
       satellites_param="F,0,0,1,0,5,0,1 @ F,0,0,1,0,5,0,1 @ F,0,0,1,0,5,0,1 @ F,0,0,1,0,5,0,1 @ F,0,0,1,0,5,0,1 @ F,0,0,1,0,5,0,1 @ F,0,0,1,0,5,0,1 @ F,0,0,1,0,5,0,1 @ F,0,0,1,0,5,0,1 @ F,0,0,1,0,5,0,1"
       unit="mm"
       method="auto"
       mode="F"
       radius="5"
       chamfer_steps="1"
       flexible="false"
       use_knot_distance="true"
       apply_no_radius="true"
       apply_with_radius="true"
       only_selected="false"
       hide_knots="false" />
  </defs>
  <sodipodi:namedview
     pagecolor="#ffffff"
     bordercolor="#666666"
     borderopacity="1"
     objecttolerance="10"
     gridtolerance="10"
     guidetolerance="10"
     inkscape:pageopacity="0"
     inkscape:pageshadow="2"
     inkscape:window-width="2560"
     inkscape:window-height="1375"
     id="namedview7"
     showgrid="false"
     inkscape:document-units="mm"
     inkscape:zoom="2.6696085"
     inkscape:cx="307.21444"
     inkscape:cy="227.90551"
     inkscape:window-x="0"
     inkscape:window-y="53"
     inkscape:window-maximized="1"
     inkscape:current-layer="g907"
     inkscape:object-paths="true"
     inkscape:snap-intersection-paths="true"
     inkscape:snap-smooth-nodes="true"
     inkscape:snap-midpoints="true"
     inkscape:snap-bbox="false"
     inkscape:bbox-nodes="false"
     inkscape:bbox-paths="false"
     inkscape:snap-bbox-edge-midpoints="false"
     inkscape:snap-bbox-midpoints="false"
     inkscape:snap-nodes="true"
     inkscape:snap-object-midpoints="true"
     inkscape:document-rotation="0" />
  <g
     id="g907"
     inkscape:label="keycaps_based_case"
     style="display:inline;stroke:#000000;stroke-width:0.2;stroke-miterlimit:4;stroke-dasharray:none;stroke-opacity:1">
    <path
       id="path905"
       style="font-size:12px;display:inline;fill:none;fill-rule:evenodd;stroke:#000000;stroke-width:0.755906;stroke-linecap:round;stroke-miterlimit:4;stroke-dasharray:none;stroke-opacity:1"
       d="M 574.20473,443.34646 V 266.25985 a 5,5 45 0 0 -5,-5 h -26 a 5,5 45 0 1 -5,-5 v -62.00001 a 5,5 45 0 0 -5,-5 h -7.99811 a 5,5 45 0 1 -5,-5 v -58.22047 a 5,5 135 0 1 5,-5 l 26,0 a 5,5 135 0 0 5,-5 V 12.464567 a 5,5 45 0 0 -5,-5 l -535.574808,0 a 5,5 135 0 0 -5,5 l -10e-7,430.881893 a 5,5 45 0 0 5,5 H 569.20473 a 5,5 135 0 0 5,-5 z"
       transform="scale(0.26458333)"
       sodipodi:nodetypes="ccccccccccc"
       inkscape:path-effect="#path-effect20"
       inkscape:original-d="M 574.20473,448.34646 V 261.25985 h -36 v -72.00001 h -17.99811 v -68.22047 h 36 V 7.464567 H 10.631812 l -10e-7,440.881893 z" />
  </g>
  <g
     inkscape:groupmode="layer"
     id="layer2"
     inkscape:label="screw_holes_2mm"
     style="display:inline">
    <circle
       style="fill:none;stroke:#000000;stroke-width:0.2;stroke-miterlimit:4;stroke-dasharray:none;stroke-opacity:1"
       id="path911"
       cx="142.10001"
       cy="6.9749999"
       r="1" />
    <circle
       style="fill:none;stroke:#000000;stroke-width:0.2;stroke-miterlimit:4;stroke-dasharray:none;stroke-opacity:1"
       id="circle915"
       cx="54.362999"
       cy="6.9749999"
       r="1" />
    <circle
       style="fill:none;stroke:#000000;stroke-width:0.2;stroke-miterlimit:4;stroke-dasharray:none;stroke-opacity:1"
       id="circle917"
       cx="7.8130002"
       cy="6.9749999"
       r="1" />
    <circle
       style="fill:none;stroke:#000000;stroke-width:0.2;stroke-miterlimit:4;stroke-dasharray:none;stroke-opacity:1"
       id="circle919"
       cx="7.8130002"
       cy="60.299999"
       r="1" />
    <circle
       style="fill:none;stroke:#000000;stroke-width:0.2;stroke-miterlimit:4;stroke-dasharray:none;stroke-opacity:1"
       id="circle927"
       cx="7.8130002"
       cy="113.625"
       r="1" />
    <circle
       style="fill:none;stroke:#000000;stroke-width:0.2;stroke-miterlimit:4;stroke-dasharray:none;stroke-opacity:1"
       id="circle929"
       cx="77.367996"
       cy="113.625"
       r="1" />
    <circle
       style="fill:none;stroke:#000000;stroke-width:0.2;stroke-miterlimit:4;stroke-dasharray:none;stroke-opacity:1"
       id="circle931"
       cx="146.925"
       cy="113.625"
       r="1" />
    <circle
       style="fill:none;stroke:#000000;stroke-width:0.2;stroke-miterlimit:4;stroke-dasharray:none;stroke-opacity:1"
       id="circle998"
       cx="117.613"
       cy="6.9749999"
       r="1" />
  </g>
  <g
     id="g951"
     inkscape:label="inside"
     style="display:inline;stroke:#000000;stroke-width:0.2;stroke-miterlimit:4;stroke-dasharray:none;stroke-opacity:1"
     inkscape:groupmode="layer">
    <g
       id="g187"
       inkscape:label="micro_jpm_mounting_holes"
       style="display:inline"
       transform="translate(31.679421,24.628068)">
      <path
         id="path185"
         style="display:inline;fill:none;stroke:#000000;stroke-width:0.25;stroke-miterlimit:4;stroke-dasharray:none"
         d="m 35.032578,-9.203069 a 1.45,1.45 0 0 1 -1.45,1.4500009 1.45,1.45 0 0 1 -1.45,-1.4500009 1.45,1.45 0 0 1 1.45,-1.449999 1.45,1.45 0 0 1 1.45,1.449999 m 0,45.799002 a 1.45,1.45 0 0 1 -1.45,1.45 1.45,1.45 0 0 1 -1.45,-1.45 1.45,1.45 0 0 1 1.45,-1.45 1.45,1.45 0 0 1 1.45,1.45 m -45.798999,0 a 1.45,1.45 0 0 1 -1.45,1.45 1.45,1.45 0 0 1 -1.45,-1.45 1.45,1.45 0 0 1 1.45,-1.45 1.45,1.45 0 0 1 1.45,1.45 m 0,-45.799002 a 1.45,1.45 0 0 1 -1.45,1.4500009 1.45,1.45 0 0 1 -1.45,-1.4500009 1.45,1.45 0 0 1 1.45,-1.449999 1.45,1.45 0 0 1 1.45,1.449999" />
    </g>
  </g>
</svg>
