<svg width="171.45mm" height="95.25mm" viewBox="0 0 171.45 95.25" xmlns="http://www.w3.org/2000/svg"><g id="svgGroup" stroke-linecap="round" fill-rule="evenodd" font-size="9pt" stroke="#000" stroke-width="0.25mm" fill="none" style="stroke:#000;stroke-width:0.25mm;fill:none"><path d="M 119.0625 76.2 L 171.45 76.2 L 171.45 57.15 L 119.0625 57.15 L 119.0625 76.2 Z M 128.5875 57.15 L 171.45 57.15 L 171.45 38.1 L 128.5875 38.1 L 128.5875 57.15 Z M 133.35 19.05 L 171.45 19.05 L 171.45 0 L 133.35 0 L 133.35 19.05 Z M 4.7625 95.25 L 42.8625 95.25 L 42.8625 76.2 L 4.7625 76.2 L 4.7625 95.25 Z M 142.875 19.05 L 171.45 19.05 L 123.825 19.05 L 123.825 38.1 L 142.875 38.1 L 142.875 19.05 Z M 142.875 19.05 L 171.45 19.05 L 171.45 38.1 L 142.875 38.1 L 142.875 19.05 Z M 61.9125 95.25 L 85.725 95.25 L 85.725 76.2 L 61.9125 76.2 L 61.9125 95.25 Z M 0 19.05 L 19.05 19.05 L 19.05 0 L 0 0 L 0 19.05 Z M 19.05 19.05 L 38.1 19.05 L 38.1 0 L 19.05 0 L 19.05 19.05 Z M 38.1 19.05 L 57.15 19.05 L 57.15 0 L 38.1 0 L 38.1 19.05 Z M 57.15 19.05 L 76.2 19.05 L 76.2 0 L 57.15 0 L 57.15 19.05 Z M 76.2 19.05 L 95.25 19.05 L 95.25 0 L 76.2 0 L 76.2 19.05 Z M 95.25 19.05 L 114.3 19.05 L 114.3 0 L 95.25 0 L 95.25 19.05 Z M 114.3 19.05 L 133.35 19.05 L 133.35 0 L 114.3 0 L 114.3 19.05 Z M 9.525 38.1 L 28.575 38.1 L 28.575 19.05 L 9.525 19.05 L 9.525 38.1 Z M 28.575 38.1 L 47.625 38.1 L 47.625 19.05 L 28.575 19.05 L 28.575 38.1 Z M 47.625 38.1 L 66.675 38.1 L 66.675 19.05 L 47.625 19.05 L 47.625 38.1 Z M 66.675 38.1 L 85.725 38.1 L 85.725 19.05 L 66.675 19.05 L 66.675 38.1 Z M 85.725 38.1 L 104.775 38.1 L 104.775 19.05 L 85.725 19.05 L 85.725 38.1 Z M 104.775 38.1 L 123.825 38.1 L 123.825 19.05 L 104.775 19.05 L 104.775 38.1 Z M 14.2875 57.15 L 33.3375 57.15 L 33.3375 38.1 L 14.2875 38.1 L 14.2875 57.15 Z M 33.3375 57.15 L 52.3875 57.15 L 52.3875 38.1 L 33.3375 38.1 L 33.3375 57.15 Z M 52.3875 57.15 L 71.4375 57.15 L 71.4375 38.1 L 52.3875 38.1 L 52.3875 57.15 Z M 71.4375 57.15 L 90.4875 57.15 L 90.4875 38.1 L 71.4375 38.1 L 71.4375 57.15 Z M 90.4875 57.15 L 109.5375 57.15 L 109.5375 38.1 L 90.4875 38.1 L 90.4875 57.15 Z M 109.5375 57.15 L 128.5875 57.15 L 128.5875 38.1 L 109.5375 38.1 L 109.5375 57.15 Z M 23.8125 76.2 L 42.8625 76.2 L 42.8625 57.15 L 23.8125 57.15 L 23.8125 76.2 Z M 42.8625 76.2 L 61.9125 76.2 L 61.9125 57.15 L 42.8625 57.15 L 42.8625 76.2 Z M 61.9125 76.2 L 80.9625 76.2 L 80.9625 57.15 L 61.9125 57.15 L 61.9125 76.2 Z M 80.9625 76.2 L 100.0125 76.2 L 100.0125 57.15 L 80.9625 57.15 L 80.9625 76.2 Z M 100.0125 76.2 L 119.0625 76.2 L 119.0625 57.15 L 100.0125 57.15 L 100.0125 76.2 Z M 42.8625 95.25 L 61.9125 95.25 L 61.9125 76.2 L 42.8625 76.2 L 42.8625 95.25 Z M 95.25 95.25 L 114.3 95.25 L 114.3 76.2 L 95.25 76.2 L 95.25 95.25 Z M 114.3 95.25 L 133.35 95.25 L 133.35 76.2 L 114.3 76.2 L 114.3 95.25 Z M 133.35 95.25 L 152.4 95.25 L 152.4 76.2 L 133.35 76.2 L 133.35 95.25 Z M 152.4 95.25 L 171.45 95.25 L 171.45 76.2 L 152.4 76.2 L 152.4 95.25 Z" vector-effect="non-scaling-stroke"/></g></svg>