<svg width="169.125mm" height="95.7mm" viewBox="0 0 169.125 95.7" xmlns="http://www.w3.org/2000/svg"><g id="svgGroup" stroke-linecap="round" fill-rule="evenodd" font-size="9pt" stroke="#000" stroke-width="0.25mm" fill="none" style="stroke:#000;stroke-width:0.25mm;fill:none"><path d="M 132.05575 57.1 A 0.5 0.5 0 0 0 132.058256 57.15 L 127.79325 57.15 A 0.5 0.5 0 0 0 127.29325 57.65 L 127.29325 76.15 A 0.5 0.5 0 0 0 127.79325 76.65 L 133.79325 76.65 A 0.5 0.5 0 0 0 134.29325 76.15 L 134.29325 57.65 A 0.5 0.5 0 0 0 134.290744 57.6 L 138.55575 57.6 A 0.5 0.5 0 0 0 139.05575 57.1 L 139.05575 38.6 A 0.5 0.5 0 0 0 138.55575 38.1 L 132.55575 38.1 A 0.5 0.5 0 0 0 132.05575 38.6 L 132.05575 57.1 Z M 155.93175 57.1 A 0.5 0.5 0 0 0 155.934256 57.15 L 151.66925 57.15 A 0.5 0.5 0 0 0 151.16925 57.65 L 151.16925 76.15 A 0.5 0.5 0 0 0 151.66925 76.65 L 157.66925 76.65 A 0.5 0.5 0 0 0 158.16925 76.15 L 158.16925 57.65 A 0.5 0.5 0 0 0 158.166744 57.6 L 162.43175 57.6 A 0.5 0.5 0 0 0 162.93175 57.1 L 162.93175 38.6 A 0.5 0.5 0 0 0 162.43175 38.1 L 156.43175 38.1 A 0.5 0.5 0 0 0 155.93175 38.6 L 155.93175 57.1 Z M 0 17.5 L 14 17.5 L 14 3.5 L 0 3.5 L 0 17.5 Z M 19.05 17.5 L 33.05 17.5 L 33.05 3.5 L 19.05 3.5 L 19.05 17.5 Z M 38.1 17.5 L 52.1 17.5 L 52.1 3.5 L 38.1 3.5 L 38.1 17.5 Z M 57.15 17.5 L 71.15 17.5 L 71.15 3.5 L 57.15 3.5 L 57.15 17.5 Z M 76.2 17.5 L 90.2 17.5 L 90.2 3.5 L 76.2 3.5 L 76.2 17.5 Z M 95.25 17.5 L 109.25 17.5 L 109.25 3.5 L 95.25 3.5 L 95.25 17.5 Z M 142.875 17.5 L 156.875 17.5 L 156.875 3.5 L 142.875 3.5 L 142.875 17.5 Z M 9.525 36.55 L 23.525 36.55 L 23.525 22.55 L 9.525 22.55 L 9.525 36.55 Z M 28.575 36.55 L 42.575 36.55 L 42.575 22.55 L 28.575 22.55 L 28.575 36.55 Z M 47.625 36.55 L 61.625 36.55 L 61.625 22.55 L 47.625 22.55 L 47.625 36.55 Z M 66.675 36.55 L 80.675 36.55 L 80.675 22.55 L 66.675 22.55 L 66.675 36.55 Z M 85.725 36.55 L 99.725 36.55 L 99.725 22.55 L 85.725 22.55 L 85.725 36.55 Z M 104.775 36.55 L 118.775 36.55 L 118.775 22.55 L 104.775 22.55 L 104.775 36.55 Z M 123.825 36.55 L 137.825 36.55 L 137.825 22.55 L 123.825 22.55 L 123.825 36.55 Z M 147.6375 36.55 L 161.6375 36.55 L 161.6375 22.55 L 147.6375 22.55 L 147.6375 36.55 Z M 14.2875 55.6 L 28.2875 55.6 L 28.2875 41.6 L 14.2875 41.6 L 14.2875 55.6 Z M 33.3375 55.6 L 47.3375 55.6 L 47.3375 41.6 L 33.3375 41.6 L 33.3375 55.6 Z M 71.4375 55.6 L 85.4375 55.6 L 85.4375 41.6 L 71.4375 41.6 L 71.4375 55.6 Z M 90.4875 55.6 L 104.4875 55.6 L 104.4875 41.6 L 90.4875 41.6 L 90.4875 55.6 Z M 109.5375 55.6 L 123.5375 55.6 L 123.5375 41.6 L 109.5375 41.6 L 109.5375 55.6 Z M 140.49375 55.6 L 154.49375 55.6 L 154.49375 41.6 L 140.49375 41.6 L 140.49375 55.6 Z M 23.8125 74.65 L 37.8125 74.65 L 37.8125 60.65 L 23.8125 60.65 L 23.8125 74.65 Z M 42.8625 74.65 L 56.8625 74.65 L 56.8625 60.65 L 42.8625 60.65 L 42.8625 74.65 Z M 61.9125 74.65 L 75.9125 74.65 L 75.9125 60.65 L 61.9125 60.65 L 61.9125 74.65 Z M 80.9625 74.65 L 94.9625 74.65 L 94.9625 60.65 L 80.9625 60.65 L 80.9625 74.65 Z M 100.0125 74.65 L 114.0125 74.65 L 114.0125 60.65 L 100.0125 60.65 L 100.0125 74.65 Z M 135.73125 74.65 L 149.73125 74.65 L 149.73125 60.65 L 135.73125 60.65 L 135.73125 74.65 Z M 14.2875 93.7 L 28.2875 93.7 L 28.2875 79.7 L 14.2875 79.7 L 14.2875 93.7 Z M 42.8625 93.7 L 56.8625 93.7 L 56.8625 79.7 L 42.8625 79.7 L 42.8625 93.7 Z M 64.29375 93.7 L 78.29375 93.7 L 78.29375 79.7 L 64.29375 79.7 L 64.29375 93.7 Z M 95.25 93.7 L 109.25 93.7 L 109.25 79.7 L 95.25 79.7 L 95.25 93.7 Z M 133.35 93.7 L 147.35 93.7 L 147.35 79.7 L 133.35 79.7 L 133.35 93.7 Z M 152.4 93.7 L 166.4 93.7 L 166.4 79.7 L 152.4 79.7 L 152.4 93.7 Z M 52.3875 55.6 L 66.3875 55.6 L 66.3875 41.6 L 52.3875 41.6 L 52.3875 55.6 Z M 114.3 17.5 L 128.3 17.5 L 128.3 3.5 L 114.3 3.5 L 114.3 17.5 Z M 114.3 93.7 L 128.3 93.7 L 128.3 79.7 L 114.3 79.7 L 114.3 93.7 Z M 134.437 19 A 0.5 0.5 0 0 0 134.937 19.5 L 140.937 19.5 A 0.5 0.5 0 0 0 141.437 19 L 141.437 0.5 A 0.5 0.5 0 0 0 140.937 0 L 134.937 0 A 0.5 0.5 0 0 0 134.437 0.5 L 134.437 19 Z M 158.313 19 A 0.5 0.5 0 0 0 158.813 19.5 L 164.813 19.5 A 0.5 0.5 0 0 0 165.313 19 L 165.313 0.5 A 0.5 0.5 0 0 0 164.813 0 L 158.813 0 A 0.5 0.5 0 0 0 158.313 0.5 L 158.313 19 Z M 5.8495 95.2 A 0.5 0.5 0 0 0 6.3495 95.7 L 12.3495 95.7 A 0.5 0.5 0 0 0 12.8495 95.2 L 12.8495 76.7 A 0.5 0.5 0 0 0 12.3495 76.2 L 6.3495 76.2 A 0.5 0.5 0 0 0 5.8495 76.7 L 5.8495 95.2 Z M 29.7255 95.2 A 0.5 0.5 0 0 0 30.2255 95.7 L 36.2255 95.7 A 0.5 0.5 0 0 0 36.7255 95.2 L 36.7255 76.7 A 0.5 0.5 0 0 0 36.2255 76.2 L 30.2255 76.2 A 0.5 0.5 0 0 0 29.7255 76.7 L 29.7255 95.2 Z M 130.625 17 A 0.5 0.5 0 0 0 131.125 17.5 L 132.125 17.5 A 0.5 0.5 0 0 0 132.625 17 L 132.625 4 A 0.5 0.5 0 0 0 132.125 3.5 L 131.125 3.5 A 0.5 0.5 0 0 0 130.625 4 L 130.625 17 Z M 167.125 17 A 0.5 0.5 0 0 0 167.625 17.5 L 168.625 17.5 A 0.5 0.5 0 0 0 169.125 17 L 169.125 4 A 0.5 0.5 0 0 0 168.625 3.5 L 167.625 3.5 A 0.5 0.5 0 0 0 167.125 4 L 167.125 17 Z M 142.0375 36.05 A 0.5 0.5 0 0 0 142.5375 36.55 L 143.5375 36.55 A 0.5 0.5 0 0 0 144.0375 36.05 L 144.0375 23.05 A 0.5 0.5 0 0 0 143.5375 22.55 L 142.5375 22.55 A 0.5 0.5 0 0 0 142.0375 23.05 L 142.0375 36.05 Z M 165.2375 36.05 A 0.5 0.5 0 0 0 165.7375 36.55 L 166.7375 36.55 A 0.5 0.5 0 0 0 167.2375 36.05 L 167.2375 23.05 A 0.5 0.5 0 0 0 166.7375 22.55 L 165.7375 22.55 A 0.5 0.5 0 0 0 165.2375 23.05 L 165.2375 36.05 Z M 2.0375 93.2 A 0.5 0.5 0 0 0 2.5375 93.7 L 3.5375 93.7 A 0.5 0.5 0 0 0 4.0375 93.2 L 4.0375 80.2 A 0.5 0.5 0 0 0 3.5375 79.7 L 2.5375 79.7 A 0.5 0.5 0 0 0 2.0375 80.2 L 2.0375 93.2 Z M 38.5375 93.2 A 0.5 0.5 0 0 0 39.0375 93.7 L 40.0375 93.7 A 0.5 0.5 0 0 0 40.5375 93.2 L 40.5375 80.2 A 0.5 0.5 0 0 0 40.0375 79.7 L 39.0375 79.7 A 0.5 0.5 0 0 0 38.5375 80.2 L 38.5375 93.2 Z" vector-effect="non-scaling-stroke"/></g></svg>