<?xml version="1.0" encoding="UTF-8" standalone="no"?>
<svg
   width="167.2375mm"
   height="92.2mm"
   viewBox="0 0 167.2375 92.2"
   version="1.1"
   id="svg5"
   sodipodi:docname="iVi_split_left_switches_3mm.svg"
   inkscape:version="1.1.1 (3bf5ae0d25, 2021-09-20)"
   xmlns:inkscape="http://www.inkscape.org/namespaces/inkscape"
   xmlns:sodipodi="http://sodipodi.sourceforge.net/DTD/sodipodi-0.dtd"
   xmlns="http://www.w3.org/2000/svg"
   xmlns:svg="http://www.w3.org/2000/svg">
  <defs
     id="defs9" />
  <sodipodi:namedview
     id="namedview7"
     pagecolor="#ffffff"
     bordercolor="#666666"
     borderopacity="1.0"
     inkscape:pageshadow="2"
     inkscape:pageopacity="0.0"
     inkscape:pagecheckerboard="0"
     inkscape:document-units="mm"
     showgrid="false"
     inkscape:zoom="1.6738421"
     inkscape:cx="315.74066"
     inkscape:cy="174.15024"
     inkscape:window-width="2560"
     inkscape:window-height="1377"
     inkscape:window-x="1072"
     inkscape:window-y="472"
     inkscape:window-maximized="1"
     inkscape:current-layer="svgGroup" />
  <g
     id="svgGroup"
     stroke-linecap="round"
     fill-rule="evenodd"
     font-size="12px"
     stroke="#000"
     stroke-width="0.25mm"
     fill="none"
     style="fill:none;stroke:#000000;stroke-width:0.25mm">
    <path
       d="m 163.2,89.7 a 0.5,0.5 0 0 0 0.5,0.5 h 1 a 0.5,0.5 0 0 0 0.5,-0.5 v -13 a 0.5,0.5 0 0 0 -0.5,-0.5 h -1 a 0.5,0.5 0 0 0 -0.5,0.5 z"
       id="path103" />
    <path
       d="m 126.7,89.7 a 0.5,0.5 0 0 0 0.5,0.5 h 1 a 0.5,0.5 0 0 0 0.5,-0.5 v -13 a 0.5,0.5 0 0 0 -0.5,-0.5 h -1 a 0.5,0.5 0 0 0 -0.5,0.5 z"
       id="path101" />
    <path
       d="m 23.2,89.7 a 0.5,0.5 0 0 0 0.5,0.5 h 1 a 0.5,0.5 0 0 0 0.5,-0.5 v -13 a 0.5,0.5 0 0 0 -0.5,-0.5 h -1 a 0.5,0.5 0 0 0 -0.5,0.5 z"
       id="path99" />
    <path
       d="m 0,89.7 a 0.5,0.5 0 0 0 0.5,0.5 h 1 A 0.5,0.5 0 0 0 2,89.7 v -13 A 0.5,0.5 0 0 0 1.5,76.2 h -1 A 0.5,0.5 0 0 0 0,76.7 Z"
       id="path97" />
    <path
       d="m 23.2,51.6 a 0.5,0.5 0 0 0 0.5,0.5 h 1 a 0.5,0.5 0 0 0 0.5,-0.5 v -13 a 0.5,0.5 0 0 0 -0.5,-0.5 h -1 a 0.5,0.5 0 0 0 -0.5,0.5 z"
       id="path95" />
    <path
       d="m 0,51.6 a 0.5,0.5 0 0 0 0.5,0.5 h 1 A 0.5,0.5 0 0 0 2,51.6 v -13 A 0.5,0.5 0 0 0 1.5,38.1 h -1 A 0.5,0.5 0 0 0 0,38.6 Z"
       id="path93" />
    <path
       d="m 61.3,32.55 a 0.5,0.5 0 0 0 0.5,0.5 h 1 a 0.5,0.5 0 0 0 0.5,-0.5 v -13 a 0.5,0.5 0 0 0 -0.5,-0.5 h -1 a 0.5,0.5 0 0 0 -0.5,0.5 z"
       id="path91" />
    <path
       d="m 38.1,32.55 a 0.5,0.5 0 0 0 0.5,0.5 h 1 a 0.5,0.5 0 0 0 0.5,-0.5 v -13 a 0.5,0.5 0 0 0 -0.5,-0.5 h -1 a 0.5,0.5 0 0 0 -0.5,0.5 z"
       id="path89" />
    <path
       d="m 154.388,91.7 a 0.5,0.5 0 0 0 0.5,0.5 h 6 a 0.5,0.5 0 0 0 0.5,-0.5 V 73.2 a 0.5,0.5 0 0 0 -0.5,-0.5 h -6 a 0.5,0.5 0 0 0 -0.5,0.5 z"
       id="path87" />
    <path
       d="m 130.512,91.7 a 0.5,0.5 0 0 0 0.5,0.5 h 6 a 0.5,0.5 0 0 0 0.5,-0.5 V 73.2 a 0.5,0.5 0 0 0 -0.5,-0.5 h -6 a 0.5,0.5 0 0 0 -0.5,0.5 z"
       id="path85" />
    <path
       d="m 138.95,90.2 h 14 v -14 h -14 z"
       id="path83" />
    <path
       d="m 110.375,90.2 h 14 v -14 h -14 z"
       id="path81" />
    <path
       d="m 88.94375,90.2 h 14 v -14 h -14 z"
       id="path79" />
    <path
       d="m 55.60625,90.2 h 14 v -14 h -14 z"
       id="path77" />
    <path
       d="m 31.79375,90.2 h 14 v -14 h -14 z"
       id="path75" />
    <path
       d="m 5.6,90.2 h 14 v -14 h -14 z"
       id="path73" />
    <path
       d="m 129.425,71.15 h 14 v -14 h -14 z"
       id="path71" />
    <path
       d="m 110.375,71.15 h 14 v -14 h -14 z"
       id="path69" />
    <path
       d="m 91.325,71.15 h 14 v -14 h -14 z"
       id="path67" />
    <path
       d="m 72.275,71.15 h 14 v -14 h -14 z"
       id="path65" />
    <path
       d="m 53.225,71.15 h 14 v -14 h -14 z"
       id="path63" />
    <path
       d="m 27.03125,71.15 h 14 v -14 h -14 z"
       id="path61" />
    <path
       d="m 0.8375,71.15 h 14 v -14 h -14 z"
       id="path59" />
    <path
       d="m 138.95,52.1 h 14 v -14 h -14 z"
       id="path57" />
    <path
       d="m 119.9,52.1 h 14 v -14 h -14 z"
       id="path55" />
    <path
       d="m 100.85,52.1 h 14 v -14 h -14 z"
       id="path53" />
    <path
       d="m 81.8,52.1 h 14 v -14 h -14 z"
       id="path51" />
    <path
       d="m 62.75,52.1 h 14 v -14 h -14 z"
       id="path49" />
    <path
       d="m 36.55625,52.1 h 14 v -14 h -14 z"
       id="path47" />
    <path
       d="m 5.6,52.1 h 14 v -14 h -14 z"
       id="path45" />
    <path
       d="m 143.7125,33.05 h 14 v -14 h -14 z"
       id="path43" />
    <path
       d="m 124.6625,33.05 h 14 v -14 h -14 z"
       id="path41" />
    <path
       d="m 105.6125,33.05 h 14 v -14 h -14 z"
       id="path39" />
    <path
       d="m 86.5625,33.05 h 14 v -14 h -14 z"
       id="path37" />
    <path
       d="m 67.5125,33.05 h 14 v -14 h -14 z"
       id="path35" />
    <path
       d="m 43.7,33.05 h 14 v -14 h -14 z"
       id="path33" />
    <path
       d="m 19.8875,33.05 h 14 v -14 h -14 z"
       id="path31" />
    <path
       d="m 0.8375,33.05 h 14 v -14 h -14 z"
       id="path29" />
    <path
       d="m 153.2375,14 h 14 V 0 h -14 z"
       id="path27" />
    <path
       d="m 134.1875,14 h 14 V 0 h -14 z"
       id="path25" />
    <path
       d="m 115.1375,14 h 14 V 0 h -14 z"
       id="path23" />
    <path
       d="m 96.0875,14 h 14 V 0 h -14 z"
       id="path21" />
    <path
       d="m 77.0375,14 h 14 V 0 h -14 z"
       id="path19" />
    <path
       d="m 57.9875,14 h 14 V 0 h -14 z"
       id="path17" />
    <path
       d="m 38.9375,14 h 14 V 0 h -14 z"
       id="path15" />
    <path
       d="m 19.8875,14 h 14 V 0 h -14 z"
       id="path13" />
    <path
       d="m 0.8375,14 h 14 V 0 h -14 z"
       id="path2" />
  </g>
</svg>
