<svg width="167.2375mm" height="93.6mm" viewBox="0 0 167.2375 93.6" xmlns="http://www.w3.org/2000/svg"><g id="svgGroup" stroke-linecap="round" fill-rule="evenodd" font-size="9pt" stroke="#000" stroke-width="0.25mm" fill="none" style="stroke:#000;stroke-width:0.25mm;fill:none"><path d="M 152.95 76.2 L 138.95 76.2 L 138.95 90 L 137.512 90 L 137.512 73.95 A 0.5 0.5 0 0 0 137.012 73.45 L 131.012 73.45 A 0.5 0.5 0 0 0 130.512 73.95 L 130.512 93.1 A 0.5 0.5 0 0 0 131.012 93.6 L 134.512 93.6 L 137.012 93.6 L 154.888 93.6 L 157.388 93.6 L 160.888 93.6 A 0.5 0.5 0 0 0 161.388 93.1 L 161.388 73.95 A 0.5 0.5 0 0 0 160.888 73.45 L 154.888 73.45 A 0.5 0.5 0 0 0 154.388 73.95 L 154.388 90 L 152.95 90 L 152.95 76.2 Z M 0.8375 14 L 14.8375 14 L 14.8375 0 L 0.8375 0 L 0.8375 14 Z M 19.8875 14 L 33.8875 14 L 33.8875 0 L 19.8875 0 L 19.8875 14 Z M 38.9375 14 L 52.9375 14 L 52.9375 0 L 38.9375 0 L 38.9375 14 Z M 57.9875 14 L 71.9875 14 L 71.9875 0 L 57.9875 0 L 57.9875 14 Z M 77.0375 14 L 91.0375 14 L 91.0375 0 L 77.0375 0 L 77.0375 14 Z M 96.0875 14 L 110.0875 14 L 110.0875 0 L 96.0875 0 L 96.0875 14 Z M 115.1375 14 L 129.1375 14 L 129.1375 0 L 115.1375 0 L 115.1375 14 Z M 134.1875 14 L 148.1875 14 L 148.1875 0 L 134.1875 0 L 134.1875 14 Z M 153.2375 14 L 167.2375 14 L 167.2375 0 L 153.2375 0 L 153.2375 14 Z M 0.8375 33.05 L 14.8375 33.05 L 14.8375 19.05 L 0.8375 19.05 L 0.8375 33.05 Z M 19.8875 33.05 L 33.8875 33.05 L 33.8875 19.05 L 19.8875 19.05 L 19.8875 33.05 Z M 43.7 33.05 L 57.7 33.05 L 57.7 19.05 L 43.7 19.05 L 43.7 33.05 Z M 67.5125 33.05 L 81.5125 33.05 L 81.5125 19.05 L 67.5125 19.05 L 67.5125 33.05 Z M 86.5625 33.05 L 100.5625 33.05 L 100.5625 19.05 L 86.5625 19.05 L 86.5625 33.05 Z M 105.6125 33.05 L 119.6125 33.05 L 119.6125 19.05 L 105.6125 19.05 L 105.6125 33.05 Z M 124.6625 33.05 L 138.6625 33.05 L 138.6625 19.05 L 124.6625 19.05 L 124.6625 33.05 Z M 143.7125 33.05 L 157.7125 33.05 L 157.7125 19.05 L 143.7125 19.05 L 143.7125 33.05 Z M 5.6 52.1 L 19.6 52.1 L 19.6 38.1 L 5.6 38.1 L 5.6 52.1 Z M 36.55625 52.1 L 50.55625 52.1 L 50.55625 38.1 L 36.55625 38.1 L 36.55625 52.1 Z M 62.75 52.1 L 76.75 52.1 L 76.75 38.1 L 62.75 38.1 L 62.75 52.1 Z M 81.8 52.1 L 95.8 52.1 L 95.8 38.1 L 81.8 38.1 L 81.8 52.1 Z M 100.85 52.1 L 114.85 52.1 L 114.85 38.1 L 100.85 38.1 L 100.85 52.1 Z M 119.9 52.1 L 133.9 52.1 L 133.9 38.1 L 119.9 38.1 L 119.9 52.1 Z M 138.95 52.1 L 152.95 52.1 L 152.95 38.1 L 138.95 38.1 L 138.95 52.1 Z M 0.8375 71.15 L 14.8375 71.15 L 14.8375 57.15 L 0.8375 57.15 L 0.8375 71.15 Z M 27.03125 71.15 L 41.03125 71.15 L 41.03125 57.15 L 27.03125 57.15 L 27.03125 71.15 Z M 53.225 71.15 L 67.225 71.15 L 67.225 57.15 L 53.225 57.15 L 53.225 71.15 Z M 72.275 71.15 L 86.275 71.15 L 86.275 57.15 L 72.275 57.15 L 72.275 71.15 Z M 91.325 71.15 L 105.325 71.15 L 105.325 57.15 L 91.325 57.15 L 91.325 71.15 Z M 110.375 71.15 L 124.375 71.15 L 124.375 57.15 L 110.375 57.15 L 110.375 71.15 Z M 129.425 71.15 L 143.425 71.15 L 143.425 57.15 L 129.425 57.15 L 129.425 71.15 Z M 5.6 90.2 L 19.6 90.2 L 19.6 76.2 L 5.6 76.2 L 5.6 90.2 Z M 31.79375 90.2 L 45.79375 90.2 L 45.79375 76.2 L 31.79375 76.2 L 31.79375 90.2 Z M 55.60625 90.2 L 69.60625 90.2 L 69.60625 76.2 L 55.60625 76.2 L 55.60625 90.2 Z M 88.94375 90.2 L 102.94375 90.2 L 102.94375 76.2 L 88.94375 76.2 L 88.94375 90.2 Z M 110.375 90.2 L 124.375 90.2 L 124.375 76.2 L 110.375 76.2 L 110.375 90.2 Z M 38.1 32.55 A 0.5 0.5 0 0 0 38.6 33.05 L 39.6 33.05 A 0.5 0.5 0 0 0 40.1 32.55 L 40.1 19.55 A 0.5 0.5 0 0 0 39.6 19.05 L 38.6 19.05 A 0.5 0.5 0 0 0 38.1 19.55 L 38.1 32.55 Z M 61.3 32.55 A 0.5 0.5 0 0 0 61.8 33.05 L 62.8 33.05 A 0.5 0.5 0 0 0 63.3 32.55 L 63.3 19.55 A 0.5 0.5 0 0 0 62.8 19.05 L 61.8 19.05 A 0.5 0.5 0 0 0 61.3 19.55 L 61.3 32.55 Z M 0 51.6 A 0.5 0.5 0 0 0 0.5 52.1 L 1.5 52.1 A 0.5 0.5 0 0 0 2 51.6 L 2 38.6 A 0.5 0.5 0 0 0 1.5 38.1 L 0.5 38.1 A 0.5 0.5 0 0 0 0 38.6 L 0 51.6 Z M 23.2 51.6 A 0.5 0.5 0 0 0 23.7 52.1 L 24.7 52.1 A 0.5 0.5 0 0 0 25.2 51.6 L 25.2 38.6 A 0.5 0.5 0 0 0 24.7 38.1 L 23.7 38.1 A 0.5 0.5 0 0 0 23.2 38.6 L 23.2 51.6 Z M 0 89.7 A 0.5 0.5 0 0 0 0.5 90.2 L 1.5 90.2 A 0.5 0.5 0 0 0 2 89.7 L 2 76.7 A 0.5 0.5 0 0 0 1.5 76.2 L 0.5 76.2 A 0.5 0.5 0 0 0 0 76.7 L 0 89.7 Z M 23.2 89.7 A 0.5 0.5 0 0 0 23.7 90.2 L 24.7 90.2 A 0.5 0.5 0 0 0 25.2 89.7 L 25.2 76.7 A 0.5 0.5 0 0 0 24.7 76.2 L 23.7 76.2 A 0.5 0.5 0 0 0 23.2 76.7 L 23.2 89.7 Z M 126.7 89.7 A 0.5 0.5 0 0 0 127.2 90.2 L 128.2 90.2 A 0.5 0.5 0 0 0 128.7 89.7 L 128.7 76.7 A 0.5 0.5 0 0 0 128.2 76.2 L 127.2 76.2 A 0.5 0.5 0 0 0 126.7 76.7 L 126.7 89.7 Z M 163.2 89.7 A 0.5 0.5 0 0 0 163.7 90.2 L 164.7 90.2 A 0.5 0.5 0 0 0 165.2 89.7 L 165.2 76.7 A 0.5 0.5 0 0 0 164.7 76.2 L 163.7 76.2 A 0.5 0.5 0 0 0 163.2 76.7 L 163.2 89.7 Z" vector-effect="non-scaling-stroke"/></g></svg>