<svg width="169.125mm" height="96.35mm" viewBox="0 0 169.125 96.35" xmlns="http://www.w3.org/2000/svg"><g id="svgGroup" stroke-linecap="round" fill-rule="evenodd" font-size="9pt" stroke="#000" stroke-width="0.25mm" fill="none" style="stroke:#000;stroke-width:0.25mm;fill:none"><path d="M 154.49375 40.85 L 140.49375 40.85 L 140.49375 54.65 L 139.05575 54.65 L 139.05575 38.6 A 0.5 0.5 0 0 0 138.55575 38.1 L 132.55575 38.1 A 0.5 0.5 0 0 0 132.05575 38.6 L 132.05575 57.15 L 127.79325 57.15 A 0.5 0.5 0 0 0 127.29325 57.65 L 127.29325 76.8 A 0.5 0.5 0 0 0 127.79325 77.3 L 131.29325 77.3 L 133.79325 77.3 L 151.66925 77.3 L 154.16925 77.3 L 157.66925 77.3 A 0.5 0.5 0 0 0 158.16925 76.8 L 158.16925 58.25 L 158.93175 58.25 L 162.43175 58.25 A 0.5 0.5 0 0 0 162.93175 57.75 L 162.93175 38.6 A 0.5 0.5 0 0 0 162.43175 38.1 L 156.43175 38.1 A 0.5 0.5 0 0 0 155.93175 38.6 L 155.93175 54.65 L 154.49375 54.65 L 154.49375 40.85 Z M 28.2875 78.95 L 14.2875 78.95 L 14.2875 92.75 L 12.8495 92.75 L 12.8495 76.7 A 0.5 0.5 0 0 0 12.3495 76.2 L 6.3495 76.2 A 0.5 0.5 0 0 0 5.8495 76.7 L 5.8495 95.85 A 0.5 0.5 0 0 0 6.3495 96.35 L 9.8495 96.35 L 12.3495 96.35 L 30.2255 96.35 L 32.7255 96.35 L 36.2255 96.35 A 0.5 0.5 0 0 0 36.7255 95.85 L 36.7255 76.7 A 0.5 0.5 0 0 0 36.2255 76.2 L 30.2255 76.2 A 0.5 0.5 0 0 0 29.7255 76.7 L 29.7255 92.75 L 28.2875 92.75 L 28.2875 78.95 Z M 156.875 2.75 L 142.875 2.75 L 142.875 16.55 L 141.437 16.55 L 141.437 0.5 A 0.5 0.5 0 0 0 140.937 0 L 134.937 0 A 0.5 0.5 0 0 0 134.437 0.5 L 134.437 19.65 A 0.5 0.5 0 0 0 134.937 20.15 L 138.437 20.15 L 140.937 20.15 L 158.813 20.15 L 161.313 20.15 L 164.813 20.15 A 0.5 0.5 0 0 0 165.313 19.65 L 165.313 0.5 A 0.5 0.5 0 0 0 164.813 0 L 158.813 0 A 0.5 0.5 0 0 0 158.313 0.5 L 158.313 16.55 L 156.875 16.55 L 156.875 2.75 Z M 134.29325 58.25 L 136.05575 58.25 L 138.55575 58.25 L 151.16925 58.25 L 151.16925 73.7 L 149.73125 73.7 L 149.73125 59.9 L 135.73125 59.9 L 135.73125 73.7 L 134.29325 73.7 L 134.29325 58.25 Z M 0 16.75 L 14 16.75 L 14 2.75 L 0 2.75 L 0 16.75 Z M 19.05 16.75 L 33.05 16.75 L 33.05 2.75 L 19.05 2.75 L 19.05 16.75 Z M 38.1 16.75 L 52.1 16.75 L 52.1 2.75 L 38.1 2.75 L 38.1 16.75 Z M 57.15 16.75 L 71.15 16.75 L 71.15 2.75 L 57.15 2.75 L 57.15 16.75 Z M 76.2 16.75 L 90.2 16.75 L 90.2 2.75 L 76.2 2.75 L 76.2 16.75 Z M 95.25 16.75 L 109.25 16.75 L 109.25 2.75 L 95.25 2.75 L 95.25 16.75 Z M 9.525 35.8 L 23.525 35.8 L 23.525 21.8 L 9.525 21.8 L 9.525 35.8 Z M 28.575 35.8 L 42.575 35.8 L 42.575 21.8 L 28.575 21.8 L 28.575 35.8 Z M 47.625 35.8 L 61.625 35.8 L 61.625 21.8 L 47.625 21.8 L 47.625 35.8 Z M 66.675 35.8 L 80.675 35.8 L 80.675 21.8 L 66.675 21.8 L 66.675 35.8 Z M 85.725 35.8 L 99.725 35.8 L 99.725 21.8 L 85.725 21.8 L 85.725 35.8 Z M 104.775 35.8 L 118.775 35.8 L 118.775 21.8 L 104.775 21.8 L 104.775 35.8 Z M 123.825 35.8 L 137.825 35.8 L 137.825 21.8 L 123.825 21.8 L 123.825 35.8 Z M 147.6375 35.8 L 161.6375 35.8 L 161.6375 21.8 L 147.6375 21.8 L 147.6375 35.8 Z M 14.2875 54.85 L 28.2875 54.85 L 28.2875 40.85 L 14.2875 40.85 L 14.2875 54.85 Z M 33.3375 54.85 L 47.3375 54.85 L 47.3375 40.85 L 33.3375 40.85 L 33.3375 54.85 Z M 71.4375 54.85 L 85.4375 54.85 L 85.4375 40.85 L 71.4375 40.85 L 71.4375 54.85 Z M 90.4875 54.85 L 104.4875 54.85 L 104.4875 40.85 L 90.4875 40.85 L 90.4875 54.85 Z M 109.5375 54.85 L 123.5375 54.85 L 123.5375 40.85 L 109.5375 40.85 L 109.5375 54.85 Z M 23.8125 73.9 L 37.8125 73.9 L 37.8125 59.9 L 23.8125 59.9 L 23.8125 73.9 Z M 42.8625 73.9 L 56.8625 73.9 L 56.8625 59.9 L 42.8625 59.9 L 42.8625 73.9 Z M 61.9125 73.9 L 75.9125 73.9 L 75.9125 59.9 L 61.9125 59.9 L 61.9125 73.9 Z M 80.9625 73.9 L 94.9625 73.9 L 94.9625 59.9 L 80.9625 59.9 L 80.9625 73.9 Z M 100.0125 73.9 L 114.0125 73.9 L 114.0125 59.9 L 100.0125 59.9 L 100.0125 73.9 Z M 42.8625 92.95 L 56.8625 92.95 L 56.8625 78.95 L 42.8625 78.95 L 42.8625 92.95 Z M 64.29375 92.95 L 78.29375 92.95 L 78.29375 78.95 L 64.29375 78.95 L 64.29375 92.95 Z M 95.25 92.95 L 109.25 92.95 L 109.25 78.95 L 95.25 78.95 L 95.25 92.95 Z M 133.35 92.95 L 147.35 92.95 L 147.35 78.95 L 133.35 78.95 L 133.35 92.95 Z M 152.4 92.95 L 166.4 92.95 L 166.4 78.95 L 152.4 78.95 L 152.4 92.95 Z M 52.3875 54.85 L 66.3875 54.85 L 66.3875 40.85 L 52.3875 40.85 L 52.3875 54.85 Z M 114.3 16.75 L 128.3 16.75 L 128.3 2.75 L 114.3 2.75 L 114.3 16.75 Z M 114.3 92.95 L 128.3 92.95 L 128.3 78.95 L 114.3 78.95 L 114.3 92.95 Z M 130.625 16.25 A 0.5 0.5 0 0 0 131.125 16.75 L 132.125 16.75 A 0.5 0.5 0 0 0 132.625 16.25 L 132.625 3.25 A 0.5 0.5 0 0 0 132.125 2.75 L 131.125 2.75 A 0.5 0.5 0 0 0 130.625 3.25 L 130.625 16.25 Z M 167.125 16.25 A 0.5 0.5 0 0 0 167.625 16.75 L 168.625 16.75 A 0.5 0.5 0 0 0 169.125 16.25 L 169.125 3.25 A 0.5 0.5 0 0 0 168.625 2.75 L 167.625 2.75 A 0.5 0.5 0 0 0 167.125 3.25 L 167.125 16.25 Z M 142.0375 35.3 A 0.5 0.5 0 0 0 142.5375 35.8 L 143.5375 35.8 A 0.5 0.5 0 0 0 144.0375 35.3 L 144.0375 22.3 A 0.5 0.5 0 0 0 143.5375 21.8 L 142.5375 21.8 A 0.5 0.5 0 0 0 142.0375 22.3 L 142.0375 35.3 Z M 165.2375 35.3 A 0.5 0.5 0 0 0 165.7375 35.8 L 166.7375 35.8 A 0.5 0.5 0 0 0 167.2375 35.3 L 167.2375 22.3 A 0.5 0.5 0 0 0 166.7375 21.8 L 165.7375 21.8 A 0.5 0.5 0 0 0 165.2375 22.3 L 165.2375 35.3 Z M 2.0375 92.45 A 0.5 0.5 0 0 0 2.5375 92.95 L 3.5375 92.95 A 0.5 0.5 0 0 0 4.0375 92.45 L 4.0375 79.45 A 0.5 0.5 0 0 0 3.5375 78.95 L 2.5375 78.95 A 0.5 0.5 0 0 0 2.0375 79.45 L 2.0375 92.45 Z M 38.5375 92.45 A 0.5 0.5 0 0 0 39.0375 92.95 L 40.0375 92.95 A 0.5 0.5 0 0 0 40.5375 92.45 L 40.5375 79.45 A 0.5 0.5 0 0 0 40.0375 78.95 L 39.0375 78.95 A 0.5 0.5 0 0 0 38.5375 79.45 L 38.5375 92.45 Z" vector-effect="non-scaling-stroke"/></g></svg>