<?xml version="1.0" encoding="UTF-8" standalone="no"?>
<svg
   xmlns:dc="http://purl.org/dc/elements/1.1/"
   xmlns:cc="http://creativecommons.org/ns#"
   xmlns:rdf="http://www.w3.org/1999/02/22-rdf-syntax-ns#"
   xmlns:svg="http://www.w3.org/2000/svg"
   xmlns="http://www.w3.org/2000/svg"
   xmlns:sodipodi="http://sodipodi.sourceforge.net/DTD/sodipodi-0.dtd"
   xmlns:inkscape="http://www.inkscape.org/namespaces/inkscape"
   width="372.902mm"
   height="145.468mm"
   viewBox="0.000 0.000 372.902 145.468"
   version="1.1"
   id="svg34"
   sodipodi:docname="1.9mm_bp_alice_bottom.svg"
   inkscape:version="1.0 (4035a4fb49, 2020-05-01)">
  <metadata
     id="metadata40">
    <rdf:RDF>
      <cc:Work
         rdf:about="">
        <dc:format>image/svg+xml</dc:format>
        <dc:type
           rdf:resource="http://purl.org/dc/dcmitype/StillImage" />
        <dc:title />
      </cc:Work>
    </rdf:RDF>
  </metadata>
  <defs
     id="defs38" />
  <sodipodi:namedview
     inkscape:document-rotation="0"
     pagecolor="#ffffff"
     bordercolor="#666666"
     borderopacity="1"
     objecttolerance="10"
     gridtolerance="10"
     guidetolerance="10"
     inkscape:pageopacity="0"
     inkscape:pageshadow="2"
     inkscape:window-width="1920"
     inkscape:window-height="1017"
     id="namedview36"
     showgrid="false"
     inkscape:document-units="mm"
     inkscape:snap-nodes="false"
     inkscape:snap-object-midpoints="true"
     showguides="false"
     inkscape:guide-bbox="true"
     inkscape:zoom="1.0653551"
     inkscape:cx="645.56148"
     inkscape:cy="274.90016"
     inkscape:window-x="-8"
     inkscape:window-y="885"
     inkscape:window-maximized="1"
     inkscape:current-layer="layer1">
    <sodipodi:guide
       position="10.001016,135.46698"
       orientation="1,0"
       id="guide42" />
    <sodipodi:guide
       position="127.634,135.46698"
       orientation="0,-1"
       id="guide44" />
    <sodipodi:guide
       position="245.26799,135.46698"
       orientation="1,0"
       id="guide46" />
    <sodipodi:guide
       position="362.902,135.46698"
       orientation="1,0"
       id="guide48" />
    <sodipodi:guide
       position="362.902,10.000002"
       orientation="0,-1"
       id="guide50" />
    <sodipodi:guide
       position="245.26799,10.000002"
       orientation="0,-1"
       id="guide52" />
    <sodipodi:guide
       position="127.634,10.000002"
       orientation="1,0"
       id="guide54" />
    <sodipodi:guide
       position="10.001016,10.000002"
       orientation="1,0"
       id="guide56" />
  </sodipodi:namedview>
  <path
     id="polygon2"
     style="fill:none;stroke:#000000;stroke-width:0.25;stroke-miterlimit:4;stroke-dasharray:none"
     d="m 362.902,5.001 0.392,0.015 0.39,0.046 0.385,0.077 0.378,0.106 0.368,0.136 0.356,0.164 0.343,0.192 0.326,0.218 0.309,0.243 0.288,0.267 0.267,0.288 0.243,0.309 0.218,0.326 0.192,0.343 0.164,0.356 0.136,0.368 0.106,0.378 0.077,0.385 0.046,0.39 0.015,0.393 10e-4,125.467 -0.016,0.392 -0.046,0.39 -0.077,0.385 -0.106,0.378 -0.136,0.368 -0.164,0.357 -0.192,0.342 -0.218,0.327 -0.243,0.308 -0.267,0.288 -0.288,0.267 -0.309,0.243 -0.326,0.218 -0.343,0.192 -0.356,0.164 -0.368,0.136 -0.378,0.107 -0.385,0.076 -0.39,0.046 -0.392,0.016 H 10.001 L 9.608,140.452 9.218,140.406 8.833,140.33 8.455,140.223 8.087,140.087 7.731,139.923 7.388,139.731 7.062,139.513 6.753,139.27 6.465,139.003 6.198,138.715 5.955,138.407 5.737,138.08 5.545,137.738 5.381,137.381 5.245,137.013 5.139,136.635 5.062,136.25 5.016,135.86 5,135.468 5.001,10.001 5.016,9.608 5.062,9.218 5.139,8.833 5.245,8.455 5.381,8.087 5.545,7.731 5.737,7.388 5.955,7.062 6.198,6.753 6.465,6.465 6.753,6.198 7.062,5.955 7.388,5.737 7.731,5.545 8.087,5.381 8.455,5.245 8.833,5.139 9.218,5.062 9.608,5.016 10.001,5 Z" />
  <g
     inkscape:groupmode="layer"
     id="layer1"
     inkscape:label="holes">
    <circle
       style="fill:none;stroke:#000000;stroke-width:0.25;stroke-miterlimit:4;stroke-dasharray:none"
       id="path59"
       cx="10.001017"
       cy="10.001016"
       r="0.94999999" />
    <circle
       r="0.94999999"
       cy="135.468"
       cx="10.001017"
       id="circle61"
       style="fill:none;stroke:#000000;stroke-width:0.25;stroke-miterlimit:4;stroke-dasharray:none" />
    <circle
       style="fill:none;stroke:#000000;stroke-width:0.25;stroke-miterlimit:4;stroke-dasharray:none"
       id="circle63"
       cx="127.63401"
       cy="135.468"
       r="0.94999999" />
    <circle
       r="0.94999999"
       cy="135.468"
       cx="245.26801"
       id="circle65"
       style="fill:none;stroke:#000000;stroke-width:0.25;stroke-miterlimit:4;stroke-dasharray:none" />
    <circle
       style="fill:none;stroke:#000000;stroke-width:0.25;stroke-miterlimit:4;stroke-dasharray:none"
       id="circle67"
       cx="362.90201"
       cy="135.468"
       r="0.94999999" />
    <circle
       r="0.94999999"
       cy="10.001016"
       cx="362.90201"
       id="circle69"
       style="fill:none;stroke:#000000;stroke-width:0.25;stroke-miterlimit:4;stroke-dasharray:none" />
    <circle
       style="fill:none;stroke:#000000;stroke-width:0.25;stroke-miterlimit:4;stroke-dasharray:none"
       id="circle71"
       cx="245.26801"
       cy="10.001016"
       r="0.94999999" />
    <circle
       r="0.94999999"
       cy="10.001016"
       cx="127.63401"
       id="circle73"
       style="fill:none;stroke:#000000;stroke-width:0.25;stroke-miterlimit:4;stroke-dasharray:none" />
  </g>
</svg>
