<?xml version="1.0" encoding="UTF-8" standalone="no"?>
<svg
   xmlns:dc="http://purl.org/dc/elements/1.1/"
   xmlns:cc="http://creativecommons.org/ns#"
   xmlns:rdf="http://www.w3.org/1999/02/22-rdf-syntax-ns#"
   xmlns:svg="http://www.w3.org/2000/svg"
   xmlns="http://www.w3.org/2000/svg"
   xmlns:sodipodi="http://sodipodi.sourceforge.net/DTD/sodipodi-0.dtd"
   xmlns:inkscape="http://www.inkscape.org/namespaces/inkscape"
   inkscape:version="1.0 (4035a4fb49, 2020-05-01)"
   sodipodi:docname="3.1mm_bp_alice_top.svg"
   id="svg34"
   version="1.1"
   viewBox="0.000 0.000 372.902 145.468"
   height="145.468mm"
   width="372.902mm">
  <metadata
     id="metadata40">
    <rdf:RDF>
      <cc:Work
         rdf:about="">
        <dc:format>image/svg+xml</dc:format>
        <dc:type
           rdf:resource="http://purl.org/dc/dcmitype/StillImage" />
        <dc:title></dc:title>
      </cc:Work>
    </rdf:RDF>
  </metadata>
  <defs
     id="defs38" />
  <sodipodi:namedview
     inkscape:current-layer="layer1"
     inkscape:window-maximized="1"
     inkscape:window-y="885"
     inkscape:window-x="-8"
     inkscape:cy="274.90016"
     inkscape:cx="704.69671"
     inkscape:zoom="1.1962593"
     inkscape:guide-bbox="true"
     showguides="false"
     inkscape:snap-object-midpoints="true"
     inkscape:snap-nodes="false"
     inkscape:document-units="mm"
     showgrid="false"
     id="namedview36"
     inkscape:window-height="1017"
     inkscape:window-width="1920"
     inkscape:pageshadow="2"
     inkscape:pageopacity="0"
     guidetolerance="10"
     gridtolerance="10"
     objecttolerance="10"
     borderopacity="1"
     bordercolor="#666666"
     pagecolor="#ffffff"
     inkscape:document-rotation="0">
    <sodipodi:guide
       id="guide42"
       orientation="1,0"
       position="10.001016,135.46698" />
    <sodipodi:guide
       id="guide44"
       orientation="0,-1"
       position="127.634,135.46698" />
    <sodipodi:guide
       id="guide46"
       orientation="1,0"
       position="245.26799,135.46698" />
    <sodipodi:guide
       id="guide48"
       orientation="1,0"
       position="362.902,135.46698" />
    <sodipodi:guide
       id="guide50"
       orientation="0,-1"
       position="362.902,10.000002" />
    <sodipodi:guide
       id="guide52"
       orientation="0,-1"
       position="245.26799,10.000002" />
    <sodipodi:guide
       id="guide54"
       orientation="1,0"
       position="127.634,10.000002" />
    <sodipodi:guide
       id="guide56"
       orientation="1,0"
       position="10.001016,10.000002" />
  </sodipodi:namedview>
  <path
     d="m 362.902,5.001 0.392,0.015 0.39,0.046 0.385,0.077 0.378,0.106 0.368,0.136 0.356,0.164 0.343,0.192 0.326,0.218 0.309,0.243 0.288,0.267 0.267,0.288 0.243,0.309 0.218,0.326 0.192,0.343 0.164,0.356 0.136,0.368 0.106,0.378 0.077,0.385 0.046,0.39 0.015,0.393 10e-4,125.467 -0.016,0.392 -0.046,0.39 -0.077,0.385 -0.106,0.378 -0.136,0.368 -0.164,0.357 -0.192,0.342 -0.218,0.327 -0.243,0.308 -0.267,0.288 -0.288,0.267 -0.309,0.243 -0.326,0.218 -0.343,0.192 -0.356,0.164 -0.368,0.136 -0.378,0.107 -0.385,0.076 -0.39,0.046 -0.392,0.016 H 10.001 L 9.608,140.452 9.218,140.406 8.833,140.33 8.455,140.223 8.087,140.087 7.731,139.923 7.388,139.731 7.062,139.513 6.753,139.27 6.465,139.003 6.198,138.715 5.955,138.407 5.737,138.08 5.545,137.738 5.381,137.381 5.245,137.013 5.139,136.635 5.062,136.25 5.016,135.86 5,135.468 5.001,10.001 5.016,9.608 5.062,9.218 5.139,8.833 5.245,8.455 5.381,8.087 5.545,7.731 5.737,7.388 5.955,7.062 6.198,6.753 6.465,6.465 6.753,6.198 7.062,5.955 7.388,5.737 7.731,5.545 8.087,5.381 8.455,5.245 8.833,5.139 9.218,5.062 9.608,5.016 10.001,5 Z"
     style="fill:none;stroke:#000000;stroke-width:0.25;stroke-miterlimit:4;stroke-dasharray:none"
     id="polygon2" />
  <path
     sodipodi:nodetypes="cccccccccccccccccccccccccc"
     d="M 100.727,15.952 H 81.675 v 0.953 h -38.1 v 19.05 H 41.67 v 19.05 h -2.858 v 19.05 H 34.05 v 38.101 H 81.677 V 93.107 h 10.671 l -3.942,18.547 88.512,18.814 3.961,-18.636 -9.317,-1.98 3.961,-18.634 -9.317,-1.98 3.961,-18.634 -4.659,-0.99 3.961,-18.634 -9.317,-1.98 3.961,-18.634 z"
     style="fill:none;stroke:#000000;stroke-width:0.25;stroke-miterlimit:4;stroke-dasharray:none"
     id="polygon12" />
  <path
     sodipodi:nodetypes="cccccccccccccccccccccccccc"
     d="m 264.953,16.21 -18.634,3.962 v -0.001 l -74.537,15.844 3.961,18.635 9.317,-1.98 3.961,18.634 4.659,-0.99 3.96,18.631 -9.317,1.98 3.961,18.634 h -0.001 l 3.961,18.635 51.243,-10.892 v 10e-4 l 27.953,-5.942 -3.88,-18.254 h 86.342 V 74.055 h -4.763 v -19.05 h -2.857 v -19.05 h -4.763 v -19.05 z"
     style="fill:none;stroke:#000000;stroke-width:0.25;stroke-miterlimit:4;stroke-dasharray:none"
     id="polygon14" />
  <path
     d="M 17.857,14.999 V 53.102 H 36.909 V 14.999 Z"
     style="fill:none;stroke:#000000;stroke-width:0.25;stroke-miterlimit:4;stroke-dasharray:none"
     id="polygon24" />
  <g
     inkscape:label="holes"
     id="layer1"
     inkscape:groupmode="layer">
    <circle
       r="1.55"
       cy="10.001016"
       cx="10.001017"
       id="path59"
       style="fill:none;stroke:#000000;stroke-width:0.25;stroke-miterlimit:4;stroke-dasharray:none" />
    <circle
       r="1.55"
       style="fill:none;stroke:#000000;stroke-width:0.25;stroke-miterlimit:4;stroke-dasharray:none"
       id="circle61"
       cx="10.001017"
       cy="135.468" />
    <circle
       r="1.55"
       cy="135.468"
       cx="127.63401"
       id="circle63"
       style="fill:none;stroke:#000000;stroke-width:0.25;stroke-miterlimit:4;stroke-dasharray:none" />
    <circle
       r="1.55"
       style="fill:none;stroke:#000000;stroke-width:0.25;stroke-miterlimit:4;stroke-dasharray:none"
       id="circle65"
       cx="245.26801"
       cy="135.468" />
    <circle
       r="1.55"
       cy="135.468"
       cx="362.90201"
       id="circle67"
       style="fill:none;stroke:#000000;stroke-width:0.25;stroke-miterlimit:4;stroke-dasharray:none" />
    <circle
       r="1.55"
       style="fill:none;stroke:#000000;stroke-width:0.25;stroke-miterlimit:4;stroke-dasharray:none"
       id="circle69"
       cx="362.90201"
       cy="10.001016" />
    <circle
       r="1.55"
       cy="10.001016"
       cx="245.26801"
       id="circle71"
       style="fill:none;stroke:#000000;stroke-width:0.25;stroke-miterlimit:4;stroke-dasharray:none" />
    <circle
       r="1.55"
       style="fill:none;stroke:#000000;stroke-width:0.25;stroke-miterlimit:4;stroke-dasharray:none"
       id="circle73"
       cx="127.63401"
       cy="10.001016" />
  </g>
</svg>
