<?xml version="1.0" encoding="UTF-8" standalone="no"?>
<svg
   xmlns:dc="http://purl.org/dc/elements/1.1/"
   xmlns:cc="http://creativecommons.org/ns#"
   xmlns:rdf="http://www.w3.org/1999/02/22-rdf-syntax-ns#"
   xmlns:svg="http://www.w3.org/2000/svg"
   xmlns="http://www.w3.org/2000/svg"
   xmlns:sodipodi="http://sodipodi.sourceforge.net/DTD/sodipodi-0.dtd"
   xmlns:inkscape="http://www.inkscape.org/namespaces/inkscape"
   inkscape:version="1.0 (4035a4fb49, 2020-05-01)"
   sodipodi:docname="1.9mm_top.svg"
   id="svg14"
   version="1.1"
   viewBox="0.000 0.000 87.152 87.152"
   height="87.152mm"
   width="87.152mm">
  <metadata
     id="metadata20">
    <rdf:RDF>
      <cc:Work
         rdf:about="">
        <dc:format>image/svg+xml</dc:format>
        <dc:type
           rdf:resource="http://purl.org/dc/dcmitype/StillImage" />
        <dc:title></dc:title>
      </cc:Work>
    </rdf:RDF>
  </metadata>
  <defs
     id="defs18" />
  <sodipodi:namedview
     inkscape:document-units="mm"
     inkscape:current-layer="svg14"
     inkscape:window-maximized="1"
     inkscape:window-y="885"
     inkscape:window-x="-8"
     inkscape:cy="164.69669"
     inkscape:cx="142.42864"
     inkscape:zoom="2.8291654"
     inkscape:snap-bbox="false"
     inkscape:guide-bbox="true"
     showguides="true"
     inkscape:snap-object-midpoints="true"
     inkscape:snap-nodes="false"
     showgrid="false"
     id="namedview16"
     inkscape:window-height="1017"
     inkscape:window-width="1920"
     inkscape:pageshadow="2"
     inkscape:pageopacity="0"
     guidetolerance="10"
     gridtolerance="10"
     objecttolerance="10"
     borderopacity="1"
     bordercolor="#666666"
     pagecolor="#ffffff">
    <sodipodi:guide
       id="guide851"
       orientation="1,0"
       position="77.152011,77.150985" />
    <sodipodi:guide
       id="guide853"
       orientation="0,-1"
       position="77.152011,9.9999853" />
    <sodipodi:guide
       id="guide855"
       orientation="1,0"
       position="10.001011,9.9999853" />
    <sodipodi:guide
       id="guide857"
       orientation="0,-1"
       position="10.001011,77.150985" />
  </sodipodi:namedview>
  <path
     d="m 77.152,5.001 0.392,0.015 0.39,0.046 0.385,0.077 0.378,0.106 0.368,0.136 0.356,0.164 0.343,0.192 0.326,0.218 0.309,0.243 0.288,0.267 0.267,0.288 0.243,0.309 0.218,0.326 0.192,0.343 0.164,0.356 0.136,0.368 0.106,0.378 0.077,0.385 0.046,0.39 0.016,0.393 v 67.151 l -0.016,0.392 -0.046,0.39 -0.077,0.385 -0.106,0.378 -0.136,0.368 -0.164,0.356 -0.192,0.343 -0.218,0.326 -0.243,0.309 -0.267,0.288 -0.288,0.267 -0.309,0.243 -0.326,0.218 -0.343,0.192 -0.356,0.164 -0.368,0.136 -0.378,0.106 -0.385,0.077 -0.39,0.046 -0.393,0.016 H 10.001 L 9.608,82.136 9.218,82.09 8.833,82.013 8.455,81.907 8.087,81.771 7.731,81.607 7.388,81.415 7.062,81.197 6.753,80.954 6.465,80.687 6.198,80.399 5.955,80.09 5.737,79.764 5.545,79.421 5.381,79.065 5.245,78.697 5.139,78.319 5.062,77.934 5.016,77.544 5,77.151 5.001,10.001 5.016,9.608 5.062,9.218 5.139,8.833 5.245,8.455 5.381,8.087 5.545,7.731 5.737,7.388 5.955,7.062 6.198,6.753 6.465,6.465 6.753,6.198 7.062,5.955 7.388,5.737 7.731,5.545 8.087,5.381 8.455,5.245 8.833,5.139 9.218,5.062 9.608,5.016 10.001,5 Z"
     style="fill:none;stroke:#000000;stroke-width:0.25;stroke-miterlimit:4;stroke-dasharray:none"
     id="polygon2" />
  <path
     d="M 14.999,14.999 V 72.152 H 72.152 V 14.999 Z"
     style="fill:none;stroke:#000000;stroke-width:0.25;stroke-miterlimit:4;stroke-dasharray:none"
     id="polygon8" />
  <circle
     r="0.94999999"
     cy="10.001012"
     cx="10.001012"
     id="path861"
     style="fill:none;stroke:#000000;stroke-width:0.25;stroke-miterlimit:4;stroke-dasharray:none" />
  <circle
     style="fill:none;stroke:#000000;stroke-width:0.25;stroke-miterlimit:4;stroke-dasharray:none"
     id="circle863"
     cx="10.001012"
     cy="77.152016"
     r="0.94999999" />
  <circle
     r="0.94999999"
     cy="77.152016"
     cx="77.152016"
     id="circle865"
     style="fill:none;stroke:#000000;stroke-width:0.25;stroke-miterlimit:4;stroke-dasharray:none" />
  <circle
     style="fill:none;stroke:#000000;stroke-width:0.25;stroke-miterlimit:4;stroke-dasharray:none"
     id="circle867"
     cx="77.152016"
     cy="10.001012"
     r="0.94999999" />
</svg>
