<?xml version="1.0" encoding="UTF-8" standalone="no"?>
<svg
   xmlns:dc="http://purl.org/dc/elements/1.1/"
   xmlns:cc="http://creativecommons.org/ns#"
   xmlns:rdf="http://www.w3.org/1999/02/22-rdf-syntax-ns#"
   xmlns:svg="http://www.w3.org/2000/svg"
   xmlns="http://www.w3.org/2000/svg"
   xmlns:sodipodi="http://sodipodi.sourceforge.net/DTD/sodipodi-0.dtd"
   xmlns:inkscape="http://www.inkscape.org/namespaces/inkscape"
   width="87.152mm"
   height="87.152mm"
   viewBox="0.000 0.000 87.152 87.152"
   version="1.1"
   id="svg14"
   sodipodi:docname="4.4mm_closed.svg"
   inkscape:version="1.0 (4035a4fb49, 2020-05-01)">
  <metadata
     id="metadata20">
    <rdf:RDF>
      <cc:Work
         rdf:about="">
        <dc:format>image/svg+xml</dc:format>
        <dc:type
           rdf:resource="http://purl.org/dc/dcmitype/StillImage" />
        <dc:title></dc:title>
      </cc:Work>
    </rdf:RDF>
  </metadata>
  <defs
     id="defs18" />
  <sodipodi:namedview
     inkscape:bbox-nodes="true"
     inkscape:document-rotation="0"
     pagecolor="#ffffff"
     bordercolor="#666666"
     borderopacity="1"
     objecttolerance="10"
     gridtolerance="10"
     guidetolerance="10"
     inkscape:pageopacity="0"
     inkscape:pageshadow="2"
     inkscape:window-width="1920"
     inkscape:window-height="1017"
     id="namedview16"
     showgrid="false"
     inkscape:snap-nodes="true"
     inkscape:snap-object-midpoints="true"
     showguides="true"
     inkscape:guide-bbox="true"
     inkscape:snap-bbox="false"
     inkscape:zoom="2.8269349"
     inkscape:cx="125.07781"
     inkscape:cy="164.69669"
     inkscape:window-x="-8"
     inkscape:window-y="885"
     inkscape:window-maximized="1"
     inkscape:current-layer="svg14"
     inkscape:document-units="mm">
    <sodipodi:guide
       position="77.152011,77.150985"
       orientation="1,0"
       id="guide851" />
    <sodipodi:guide
       position="77.152011,9.9999853"
       orientation="0,-1"
       id="guide853" />
    <sodipodi:guide
       position="10.001011,9.9999853"
       orientation="1,0"
       id="guide855" />
    <sodipodi:guide
       position="10.001011,77.150985"
       orientation="0,-1"
       id="guide857" />
  </sodipodi:namedview>
  <path
     id="polygon2"
     style="fill:none;stroke:#000000;stroke-width:0.25;stroke-miterlimit:4;stroke-dasharray:none"
     d="m 77.152,5.001 0.392,0.015 0.39,0.046 0.385,0.077 0.378,0.106 0.368,0.136 0.356,0.164 0.343,0.192 0.326,0.218 0.309,0.243 0.288,0.267 0.267,0.288 0.243,0.309 0.218,0.326 0.192,0.343 0.164,0.356 0.136,0.368 0.106,0.378 0.077,0.385 0.046,0.39 0.016,0.393 v 67.151 l -0.016,0.392 -0.046,0.39 -0.077,0.385 -0.106,0.378 -0.136,0.368 -0.164,0.356 -0.192,0.343 -0.218,0.326 -0.243,0.309 -0.267,0.288 -0.288,0.267 -0.309,0.243 -0.326,0.218 -0.343,0.192 -0.356,0.164 -0.368,0.136 -0.378,0.106 -0.385,0.077 -0.39,0.046 -0.393,0.016 H 10.001 L 9.608,82.136 9.218,82.09 8.833,82.013 8.455,81.907 8.087,81.771 7.731,81.607 7.388,81.415 7.062,81.197 6.753,80.954 6.465,80.687 6.198,80.399 5.955,80.09 5.737,79.764 5.545,79.421 5.381,79.065 5.245,78.697 5.139,78.319 5.062,77.934 5.016,77.544 5,77.151 5.001,10.001 5.016,9.608 5.062,9.218 5.139,8.833 5.245,8.455 5.381,8.087 5.545,7.731 5.737,7.388 5.955,7.062 6.198,6.753 6.465,6.465 6.753,6.198 7.062,5.955 7.388,5.737 7.731,5.545 8.087,5.381 8.455,5.245 8.833,5.139 9.218,5.062 9.608,5.016 10.001,5 Z" />
  <path
     sodipodi:nodetypes="ccccc"
     id="polygon8"
     style="fill:none;stroke:#000000;stroke-width:0.25;stroke-miterlimit:4;stroke-dasharray:none"
     d="M 13,13 V 75.152 H 74.152 V 13 Z" />
  <circle
     r="2.2"
     style="fill:none;stroke:#000000;stroke-width:0.25;stroke-miterlimit:4;stroke-dasharray:none"
     id="path861"
     cx="10.001012"
     cy="10.001012" />
  <circle
     r="2.2"
     cy="77.152016"
     cx="10.001012"
     id="circle863"
     style="fill:none;stroke:#000000;stroke-width:0.25;stroke-miterlimit:4;stroke-dasharray:none" />
  <circle
     r="2.2"
     style="fill:none;stroke:#000000;stroke-width:0.25;stroke-miterlimit:4;stroke-dasharray:none"
     id="circle865"
     cx="77.152016"
     cy="77.152016" />
  <circle
     r="2.2"
     cy="10.001012"
     cx="77.152016"
     id="circle867"
     style="fill:none;stroke:#000000;stroke-width:0.25;stroke-miterlimit:4;stroke-dasharray:none" />
</svg>
