<?xml version="1.0" encoding="UTF-8" standalone="no"?>
<svg
   xmlns:dc="http://purl.org/dc/elements/1.1/"
   xmlns:cc="http://creativecommons.org/ns#"
   xmlns:rdf="http://www.w3.org/1999/02/22-rdf-syntax-ns#"
   xmlns:svg="http://www.w3.org/2000/svg"
   xmlns="http://www.w3.org/2000/svg"
   xmlns:sodipodi="http://sodipodi.sourceforge.net/DTD/sodipodi-0.dtd"
   xmlns:inkscape="http://www.inkscape.org/namespaces/inkscape"
   width="240mm"
   height="240mm"
   viewBox="0 0 240 240"
   version="1.1"
   id="svg14"
   sodipodi:docname="sample_order_mx_only.svg"
   inkscape:version="1.0.1 (3bc2e813f5, 2020-09-07)">
  <metadata
     id="metadata20">
    <rdf:RDF>
      <cc:Work
         rdf:about="">
        <dc:format>image/svg+xml</dc:format>
        <dc:type
           rdf:resource="http://purl.org/dc/dcmitype/StillImage" />
        <dc:title></dc:title>
      </cc:Work>
    </rdf:RDF>
  </metadata>
  <defs
     id="defs18" />
  <sodipodi:namedview
     inkscape:snap-smooth-nodes="true"
     inkscape:snap-others="false"
     inkscape:object-nodes="true"
     inkscape:object-paths="true"
     inkscape:document-rotation="0"
     pagecolor="#ffffff"
     bordercolor="#666666"
     borderopacity="1"
     objecttolerance="10"
     gridtolerance="10"
     guidetolerance="10"
     inkscape:pageopacity="0"
     inkscape:pageshadow="2"
     inkscape:window-width="2560"
     inkscape:window-height="1361"
     id="namedview16"
     showgrid="false"
     inkscape:snap-nodes="true"
     inkscape:snap-object-midpoints="true"
     showguides="false"
     inkscape:guide-bbox="true"
     inkscape:snap-bbox="false"
     inkscape:zoom="1.2799219"
     inkscape:cx="453.54331"
     inkscape:cy="453.54331"
     inkscape:window-x="-9"
     inkscape:window-y="469"
     inkscape:window-maximized="1"
     inkscape:current-layer="layer5"
     inkscape:document-units="mm">
    <sodipodi:guide
       position="77.152011,77.150985"
       orientation="1,0"
       id="guide851" />
    <sodipodi:guide
       position="77.152011,9.9999853"
       orientation="0,-1"
       id="guide853" />
    <sodipodi:guide
       position="10.001011,9.9999853"
       orientation="1,0"
       id="guide855" />
    <sodipodi:guide
       position="10.001011,77.150985"
       orientation="0,-1"
       id="guide857" />
  </sodipodi:namedview>
  <g
     inkscape:label="bottom_layer"
     id="layer1"
     inkscape:groupmode="layer">
    <g
       id="g55">
      <circle
         style="fill:none;stroke:#000000;stroke-width:0.25;stroke-miterlimit:4;stroke-dasharray:none"
         id="circle867"
         cx="77.152016"
         cy="10.001012"
         r="0.94999999" />
      <circle
         r="0.94999999"
         cy="77.152016"
         cx="77.152016"
         id="circle865"
         style="fill:none;stroke:#000000;stroke-width:0.25;stroke-miterlimit:4;stroke-dasharray:none" />
      <circle
         style="fill:none;stroke:#000000;stroke-width:0.25;stroke-miterlimit:4;stroke-dasharray:none"
         id="circle863"
         cx="10.001012"
         cy="77.152016"
         r="0.94999999" />
      <circle
         r="0.94999999"
         cy="10.001012"
         cx="10.001012"
         id="path861"
         style="fill:none;stroke:#000000;stroke-width:0.25;stroke-miterlimit:4;stroke-dasharray:none" />
      <path
         d="m 77.152,5.001 0.392,0.015 0.39,0.046 0.385,0.077 0.378,0.106 0.368,0.136 0.356,0.164 0.343,0.192 0.326,0.218 0.309,0.243 0.288,0.267 0.267,0.288 0.243,0.309 0.218,0.326 0.192,0.343 0.164,0.356 0.136,0.368 0.106,0.378 0.077,0.385 0.046,0.39 0.016,0.393 v 67.151 l -0.016,0.392 -0.046,0.39 -0.077,0.385 -0.106,0.378 -0.136,0.368 -0.164,0.356 -0.192,0.343 -0.218,0.326 -0.243,0.309 -0.267,0.288 -0.288,0.267 -0.309,0.243 -0.326,0.218 -0.343,0.192 -0.356,0.164 -0.368,0.136 -0.378,0.106 -0.385,0.077 -0.39,0.046 -0.393,0.016 H 10.001 L 9.608,82.136 9.218,82.09 8.833,82.013 8.455,81.907 8.087,81.771 7.731,81.607 7.388,81.415 7.062,81.197 6.753,80.954 6.465,80.687 6.198,80.399 5.955,80.09 5.737,79.764 5.545,79.421 5.381,79.065 5.245,78.697 5.139,78.319 5.062,77.934 5.016,77.544 5,77.151 5.001,10.001 5.016,9.608 5.062,9.218 5.139,8.833 5.245,8.455 5.381,8.087 5.545,7.731 5.737,7.388 5.955,7.062 6.198,6.753 6.465,6.465 6.753,6.198 7.062,5.955 7.388,5.737 7.731,5.545 8.087,5.381 8.455,5.245 8.833,5.139 9.218,5.062 9.608,5.016 10.001,5 Z"
         style="fill:none;stroke:#000000;stroke-width:0.25;stroke-miterlimit:4;stroke-dasharray:none"
         id="polygon2" />
    </g>
  </g>
  <g
     inkscape:label="closed_layer_1"
     id="layer2"
     inkscape:groupmode="layer">
    <g
       transform="translate(77.150503)"
       id="g42">
      <path
         id="polygon2-2"
         style="fill:none;stroke:#000000;stroke-width:0.25;stroke-miterlimit:4;stroke-dasharray:none"
         d="m 77.152,5.001 0.392,0.015 0.39,0.046 0.385,0.077 0.378,0.106 0.368,0.136 0.356,0.164 0.343,0.192 0.326,0.218 0.309,0.243 0.288,0.267 0.267,0.288 0.243,0.309 0.218,0.326 0.192,0.343 0.164,0.356 0.136,0.368 0.106,0.378 0.077,0.385 0.046,0.39 0.016,0.393 v 67.151 l -0.016,0.392 -0.046,0.39 -0.077,0.385 -0.106,0.378 -0.136,0.368 -0.164,0.356 -0.192,0.343 -0.218,0.326 -0.243,0.309 -0.267,0.288 -0.288,0.267 -0.309,0.243 -0.326,0.218 -0.343,0.192 -0.356,0.164 -0.368,0.136 -0.378,0.106 -0.385,0.077 -0.39,0.046 -0.393,0.016 H 10.001 L 9.608,82.136 9.218,82.09 8.833,82.013 8.455,81.907 8.087,81.771 7.731,81.607 7.388,81.415 7.062,81.197 6.753,80.954 6.465,80.687 6.198,80.399 5.955,80.09 5.737,79.764 5.545,79.421 5.381,79.065 5.245,78.697 5.139,78.319 5.062,77.934 5.016,77.544 5,77.151 5.001,10.001 5.016,9.608 5.062,9.218 5.139,8.833 5.245,8.455 5.381,8.087 5.545,7.731 5.737,7.388 5.955,7.062 6.198,6.753 6.465,6.465 6.753,6.198 7.062,5.955 7.388,5.737 7.731,5.545 8.087,5.381 8.455,5.245 8.833,5.139 9.218,5.062 9.608,5.016 10.001,5 Z" />
      <path
         sodipodi:nodetypes="ccccc"
         id="polygon8"
         style="fill:none;stroke:#000000;stroke-width:0.25;stroke-miterlimit:4;stroke-dasharray:none"
         d="M 13,13 V 75.152 H 74.152 V 13 Z" />
      <circle
         style="fill:none;stroke:#000000;stroke-width:0.25;stroke-miterlimit:4;stroke-dasharray:none"
         id="path861-2"
         cx="10.001012"
         cy="10.001012"
         r="1.75" />
      <circle
         cy="77.152016"
         cx="10.001012"
         id="circle863-3"
         style="fill:none;stroke:#000000;stroke-width:0.25;stroke-miterlimit:4;stroke-dasharray:none"
         r="1.75" />
      <circle
         style="fill:none;stroke:#000000;stroke-width:0.25;stroke-miterlimit:4;stroke-dasharray:none"
         id="circle865-7"
         cx="77.152016"
         cy="77.152016"
         r="1.75" />
      <circle
         cy="10.001012"
         cx="77.152016"
         id="circle867-0"
         style="fill:none;stroke:#000000;stroke-width:0.25;stroke-miterlimit:4;stroke-dasharray:none"
         r="1.75" />
    </g>
  </g>
  <g
     inkscape:label="open_layer_1"
     id="layer3"
     inkscape:groupmode="layer">
    <g
       transform="translate(154.30069,77.151625)"
       id="g77">
      <path
         sodipodi:nodetypes="ccccccccccccccccccccccccccccccccccccccccccccccccccccccccccccccccccccccccccccccccccccccccccccc"
         d="m 81.197312,7.062 0.218,0.326 0.192,0.343 0.164,0.356 0.136,0.368 0.106,0.378 0.077,0.385 0.046,0.39 0.016,0.393 v 67.151 l -0.016,0.392 -0.046,0.39 -0.077,0.385 -0.106,0.378 -0.136,0.368 -0.164,0.356 -0.192,0.343 -0.218,0.326 -0.243,0.309 -0.267,0.288 -0.288,0.267 -0.309,0.243 -0.326,0.218 -0.343,0.192 -0.356,0.164 -0.368,0.136 -0.378,0.106 -0.385,0.077 -0.39,0.046 -0.393,0.016 h -67.15 l -0.3930003,-0.016 -0.39,-0.046 -0.385,-0.077 -0.378,-0.106 -0.368,-0.136 -0.356,-0.164 -0.343,-0.192 -0.326,-0.218 -0.309,-0.243 -0.288,-0.267 -0.267,-0.288 -0.243,-0.309 -0.218,-0.326 -0.192,-0.343 -0.164,-0.356 -0.136,-0.368 -0.106,-0.378 -0.077,-0.385 -0.046,-0.39 -0.016,-0.393 10e-4,-67.15 0.015,-0.393 0.046,-0.39 0.077,-0.385 0.106,-0.378 0.136,-0.368 0.164,-0.356 0.192,-0.343 0.218,-0.326 0.243,-0.309 0.267,-0.288 0.288,-0.267 0.309,-0.243 0.326,-0.218 0.343,-0.192 0.356,-0.164 0.368,-0.136 0.378,-0.106 0.385,-0.077 0.39,-0.046 L 10.001312,5 h 26.575 v 8.000646 H 13 v 62.151 h 61.152 v -62.151 H 50.576312 V 5.001 h 26.576 l 0.392,0.015 0.39,0.046 0.385,0.077 0.378,0.106 0.368,0.136 0.356,0.164 0.343,0.192 0.326,0.218 0.309,0.243 0.288,0.267 0.267,0.288 z"
         style="fill:none;stroke:#000000;stroke-width:0.25;stroke-miterlimit:4;stroke-dasharray:none"
         id="polygon17" />
      <circle
         style="fill:none;stroke:#000000;stroke-width:0.25;stroke-miterlimit:4;stroke-dasharray:none"
         id="path861-1"
         cx="10.001012"
         cy="10.001012"
         r="1.75" />
      <circle
         cy="77.152016"
         cx="10.001012"
         id="circle863-2"
         style="fill:none;stroke:#000000;stroke-width:0.25;stroke-miterlimit:4;stroke-dasharray:none"
         r="1.75" />
      <circle
         style="fill:none;stroke:#000000;stroke-width:0.25;stroke-miterlimit:4;stroke-dasharray:none"
         id="circle865-2"
         cx="77.152016"
         cy="77.152016"
         r="1.75" />
      <circle
         cy="10.001012"
         cx="77.152016"
         id="circle867-9"
         style="fill:none;stroke:#000000;stroke-width:0.25;stroke-miterlimit:4;stroke-dasharray:none"
         r="1.75" />
    </g>
  </g>
  <g
     inkscape:groupmode="layer"
     id="g91"
     inkscape:label="open_layer_2">
    <g
       id="g89"
       transform="rotate(180,120.72666,43.576001)">
      <path
         id="path79"
         style="fill:none;stroke:#000000;stroke-width:0.25;stroke-miterlimit:4;stroke-dasharray:none"
         d="m 81.197312,7.062 0.218,0.326 0.192,0.343 0.164,0.356 0.136,0.368 0.106,0.378 0.077,0.385 0.046,0.39 0.016,0.393 v 67.151 l -0.016,0.392 -0.046,0.39 -0.077,0.385 -0.106,0.378 -0.136,0.368 -0.164,0.356 -0.192,0.343 -0.218,0.326 -0.243,0.309 -0.267,0.288 -0.288,0.267 -0.309,0.243 -0.326,0.218 -0.343,0.192 -0.356,0.164 -0.368,0.136 -0.378,0.106 -0.385,0.077 -0.39,0.046 -0.393,0.016 h -67.15 l -0.3930003,-0.016 -0.39,-0.046 -0.385,-0.077 -0.378,-0.106 -0.368,-0.136 -0.356,-0.164 -0.343,-0.192 -0.326,-0.218 -0.309,-0.243 -0.288,-0.267 -0.267,-0.288 -0.243,-0.309 -0.218,-0.326 -0.192,-0.343 -0.164,-0.356 -0.136,-0.368 -0.106,-0.378 -0.077,-0.385 -0.046,-0.39 -0.016,-0.393 10e-4,-67.15 0.015,-0.393 0.046,-0.39 0.077,-0.385 0.106,-0.378 0.136,-0.368 0.164,-0.356 0.192,-0.343 0.218,-0.326 0.243,-0.309 0.267,-0.288 0.288,-0.267 0.309,-0.243 0.326,-0.218 0.343,-0.192 0.356,-0.164 0.368,-0.136 0.378,-0.106 0.385,-0.077 0.39,-0.046 L 10.001312,5 h 26.575 v 8.000646 H 13 v 62.151 h 61.152 v -62.151 H 50.576312 V 5.001 h 26.576 l 0.392,0.015 0.39,0.046 0.385,0.077 0.378,0.106 0.368,0.136 0.356,0.164 0.343,0.192 0.326,0.218 0.309,0.243 0.288,0.267 0.267,0.288 z"
         sodipodi:nodetypes="ccccccccccccccccccccccccccccccccccccccccccccccccccccccccccccccccccccccccccccccccccccccccccccc" />
      <circle
         cy="10.001012"
         cx="10.001012"
         id="circle81"
         style="fill:none;stroke:#000000;stroke-width:0.25;stroke-miterlimit:4;stroke-dasharray:none"
         r="1.75" />
      <circle
         style="fill:none;stroke:#000000;stroke-width:0.25;stroke-miterlimit:4;stroke-dasharray:none"
         id="circle83"
         cx="10.001012"
         cy="77.152016"
         r="1.75" />
      <circle
         cy="77.152016"
         cx="77.152016"
         id="circle85"
         style="fill:none;stroke:#000000;stroke-width:0.25;stroke-miterlimit:4;stroke-dasharray:none"
         r="1.75" />
      <circle
         style="fill:none;stroke:#000000;stroke-width:0.25;stroke-miterlimit:4;stroke-dasharray:none"
         id="circle87"
         cx="77.152016"
         cy="10.001012"
         r="1.75" />
    </g>
  </g>
  <g
     inkscape:groupmode="layer"
     id="g119"
     inkscape:label="open_layer_3">
    <g
       id="g117"
       transform="rotate(180,82.151656,82.151814)">
      <path
         id="path107"
         style="fill:none;stroke:#000000;stroke-width:0.25;stroke-miterlimit:4;stroke-dasharray:none"
         d="m 81.197312,7.062 0.218,0.326 0.192,0.343 0.164,0.356 0.136,0.368 0.106,0.378 0.077,0.385 0.046,0.39 0.016,0.393 v 67.151 l -0.016,0.392 -0.046,0.39 -0.077,0.385 -0.106,0.378 -0.136,0.368 -0.164,0.356 -0.192,0.343 -0.218,0.326 -0.243,0.309 -0.267,0.288 -0.288,0.267 -0.309,0.243 -0.326,0.218 -0.343,0.192 -0.356,0.164 -0.368,0.136 -0.378,0.106 -0.385,0.077 -0.39,0.046 -0.393,0.016 h -67.15 l -0.3930003,-0.016 -0.39,-0.046 -0.385,-0.077 -0.378,-0.106 -0.368,-0.136 -0.356,-0.164 -0.343,-0.192 -0.326,-0.218 -0.309,-0.243 -0.288,-0.267 -0.267,-0.288 -0.243,-0.309 -0.218,-0.326 -0.192,-0.343 -0.164,-0.356 -0.136,-0.368 -0.106,-0.378 -0.077,-0.385 -0.046,-0.39 -0.016,-0.393 10e-4,-67.15 0.015,-0.393 0.046,-0.39 0.077,-0.385 0.106,-0.378 0.136,-0.368 0.164,-0.356 0.192,-0.343 0.218,-0.326 0.243,-0.309 0.267,-0.288 0.288,-0.267 0.309,-0.243 0.326,-0.218 0.343,-0.192 0.356,-0.164 0.368,-0.136 0.378,-0.106 0.385,-0.077 0.39,-0.046 L 10.001312,5 h 26.575 v 8.000646 H 13 v 62.151 h 61.152 v -62.151 H 50.576312 V 5.001 h 26.576 l 0.392,0.015 0.39,0.046 0.385,0.077 0.378,0.106 0.368,0.136 0.356,0.164 0.343,0.192 0.326,0.218 0.309,0.243 0.288,0.267 0.267,0.288 z"
         sodipodi:nodetypes="ccccccccccccccccccccccccccccccccccccccccccccccccccccccccccccccccccccccccccccccccccccccccccccc" />
      <circle
         cy="10.001012"
         cx="10.001012"
         id="circle109"
         style="fill:none;stroke:#000000;stroke-width:0.25;stroke-miterlimit:4;stroke-dasharray:none"
         r="1.75" />
      <circle
         style="fill:none;stroke:#000000;stroke-width:0.25;stroke-miterlimit:4;stroke-dasharray:none"
         id="circle111"
         cx="10.001012"
         cy="77.152016"
         r="1.75" />
      <circle
         cy="77.152016"
         cx="77.152016"
         id="circle113"
         style="fill:none;stroke:#000000;stroke-width:0.25;stroke-miterlimit:4;stroke-dasharray:none"
         r="1.75" />
      <circle
         style="fill:none;stroke:#000000;stroke-width:0.25;stroke-miterlimit:4;stroke-dasharray:none"
         id="circle115"
         cx="77.152016"
         cy="10.001012"
         r="1.75" />
    </g>
  </g>
  <g
     inkscape:groupmode="layer"
     id="g135"
     inkscape:label="closed_layer_2">
    <g
       id="g133"
       transform="translate(3.7877529e-8,77.152)">
      <path
         d="m 77.152,5.001 0.392,0.015 0.39,0.046 0.385,0.077 0.378,0.106 0.368,0.136 0.356,0.164 0.343,0.192 0.326,0.218 0.309,0.243 0.288,0.267 0.267,0.288 0.243,0.309 0.218,0.326 0.192,0.343 0.164,0.356 0.136,0.368 0.106,0.378 0.077,0.385 0.046,0.39 0.016,0.393 v 67.151 l -0.016,0.392 -0.046,0.39 -0.077,0.385 -0.106,0.378 -0.136,0.368 -0.164,0.356 -0.192,0.343 -0.218,0.326 -0.243,0.309 -0.267,0.288 -0.288,0.267 -0.309,0.243 -0.326,0.218 -0.343,0.192 -0.356,0.164 -0.368,0.136 -0.378,0.106 -0.385,0.077 -0.39,0.046 -0.393,0.016 H 10.001 L 9.608,82.136 9.218,82.09 8.833,82.013 8.455,81.907 8.087,81.771 7.731,81.607 7.388,81.415 7.062,81.197 6.753,80.954 6.465,80.687 6.198,80.399 5.955,80.09 5.737,79.764 5.545,79.421 5.381,79.065 5.245,78.697 5.139,78.319 5.062,77.934 5.016,77.544 5,77.151 5.001,10.001 5.016,9.608 5.062,9.218 5.139,8.833 5.245,8.455 5.381,8.087 5.545,7.731 5.737,7.388 5.955,7.062 6.198,6.753 6.465,6.465 6.753,6.198 7.062,5.955 7.388,5.737 7.731,5.545 8.087,5.381 8.455,5.245 8.833,5.139 9.218,5.062 9.608,5.016 10.001,5 Z"
         style="fill:none;stroke:#000000;stroke-width:0.25;stroke-miterlimit:4;stroke-dasharray:none"
         id="path121" />
      <path
         d="M 13,13 V 75.152 H 74.152 V 13 Z"
         style="fill:none;stroke:#000000;stroke-width:0.25;stroke-miterlimit:4;stroke-dasharray:none"
         id="path123"
         sodipodi:nodetypes="ccccc" />
      <circle
         cy="10.001012"
         cx="10.001012"
         id="circle125"
         style="fill:none;stroke:#000000;stroke-width:0.25;stroke-miterlimit:4;stroke-dasharray:none"
         r="1.75" />
      <circle
         style="fill:none;stroke:#000000;stroke-width:0.25;stroke-miterlimit:4;stroke-dasharray:none"
         id="circle127"
         cx="10.001012"
         cy="77.152016"
         r="1.75" />
      <circle
         cy="77.152016"
         cx="77.152016"
         id="circle129"
         style="fill:none;stroke:#000000;stroke-width:0.25;stroke-miterlimit:4;stroke-dasharray:none"
         r="1.75" />
      <circle
         style="fill:none;stroke:#000000;stroke-width:0.25;stroke-miterlimit:4;stroke-dasharray:none"
         id="circle131"
         cx="77.152016"
         cy="10.001012"
         r="1.75" />
    </g>
  </g>
  <g
     inkscape:label="switch_layer"
     id="layer5"
     inkscape:groupmode="layer">
    <g
       transform="translate(3.787753e-8,154.30409)"
       id="g178">
      <path
         d="m 77.152,5.001 0.392,0.015 0.39,0.046 0.385,0.077 0.378,0.106 0.368,0.136 0.356,0.164 0.343,0.192 0.326,0.218 0.309,0.243 0.288,0.267 0.267,0.288 0.243,0.309 0.218,0.326 0.192,0.343 0.164,0.356 0.136,0.368 0.106,0.378 0.077,0.385 0.046,0.39 0.016,0.393 v 67.151 l -0.016,0.392 -0.046,0.39 -0.077,0.385 -0.106,0.378 -0.136,0.368 -0.164,0.356 -0.192,0.343 -0.218,0.326 -0.243,0.309 -0.267,0.288 -0.288,0.267 -0.309,0.243 -0.326,0.218 -0.343,0.192 -0.356,0.164 -0.368,0.136 -0.378,0.106 -0.385,0.077 -0.39,0.046 -0.393,0.016 H 10.001 L 9.608,82.136 9.218,82.09 8.833,82.013 8.455,81.907 8.087,81.771 7.731,81.607 7.388,81.415 7.062,81.197 6.753,80.954 6.465,80.687 6.198,80.399 5.955,80.09 5.737,79.764 5.545,79.421 5.381,79.065 5.245,78.697 5.139,78.319 5.062,77.934 5.016,77.544 5,77.151 5.001,10.001 5.016,9.608 5.062,9.218 5.139,8.833 5.245,8.455 5.381,8.087 5.545,7.731 5.737,7.388 5.955,7.062 6.198,6.753 6.465,6.465 6.753,6.198 7.062,5.955 7.388,5.737 7.731,5.545 8.087,5.381 8.455,5.245 8.833,5.139 9.218,5.062 9.608,5.016 10.001,5 Z"
         style="fill:none;stroke:#000000;stroke-width:0.25;stroke-miterlimit:4;stroke-dasharray:none"
         id="polygon2-1" />
      <circle
         cy="10.001012"
         cx="10.001012"
         id="path861-8"
         style="fill:none;stroke:#000000;stroke-width:0.25;stroke-miterlimit:4;stroke-dasharray:none"
         r="1.75" />
      <circle
         style="fill:none;stroke:#000000;stroke-width:0.25;stroke-miterlimit:4;stroke-dasharray:none"
         id="circle863-6"
         cx="10.001012"
         cy="77.152016"
         r="1.75" />
      <circle
         cy="77.152016"
         cx="77.152016"
         id="circle865-0"
         style="fill:none;stroke:#000000;stroke-width:0.25;stroke-miterlimit:4;stroke-dasharray:none"
         r="1.75" />
      <circle
         style="fill:none;stroke:#000000;stroke-width:0.25;stroke-miterlimit:4;stroke-dasharray:none"
         id="circle867-2"
         cx="77.152016"
         cy="10.001012"
         r="1.75" />
      <g
         inkscape:label="switches"
         id="layer2-5">
        <path
           d="m 55.626,69.626 h 14 v -14 h -14 z"
           style="fill:none;stroke:#000000;stroke-width:0.25;stroke-miterlimit:4;stroke-dasharray:none"
           id="polygon23"
           sodipodi:nodetypes="ccccc" />
        <path
           d="m 36.576,69.626 h 14 v -14 h -14 z"
           style="fill:none;stroke:#000000;stroke-width:0.25;stroke-miterlimit:4;stroke-dasharray:none"
           id="polygon25"
           sodipodi:nodetypes="ccccc" />
        <path
           d="m 31.526,55.626 h -14 l 0,14 h 14 z"
           style="fill:none;stroke:#000000;stroke-width:0.25;stroke-miterlimit:4;stroke-dasharray:none"
           id="polygon27"
           sodipodi:nodetypes="ccccc" />
        <path
           d="m 55.626,50.576 h 14 v -14 h -14 z"
           style="fill:none;stroke:#000000;stroke-width:0.25;stroke-miterlimit:4;stroke-dasharray:none"
           id="polygon29"
           sodipodi:nodetypes="ccccc" />
        <path
           d="m 36.576,50.576 h 14 v -14 h -14 z"
           style="fill:none;stroke:#000000;stroke-width:0.25;stroke-miterlimit:4;stroke-dasharray:none"
           id="polygon31"
           sodipodi:nodetypes="ccccc" />
        <path
           d="m 17.526,50.576 h 14 l 0,-14 h -14 z"
           style="fill:none;stroke:#000000;stroke-width:0.25;stroke-miterlimit:4;stroke-dasharray:none"
           id="polygon33"
           sodipodi:nodetypes="ccccc" />
        <path
           d="m 55.626,31.526 h 14 v -14 h -14 z"
           style="fill:none;stroke:#000000;stroke-width:0.25;stroke-miterlimit:4;stroke-dasharray:none"
           id="polygon35"
           sodipodi:nodetypes="ccccc" />
        <path
           d="m 36.576,31.526 h 14 v -14 h -14 z"
           style="fill:none;stroke:#000000;stroke-width:0.25;stroke-miterlimit:4;stroke-dasharray:none"
           id="polygon37"
           sodipodi:nodetypes="ccccc" />
        <path
           d="m 17.526,31.526 h 14 l 0,-14 h -14 z"
           style="fill:none;stroke:#000000;stroke-width:0.25;stroke-miterlimit:4;stroke-dasharray:none"
           id="polygon39"
           sodipodi:nodetypes="ccccc" />
      </g>
    </g>
  </g>
  <g
     inkscape:label="top_layer_spacers"
     id="layer6">
    <g
       transform="translate(77.151,154.304)"
       id="g200">
      <path
         id="polygon2-0"
         style="fill:none;stroke:#000000;stroke-width:0.25;stroke-miterlimit:4;stroke-dasharray:none"
         d="m 77.152,5.001 0.392,0.015 0.39,0.046 0.385,0.077 0.378,0.106 0.368,0.136 0.356,0.164 0.343,0.192 0.326,0.218 0.309,0.243 0.288,0.267 0.267,0.288 0.243,0.309 0.218,0.326 0.192,0.343 0.164,0.356 0.136,0.368 0.106,0.378 0.077,0.385 0.046,0.39 0.016,0.393 v 67.151 l -0.016,0.392 -0.046,0.39 -0.077,0.385 -0.106,0.378 -0.136,0.368 -0.164,0.356 -0.192,0.343 -0.218,0.326 -0.243,0.309 -0.267,0.288 -0.288,0.267 -0.309,0.243 -0.326,0.218 -0.343,0.192 -0.356,0.164 -0.368,0.136 -0.378,0.106 -0.385,0.077 -0.39,0.046 -0.393,0.016 H 10.001 L 9.608,82.136 9.218,82.09 8.833,82.013 8.455,81.907 8.087,81.771 7.731,81.607 7.388,81.415 7.062,81.197 6.753,80.954 6.465,80.687 6.198,80.399 5.955,80.09 5.737,79.764 5.545,79.421 5.381,79.065 5.245,78.697 5.139,78.319 5.062,77.934 5.016,77.544 5,77.151 5.001,10.001 5.016,9.608 5.062,9.218 5.139,8.833 5.245,8.455 5.381,8.087 5.545,7.731 5.737,7.388 5.955,7.062 6.198,6.753 6.465,6.465 6.753,6.198 7.062,5.955 7.388,5.737 7.731,5.545 8.087,5.381 8.455,5.245 8.833,5.139 9.218,5.062 9.608,5.016 10.001,5 Z" />
      <path
         id="polygon8-9"
         style="fill:none;stroke:#000000;stroke-width:0.25;stroke-miterlimit:4;stroke-dasharray:none"
         d="M 14.999,14.999 V 72.152 H 72.152 V 14.999 Z" />
      <circle
         style="fill:none;stroke:#000000;stroke-width:0.25;stroke-miterlimit:4;stroke-dasharray:none"
         id="path861-24"
         cx="10.001012"
         cy="10.001012"
         r="1.75" />
      <circle
         cy="77.152016"
         cx="10.001012"
         id="circle863-7"
         style="fill:none;stroke:#000000;stroke-width:0.25;stroke-miterlimit:4;stroke-dasharray:none"
         r="1.75" />
      <circle
         style="fill:none;stroke:#000000;stroke-width:0.25;stroke-miterlimit:4;stroke-dasharray:none"
         id="circle865-3"
         cx="77.152016"
         cy="77.152016"
         r="1.75" />
      <circle
         cy="10.001012"
         cx="77.152016"
         id="circle867-3"
         style="fill:none;stroke:#000000;stroke-width:0.25;stroke-miterlimit:4;stroke-dasharray:none"
         r="1.75" />
    </g>
  </g>
  <g
     inkscape:label="top_layer_screws"
     id="layer7"
     inkscape:groupmode="layer">
    <g
       transform="translate(154.301,154.304)"
       id="g229">
      <path
         d="m 77.152,5.001 0.392,0.015 0.39,0.046 0.385,0.077 0.378,0.106 0.368,0.136 0.356,0.164 0.343,0.192 0.326,0.218 0.309,0.243 0.288,0.267 0.267,0.288 0.243,0.309 0.218,0.326 0.192,0.343 0.164,0.356 0.136,0.368 0.106,0.378 0.077,0.385 0.046,0.39 0.016,0.393 v 67.151 l -0.016,0.392 -0.046,0.39 -0.077,0.385 -0.106,0.378 -0.136,0.368 -0.164,0.356 -0.192,0.343 -0.218,0.326 -0.243,0.309 -0.267,0.288 -0.288,0.267 -0.309,0.243 -0.326,0.218 -0.343,0.192 -0.356,0.164 -0.368,0.136 -0.378,0.106 -0.385,0.077 -0.39,0.046 -0.393,0.016 H 10.001 L 9.608,82.136 9.218,82.09 8.833,82.013 8.455,81.907 8.087,81.771 7.731,81.607 7.388,81.415 7.062,81.197 6.753,80.954 6.465,80.687 6.198,80.399 5.955,80.09 5.737,79.764 5.545,79.421 5.381,79.065 5.245,78.697 5.139,78.319 5.062,77.934 5.016,77.544 5,77.151 5.001,10.001 5.016,9.608 5.062,9.218 5.139,8.833 5.245,8.455 5.381,8.087 5.545,7.731 5.737,7.388 5.955,7.062 6.198,6.753 6.465,6.465 6.753,6.198 7.062,5.955 7.388,5.737 7.731,5.545 8.087,5.381 8.455,5.245 8.833,5.139 9.218,5.062 9.608,5.016 10.001,5 Z"
         style="fill:none;stroke:#000000;stroke-width:0.25;stroke-miterlimit:4;stroke-dasharray:none"
         id="polygon2-19" />
      <path
         d="M 14.999,14.999 V 72.152 H 72.152 V 14.999 Z"
         style="fill:none;stroke:#000000;stroke-width:0.25;stroke-miterlimit:4;stroke-dasharray:none"
         id="polygon8-8" />
      <circle
         r="0.94999999"
         cy="10.001012"
         cx="10.001012"
         id="path861-25"
         style="fill:none;stroke:#000000;stroke-width:0.25;stroke-miterlimit:4;stroke-dasharray:none" />
      <circle
         style="fill:none;stroke:#000000;stroke-width:0.25;stroke-miterlimit:4;stroke-dasharray:none"
         id="circle863-5"
         cx="10.001012"
         cy="77.152016"
         r="0.94999999" />
      <circle
         r="0.94999999"
         cy="77.152016"
         cx="77.152016"
         id="circle865-8"
         style="fill:none;stroke:#000000;stroke-width:0.25;stroke-miterlimit:4;stroke-dasharray:none" />
      <circle
         style="fill:none;stroke:#000000;stroke-width:0.25;stroke-miterlimit:4;stroke-dasharray:none"
         id="circle867-8"
         cx="77.152016"
         cy="10.001012"
         r="0.94999999" />
    </g>
  </g>
</svg>
